G04 EAGLE Gerber RS-274X export*
G75*
%MOMM*%
%FSLAX34Y34*%
%LPD*%
%IN*%
%IPPOS*%
%AMOC8*
5,1,8,0,0,1.08239X$1,22.5*%
G01*
%ADD10C,0.254000*%


D10*
X10000Y90800D02*
X10193Y86373D01*
X10772Y81979D01*
X11731Y77652D01*
X13064Y73425D01*
X14760Y69331D01*
X16806Y65400D01*
X19187Y61662D01*
X21885Y58146D01*
X24879Y54879D01*
X28146Y51885D01*
X31662Y49187D01*
X35400Y46806D01*
X39331Y44760D01*
X43425Y43064D01*
X47652Y41731D01*
X51979Y40772D01*
X56373Y40193D01*
X60800Y40000D01*
X619200Y40000D01*
X623628Y40193D01*
X628021Y40772D01*
X632348Y41731D01*
X636575Y43064D01*
X640669Y44760D01*
X644600Y46806D01*
X648338Y49187D01*
X651854Y51885D01*
X655121Y54879D01*
X658115Y58146D01*
X660813Y61662D01*
X663194Y65400D01*
X665240Y69331D01*
X666936Y73425D01*
X668269Y77652D01*
X669228Y81979D01*
X669807Y86373D01*
X670000Y90800D01*
X670000Y1003300D01*
X669939Y1007872D01*
X669479Y1012421D01*
X668625Y1016912D01*
X667383Y1021312D01*
X665762Y1025587D01*
X663774Y1029705D01*
X661435Y1033633D01*
X658763Y1037343D01*
X655778Y1040806D01*
X652502Y1043995D01*
X648960Y1046887D01*
X645180Y1049459D01*
X641190Y1051692D01*
X637021Y1053569D01*
X632704Y1055075D01*
X628272Y1056199D01*
X623760Y1056933D01*
X619200Y1057270D01*
X262730Y1057270D01*
X261623Y1057318D01*
X260525Y1057463D01*
X259443Y1057703D01*
X258386Y1058036D01*
X257363Y1058460D01*
X256380Y1058971D01*
X255446Y1059567D01*
X254567Y1060241D01*
X253750Y1060990D01*
X253001Y1061807D01*
X252327Y1062686D01*
X251731Y1063620D01*
X251220Y1064603D01*
X250796Y1065626D01*
X250463Y1066683D01*
X250223Y1067765D01*
X250078Y1068863D01*
X250030Y1069970D01*
X250030Y1143630D01*
X249982Y1144737D01*
X249837Y1145835D01*
X249597Y1146917D01*
X249264Y1147974D01*
X248840Y1148997D01*
X248329Y1149980D01*
X247733Y1150914D01*
X247059Y1151793D01*
X246310Y1152610D01*
X245493Y1153359D01*
X244614Y1154033D01*
X243680Y1154629D01*
X242697Y1155140D01*
X241674Y1155564D01*
X240617Y1155897D01*
X239535Y1156137D01*
X238437Y1156282D01*
X237330Y1156330D01*
X79850Y1156330D01*
X78743Y1156282D01*
X77645Y1156137D01*
X76563Y1155897D01*
X75506Y1155564D01*
X74483Y1155140D01*
X73500Y1154629D01*
X72566Y1154033D01*
X71687Y1153359D01*
X70870Y1152610D01*
X70121Y1151793D01*
X69447Y1150914D01*
X68851Y1149980D01*
X68340Y1148997D01*
X67916Y1147974D01*
X67583Y1146917D01*
X67343Y1145835D01*
X67198Y1144737D01*
X67150Y1143630D01*
X67150Y1060460D01*
X67126Y1059907D01*
X67054Y1059357D01*
X66934Y1058817D01*
X66767Y1058288D01*
X66555Y1057776D01*
X66299Y1057285D01*
X66002Y1056818D01*
X65664Y1056378D01*
X65290Y1055970D01*
X64882Y1055596D01*
X64442Y1055258D01*
X63975Y1054961D01*
X63484Y1054705D01*
X62972Y1054493D01*
X62444Y1054326D01*
X61903Y1054206D01*
X61353Y1054134D01*
X60800Y1054110D01*
X56373Y1053917D01*
X51979Y1053338D01*
X47652Y1052379D01*
X43425Y1051046D01*
X39331Y1049350D01*
X35400Y1047304D01*
X31662Y1044923D01*
X28146Y1042225D01*
X24879Y1039231D01*
X21885Y1035964D01*
X19187Y1032448D01*
X16806Y1028710D01*
X14760Y1024779D01*
X13064Y1020685D01*
X11731Y1016458D01*
X10772Y1012131D01*
X10193Y1007738D01*
X10000Y1003310D01*
X10000Y90800D01*
X64670Y113080D02*
X75670Y113080D01*
X75931Y113091D01*
X76191Y113126D01*
X76446Y113182D01*
X76696Y113261D01*
X76938Y113361D01*
X77170Y113482D01*
X77391Y113623D01*
X77598Y113782D01*
X77791Y113959D01*
X77968Y114152D01*
X78127Y114359D01*
X78268Y114580D01*
X78389Y114812D01*
X78489Y115054D01*
X78568Y115304D01*
X78624Y115559D01*
X78659Y115819D01*
X78670Y116080D01*
X78659Y116341D01*
X78624Y116601D01*
X78568Y116856D01*
X78489Y117106D01*
X78389Y117348D01*
X78268Y117580D01*
X78127Y117801D01*
X77968Y118008D01*
X77791Y118201D01*
X77598Y118378D01*
X77391Y118537D01*
X77170Y118678D01*
X76938Y118799D01*
X76696Y118899D01*
X76446Y118978D01*
X76191Y119034D01*
X75931Y119069D01*
X75670Y119080D01*
X64670Y119080D01*
X64409Y119069D01*
X64149Y119034D01*
X63894Y118978D01*
X63644Y118899D01*
X63402Y118799D01*
X63170Y118678D01*
X62949Y118537D01*
X62742Y118378D01*
X62549Y118201D01*
X62372Y118008D01*
X62213Y117801D01*
X62072Y117580D01*
X61951Y117348D01*
X61851Y117106D01*
X61772Y116856D01*
X61716Y116601D01*
X61681Y116341D01*
X61670Y116080D01*
X61681Y115819D01*
X61716Y115559D01*
X61772Y115304D01*
X61851Y115054D01*
X61951Y114812D01*
X62072Y114580D01*
X62213Y114359D01*
X62372Y114152D01*
X62549Y113959D01*
X62742Y113782D01*
X62949Y113623D01*
X63170Y113482D01*
X63402Y113361D01*
X63644Y113261D01*
X63894Y113182D01*
X64149Y113126D01*
X64409Y113091D01*
X64670Y113080D01*
X25320Y113080D02*
X31520Y113080D01*
X31781Y113091D01*
X32041Y113126D01*
X32296Y113182D01*
X32546Y113261D01*
X32788Y113361D01*
X33020Y113482D01*
X33241Y113623D01*
X33448Y113782D01*
X33641Y113959D01*
X33818Y114152D01*
X33977Y114359D01*
X34118Y114580D01*
X34239Y114812D01*
X34339Y115054D01*
X34418Y115304D01*
X34474Y115559D01*
X34509Y115819D01*
X34520Y116080D01*
X34509Y116341D01*
X34474Y116601D01*
X34418Y116856D01*
X34339Y117106D01*
X34239Y117348D01*
X34118Y117580D01*
X33977Y117801D01*
X33818Y118008D01*
X33641Y118201D01*
X33448Y118378D01*
X33241Y118537D01*
X33020Y118678D01*
X32788Y118799D01*
X32546Y118899D01*
X32296Y118978D01*
X32041Y119034D01*
X31781Y119069D01*
X31520Y119080D01*
X25320Y119080D01*
X25059Y119069D01*
X24799Y119034D01*
X24544Y118978D01*
X24294Y118899D01*
X24052Y118799D01*
X23820Y118678D01*
X23599Y118537D01*
X23392Y118378D01*
X23199Y118201D01*
X23022Y118008D01*
X22863Y117801D01*
X22722Y117580D01*
X22601Y117348D01*
X22501Y117106D01*
X22422Y116856D01*
X22366Y116601D01*
X22331Y116341D01*
X22320Y116080D01*
X22331Y115819D01*
X22366Y115559D01*
X22422Y115304D01*
X22501Y115054D01*
X22601Y114812D01*
X22722Y114580D01*
X22863Y114359D01*
X23022Y114152D01*
X23199Y113959D01*
X23392Y113782D01*
X23599Y113623D01*
X23820Y113482D01*
X24052Y113361D01*
X24294Y113261D01*
X24544Y113182D01*
X24799Y113126D01*
X25059Y113091D01*
X25320Y113080D01*
X64670Y199480D02*
X75670Y199480D01*
X75931Y199491D01*
X76191Y199526D01*
X76446Y199582D01*
X76696Y199661D01*
X76938Y199761D01*
X77170Y199882D01*
X77391Y200023D01*
X77598Y200182D01*
X77791Y200359D01*
X77968Y200552D01*
X78127Y200759D01*
X78268Y200980D01*
X78389Y201212D01*
X78489Y201454D01*
X78568Y201704D01*
X78624Y201959D01*
X78659Y202219D01*
X78670Y202480D01*
X78659Y202741D01*
X78624Y203001D01*
X78568Y203256D01*
X78489Y203506D01*
X78389Y203748D01*
X78268Y203980D01*
X78127Y204201D01*
X77968Y204408D01*
X77791Y204601D01*
X77598Y204778D01*
X77391Y204937D01*
X77170Y205078D01*
X76938Y205199D01*
X76696Y205299D01*
X76446Y205378D01*
X76191Y205434D01*
X75931Y205469D01*
X75670Y205480D01*
X64670Y205480D01*
X64409Y205469D01*
X64149Y205434D01*
X63894Y205378D01*
X63644Y205299D01*
X63402Y205199D01*
X63170Y205078D01*
X62949Y204937D01*
X62742Y204778D01*
X62549Y204601D01*
X62372Y204408D01*
X62213Y204201D01*
X62072Y203980D01*
X61951Y203748D01*
X61851Y203506D01*
X61772Y203256D01*
X61716Y203001D01*
X61681Y202741D01*
X61670Y202480D01*
X61681Y202219D01*
X61716Y201959D01*
X61772Y201704D01*
X61851Y201454D01*
X61951Y201212D01*
X62072Y200980D01*
X62213Y200759D01*
X62372Y200552D01*
X62549Y200359D01*
X62742Y200182D01*
X62949Y200023D01*
X63170Y199882D01*
X63402Y199761D01*
X63644Y199661D01*
X63894Y199582D01*
X64149Y199526D01*
X64409Y199491D01*
X64670Y199480D01*
X25320Y199480D02*
X31520Y199480D01*
X31781Y199491D01*
X32041Y199526D01*
X32296Y199582D01*
X32546Y199661D01*
X32788Y199761D01*
X33020Y199882D01*
X33241Y200023D01*
X33448Y200182D01*
X33641Y200359D01*
X33818Y200552D01*
X33977Y200759D01*
X34118Y200980D01*
X34239Y201212D01*
X34339Y201454D01*
X34418Y201704D01*
X34474Y201959D01*
X34509Y202219D01*
X34520Y202480D01*
X34509Y202741D01*
X34474Y203001D01*
X34418Y203256D01*
X34339Y203506D01*
X34239Y203748D01*
X34118Y203980D01*
X33977Y204201D01*
X33818Y204408D01*
X33641Y204601D01*
X33448Y204778D01*
X33241Y204937D01*
X33020Y205078D01*
X32788Y205199D01*
X32546Y205299D01*
X32296Y205378D01*
X32041Y205434D01*
X31781Y205469D01*
X31520Y205480D01*
X25320Y205480D01*
X25059Y205469D01*
X24799Y205434D01*
X24544Y205378D01*
X24294Y205299D01*
X24052Y205199D01*
X23820Y205078D01*
X23599Y204937D01*
X23392Y204778D01*
X23199Y204601D01*
X23022Y204408D01*
X22863Y204201D01*
X22722Y203980D01*
X22601Y203748D01*
X22501Y203506D01*
X22422Y203256D01*
X22366Y203001D01*
X22331Y202741D01*
X22320Y202480D01*
X22331Y202219D01*
X22366Y201959D01*
X22422Y201704D01*
X22501Y201454D01*
X22601Y201212D01*
X22722Y200980D01*
X22863Y200759D01*
X23022Y200552D01*
X23199Y200359D01*
X23392Y200182D01*
X23599Y200023D01*
X23820Y199882D01*
X24052Y199761D01*
X24294Y199661D01*
X24544Y199582D01*
X24799Y199526D01*
X25059Y199491D01*
X25320Y199480D01*
X64657Y184930D02*
X64235Y184986D01*
X63823Y185096D01*
X63429Y185259D01*
X63061Y185472D01*
X62723Y185731D01*
X62421Y186033D01*
X62162Y186371D01*
X61949Y186739D01*
X61786Y187133D01*
X61676Y187545D01*
X61620Y187967D01*
X61620Y188393D01*
X61676Y188815D01*
X61786Y189227D01*
X61949Y189621D01*
X62162Y189989D01*
X62421Y190327D01*
X62723Y190629D01*
X63061Y190888D01*
X63429Y191101D01*
X63823Y191264D01*
X64235Y191374D01*
X64657Y191430D01*
X65083Y191430D01*
X65505Y191374D01*
X65917Y191264D01*
X66311Y191101D01*
X66679Y190888D01*
X67017Y190629D01*
X67319Y190327D01*
X67578Y189989D01*
X67791Y189621D01*
X67954Y189227D01*
X68064Y188815D01*
X68120Y188393D01*
X68120Y187967D01*
X68064Y187545D01*
X67954Y187133D01*
X67791Y186739D01*
X67578Y186371D01*
X67319Y186033D01*
X67017Y185731D01*
X66679Y185472D01*
X66311Y185259D01*
X65917Y185096D01*
X65505Y184986D01*
X65083Y184930D01*
X64657Y184930D01*
X64657Y127130D02*
X64235Y127186D01*
X63823Y127296D01*
X63429Y127459D01*
X63061Y127672D01*
X62723Y127931D01*
X62421Y128233D01*
X62162Y128571D01*
X61949Y128939D01*
X61786Y129333D01*
X61676Y129745D01*
X61620Y130167D01*
X61620Y130593D01*
X61676Y131015D01*
X61786Y131427D01*
X61949Y131821D01*
X62162Y132189D01*
X62421Y132527D01*
X62723Y132829D01*
X63061Y133088D01*
X63429Y133301D01*
X63823Y133464D01*
X64235Y133574D01*
X64657Y133630D01*
X65083Y133630D01*
X65505Y133574D01*
X65917Y133464D01*
X66311Y133301D01*
X66679Y133088D01*
X67017Y132829D01*
X67319Y132527D01*
X67578Y132189D01*
X67791Y131821D01*
X67954Y131427D01*
X68064Y131015D01*
X68120Y130593D01*
X68120Y130167D01*
X68064Y129745D01*
X67954Y129333D01*
X67791Y128939D01*
X67578Y128571D01*
X67319Y128233D01*
X67017Y127931D01*
X66679Y127672D01*
X66311Y127459D01*
X65917Y127296D01*
X65505Y127186D01*
X65083Y127130D01*
X64657Y127130D01*
X615470Y803691D02*
X615549Y804690D01*
X615705Y805679D01*
X615939Y806654D01*
X616249Y807606D01*
X616632Y808532D01*
X617087Y809425D01*
X617611Y810279D01*
X618199Y811090D01*
X618850Y811851D01*
X619559Y812560D01*
X620320Y813211D01*
X621131Y813799D01*
X621985Y814323D01*
X622878Y814778D01*
X623804Y815161D01*
X624756Y815471D01*
X625731Y815705D01*
X626720Y815861D01*
X627719Y815940D01*
X628721Y815940D01*
X629720Y815861D01*
X630709Y815705D01*
X631684Y815471D01*
X632636Y815161D01*
X633562Y814778D01*
X634455Y814323D01*
X635309Y813799D01*
X636120Y813211D01*
X636881Y812560D01*
X637590Y811851D01*
X638241Y811090D01*
X638829Y810279D01*
X639353Y809425D01*
X639808Y808532D01*
X640191Y807606D01*
X640501Y806654D01*
X640735Y805679D01*
X640891Y804690D01*
X640970Y803691D01*
X640970Y802689D01*
X640891Y801690D01*
X640735Y800701D01*
X640501Y799726D01*
X640191Y798774D01*
X639808Y797848D01*
X639353Y796955D01*
X638829Y796101D01*
X638241Y795290D01*
X637590Y794529D01*
X636881Y793820D01*
X636120Y793169D01*
X635309Y792581D01*
X634455Y792057D01*
X633562Y791602D01*
X632636Y791219D01*
X631684Y790909D01*
X630709Y790675D01*
X629720Y790519D01*
X628721Y790440D01*
X627719Y790440D01*
X626720Y790519D01*
X625731Y790675D01*
X624756Y790909D01*
X623804Y791219D01*
X622878Y791602D01*
X621985Y792057D01*
X621131Y792581D01*
X620320Y793169D01*
X619559Y793820D01*
X618850Y794529D01*
X618199Y795290D01*
X617611Y796101D01*
X617087Y796955D01*
X616632Y797848D01*
X616249Y798774D01*
X615939Y799726D01*
X615705Y800701D01*
X615549Y801690D01*
X615470Y802689D01*
X615470Y803691D01*
X615470Y473691D02*
X615549Y474690D01*
X615705Y475679D01*
X615939Y476654D01*
X616249Y477606D01*
X616632Y478532D01*
X617087Y479425D01*
X617611Y480279D01*
X618199Y481090D01*
X618850Y481851D01*
X619559Y482560D01*
X620320Y483211D01*
X621131Y483799D01*
X621985Y484323D01*
X622878Y484778D01*
X623804Y485161D01*
X624756Y485471D01*
X625731Y485705D01*
X626720Y485861D01*
X627719Y485940D01*
X628721Y485940D01*
X629720Y485861D01*
X630709Y485705D01*
X631684Y485471D01*
X632636Y485161D01*
X633562Y484778D01*
X634455Y484323D01*
X635309Y483799D01*
X636120Y483211D01*
X636881Y482560D01*
X637590Y481851D01*
X638241Y481090D01*
X638829Y480279D01*
X639353Y479425D01*
X639808Y478532D01*
X640191Y477606D01*
X640501Y476654D01*
X640735Y475679D01*
X640891Y474690D01*
X640970Y473691D01*
X640970Y472689D01*
X640891Y471690D01*
X640735Y470701D01*
X640501Y469726D01*
X640191Y468774D01*
X639808Y467848D01*
X639353Y466955D01*
X638829Y466101D01*
X638241Y465290D01*
X637590Y464529D01*
X636881Y463820D01*
X636120Y463169D01*
X635309Y462581D01*
X634455Y462057D01*
X633562Y461602D01*
X632636Y461219D01*
X631684Y460909D01*
X630709Y460675D01*
X629720Y460519D01*
X628721Y460440D01*
X627719Y460440D01*
X626720Y460519D01*
X625731Y460675D01*
X624756Y460909D01*
X623804Y461219D01*
X622878Y461602D01*
X621985Y462057D01*
X621131Y462581D01*
X620320Y463169D01*
X619559Y463820D01*
X618850Y464529D01*
X618199Y465290D01*
X617611Y466101D01*
X617087Y466955D01*
X616632Y467848D01*
X616249Y468774D01*
X615939Y469726D01*
X615705Y470701D01*
X615549Y471690D01*
X615470Y472689D01*
X615470Y473691D01*
X135470Y473691D02*
X135549Y474690D01*
X135705Y475679D01*
X135939Y476654D01*
X136249Y477606D01*
X136632Y478532D01*
X137087Y479425D01*
X137611Y480279D01*
X138199Y481090D01*
X138850Y481851D01*
X139559Y482560D01*
X140320Y483211D01*
X141131Y483799D01*
X141985Y484323D01*
X142878Y484778D01*
X143804Y485161D01*
X144756Y485471D01*
X145731Y485705D01*
X146720Y485861D01*
X147719Y485940D01*
X148721Y485940D01*
X149720Y485861D01*
X150709Y485705D01*
X151684Y485471D01*
X152636Y485161D01*
X153562Y484778D01*
X154455Y484323D01*
X155309Y483799D01*
X156120Y483211D01*
X156881Y482560D01*
X157590Y481851D01*
X158241Y481090D01*
X158829Y480279D01*
X159353Y479425D01*
X159808Y478532D01*
X160191Y477606D01*
X160501Y476654D01*
X160735Y475679D01*
X160891Y474690D01*
X160970Y473691D01*
X160970Y472689D01*
X160891Y471690D01*
X160735Y470701D01*
X160501Y469726D01*
X160191Y468774D01*
X159808Y467848D01*
X159353Y466955D01*
X158829Y466101D01*
X158241Y465290D01*
X157590Y464529D01*
X156881Y463820D01*
X156120Y463169D01*
X155309Y462581D01*
X154455Y462057D01*
X153562Y461602D01*
X152636Y461219D01*
X151684Y460909D01*
X150709Y460675D01*
X149720Y460519D01*
X148721Y460440D01*
X147719Y460440D01*
X146720Y460519D01*
X145731Y460675D01*
X144756Y460909D01*
X143804Y461219D01*
X142878Y461602D01*
X141985Y462057D01*
X141131Y462581D01*
X140320Y463169D01*
X139559Y463820D01*
X138850Y464529D01*
X138199Y465290D01*
X137611Y466101D01*
X137087Y466955D01*
X136632Y467848D01*
X136249Y468774D01*
X135939Y469726D01*
X135705Y470701D01*
X135549Y471690D01*
X135470Y472689D01*
X135470Y473691D01*
X135470Y803691D02*
X135549Y804690D01*
X135705Y805679D01*
X135939Y806654D01*
X136249Y807606D01*
X136632Y808532D01*
X137087Y809425D01*
X137611Y810279D01*
X138199Y811090D01*
X138850Y811851D01*
X139559Y812560D01*
X140320Y813211D01*
X141131Y813799D01*
X141985Y814323D01*
X142878Y814778D01*
X143804Y815161D01*
X144756Y815471D01*
X145731Y815705D01*
X146720Y815861D01*
X147719Y815940D01*
X148721Y815940D01*
X149720Y815861D01*
X150709Y815705D01*
X151684Y815471D01*
X152636Y815161D01*
X153562Y814778D01*
X154455Y814323D01*
X155309Y813799D01*
X156120Y813211D01*
X156881Y812560D01*
X157590Y811851D01*
X158241Y811090D01*
X158829Y810279D01*
X159353Y809425D01*
X159808Y808532D01*
X160191Y807606D01*
X160501Y806654D01*
X160735Y805679D01*
X160891Y804690D01*
X160970Y803691D01*
X160970Y802689D01*
X160891Y801690D01*
X160735Y800701D01*
X160501Y799726D01*
X160191Y798774D01*
X159808Y797848D01*
X159353Y796955D01*
X158829Y796101D01*
X158241Y795290D01*
X157590Y794529D01*
X156881Y793820D01*
X156120Y793169D01*
X155309Y792581D01*
X154455Y792057D01*
X153562Y791602D01*
X152636Y791219D01*
X151684Y790909D01*
X150709Y790675D01*
X149720Y790519D01*
X148721Y790440D01*
X147719Y790440D01*
X146720Y790519D01*
X145731Y790675D01*
X144756Y790909D01*
X143804Y791219D01*
X142878Y791602D01*
X141985Y792057D01*
X141131Y792581D01*
X140320Y793169D01*
X139559Y793820D01*
X138850Y794529D01*
X138199Y795290D01*
X137611Y796101D01*
X137087Y796955D01*
X136632Y797848D01*
X136249Y798774D01*
X135939Y799726D01*
X135705Y800701D01*
X135549Y801690D01*
X135470Y802689D01*
X135470Y803691D01*
X542600Y63515D02*
X542677Y64100D01*
X542830Y64670D01*
X543055Y65215D01*
X543350Y65725D01*
X543709Y66193D01*
X544127Y66611D01*
X544595Y66970D01*
X545105Y67265D01*
X545650Y67490D01*
X546220Y67643D01*
X546805Y67720D01*
X547395Y67720D01*
X547980Y67643D01*
X548550Y67490D01*
X549095Y67265D01*
X549605Y66970D01*
X550073Y66611D01*
X550491Y66193D01*
X550850Y65725D01*
X551145Y65215D01*
X551370Y64670D01*
X551523Y64100D01*
X551600Y63515D01*
X551600Y62925D01*
X551523Y62340D01*
X551370Y61770D01*
X551145Y61225D01*
X550850Y60715D01*
X550491Y60247D01*
X550073Y59829D01*
X549605Y59470D01*
X549095Y59175D01*
X548550Y58950D01*
X547980Y58797D01*
X547395Y58720D01*
X546805Y58720D01*
X546220Y58797D01*
X545650Y58950D01*
X545105Y59175D01*
X544595Y59470D01*
X544127Y59829D01*
X543709Y60247D01*
X543350Y60715D01*
X543055Y61225D01*
X542830Y61770D01*
X542677Y62340D01*
X542600Y62925D01*
X542600Y63515D01*
X512600Y63515D02*
X512677Y64100D01*
X512830Y64670D01*
X513055Y65215D01*
X513350Y65725D01*
X513709Y66193D01*
X514127Y66611D01*
X514595Y66970D01*
X515105Y67265D01*
X515650Y67490D01*
X516220Y67643D01*
X516805Y67720D01*
X517395Y67720D01*
X517980Y67643D01*
X518550Y67490D01*
X519095Y67265D01*
X519605Y66970D01*
X520073Y66611D01*
X520491Y66193D01*
X520850Y65725D01*
X521145Y65215D01*
X521370Y64670D01*
X521523Y64100D01*
X521600Y63515D01*
X521600Y62925D01*
X521523Y62340D01*
X521370Y61770D01*
X521145Y61225D01*
X520850Y60715D01*
X520491Y60247D01*
X520073Y59829D01*
X519605Y59470D01*
X519095Y59175D01*
X518550Y58950D01*
X517980Y58797D01*
X517395Y58720D01*
X516805Y58720D01*
X516220Y58797D01*
X515650Y58950D01*
X515105Y59175D01*
X514595Y59470D01*
X514127Y59829D01*
X513709Y60247D01*
X513350Y60715D01*
X513055Y61225D01*
X512830Y61770D01*
X512677Y62340D01*
X512600Y62925D01*
X512600Y63515D01*
X38636Y947063D02*
X38703Y947401D01*
X38835Y947720D01*
X39027Y948007D01*
X39270Y948250D01*
X39557Y948442D01*
X39876Y948574D01*
X40214Y948641D01*
X40558Y948641D01*
X40896Y948574D01*
X41215Y948442D01*
X41502Y948250D01*
X41745Y948007D01*
X41937Y947720D01*
X42069Y947401D01*
X42136Y947063D01*
X42136Y946719D01*
X42069Y946381D01*
X41937Y946062D01*
X41745Y945775D01*
X41502Y945532D01*
X41215Y945340D01*
X40896Y945208D01*
X40558Y945141D01*
X40214Y945141D01*
X39876Y945208D01*
X39557Y945340D01*
X39270Y945532D01*
X39027Y945775D01*
X38835Y946062D01*
X38703Y946381D01*
X38636Y946719D01*
X38636Y947063D01*
M02*
