G04 EAGLE Gerber RS-274X export*
G75*
%MOMM*%
%FSLAX34Y34*%
%LPD*%
%INSilkscreen Bottom*%
%IPPOS*%
%AMOC8*
5,1,8,0,0,1.08239X$1,22.5*%
G01*
%ADD10C,0.152400*%
%ADD11C,0.025400*%
%ADD12R,0.035000X0.035000*%
%ADD13R,0.175000X0.035000*%
%ADD14R,0.385000X0.035000*%
%ADD15R,0.420000X0.035000*%
%ADD16R,0.455000X0.035000*%
%ADD17C,0.000000*%
%ADD18C,0.203200*%
%ADD19C,0.508000*%
%ADD20C,0.076200*%


D10*
X70000Y70000D02*
X610000Y70000D01*
D11*
X309873Y560127D02*
X308180Y560127D01*
X309873Y560127D02*
X309873Y563937D01*
X308180Y563937D01*
X308603Y562244D02*
X309873Y562244D01*
X306505Y563937D02*
X306505Y560127D01*
X306928Y560127D02*
X306081Y560127D01*
X306081Y563937D02*
X306928Y563937D01*
X304515Y563937D02*
X304515Y560127D01*
X302398Y560127D02*
X304515Y563937D01*
X302398Y563937D02*
X302398Y560127D01*
X300565Y560127D02*
X300565Y563937D01*
X298449Y563937D02*
X300565Y561609D01*
X299719Y562455D02*
X298449Y560127D01*
X54323Y909272D02*
X50513Y909272D01*
X54323Y909272D02*
X54323Y910331D01*
X54321Y910395D01*
X54315Y910459D01*
X54306Y910522D01*
X54292Y910584D01*
X54275Y910646D01*
X54254Y910706D01*
X54230Y910765D01*
X54202Y910823D01*
X54170Y910878D01*
X54136Y910932D01*
X54098Y910983D01*
X54057Y911033D01*
X54013Y911079D01*
X53967Y911123D01*
X53917Y911164D01*
X53866Y911202D01*
X53812Y911236D01*
X53757Y911268D01*
X53699Y911296D01*
X53640Y911320D01*
X53580Y911341D01*
X53518Y911358D01*
X53456Y911372D01*
X53393Y911381D01*
X53329Y911387D01*
X53265Y911389D01*
X53201Y911387D01*
X53137Y911381D01*
X53074Y911372D01*
X53012Y911358D01*
X52950Y911341D01*
X52890Y911320D01*
X52831Y911296D01*
X52773Y911268D01*
X52718Y911236D01*
X52664Y911202D01*
X52613Y911164D01*
X52563Y911123D01*
X52517Y911079D01*
X52473Y911033D01*
X52432Y910983D01*
X52394Y910932D01*
X52360Y910878D01*
X52328Y910823D01*
X52300Y910765D01*
X52276Y910706D01*
X52255Y910646D01*
X52238Y910584D01*
X52224Y910522D01*
X52215Y910459D01*
X52209Y910395D01*
X52207Y910331D01*
X52206Y910331D02*
X52206Y909272D01*
X52206Y910542D02*
X50513Y911389D01*
X50513Y913512D02*
X50513Y914570D01*
X50513Y913512D02*
X50515Y913465D01*
X50520Y913417D01*
X50529Y913371D01*
X50541Y913325D01*
X50557Y913280D01*
X50576Y913236D01*
X50598Y913195D01*
X50623Y913154D01*
X50652Y913116D01*
X50683Y913080D01*
X50716Y913047D01*
X50752Y913016D01*
X50790Y912987D01*
X50831Y912962D01*
X50872Y912940D01*
X50916Y912921D01*
X50961Y912905D01*
X51007Y912893D01*
X51053Y912884D01*
X51101Y912879D01*
X51148Y912877D01*
X52206Y912877D01*
X52206Y912876D02*
X52263Y912878D01*
X52319Y912884D01*
X52375Y912893D01*
X52430Y912906D01*
X52484Y912923D01*
X52537Y912943D01*
X52588Y912967D01*
X52638Y912994D01*
X52685Y913025D01*
X52731Y913058D01*
X52774Y913095D01*
X52815Y913134D01*
X52853Y913176D01*
X52888Y913221D01*
X52920Y913267D01*
X52949Y913316D01*
X52974Y913366D01*
X52996Y913419D01*
X53015Y913472D01*
X53030Y913527D01*
X53041Y913582D01*
X53049Y913638D01*
X53053Y913695D01*
X53053Y913751D01*
X53049Y913808D01*
X53041Y913864D01*
X53030Y913919D01*
X53015Y913974D01*
X52996Y914027D01*
X52974Y914080D01*
X52949Y914130D01*
X52920Y914179D01*
X52888Y914225D01*
X52853Y914270D01*
X52815Y914312D01*
X52774Y914351D01*
X52731Y914388D01*
X52685Y914421D01*
X52638Y914452D01*
X52588Y914479D01*
X52537Y914503D01*
X52484Y914523D01*
X52430Y914540D01*
X52375Y914553D01*
X52319Y914562D01*
X52263Y914568D01*
X52206Y914570D01*
X51783Y914570D01*
X51783Y912877D01*
X53053Y915925D02*
X50513Y916771D01*
X53053Y917618D01*
X50513Y919608D02*
X50513Y920666D01*
X50513Y919608D02*
X50515Y919561D01*
X50520Y919513D01*
X50529Y919467D01*
X50541Y919421D01*
X50557Y919376D01*
X50576Y919332D01*
X50598Y919291D01*
X50623Y919250D01*
X50652Y919212D01*
X50683Y919176D01*
X50716Y919143D01*
X50752Y919112D01*
X50790Y919083D01*
X50831Y919058D01*
X50872Y919036D01*
X50916Y919017D01*
X50961Y919001D01*
X51007Y918989D01*
X51053Y918980D01*
X51101Y918975D01*
X51148Y918973D01*
X52206Y918973D01*
X52206Y918972D02*
X52263Y918974D01*
X52319Y918980D01*
X52375Y918989D01*
X52430Y919002D01*
X52484Y919019D01*
X52537Y919039D01*
X52588Y919063D01*
X52638Y919090D01*
X52685Y919121D01*
X52731Y919154D01*
X52774Y919191D01*
X52815Y919230D01*
X52853Y919272D01*
X52888Y919317D01*
X52920Y919363D01*
X52949Y919412D01*
X52974Y919462D01*
X52996Y919515D01*
X53015Y919568D01*
X53030Y919623D01*
X53041Y919678D01*
X53049Y919734D01*
X53053Y919791D01*
X53053Y919847D01*
X53049Y919904D01*
X53041Y919960D01*
X53030Y920015D01*
X53015Y920070D01*
X52996Y920123D01*
X52974Y920176D01*
X52949Y920226D01*
X52920Y920275D01*
X52888Y920321D01*
X52853Y920366D01*
X52815Y920408D01*
X52774Y920447D01*
X52731Y920484D01*
X52685Y920517D01*
X52638Y920548D01*
X52588Y920575D01*
X52537Y920599D01*
X52484Y920619D01*
X52430Y920636D01*
X52375Y920649D01*
X52319Y920658D01*
X52263Y920664D01*
X52206Y920666D01*
X51783Y920666D01*
X51783Y918973D01*
X50513Y922283D02*
X53053Y922283D01*
X53053Y923553D01*
X52630Y923553D01*
X53053Y924696D02*
X50513Y924696D01*
X54111Y924590D02*
X54323Y924590D01*
X54323Y924802D01*
X54111Y924802D01*
X54111Y924590D01*
X54323Y928271D02*
X50513Y928271D01*
X52630Y928271D02*
X52630Y930387D01*
X54323Y930387D02*
X50513Y930387D01*
X53476Y932050D02*
X54323Y933108D01*
X50513Y933108D01*
X50513Y932050D02*
X50513Y934167D01*
X50513Y938717D02*
X54323Y937447D01*
X54323Y939987D02*
X50513Y938717D01*
X53476Y941316D02*
X54323Y942374D01*
X50513Y942374D01*
X50513Y941316D02*
X50513Y943433D01*
X50513Y944829D02*
X50725Y944829D01*
X50725Y945040D01*
X50513Y945040D01*
X50513Y944829D01*
X52418Y946436D02*
X52528Y946438D01*
X52637Y946444D01*
X52746Y946453D01*
X52855Y946467D01*
X52963Y946484D01*
X53071Y946505D01*
X53177Y946529D01*
X53283Y946558D01*
X53388Y946590D01*
X53492Y946625D01*
X53594Y946664D01*
X53695Y946707D01*
X53794Y946754D01*
X53844Y946774D01*
X53893Y946796D01*
X53941Y946822D01*
X53986Y946851D01*
X54029Y946884D01*
X54070Y946919D01*
X54109Y946957D01*
X54144Y946997D01*
X54177Y947040D01*
X54207Y947085D01*
X54234Y947132D01*
X54257Y947180D01*
X54277Y947230D01*
X54293Y947282D01*
X54306Y947334D01*
X54316Y947387D01*
X54321Y947441D01*
X54323Y947495D01*
X54321Y947549D01*
X54316Y947603D01*
X54306Y947656D01*
X54293Y947708D01*
X54277Y947760D01*
X54257Y947810D01*
X54234Y947858D01*
X54207Y947905D01*
X54177Y947950D01*
X54144Y947993D01*
X54109Y948033D01*
X54070Y948071D01*
X54029Y948106D01*
X53986Y948139D01*
X53941Y948168D01*
X53893Y948194D01*
X53844Y948216D01*
X53794Y948236D01*
X53695Y948283D01*
X53594Y948326D01*
X53492Y948365D01*
X53388Y948400D01*
X53283Y948432D01*
X53177Y948461D01*
X53071Y948485D01*
X52963Y948506D01*
X52855Y948523D01*
X52746Y948537D01*
X52637Y948546D01*
X52528Y948552D01*
X52418Y948554D01*
X52418Y946436D02*
X52308Y946438D01*
X52199Y946444D01*
X52090Y946453D01*
X51981Y946467D01*
X51873Y946484D01*
X51765Y946505D01*
X51659Y946529D01*
X51553Y946558D01*
X51448Y946590D01*
X51345Y946625D01*
X51242Y946664D01*
X51141Y946707D01*
X51042Y946754D01*
X50992Y946774D01*
X50943Y946796D01*
X50895Y946822D01*
X50850Y946851D01*
X50807Y946884D01*
X50766Y946919D01*
X50727Y946957D01*
X50692Y946997D01*
X50659Y947040D01*
X50629Y947085D01*
X50602Y947132D01*
X50579Y947180D01*
X50559Y947230D01*
X50543Y947282D01*
X50530Y947334D01*
X50520Y947387D01*
X50515Y947441D01*
X50513Y947495D01*
X51042Y948235D02*
X51141Y948282D01*
X51242Y948325D01*
X51345Y948364D01*
X51448Y948399D01*
X51553Y948431D01*
X51659Y948460D01*
X51765Y948484D01*
X51873Y948505D01*
X51981Y948522D01*
X52090Y948536D01*
X52199Y948545D01*
X52308Y948551D01*
X52418Y948553D01*
X51042Y948236D02*
X50992Y948216D01*
X50943Y948194D01*
X50895Y948168D01*
X50850Y948139D01*
X50807Y948106D01*
X50766Y948071D01*
X50727Y948033D01*
X50692Y947993D01*
X50659Y947950D01*
X50629Y947905D01*
X50602Y947858D01*
X50579Y947810D01*
X50559Y947760D01*
X50543Y947708D01*
X50530Y947656D01*
X50520Y947603D01*
X50515Y947549D01*
X50513Y947495D01*
X51360Y946648D02*
X53476Y948341D01*
X46322Y912870D02*
X46405Y912868D01*
X46488Y912862D01*
X46571Y912853D01*
X46653Y912839D01*
X46734Y912822D01*
X46814Y912801D01*
X46894Y912777D01*
X46972Y912749D01*
X47049Y912717D01*
X47124Y912681D01*
X47197Y912643D01*
X47269Y912601D01*
X47339Y912555D01*
X47406Y912507D01*
X47471Y912455D01*
X47534Y912400D01*
X47594Y912343D01*
X47651Y912283D01*
X47706Y912220D01*
X47758Y912155D01*
X47806Y912088D01*
X47852Y912018D01*
X47894Y911946D01*
X47932Y911873D01*
X47968Y911798D01*
X48000Y911721D01*
X48028Y911643D01*
X48052Y911563D01*
X48073Y911483D01*
X48090Y911402D01*
X48104Y911320D01*
X48113Y911237D01*
X48119Y911154D01*
X48121Y911071D01*
X48119Y910988D01*
X48113Y910905D01*
X48104Y910822D01*
X48090Y910740D01*
X48073Y910659D01*
X48052Y910579D01*
X48028Y910499D01*
X48000Y910421D01*
X47968Y910344D01*
X47932Y910269D01*
X47894Y910196D01*
X47852Y910124D01*
X47806Y910054D01*
X47758Y909987D01*
X47706Y909922D01*
X47651Y909859D01*
X47594Y909799D01*
X47534Y909742D01*
X47471Y909687D01*
X47406Y909635D01*
X47339Y909587D01*
X47269Y909541D01*
X47197Y909499D01*
X47124Y909461D01*
X47049Y909425D01*
X46972Y909393D01*
X46894Y909365D01*
X46814Y909341D01*
X46734Y909320D01*
X46653Y909303D01*
X46571Y909289D01*
X46488Y909280D01*
X46405Y909274D01*
X46322Y909272D01*
X46239Y909274D01*
X46156Y909280D01*
X46073Y909289D01*
X45991Y909303D01*
X45910Y909320D01*
X45830Y909341D01*
X45750Y909365D01*
X45672Y909393D01*
X45595Y909425D01*
X45520Y909461D01*
X45447Y909499D01*
X45375Y909541D01*
X45305Y909587D01*
X45238Y909635D01*
X45173Y909687D01*
X45110Y909742D01*
X45050Y909799D01*
X44993Y909859D01*
X44938Y909922D01*
X44886Y909987D01*
X44838Y910054D01*
X44792Y910124D01*
X44750Y910196D01*
X44712Y910269D01*
X44676Y910344D01*
X44644Y910421D01*
X44616Y910499D01*
X44592Y910579D01*
X44571Y910659D01*
X44554Y910740D01*
X44540Y910822D01*
X44531Y910905D01*
X44525Y910988D01*
X44523Y911071D01*
X44525Y911154D01*
X44531Y911237D01*
X44540Y911320D01*
X44554Y911402D01*
X44571Y911483D01*
X44592Y911563D01*
X44616Y911643D01*
X44644Y911721D01*
X44676Y911798D01*
X44712Y911873D01*
X44750Y911946D01*
X44792Y912018D01*
X44838Y912088D01*
X44886Y912155D01*
X44938Y912220D01*
X44993Y912283D01*
X45050Y912343D01*
X45110Y912400D01*
X45173Y912455D01*
X45238Y912507D01*
X45305Y912555D01*
X45375Y912601D01*
X45447Y912643D01*
X45520Y912681D01*
X45595Y912717D01*
X45672Y912749D01*
X45750Y912777D01*
X45830Y912801D01*
X45910Y912822D01*
X45991Y912839D01*
X46073Y912853D01*
X46156Y912862D01*
X46239Y912868D01*
X46322Y912870D01*
X45475Y911495D02*
X45475Y910966D01*
X45476Y910966D02*
X45478Y910927D01*
X45483Y910888D01*
X45492Y910850D01*
X45505Y910813D01*
X45520Y910777D01*
X45539Y910743D01*
X45561Y910711D01*
X45586Y910681D01*
X45614Y910653D01*
X45644Y910628D01*
X45676Y910606D01*
X45710Y910587D01*
X45746Y910572D01*
X45783Y910559D01*
X45821Y910550D01*
X45860Y910545D01*
X45899Y910543D01*
X45899Y910542D02*
X46745Y910542D01*
X46745Y910543D02*
X46784Y910545D01*
X46823Y910550D01*
X46861Y910559D01*
X46898Y910572D01*
X46934Y910587D01*
X46968Y910606D01*
X47000Y910628D01*
X47030Y910653D01*
X47058Y910681D01*
X47083Y910711D01*
X47105Y910743D01*
X47124Y910777D01*
X47139Y910813D01*
X47152Y910850D01*
X47161Y910888D01*
X47166Y910927D01*
X47168Y910966D01*
X47169Y910966D02*
X47169Y911495D01*
X48227Y916523D02*
X44417Y916523D01*
X48227Y916523D02*
X48227Y917581D01*
X48225Y917645D01*
X48219Y917709D01*
X48210Y917772D01*
X48196Y917834D01*
X48179Y917896D01*
X48158Y917956D01*
X48134Y918015D01*
X48106Y918073D01*
X48074Y918128D01*
X48040Y918182D01*
X48002Y918233D01*
X47961Y918283D01*
X47917Y918329D01*
X47871Y918373D01*
X47821Y918414D01*
X47770Y918452D01*
X47716Y918486D01*
X47661Y918518D01*
X47603Y918546D01*
X47544Y918570D01*
X47484Y918591D01*
X47422Y918608D01*
X47360Y918622D01*
X47297Y918631D01*
X47233Y918637D01*
X47169Y918639D01*
X47105Y918637D01*
X47041Y918631D01*
X46978Y918622D01*
X46916Y918608D01*
X46854Y918591D01*
X46794Y918570D01*
X46735Y918546D01*
X46677Y918518D01*
X46622Y918486D01*
X46568Y918452D01*
X46517Y918414D01*
X46467Y918373D01*
X46421Y918329D01*
X46377Y918283D01*
X46336Y918233D01*
X46298Y918182D01*
X46264Y918128D01*
X46232Y918073D01*
X46204Y918015D01*
X46180Y917956D01*
X46159Y917896D01*
X46142Y917834D01*
X46128Y917772D01*
X46119Y917709D01*
X46113Y917645D01*
X46111Y917581D01*
X46110Y917581D02*
X46110Y916523D01*
X45899Y920702D02*
X45899Y921655D01*
X45899Y920702D02*
X45897Y920649D01*
X45891Y920597D01*
X45882Y920544D01*
X45869Y920493D01*
X45852Y920443D01*
X45832Y920394D01*
X45808Y920347D01*
X45781Y920301D01*
X45751Y920258D01*
X45718Y920217D01*
X45682Y920178D01*
X45643Y920142D01*
X45602Y920109D01*
X45559Y920079D01*
X45513Y920052D01*
X45466Y920028D01*
X45417Y920008D01*
X45367Y919991D01*
X45316Y919978D01*
X45263Y919969D01*
X45211Y919963D01*
X45158Y919961D01*
X45105Y919963D01*
X45053Y919969D01*
X45000Y919978D01*
X44949Y919991D01*
X44899Y920008D01*
X44850Y920028D01*
X44803Y920052D01*
X44757Y920079D01*
X44714Y920109D01*
X44673Y920142D01*
X44634Y920178D01*
X44598Y920217D01*
X44565Y920258D01*
X44535Y920301D01*
X44508Y920347D01*
X44484Y920394D01*
X44464Y920443D01*
X44447Y920493D01*
X44434Y920544D01*
X44425Y920597D01*
X44419Y920649D01*
X44417Y920702D01*
X44417Y921655D01*
X46322Y921655D01*
X46369Y921653D01*
X46417Y921648D01*
X46463Y921639D01*
X46509Y921627D01*
X46554Y921611D01*
X46598Y921592D01*
X46640Y921570D01*
X46680Y921545D01*
X46718Y921516D01*
X46754Y921485D01*
X46787Y921452D01*
X46818Y921416D01*
X46847Y921378D01*
X46872Y921338D01*
X46894Y921296D01*
X46913Y921252D01*
X46929Y921207D01*
X46941Y921161D01*
X46950Y921115D01*
X46955Y921067D01*
X46957Y921020D01*
X46957Y920173D01*
X46957Y923456D02*
X44417Y923456D01*
X46957Y923456D02*
X46957Y925361D01*
X46955Y925408D01*
X46950Y925456D01*
X46941Y925502D01*
X46929Y925548D01*
X46913Y925593D01*
X46894Y925637D01*
X46872Y925679D01*
X46847Y925719D01*
X46818Y925757D01*
X46787Y925793D01*
X46754Y925826D01*
X46718Y925857D01*
X46680Y925886D01*
X46640Y925911D01*
X46598Y925933D01*
X46554Y925952D01*
X46509Y925968D01*
X46463Y925980D01*
X46417Y925989D01*
X46369Y925994D01*
X46322Y925996D01*
X44417Y925996D01*
X44417Y924726D02*
X46957Y924726D01*
X46957Y927652D02*
X44417Y927652D01*
X48015Y927547D02*
X48227Y927547D01*
X48227Y927758D01*
X48015Y927758D01*
X48015Y927547D01*
X46957Y929263D02*
X44417Y929263D01*
X46957Y929263D02*
X46957Y930533D01*
X46534Y930533D01*
X44417Y931503D02*
X48227Y932773D01*
X44417Y934043D01*
X45370Y933726D02*
X45370Y931821D01*
X44417Y935699D02*
X48227Y935699D01*
X44417Y935276D02*
X44417Y936122D01*
X48227Y936122D02*
X48227Y935276D01*
X48227Y939844D02*
X44417Y939844D01*
X44417Y939421D02*
X44417Y940268D01*
X48227Y940268D02*
X48227Y939421D01*
X46957Y941802D02*
X44417Y941802D01*
X46957Y941802D02*
X46957Y942860D01*
X46955Y942907D01*
X46950Y942955D01*
X46941Y943001D01*
X46929Y943047D01*
X46913Y943092D01*
X46894Y943136D01*
X46872Y943178D01*
X46847Y943218D01*
X46818Y943256D01*
X46787Y943292D01*
X46754Y943325D01*
X46718Y943356D01*
X46680Y943385D01*
X46640Y943410D01*
X46598Y943432D01*
X46554Y943451D01*
X46509Y943467D01*
X46463Y943479D01*
X46417Y943488D01*
X46369Y943493D01*
X46322Y943495D01*
X44417Y943495D01*
X44417Y945732D02*
X44417Y946579D01*
X44417Y945732D02*
X44419Y945685D01*
X44424Y945637D01*
X44433Y945591D01*
X44445Y945545D01*
X44461Y945500D01*
X44480Y945456D01*
X44502Y945415D01*
X44527Y945374D01*
X44556Y945336D01*
X44587Y945300D01*
X44620Y945267D01*
X44656Y945236D01*
X44694Y945207D01*
X44735Y945182D01*
X44776Y945160D01*
X44820Y945141D01*
X44865Y945125D01*
X44911Y945113D01*
X44957Y945104D01*
X45005Y945099D01*
X45052Y945097D01*
X46322Y945097D01*
X46369Y945099D01*
X46417Y945104D01*
X46463Y945113D01*
X46509Y945125D01*
X46554Y945141D01*
X46598Y945160D01*
X46640Y945182D01*
X46680Y945207D01*
X46718Y945236D01*
X46754Y945267D01*
X46787Y945300D01*
X46818Y945336D01*
X46847Y945374D01*
X46872Y945415D01*
X46894Y945456D01*
X46913Y945500D01*
X46929Y945545D01*
X46941Y945591D01*
X46950Y945637D01*
X46955Y945685D01*
X46957Y945732D01*
X46957Y946579D01*
X44629Y947785D02*
X44417Y947785D01*
X44629Y947785D02*
X44629Y947997D01*
X44417Y947997D01*
X44417Y947785D01*
X48228Y952508D02*
X48226Y952568D01*
X48220Y952627D01*
X48211Y952687D01*
X48198Y952745D01*
X48181Y952802D01*
X48161Y952859D01*
X48137Y952914D01*
X48110Y952967D01*
X48080Y953019D01*
X48046Y953068D01*
X48009Y953115D01*
X47970Y953160D01*
X47927Y953203D01*
X47882Y953242D01*
X47835Y953279D01*
X47786Y953313D01*
X47734Y953343D01*
X47681Y953370D01*
X47626Y953394D01*
X47569Y953414D01*
X47512Y953431D01*
X47454Y953444D01*
X47394Y953453D01*
X47335Y953459D01*
X47275Y953461D01*
X48227Y952508D02*
X48225Y952441D01*
X48220Y952374D01*
X48211Y952308D01*
X48198Y952242D01*
X48182Y952178D01*
X48162Y952114D01*
X48138Y952051D01*
X48112Y951989D01*
X48082Y951930D01*
X48049Y951872D01*
X48012Y951815D01*
X47973Y951761D01*
X47931Y951709D01*
X47886Y951660D01*
X47838Y951613D01*
X47788Y951569D01*
X47735Y951527D01*
X47680Y951489D01*
X47624Y951453D01*
X47565Y951421D01*
X47505Y951392D01*
X47443Y951366D01*
X47380Y951344D01*
X46534Y953143D02*
X46576Y953184D01*
X46621Y953223D01*
X46667Y953260D01*
X46716Y953294D01*
X46766Y953325D01*
X46818Y953352D01*
X46872Y953377D01*
X46927Y953399D01*
X46983Y953418D01*
X47040Y953433D01*
X47098Y953445D01*
X47157Y953453D01*
X47216Y953458D01*
X47275Y953460D01*
X46534Y953143D02*
X44417Y951344D01*
X44417Y953460D01*
X46322Y955001D02*
X46432Y955003D01*
X46541Y955009D01*
X46650Y955018D01*
X46759Y955032D01*
X46867Y955049D01*
X46975Y955070D01*
X47081Y955094D01*
X47187Y955123D01*
X47292Y955155D01*
X47396Y955190D01*
X47498Y955229D01*
X47599Y955272D01*
X47698Y955319D01*
X47698Y955318D02*
X47748Y955338D01*
X47797Y955360D01*
X47845Y955386D01*
X47890Y955415D01*
X47933Y955448D01*
X47974Y955483D01*
X48013Y955521D01*
X48048Y955561D01*
X48081Y955604D01*
X48111Y955649D01*
X48138Y955696D01*
X48161Y955744D01*
X48181Y955794D01*
X48197Y955846D01*
X48210Y955898D01*
X48220Y955951D01*
X48225Y956005D01*
X48227Y956059D01*
X48225Y956113D01*
X48220Y956167D01*
X48210Y956220D01*
X48197Y956272D01*
X48181Y956324D01*
X48161Y956374D01*
X48138Y956422D01*
X48111Y956469D01*
X48081Y956514D01*
X48048Y956557D01*
X48013Y956597D01*
X47974Y956635D01*
X47933Y956670D01*
X47890Y956703D01*
X47845Y956732D01*
X47797Y956758D01*
X47748Y956780D01*
X47698Y956800D01*
X47599Y956847D01*
X47498Y956890D01*
X47396Y956929D01*
X47292Y956964D01*
X47187Y956996D01*
X47081Y957025D01*
X46975Y957049D01*
X46867Y957070D01*
X46759Y957087D01*
X46650Y957101D01*
X46541Y957110D01*
X46432Y957116D01*
X46322Y957118D01*
X46322Y955001D02*
X46212Y955003D01*
X46103Y955009D01*
X45994Y955018D01*
X45885Y955032D01*
X45777Y955049D01*
X45669Y955070D01*
X45563Y955094D01*
X45457Y955123D01*
X45352Y955155D01*
X45249Y955190D01*
X45146Y955229D01*
X45045Y955272D01*
X44946Y955319D01*
X44946Y955318D02*
X44896Y955338D01*
X44847Y955360D01*
X44799Y955386D01*
X44754Y955415D01*
X44711Y955448D01*
X44670Y955483D01*
X44631Y955521D01*
X44596Y955561D01*
X44563Y955604D01*
X44533Y955649D01*
X44506Y955696D01*
X44483Y955744D01*
X44463Y955794D01*
X44447Y955846D01*
X44434Y955898D01*
X44424Y955951D01*
X44419Y956005D01*
X44417Y956059D01*
X44946Y956800D02*
X45045Y956847D01*
X45146Y956890D01*
X45249Y956929D01*
X45352Y956964D01*
X45457Y956996D01*
X45563Y957025D01*
X45669Y957049D01*
X45777Y957070D01*
X45885Y957087D01*
X45994Y957101D01*
X46103Y957110D01*
X46212Y957116D01*
X46322Y957118D01*
X44946Y956800D02*
X44896Y956780D01*
X44847Y956758D01*
X44799Y956732D01*
X44754Y956703D01*
X44711Y956670D01*
X44670Y956635D01*
X44631Y956597D01*
X44596Y956557D01*
X44563Y956514D01*
X44533Y956469D01*
X44506Y956422D01*
X44483Y956374D01*
X44463Y956324D01*
X44447Y956272D01*
X44434Y956220D01*
X44424Y956167D01*
X44419Y956113D01*
X44417Y956059D01*
X45264Y955213D02*
X47380Y956906D01*
X48228Y959823D02*
X48226Y959883D01*
X48220Y959942D01*
X48211Y960002D01*
X48198Y960060D01*
X48181Y960117D01*
X48161Y960174D01*
X48137Y960229D01*
X48110Y960282D01*
X48080Y960334D01*
X48046Y960383D01*
X48009Y960430D01*
X47970Y960475D01*
X47927Y960518D01*
X47882Y960557D01*
X47835Y960594D01*
X47786Y960628D01*
X47734Y960658D01*
X47681Y960685D01*
X47626Y960709D01*
X47569Y960729D01*
X47512Y960746D01*
X47454Y960759D01*
X47394Y960768D01*
X47335Y960774D01*
X47275Y960776D01*
X48227Y959823D02*
X48225Y959756D01*
X48220Y959689D01*
X48211Y959623D01*
X48198Y959557D01*
X48182Y959493D01*
X48162Y959429D01*
X48138Y959366D01*
X48112Y959304D01*
X48082Y959245D01*
X48049Y959187D01*
X48012Y959130D01*
X47973Y959076D01*
X47931Y959024D01*
X47886Y958975D01*
X47838Y958928D01*
X47788Y958884D01*
X47735Y958842D01*
X47680Y958804D01*
X47624Y958768D01*
X47565Y958736D01*
X47505Y958707D01*
X47443Y958681D01*
X47380Y958659D01*
X46534Y960458D02*
X46576Y960499D01*
X46621Y960538D01*
X46667Y960575D01*
X46716Y960609D01*
X46766Y960640D01*
X46818Y960667D01*
X46872Y960692D01*
X46927Y960714D01*
X46983Y960733D01*
X47040Y960748D01*
X47098Y960760D01*
X47157Y960768D01*
X47216Y960773D01*
X47275Y960775D01*
X46534Y960458D02*
X44417Y958659D01*
X44417Y960775D01*
X45264Y962316D02*
X48227Y963163D01*
X45264Y962316D02*
X45264Y964433D01*
X46110Y963798D02*
X44417Y963798D01*
D12*
X153150Y162850D03*
D13*
X154550Y162850D03*
D14*
X153850Y163200D03*
D15*
X153675Y163550D03*
D16*
X153150Y163900D03*
D17*
X9689Y39028D02*
X10000Y38172D01*
X9451Y38444D02*
X9451Y38950D01*
X9450Y38444D02*
X9448Y38416D01*
X9442Y38389D01*
X9432Y38363D01*
X9419Y38339D01*
X9403Y38317D01*
X9383Y38297D01*
X9361Y38281D01*
X9337Y38268D01*
X9311Y38258D01*
X9284Y38252D01*
X9256Y38250D01*
X9228Y38252D01*
X9201Y38258D01*
X9175Y38268D01*
X9151Y38281D01*
X9129Y38297D01*
X9109Y38317D01*
X9093Y38339D01*
X9080Y38363D01*
X9070Y38389D01*
X9064Y38416D01*
X9062Y38444D01*
X9062Y38950D01*
X8745Y38522D02*
X8550Y38444D01*
X8744Y38522D02*
X8761Y38531D01*
X8776Y38542D01*
X8788Y38556D01*
X8798Y38572D01*
X8804Y38590D01*
X8808Y38608D01*
X8807Y38627D01*
X8804Y38645D01*
X8797Y38662D01*
X8787Y38678D01*
X8774Y38692D01*
X8759Y38703D01*
X8742Y38711D01*
X8724Y38716D01*
X8706Y38717D01*
X8670Y38715D01*
X8634Y38710D01*
X8599Y38702D01*
X8564Y38692D01*
X8531Y38678D01*
X8551Y38445D02*
X8534Y38436D01*
X8519Y38425D01*
X8507Y38411D01*
X8497Y38395D01*
X8491Y38377D01*
X8487Y38359D01*
X8488Y38340D01*
X8491Y38322D01*
X8498Y38305D01*
X8508Y38289D01*
X8521Y38275D01*
X8536Y38264D01*
X8553Y38256D01*
X8571Y38251D01*
X8589Y38250D01*
X8590Y38250D02*
X8633Y38252D01*
X8677Y38257D01*
X8720Y38265D01*
X8762Y38276D01*
X8804Y38289D01*
X8140Y38250D02*
X7946Y38250D01*
X8140Y38250D02*
X8160Y38252D01*
X8180Y38257D01*
X8199Y38266D01*
X8215Y38277D01*
X8230Y38292D01*
X8241Y38309D01*
X8250Y38327D01*
X8255Y38347D01*
X8257Y38367D01*
X8257Y38561D01*
X8255Y38584D01*
X8250Y38607D01*
X8242Y38629D01*
X8230Y38649D01*
X8215Y38667D01*
X8198Y38683D01*
X8179Y38696D01*
X8158Y38706D01*
X8136Y38713D01*
X8113Y38717D01*
X8089Y38717D01*
X8066Y38713D01*
X8044Y38706D01*
X8023Y38696D01*
X8004Y38683D01*
X7987Y38667D01*
X7972Y38649D01*
X7960Y38629D01*
X7952Y38607D01*
X7947Y38584D01*
X7945Y38561D01*
X7946Y38561D02*
X7946Y38483D01*
X8257Y38483D01*
X7688Y38250D02*
X7688Y38717D01*
X7455Y38717D01*
X7455Y38639D01*
X7212Y38522D02*
X7017Y38444D01*
X7211Y38522D02*
X7228Y38531D01*
X7243Y38542D01*
X7255Y38556D01*
X7265Y38572D01*
X7271Y38590D01*
X7275Y38608D01*
X7274Y38627D01*
X7271Y38645D01*
X7264Y38662D01*
X7254Y38678D01*
X7241Y38692D01*
X7226Y38703D01*
X7209Y38711D01*
X7191Y38716D01*
X7173Y38717D01*
X7137Y38715D01*
X7101Y38710D01*
X7066Y38702D01*
X7031Y38692D01*
X6998Y38678D01*
X7018Y38445D02*
X7001Y38436D01*
X6986Y38425D01*
X6974Y38411D01*
X6964Y38395D01*
X6958Y38377D01*
X6954Y38359D01*
X6955Y38340D01*
X6958Y38322D01*
X6965Y38305D01*
X6975Y38289D01*
X6988Y38275D01*
X7003Y38264D01*
X7020Y38256D01*
X7038Y38251D01*
X7056Y38250D01*
X7057Y38250D02*
X7100Y38252D01*
X7144Y38257D01*
X7187Y38265D01*
X7229Y38276D01*
X7271Y38289D01*
X6745Y38172D02*
X6434Y39028D01*
X6103Y38250D02*
X5948Y38250D01*
X6103Y38250D02*
X6123Y38252D01*
X6143Y38257D01*
X6162Y38266D01*
X6178Y38277D01*
X6193Y38292D01*
X6204Y38309D01*
X6213Y38327D01*
X6218Y38347D01*
X6220Y38367D01*
X6220Y38600D01*
X6218Y38620D01*
X6213Y38640D01*
X6204Y38659D01*
X6193Y38675D01*
X6178Y38690D01*
X6162Y38701D01*
X6143Y38710D01*
X6123Y38715D01*
X6103Y38717D01*
X5948Y38717D01*
X5716Y38950D02*
X5716Y38250D01*
X5716Y38717D02*
X5522Y38717D01*
X5502Y38715D01*
X5482Y38710D01*
X5464Y38701D01*
X5447Y38690D01*
X5432Y38675D01*
X5421Y38659D01*
X5412Y38640D01*
X5407Y38620D01*
X5405Y38600D01*
X5405Y38250D01*
X5033Y38250D02*
X4838Y38250D01*
X5033Y38250D02*
X5053Y38252D01*
X5073Y38257D01*
X5092Y38266D01*
X5108Y38277D01*
X5123Y38292D01*
X5134Y38309D01*
X5143Y38327D01*
X5148Y38347D01*
X5150Y38367D01*
X5149Y38367D02*
X5149Y38561D01*
X5150Y38561D02*
X5148Y38584D01*
X5143Y38607D01*
X5135Y38629D01*
X5123Y38649D01*
X5108Y38667D01*
X5091Y38683D01*
X5072Y38696D01*
X5051Y38706D01*
X5029Y38713D01*
X5006Y38717D01*
X4982Y38717D01*
X4959Y38713D01*
X4937Y38706D01*
X4916Y38696D01*
X4897Y38683D01*
X4880Y38667D01*
X4865Y38649D01*
X4853Y38629D01*
X4845Y38607D01*
X4840Y38584D01*
X4838Y38561D01*
X4838Y38483D01*
X5149Y38483D01*
X4582Y38250D02*
X4582Y38717D01*
X4388Y38717D01*
X4368Y38715D01*
X4348Y38710D01*
X4330Y38701D01*
X4313Y38690D01*
X4298Y38675D01*
X4287Y38659D01*
X4278Y38640D01*
X4273Y38620D01*
X4271Y38600D01*
X4271Y38250D01*
X3900Y38250D02*
X3706Y38250D01*
X3900Y38250D02*
X3920Y38252D01*
X3940Y38257D01*
X3959Y38266D01*
X3975Y38277D01*
X3990Y38292D01*
X4001Y38309D01*
X4010Y38327D01*
X4015Y38347D01*
X4017Y38367D01*
X4017Y38600D01*
X4015Y38620D01*
X4010Y38640D01*
X4001Y38659D01*
X3990Y38675D01*
X3975Y38690D01*
X3959Y38701D01*
X3940Y38710D01*
X3920Y38715D01*
X3900Y38717D01*
X3706Y38717D01*
X3706Y38133D01*
X3705Y38133D02*
X3707Y38113D01*
X3712Y38093D01*
X3721Y38075D01*
X3732Y38058D01*
X3747Y38043D01*
X3764Y38032D01*
X3782Y38023D01*
X3802Y38018D01*
X3822Y38016D01*
X3822Y38017D02*
X3978Y38017D01*
X3421Y38250D02*
X3421Y38717D01*
X3071Y38717D01*
X3051Y38715D01*
X3031Y38710D01*
X3013Y38701D01*
X2996Y38690D01*
X2981Y38675D01*
X2970Y38659D01*
X2961Y38640D01*
X2956Y38620D01*
X2954Y38600D01*
X2954Y38250D01*
X3188Y38250D02*
X3188Y38717D01*
X2684Y38717D02*
X2684Y38250D01*
X2703Y38911D02*
X2703Y38950D01*
X2664Y38950D01*
X2664Y38911D01*
X2703Y38911D01*
X2419Y38717D02*
X2419Y38250D01*
X2419Y38717D02*
X2225Y38717D01*
X2205Y38715D01*
X2185Y38710D01*
X2167Y38701D01*
X2150Y38690D01*
X2135Y38675D01*
X2124Y38659D01*
X2115Y38640D01*
X2110Y38620D01*
X2108Y38600D01*
X2108Y38250D01*
X1737Y38250D02*
X1543Y38250D01*
X1737Y38250D02*
X1757Y38252D01*
X1777Y38257D01*
X1796Y38266D01*
X1812Y38277D01*
X1827Y38292D01*
X1838Y38309D01*
X1847Y38327D01*
X1852Y38347D01*
X1854Y38367D01*
X1854Y38600D01*
X1852Y38620D01*
X1847Y38640D01*
X1838Y38659D01*
X1827Y38675D01*
X1812Y38690D01*
X1796Y38701D01*
X1777Y38710D01*
X1757Y38715D01*
X1737Y38717D01*
X1543Y38717D01*
X1543Y38133D01*
X1545Y38113D01*
X1550Y38093D01*
X1559Y38075D01*
X1570Y38058D01*
X1585Y38043D01*
X1601Y38032D01*
X1620Y38023D01*
X1640Y38018D01*
X1660Y38016D01*
X1660Y38017D02*
X1815Y38017D01*
X1306Y38717D02*
X995Y38717D01*
X1306Y38250D01*
X995Y38250D01*
X760Y38250D02*
X760Y38950D01*
X760Y38717D02*
X566Y38717D01*
X546Y38715D01*
X526Y38710D01*
X508Y38701D01*
X491Y38690D01*
X476Y38675D01*
X465Y38659D01*
X456Y38640D01*
X451Y38620D01*
X449Y38600D01*
X449Y38250D01*
X59Y38522D02*
X-116Y38522D01*
X59Y38522D02*
X81Y38520D01*
X103Y38515D01*
X124Y38506D01*
X143Y38493D01*
X159Y38478D01*
X173Y38460D01*
X184Y38441D01*
X191Y38419D01*
X195Y38397D01*
X195Y38375D01*
X191Y38353D01*
X184Y38331D01*
X173Y38312D01*
X159Y38294D01*
X143Y38279D01*
X124Y38266D01*
X103Y38257D01*
X81Y38252D01*
X59Y38250D01*
X-116Y38250D01*
X-116Y38600D01*
X-114Y38620D01*
X-109Y38640D01*
X-100Y38659D01*
X-89Y38675D01*
X-74Y38690D01*
X-57Y38701D01*
X-39Y38710D01*
X-19Y38715D01*
X1Y38717D01*
X156Y38717D01*
X-395Y38717D02*
X-395Y38250D01*
X-395Y38717D02*
X-589Y38717D01*
X-609Y38715D01*
X-629Y38710D01*
X-648Y38701D01*
X-664Y38690D01*
X-679Y38675D01*
X-690Y38659D01*
X-699Y38640D01*
X-704Y38620D01*
X-706Y38600D01*
X-706Y38250D01*
X-1077Y38250D02*
X-1271Y38250D01*
X-1077Y38250D02*
X-1057Y38252D01*
X-1037Y38257D01*
X-1019Y38266D01*
X-1002Y38277D01*
X-987Y38292D01*
X-976Y38309D01*
X-967Y38327D01*
X-962Y38347D01*
X-960Y38367D01*
X-960Y38600D01*
X-962Y38620D01*
X-967Y38640D01*
X-976Y38659D01*
X-987Y38675D01*
X-1002Y38690D01*
X-1019Y38701D01*
X-1037Y38710D01*
X-1057Y38715D01*
X-1077Y38717D01*
X-1271Y38717D01*
X-1271Y38133D01*
X-1269Y38113D01*
X-1264Y38093D01*
X-1255Y38075D01*
X-1244Y38058D01*
X-1229Y38043D01*
X-1213Y38032D01*
X-1194Y38023D01*
X-1174Y38018D01*
X-1154Y38016D01*
X-1154Y38017D02*
X-999Y38017D01*
X-1508Y38172D02*
X-1819Y39028D01*
X-2057Y38950D02*
X-2057Y38250D01*
X-2057Y38950D02*
X-2251Y38950D01*
X-2279Y38948D01*
X-2306Y38942D01*
X-2332Y38932D01*
X-2356Y38919D01*
X-2378Y38903D01*
X-2398Y38883D01*
X-2414Y38861D01*
X-2427Y38837D01*
X-2437Y38811D01*
X-2443Y38784D01*
X-2445Y38756D01*
X-2445Y38444D01*
X-2443Y38416D01*
X-2437Y38389D01*
X-2427Y38363D01*
X-2414Y38339D01*
X-2398Y38317D01*
X-2378Y38297D01*
X-2356Y38281D01*
X-2332Y38268D01*
X-2306Y38258D01*
X-2279Y38252D01*
X-2251Y38250D01*
X-2057Y38250D01*
X-2821Y38250D02*
X-3016Y38250D01*
X-2821Y38250D02*
X-2801Y38252D01*
X-2781Y38257D01*
X-2763Y38266D01*
X-2746Y38277D01*
X-2731Y38292D01*
X-2720Y38309D01*
X-2711Y38327D01*
X-2706Y38347D01*
X-2704Y38367D01*
X-2704Y38561D01*
X-2706Y38584D01*
X-2711Y38607D01*
X-2719Y38629D01*
X-2731Y38649D01*
X-2746Y38667D01*
X-2763Y38683D01*
X-2782Y38696D01*
X-2803Y38706D01*
X-2825Y38713D01*
X-2848Y38717D01*
X-2872Y38717D01*
X-2895Y38713D01*
X-2917Y38706D01*
X-2938Y38696D01*
X-2957Y38683D01*
X-2974Y38667D01*
X-2989Y38649D01*
X-3001Y38629D01*
X-3009Y38607D01*
X-3014Y38584D01*
X-3016Y38561D01*
X-3016Y38483D01*
X-2704Y38483D01*
X-3309Y38522D02*
X-3503Y38444D01*
X-3309Y38522D02*
X-3292Y38531D01*
X-3277Y38542D01*
X-3265Y38556D01*
X-3255Y38572D01*
X-3249Y38590D01*
X-3245Y38608D01*
X-3246Y38627D01*
X-3249Y38645D01*
X-3256Y38662D01*
X-3266Y38678D01*
X-3279Y38692D01*
X-3294Y38703D01*
X-3311Y38711D01*
X-3329Y38716D01*
X-3347Y38717D01*
X-3383Y38715D01*
X-3419Y38710D01*
X-3454Y38702D01*
X-3489Y38692D01*
X-3522Y38678D01*
X-3503Y38445D02*
X-3520Y38436D01*
X-3535Y38425D01*
X-3547Y38411D01*
X-3557Y38395D01*
X-3563Y38377D01*
X-3567Y38359D01*
X-3566Y38340D01*
X-3563Y38322D01*
X-3556Y38305D01*
X-3546Y38289D01*
X-3533Y38275D01*
X-3518Y38264D01*
X-3501Y38256D01*
X-3483Y38251D01*
X-3465Y38250D01*
X-3464Y38250D02*
X-3421Y38252D01*
X-3377Y38257D01*
X-3334Y38265D01*
X-3292Y38276D01*
X-3250Y38289D01*
X-3821Y38250D02*
X-3821Y38950D01*
X-4132Y38717D02*
X-3821Y38483D01*
X-3957Y38581D02*
X-4132Y38250D01*
X-4295Y38717D02*
X-4528Y38717D01*
X-4373Y38950D02*
X-4373Y38367D01*
X-4372Y38367D02*
X-4374Y38347D01*
X-4379Y38327D01*
X-4388Y38309D01*
X-4399Y38292D01*
X-4414Y38277D01*
X-4431Y38266D01*
X-4449Y38257D01*
X-4469Y38252D01*
X-4489Y38250D01*
X-4528Y38250D01*
X-4741Y38406D02*
X-4741Y38561D01*
X-4743Y38584D01*
X-4748Y38607D01*
X-4756Y38629D01*
X-4768Y38649D01*
X-4783Y38667D01*
X-4800Y38683D01*
X-4819Y38696D01*
X-4840Y38706D01*
X-4862Y38713D01*
X-4885Y38717D01*
X-4909Y38717D01*
X-4932Y38713D01*
X-4954Y38706D01*
X-4975Y38696D01*
X-4994Y38683D01*
X-5011Y38667D01*
X-5026Y38649D01*
X-5038Y38629D01*
X-5046Y38607D01*
X-5051Y38584D01*
X-5053Y38561D01*
X-5052Y38561D02*
X-5052Y38406D01*
X-5053Y38406D02*
X-5051Y38383D01*
X-5046Y38360D01*
X-5038Y38338D01*
X-5026Y38318D01*
X-5011Y38300D01*
X-4994Y38284D01*
X-4975Y38271D01*
X-4954Y38261D01*
X-4932Y38254D01*
X-4909Y38250D01*
X-4885Y38250D01*
X-4862Y38254D01*
X-4840Y38261D01*
X-4819Y38271D01*
X-4800Y38284D01*
X-4783Y38300D01*
X-4768Y38318D01*
X-4756Y38338D01*
X-4748Y38360D01*
X-4743Y38383D01*
X-4741Y38406D01*
X-5310Y38717D02*
X-5310Y38017D01*
X-5310Y38717D02*
X-5504Y38717D01*
X-5524Y38715D01*
X-5544Y38710D01*
X-5563Y38701D01*
X-5579Y38690D01*
X-5594Y38675D01*
X-5605Y38659D01*
X-5614Y38640D01*
X-5619Y38620D01*
X-5621Y38600D01*
X-5621Y38367D01*
X-5619Y38347D01*
X-5614Y38327D01*
X-5605Y38309D01*
X-5594Y38292D01*
X-5579Y38277D01*
X-5563Y38266D01*
X-5544Y38257D01*
X-5524Y38252D01*
X-5504Y38250D01*
X-5310Y38250D01*
X-5833Y38172D02*
X-6144Y39028D01*
X-6730Y38406D02*
X-6728Y38384D01*
X-6724Y38362D01*
X-6716Y38341D01*
X-6705Y38322D01*
X-6692Y38304D01*
X-6676Y38288D01*
X-6658Y38275D01*
X-6639Y38264D01*
X-6618Y38256D01*
X-6596Y38252D01*
X-6574Y38250D01*
X-6542Y38252D01*
X-6509Y38256D01*
X-6478Y38264D01*
X-6447Y38275D01*
X-6418Y38289D01*
X-6390Y38306D01*
X-6364Y38325D01*
X-6340Y38347D01*
X-6359Y38794D02*
X-6361Y38816D01*
X-6365Y38838D01*
X-6373Y38859D01*
X-6384Y38878D01*
X-6397Y38896D01*
X-6413Y38912D01*
X-6431Y38925D01*
X-6450Y38936D01*
X-6471Y38944D01*
X-6493Y38948D01*
X-6515Y38950D01*
X-6546Y38948D01*
X-6577Y38943D01*
X-6607Y38935D01*
X-6636Y38924D01*
X-6664Y38909D01*
X-6690Y38892D01*
X-6438Y38658D02*
X-6419Y38671D01*
X-6401Y38687D01*
X-6387Y38706D01*
X-6375Y38726D01*
X-6367Y38748D01*
X-6362Y38771D01*
X-6360Y38794D01*
X-6651Y38542D02*
X-6670Y38529D01*
X-6688Y38513D01*
X-6702Y38494D01*
X-6714Y38474D01*
X-6722Y38452D01*
X-6727Y38429D01*
X-6729Y38406D01*
X-6652Y38542D02*
X-6438Y38658D01*
X-7063Y38250D02*
X-7219Y38250D01*
X-7063Y38250D02*
X-7043Y38252D01*
X-7023Y38257D01*
X-7005Y38266D01*
X-6988Y38277D01*
X-6973Y38292D01*
X-6962Y38309D01*
X-6953Y38327D01*
X-6948Y38347D01*
X-6946Y38367D01*
X-6947Y38367D02*
X-6947Y38600D01*
X-6946Y38600D02*
X-6948Y38620D01*
X-6953Y38640D01*
X-6962Y38659D01*
X-6973Y38675D01*
X-6988Y38690D01*
X-7005Y38701D01*
X-7023Y38710D01*
X-7043Y38715D01*
X-7063Y38717D01*
X-7219Y38717D01*
X-7452Y38717D02*
X-7452Y38250D01*
X-7452Y38717D02*
X-7685Y38717D01*
X-7685Y38639D01*
X-7987Y38250D02*
X-8181Y38250D01*
X-7987Y38250D02*
X-7967Y38252D01*
X-7947Y38257D01*
X-7929Y38266D01*
X-7912Y38277D01*
X-7897Y38292D01*
X-7886Y38309D01*
X-7877Y38327D01*
X-7872Y38347D01*
X-7870Y38367D01*
X-7870Y38561D01*
X-7872Y38584D01*
X-7877Y38607D01*
X-7885Y38629D01*
X-7897Y38649D01*
X-7912Y38667D01*
X-7929Y38683D01*
X-7948Y38696D01*
X-7969Y38706D01*
X-7991Y38713D01*
X-8014Y38717D01*
X-8038Y38717D01*
X-8061Y38713D01*
X-8083Y38706D01*
X-8104Y38696D01*
X-8123Y38683D01*
X-8140Y38667D01*
X-8155Y38649D01*
X-8167Y38629D01*
X-8175Y38607D01*
X-8180Y38584D01*
X-8182Y38561D01*
X-8181Y38561D02*
X-8181Y38483D01*
X-7870Y38483D01*
X-8533Y38250D02*
X-8727Y38250D01*
X-8533Y38250D02*
X-8513Y38252D01*
X-8493Y38257D01*
X-8475Y38266D01*
X-8458Y38277D01*
X-8443Y38292D01*
X-8432Y38309D01*
X-8423Y38327D01*
X-8418Y38347D01*
X-8416Y38367D01*
X-8416Y38561D01*
X-8418Y38584D01*
X-8423Y38607D01*
X-8431Y38629D01*
X-8443Y38649D01*
X-8458Y38667D01*
X-8475Y38683D01*
X-8494Y38696D01*
X-8515Y38706D01*
X-8537Y38713D01*
X-8560Y38717D01*
X-8584Y38717D01*
X-8607Y38713D01*
X-8629Y38706D01*
X-8650Y38696D01*
X-8669Y38683D01*
X-8686Y38667D01*
X-8701Y38649D01*
X-8713Y38629D01*
X-8721Y38607D01*
X-8726Y38584D01*
X-8728Y38561D01*
X-8727Y38561D02*
X-8727Y38483D01*
X-8416Y38483D01*
X-8983Y38250D02*
X-8983Y38717D01*
X-9178Y38717D01*
X-9198Y38715D01*
X-9218Y38710D01*
X-9237Y38701D01*
X-9253Y38690D01*
X-9268Y38675D01*
X-9279Y38659D01*
X-9288Y38640D01*
X-9293Y38620D01*
X-9295Y38600D01*
X-9294Y38600D02*
X-9294Y38250D01*
X-9608Y38522D02*
X-9803Y38444D01*
X-9609Y38522D02*
X-9592Y38531D01*
X-9577Y38542D01*
X-9565Y38556D01*
X-9555Y38572D01*
X-9549Y38590D01*
X-9545Y38608D01*
X-9546Y38627D01*
X-9549Y38645D01*
X-9556Y38662D01*
X-9566Y38678D01*
X-9579Y38692D01*
X-9594Y38703D01*
X-9611Y38711D01*
X-9629Y38716D01*
X-9647Y38717D01*
X-9683Y38715D01*
X-9719Y38710D01*
X-9754Y38702D01*
X-9789Y38692D01*
X-9822Y38678D01*
X-9803Y38445D02*
X-9820Y38436D01*
X-9835Y38425D01*
X-9847Y38411D01*
X-9857Y38395D01*
X-9863Y38377D01*
X-9867Y38359D01*
X-9866Y38340D01*
X-9863Y38322D01*
X-9856Y38305D01*
X-9846Y38289D01*
X-9833Y38275D01*
X-9818Y38264D01*
X-9801Y38256D01*
X-9783Y38251D01*
X-9765Y38250D01*
X-9764Y38250D02*
X-9721Y38252D01*
X-9677Y38257D01*
X-9634Y38265D01*
X-9592Y38276D01*
X-9550Y38289D01*
X-10117Y38250D02*
X-10117Y38950D01*
X-10117Y38717D02*
X-10312Y38717D01*
X-10332Y38715D01*
X-10352Y38710D01*
X-10371Y38701D01*
X-10387Y38690D01*
X-10402Y38675D01*
X-10413Y38659D01*
X-10422Y38640D01*
X-10427Y38620D01*
X-10429Y38600D01*
X-10428Y38600D02*
X-10428Y38250D01*
X-10684Y38406D02*
X-10684Y38561D01*
X-10686Y38584D01*
X-10691Y38607D01*
X-10699Y38629D01*
X-10711Y38649D01*
X-10726Y38667D01*
X-10743Y38683D01*
X-10762Y38696D01*
X-10783Y38706D01*
X-10805Y38713D01*
X-10828Y38717D01*
X-10852Y38717D01*
X-10875Y38713D01*
X-10897Y38706D01*
X-10918Y38696D01*
X-10937Y38683D01*
X-10954Y38667D01*
X-10969Y38649D01*
X-10981Y38629D01*
X-10989Y38607D01*
X-10994Y38584D01*
X-10996Y38561D01*
X-10995Y38561D02*
X-10995Y38406D01*
X-10996Y38406D02*
X-10994Y38383D01*
X-10989Y38360D01*
X-10981Y38338D01*
X-10969Y38318D01*
X-10954Y38300D01*
X-10937Y38284D01*
X-10918Y38271D01*
X-10897Y38261D01*
X-10875Y38254D01*
X-10852Y38250D01*
X-10828Y38250D01*
X-10805Y38254D01*
X-10783Y38261D01*
X-10762Y38271D01*
X-10743Y38284D01*
X-10726Y38300D01*
X-10711Y38318D01*
X-10699Y38338D01*
X-10691Y38360D01*
X-10686Y38383D01*
X-10684Y38406D01*
X-11182Y38717D02*
X-11416Y38717D01*
X-11260Y38950D02*
X-11260Y38367D01*
X-11262Y38347D01*
X-11267Y38327D01*
X-11276Y38309D01*
X-11287Y38292D01*
X-11302Y38277D01*
X-11319Y38266D01*
X-11337Y38257D01*
X-11357Y38252D01*
X-11377Y38250D01*
X-11416Y38250D01*
X-11608Y38172D02*
X-11919Y38172D01*
X-12525Y38775D02*
X-12523Y38800D01*
X-12518Y38824D01*
X-12509Y38848D01*
X-12497Y38870D01*
X-12482Y38890D01*
X-12465Y38907D01*
X-12445Y38922D01*
X-12423Y38934D01*
X-12399Y38943D01*
X-12375Y38948D01*
X-12350Y38950D01*
X-12322Y38948D01*
X-12294Y38943D01*
X-12267Y38934D01*
X-12242Y38922D01*
X-12218Y38907D01*
X-12196Y38889D01*
X-12177Y38868D01*
X-12160Y38845D01*
X-12146Y38821D01*
X-12136Y38794D01*
X-12467Y38639D02*
X-12484Y38658D01*
X-12498Y38678D01*
X-12510Y38701D01*
X-12518Y38725D01*
X-12523Y38750D01*
X-12525Y38775D01*
X-12467Y38639D02*
X-12136Y38250D01*
X-12525Y38250D01*
X-12766Y38600D02*
X-12768Y38644D01*
X-12773Y38687D01*
X-12781Y38730D01*
X-12792Y38772D01*
X-12807Y38813D01*
X-12824Y38853D01*
X-12825Y38853D02*
X-12834Y38873D01*
X-12846Y38892D01*
X-12860Y38909D01*
X-12877Y38923D01*
X-12896Y38935D01*
X-12917Y38943D01*
X-12939Y38948D01*
X-12961Y38950D01*
X-12983Y38948D01*
X-13005Y38943D01*
X-13026Y38935D01*
X-13045Y38923D01*
X-13062Y38909D01*
X-13076Y38892D01*
X-13088Y38873D01*
X-13097Y38853D01*
X-13114Y38813D01*
X-13129Y38772D01*
X-13140Y38730D01*
X-13148Y38687D01*
X-13153Y38644D01*
X-13155Y38600D01*
X-12766Y38600D02*
X-12768Y38556D01*
X-12773Y38513D01*
X-12781Y38470D01*
X-12792Y38428D01*
X-12807Y38387D01*
X-12824Y38347D01*
X-12825Y38347D02*
X-12834Y38327D01*
X-12846Y38308D01*
X-12860Y38291D01*
X-12877Y38277D01*
X-12896Y38265D01*
X-12917Y38257D01*
X-12939Y38252D01*
X-12961Y38250D01*
X-13097Y38347D02*
X-13114Y38387D01*
X-13129Y38428D01*
X-13140Y38470D01*
X-13148Y38513D01*
X-13153Y38556D01*
X-13155Y38600D01*
X-13097Y38347D02*
X-13088Y38327D01*
X-13076Y38308D01*
X-13062Y38291D01*
X-13045Y38277D01*
X-13026Y38265D01*
X-13005Y38257D01*
X-12983Y38252D01*
X-12961Y38250D01*
X-12805Y38406D02*
X-13116Y38794D01*
X-13610Y38950D02*
X-13635Y38948D01*
X-13659Y38943D01*
X-13683Y38934D01*
X-13705Y38922D01*
X-13725Y38907D01*
X-13742Y38890D01*
X-13757Y38870D01*
X-13769Y38848D01*
X-13778Y38824D01*
X-13783Y38800D01*
X-13785Y38775D01*
X-13610Y38950D02*
X-13582Y38948D01*
X-13554Y38943D01*
X-13527Y38934D01*
X-13502Y38922D01*
X-13478Y38907D01*
X-13456Y38889D01*
X-13437Y38868D01*
X-13420Y38845D01*
X-13406Y38821D01*
X-13396Y38794D01*
X-13727Y38639D02*
X-13744Y38658D01*
X-13758Y38678D01*
X-13770Y38701D01*
X-13778Y38725D01*
X-13783Y38750D01*
X-13785Y38775D01*
X-13727Y38639D02*
X-13396Y38250D01*
X-13785Y38250D01*
X-14026Y38406D02*
X-14182Y38950D01*
X-14026Y38406D02*
X-14415Y38406D01*
X-14298Y38561D02*
X-14298Y38250D01*
X-14659Y38522D02*
X-15126Y38522D01*
X-15370Y38600D02*
X-15372Y38644D01*
X-15377Y38687D01*
X-15385Y38730D01*
X-15396Y38772D01*
X-15411Y38813D01*
X-15428Y38853D01*
X-15429Y38853D02*
X-15438Y38873D01*
X-15450Y38892D01*
X-15464Y38909D01*
X-15481Y38923D01*
X-15500Y38935D01*
X-15521Y38943D01*
X-15543Y38948D01*
X-15565Y38950D01*
X-15587Y38948D01*
X-15609Y38943D01*
X-15630Y38935D01*
X-15649Y38923D01*
X-15666Y38909D01*
X-15680Y38892D01*
X-15692Y38873D01*
X-15701Y38853D01*
X-15718Y38813D01*
X-15733Y38772D01*
X-15744Y38730D01*
X-15752Y38687D01*
X-15757Y38644D01*
X-15759Y38600D01*
X-15370Y38600D02*
X-15372Y38556D01*
X-15377Y38513D01*
X-15385Y38470D01*
X-15396Y38428D01*
X-15411Y38387D01*
X-15428Y38347D01*
X-15429Y38347D02*
X-15438Y38327D01*
X-15450Y38308D01*
X-15464Y38291D01*
X-15481Y38277D01*
X-15500Y38265D01*
X-15521Y38257D01*
X-15543Y38252D01*
X-15565Y38250D01*
X-15701Y38347D02*
X-15718Y38387D01*
X-15733Y38428D01*
X-15744Y38470D01*
X-15752Y38513D01*
X-15757Y38556D01*
X-15759Y38600D01*
X-15701Y38347D02*
X-15692Y38327D01*
X-15680Y38308D01*
X-15666Y38291D01*
X-15649Y38277D01*
X-15630Y38265D01*
X-15609Y38257D01*
X-15587Y38252D01*
X-15565Y38250D01*
X-15409Y38406D02*
X-15720Y38794D01*
X-16214Y38950D02*
X-16239Y38948D01*
X-16263Y38943D01*
X-16287Y38934D01*
X-16309Y38922D01*
X-16329Y38907D01*
X-16346Y38890D01*
X-16361Y38870D01*
X-16373Y38848D01*
X-16382Y38824D01*
X-16387Y38800D01*
X-16389Y38775D01*
X-16214Y38950D02*
X-16186Y38948D01*
X-16158Y38943D01*
X-16131Y38934D01*
X-16106Y38922D01*
X-16082Y38907D01*
X-16060Y38889D01*
X-16041Y38868D01*
X-16024Y38845D01*
X-16010Y38821D01*
X-16000Y38794D01*
X-16331Y38639D02*
X-16348Y38658D01*
X-16362Y38678D01*
X-16374Y38701D01*
X-16382Y38725D01*
X-16387Y38750D01*
X-16389Y38775D01*
X-16331Y38639D02*
X-16000Y38250D01*
X-16389Y38250D01*
X-16633Y38522D02*
X-17100Y38522D01*
X-17558Y38950D02*
X-17583Y38948D01*
X-17607Y38943D01*
X-17631Y38934D01*
X-17653Y38922D01*
X-17673Y38907D01*
X-17690Y38890D01*
X-17705Y38870D01*
X-17717Y38848D01*
X-17726Y38824D01*
X-17731Y38800D01*
X-17733Y38775D01*
X-17558Y38950D02*
X-17530Y38948D01*
X-17502Y38943D01*
X-17475Y38934D01*
X-17450Y38922D01*
X-17426Y38907D01*
X-17404Y38889D01*
X-17385Y38868D01*
X-17368Y38845D01*
X-17354Y38821D01*
X-17344Y38794D01*
X-17675Y38639D02*
X-17692Y38658D01*
X-17706Y38678D01*
X-17718Y38701D01*
X-17726Y38725D01*
X-17731Y38750D01*
X-17733Y38775D01*
X-17675Y38639D02*
X-17344Y38250D01*
X-17733Y38250D01*
X-17974Y38794D02*
X-18169Y38950D01*
X-18169Y38250D01*
X-18363Y38250D02*
X-17974Y38250D01*
X-18580Y38172D02*
X-18891Y38172D01*
X-19239Y38522D02*
X-19414Y38522D01*
X-19239Y38522D02*
X-19217Y38520D01*
X-19195Y38515D01*
X-19174Y38506D01*
X-19155Y38493D01*
X-19139Y38478D01*
X-19125Y38460D01*
X-19114Y38441D01*
X-19107Y38419D01*
X-19103Y38397D01*
X-19103Y38375D01*
X-19107Y38353D01*
X-19114Y38331D01*
X-19125Y38312D01*
X-19139Y38294D01*
X-19155Y38279D01*
X-19174Y38266D01*
X-19195Y38257D01*
X-19217Y38252D01*
X-19239Y38250D01*
X-19414Y38250D01*
X-19414Y38600D01*
X-19415Y38600D02*
X-19413Y38620D01*
X-19408Y38640D01*
X-19399Y38659D01*
X-19388Y38675D01*
X-19373Y38690D01*
X-19357Y38701D01*
X-19338Y38710D01*
X-19318Y38715D01*
X-19298Y38717D01*
X-19142Y38717D01*
X-19624Y38717D02*
X-19858Y38717D01*
X-19702Y38950D02*
X-19702Y38367D01*
X-19704Y38347D01*
X-19709Y38327D01*
X-19718Y38309D01*
X-19729Y38292D01*
X-19744Y38277D01*
X-19761Y38266D01*
X-19779Y38257D01*
X-19799Y38252D01*
X-19819Y38250D01*
X-19858Y38250D01*
X-20050Y38172D02*
X-20361Y38172D01*
X-20578Y38794D02*
X-20772Y38950D01*
X-20772Y38250D01*
X-20578Y38250D02*
X-20967Y38250D01*
X-21208Y38600D02*
X-21210Y38644D01*
X-21215Y38687D01*
X-21223Y38730D01*
X-21234Y38772D01*
X-21249Y38813D01*
X-21266Y38853D01*
X-21275Y38873D01*
X-21287Y38892D01*
X-21301Y38909D01*
X-21318Y38923D01*
X-21337Y38935D01*
X-21358Y38943D01*
X-21380Y38948D01*
X-21402Y38950D01*
X-21424Y38948D01*
X-21446Y38943D01*
X-21467Y38935D01*
X-21486Y38923D01*
X-21503Y38909D01*
X-21517Y38892D01*
X-21529Y38873D01*
X-21538Y38853D01*
X-21539Y38853D02*
X-21556Y38813D01*
X-21571Y38772D01*
X-21582Y38730D01*
X-21590Y38687D01*
X-21595Y38644D01*
X-21597Y38600D01*
X-21208Y38600D02*
X-21210Y38556D01*
X-21215Y38513D01*
X-21223Y38470D01*
X-21234Y38428D01*
X-21249Y38387D01*
X-21266Y38347D01*
X-21275Y38327D01*
X-21287Y38308D01*
X-21301Y38291D01*
X-21318Y38277D01*
X-21337Y38265D01*
X-21358Y38257D01*
X-21380Y38252D01*
X-21402Y38250D01*
X-21539Y38347D02*
X-21556Y38387D01*
X-21571Y38428D01*
X-21582Y38470D01*
X-21590Y38513D01*
X-21595Y38556D01*
X-21597Y38600D01*
X-21538Y38347D02*
X-21529Y38327D01*
X-21517Y38308D01*
X-21503Y38291D01*
X-21486Y38277D01*
X-21467Y38265D01*
X-21446Y38257D01*
X-21424Y38252D01*
X-21402Y38250D01*
X-21247Y38406D02*
X-21558Y38794D01*
X-21824Y38289D02*
X-21824Y38250D01*
X-21824Y38289D02*
X-21863Y38289D01*
X-21863Y38250D01*
X-21824Y38250D01*
X-22090Y38600D02*
X-22092Y38644D01*
X-22097Y38687D01*
X-22105Y38730D01*
X-22116Y38772D01*
X-22131Y38813D01*
X-22148Y38853D01*
X-22157Y38873D01*
X-22169Y38892D01*
X-22183Y38909D01*
X-22200Y38923D01*
X-22219Y38935D01*
X-22240Y38943D01*
X-22262Y38948D01*
X-22284Y38950D01*
X-22306Y38948D01*
X-22328Y38943D01*
X-22349Y38935D01*
X-22368Y38923D01*
X-22385Y38909D01*
X-22399Y38892D01*
X-22411Y38873D01*
X-22420Y38853D01*
X-22421Y38853D02*
X-22438Y38813D01*
X-22453Y38772D01*
X-22464Y38730D01*
X-22472Y38687D01*
X-22477Y38644D01*
X-22479Y38600D01*
X-22090Y38600D02*
X-22092Y38556D01*
X-22097Y38513D01*
X-22105Y38470D01*
X-22116Y38428D01*
X-22131Y38387D01*
X-22148Y38347D01*
X-22157Y38327D01*
X-22169Y38308D01*
X-22183Y38291D01*
X-22200Y38277D01*
X-22219Y38265D01*
X-22240Y38257D01*
X-22262Y38252D01*
X-22284Y38250D01*
X-22421Y38347D02*
X-22438Y38387D01*
X-22453Y38428D01*
X-22464Y38470D01*
X-22472Y38513D01*
X-22477Y38556D01*
X-22479Y38600D01*
X-22420Y38347D02*
X-22411Y38327D01*
X-22399Y38308D01*
X-22385Y38291D01*
X-22368Y38277D01*
X-22349Y38265D01*
X-22328Y38257D01*
X-22306Y38252D01*
X-22284Y38250D01*
X-22129Y38406D02*
X-22440Y38794D01*
X-22720Y38639D02*
X-22953Y38639D01*
X-22975Y38637D01*
X-22997Y38633D01*
X-23018Y38625D01*
X-23037Y38614D01*
X-23055Y38601D01*
X-23071Y38585D01*
X-23084Y38567D01*
X-23095Y38548D01*
X-23103Y38527D01*
X-23107Y38505D01*
X-23109Y38483D01*
X-23109Y38444D01*
X-23108Y38444D02*
X-23106Y38416D01*
X-23100Y38389D01*
X-23090Y38363D01*
X-23077Y38339D01*
X-23061Y38317D01*
X-23041Y38297D01*
X-23019Y38281D01*
X-22995Y38268D01*
X-22969Y38258D01*
X-22942Y38252D01*
X-22914Y38250D01*
X-22886Y38252D01*
X-22859Y38258D01*
X-22833Y38268D01*
X-22809Y38281D01*
X-22787Y38297D01*
X-22767Y38317D01*
X-22751Y38339D01*
X-22738Y38363D01*
X-22728Y38389D01*
X-22722Y38416D01*
X-22720Y38444D01*
X-22720Y38639D01*
X-22722Y38674D01*
X-22728Y38708D01*
X-22737Y38742D01*
X-22751Y38774D01*
X-22768Y38804D01*
X-22788Y38833D01*
X-22811Y38859D01*
X-22837Y38882D01*
X-22866Y38902D01*
X-22896Y38919D01*
X-22928Y38933D01*
X-22962Y38942D01*
X-22996Y38948D01*
X-23031Y38950D01*
X-23336Y38289D02*
X-23336Y38250D01*
X-23336Y38289D02*
X-23375Y38289D01*
X-23375Y38250D01*
X-23336Y38250D01*
X-23602Y38406D02*
X-23758Y38950D01*
X-23602Y38406D02*
X-23991Y38406D01*
X-23874Y38561D02*
X-23874Y38250D01*
X-24232Y38794D02*
X-24426Y38950D01*
X-24426Y38250D01*
X-24232Y38250D02*
X-24621Y38250D01*
X-24838Y38172D02*
X-25149Y38172D01*
X-25392Y38250D02*
X-25392Y38950D01*
X-25586Y38950D01*
X-25614Y38948D01*
X-25641Y38942D01*
X-25667Y38932D01*
X-25691Y38919D01*
X-25713Y38903D01*
X-25733Y38883D01*
X-25749Y38861D01*
X-25762Y38837D01*
X-25772Y38811D01*
X-25778Y38784D01*
X-25780Y38756D01*
X-25778Y38728D01*
X-25772Y38701D01*
X-25762Y38675D01*
X-25749Y38651D01*
X-25733Y38629D01*
X-25713Y38609D01*
X-25691Y38593D01*
X-25667Y38580D01*
X-25641Y38570D01*
X-25614Y38564D01*
X-25586Y38562D01*
X-25586Y38561D02*
X-25392Y38561D01*
X-26020Y38250D02*
X-26020Y38950D01*
X-26253Y38561D01*
X-26487Y38950D01*
X-26487Y38250D01*
X-26738Y38250D02*
X-26738Y38289D01*
X-26777Y38289D01*
X-26777Y38250D01*
X-26738Y38250D01*
X-27023Y38250D02*
X-27023Y38950D01*
X-27023Y38250D02*
X-27218Y38250D01*
X-27238Y38252D01*
X-27258Y38257D01*
X-27277Y38266D01*
X-27293Y38277D01*
X-27308Y38292D01*
X-27319Y38309D01*
X-27328Y38327D01*
X-27333Y38347D01*
X-27335Y38367D01*
X-27334Y38367D02*
X-27334Y38600D01*
X-27335Y38600D02*
X-27333Y38620D01*
X-27328Y38640D01*
X-27319Y38659D01*
X-27308Y38675D01*
X-27293Y38690D01*
X-27277Y38701D01*
X-27258Y38710D01*
X-27238Y38715D01*
X-27218Y38717D01*
X-27023Y38717D01*
X-27595Y38717D02*
X-27595Y38250D01*
X-27595Y38717D02*
X-27945Y38717D01*
X-27965Y38715D01*
X-27985Y38710D01*
X-28004Y38701D01*
X-28020Y38690D01*
X-28035Y38675D01*
X-28046Y38659D01*
X-28055Y38640D01*
X-28060Y38620D01*
X-28062Y38600D01*
X-28062Y38250D01*
X-27828Y38250D02*
X-27828Y38717D01*
X-28346Y38717D02*
X-28346Y38017D01*
X-28346Y38717D02*
X-28541Y38717D01*
X-28561Y38715D01*
X-28581Y38710D01*
X-28600Y38701D01*
X-28616Y38690D01*
X-28631Y38675D01*
X-28642Y38659D01*
X-28651Y38640D01*
X-28656Y38620D01*
X-28658Y38600D01*
X-28657Y38600D02*
X-28657Y38367D01*
X-28658Y38367D02*
X-28656Y38347D01*
X-28651Y38327D01*
X-28642Y38309D01*
X-28631Y38292D01*
X-28616Y38277D01*
X-28600Y38266D01*
X-28581Y38257D01*
X-28561Y38252D01*
X-28541Y38250D01*
X-28346Y38250D01*
D18*
X616110Y1009010D02*
X616116Y1009501D01*
X616134Y1009991D01*
X616164Y1010481D01*
X616206Y1010970D01*
X616260Y1011458D01*
X616326Y1011945D01*
X616404Y1012429D01*
X616494Y1012912D01*
X616596Y1013392D01*
X616709Y1013870D01*
X616834Y1014344D01*
X616971Y1014816D01*
X617119Y1015284D01*
X617279Y1015748D01*
X617450Y1016208D01*
X617632Y1016664D01*
X617826Y1017115D01*
X618030Y1017561D01*
X618246Y1018002D01*
X618472Y1018438D01*
X618708Y1018868D01*
X618955Y1019292D01*
X619213Y1019710D01*
X619481Y1020121D01*
X619758Y1020526D01*
X620046Y1020924D01*
X620343Y1021315D01*
X620650Y1021698D01*
X620966Y1022073D01*
X621291Y1022441D01*
X621625Y1022801D01*
X621968Y1023152D01*
X622319Y1023495D01*
X622679Y1023829D01*
X623047Y1024154D01*
X623422Y1024470D01*
X623805Y1024777D01*
X624196Y1025074D01*
X624594Y1025362D01*
X624999Y1025639D01*
X625410Y1025907D01*
X625828Y1026165D01*
X626252Y1026412D01*
X626682Y1026648D01*
X627118Y1026874D01*
X627559Y1027090D01*
X628005Y1027294D01*
X628456Y1027488D01*
X628912Y1027670D01*
X629372Y1027841D01*
X629836Y1028001D01*
X630304Y1028149D01*
X630776Y1028286D01*
X631250Y1028411D01*
X631728Y1028524D01*
X632208Y1028626D01*
X632691Y1028716D01*
X633175Y1028794D01*
X633662Y1028860D01*
X634150Y1028914D01*
X634639Y1028956D01*
X635129Y1028986D01*
X635619Y1029004D01*
X636110Y1029010D01*
X636601Y1029004D01*
X637091Y1028986D01*
X637581Y1028956D01*
X638070Y1028914D01*
X638558Y1028860D01*
X639045Y1028794D01*
X639529Y1028716D01*
X640012Y1028626D01*
X640492Y1028524D01*
X640970Y1028411D01*
X641444Y1028286D01*
X641916Y1028149D01*
X642384Y1028001D01*
X642848Y1027841D01*
X643308Y1027670D01*
X643764Y1027488D01*
X644215Y1027294D01*
X644661Y1027090D01*
X645102Y1026874D01*
X645538Y1026648D01*
X645968Y1026412D01*
X646392Y1026165D01*
X646810Y1025907D01*
X647221Y1025639D01*
X647626Y1025362D01*
X648024Y1025074D01*
X648415Y1024777D01*
X648798Y1024470D01*
X649173Y1024154D01*
X649541Y1023829D01*
X649901Y1023495D01*
X650252Y1023152D01*
X650595Y1022801D01*
X650929Y1022441D01*
X651254Y1022073D01*
X651570Y1021698D01*
X651877Y1021315D01*
X652174Y1020924D01*
X652462Y1020526D01*
X652739Y1020121D01*
X653007Y1019710D01*
X653265Y1019292D01*
X653512Y1018868D01*
X653748Y1018438D01*
X653974Y1018002D01*
X654190Y1017561D01*
X654394Y1017115D01*
X654588Y1016664D01*
X654770Y1016208D01*
X654941Y1015748D01*
X655101Y1015284D01*
X655249Y1014816D01*
X655386Y1014344D01*
X655511Y1013870D01*
X655624Y1013392D01*
X655726Y1012912D01*
X655816Y1012429D01*
X655894Y1011945D01*
X655960Y1011458D01*
X656014Y1010970D01*
X656056Y1010481D01*
X656086Y1009991D01*
X656104Y1009501D01*
X656110Y1009010D01*
X656104Y1008519D01*
X656086Y1008029D01*
X656056Y1007539D01*
X656014Y1007050D01*
X655960Y1006562D01*
X655894Y1006075D01*
X655816Y1005591D01*
X655726Y1005108D01*
X655624Y1004628D01*
X655511Y1004150D01*
X655386Y1003676D01*
X655249Y1003204D01*
X655101Y1002736D01*
X654941Y1002272D01*
X654770Y1001812D01*
X654588Y1001356D01*
X654394Y1000905D01*
X654190Y1000459D01*
X653974Y1000018D01*
X653748Y999582D01*
X653512Y999152D01*
X653265Y998728D01*
X653007Y998310D01*
X652739Y997899D01*
X652462Y997494D01*
X652174Y997096D01*
X651877Y996705D01*
X651570Y996322D01*
X651254Y995947D01*
X650929Y995579D01*
X650595Y995219D01*
X650252Y994868D01*
X649901Y994525D01*
X649541Y994191D01*
X649173Y993866D01*
X648798Y993550D01*
X648415Y993243D01*
X648024Y992946D01*
X647626Y992658D01*
X647221Y992381D01*
X646810Y992113D01*
X646392Y991855D01*
X645968Y991608D01*
X645538Y991372D01*
X645102Y991146D01*
X644661Y990930D01*
X644215Y990726D01*
X643764Y990532D01*
X643308Y990350D01*
X642848Y990179D01*
X642384Y990019D01*
X641916Y989871D01*
X641444Y989734D01*
X640970Y989609D01*
X640492Y989496D01*
X640012Y989394D01*
X639529Y989304D01*
X639045Y989226D01*
X638558Y989160D01*
X638070Y989106D01*
X637581Y989064D01*
X637091Y989034D01*
X636601Y989016D01*
X636110Y989010D01*
X635619Y989016D01*
X635129Y989034D01*
X634639Y989064D01*
X634150Y989106D01*
X633662Y989160D01*
X633175Y989226D01*
X632691Y989304D01*
X632208Y989394D01*
X631728Y989496D01*
X631250Y989609D01*
X630776Y989734D01*
X630304Y989871D01*
X629836Y990019D01*
X629372Y990179D01*
X628912Y990350D01*
X628456Y990532D01*
X628005Y990726D01*
X627559Y990930D01*
X627118Y991146D01*
X626682Y991372D01*
X626252Y991608D01*
X625828Y991855D01*
X625410Y992113D01*
X624999Y992381D01*
X624594Y992658D01*
X624196Y992946D01*
X623805Y993243D01*
X623422Y993550D01*
X623047Y993866D01*
X622679Y994191D01*
X622319Y994525D01*
X621968Y994868D01*
X621625Y995219D01*
X621291Y995579D01*
X620966Y995947D01*
X620650Y996322D01*
X620343Y996705D01*
X620046Y997096D01*
X619758Y997494D01*
X619481Y997899D01*
X619213Y998310D01*
X618955Y998728D01*
X618708Y999152D01*
X618472Y999582D01*
X618246Y1000018D01*
X618030Y1000459D01*
X617826Y1000905D01*
X617632Y1001356D01*
X617450Y1001812D01*
X617279Y1002272D01*
X617119Y1002736D01*
X616971Y1003204D01*
X616834Y1003676D01*
X616709Y1004150D01*
X616596Y1004628D01*
X616494Y1005108D01*
X616404Y1005591D01*
X616326Y1006075D01*
X616260Y1006562D01*
X616206Y1007050D01*
X616164Y1007539D01*
X616134Y1008029D01*
X616116Y1008519D01*
X616110Y1009010D01*
D19*
X452500Y1004882D02*
X452378Y1004880D01*
X452256Y1004874D01*
X452134Y1004864D01*
X452013Y1004851D01*
X451892Y1004833D01*
X451772Y1004812D01*
X451652Y1004786D01*
X451534Y1004757D01*
X451416Y1004725D01*
X451299Y1004688D01*
X451184Y1004648D01*
X451070Y1004604D01*
X450958Y1004556D01*
X450847Y1004505D01*
X450738Y1004450D01*
X450630Y1004392D01*
X450525Y1004330D01*
X450422Y1004265D01*
X450320Y1004197D01*
X450221Y1004125D01*
X450125Y1004051D01*
X450030Y1003973D01*
X449939Y1003892D01*
X449849Y1003809D01*
X449763Y1003723D01*
X449680Y1003633D01*
X449599Y1003542D01*
X449521Y1003447D01*
X449447Y1003351D01*
X449375Y1003252D01*
X449307Y1003150D01*
X449242Y1003047D01*
X449180Y1002942D01*
X449122Y1002834D01*
X449067Y1002725D01*
X449016Y1002614D01*
X448968Y1002502D01*
X448924Y1002388D01*
X448884Y1002273D01*
X448847Y1002156D01*
X448815Y1002038D01*
X448786Y1001920D01*
X448760Y1001800D01*
X448739Y1001680D01*
X448721Y1001559D01*
X448708Y1001438D01*
X448698Y1001316D01*
X448692Y1001194D01*
X448690Y1001072D01*
X448692Y1000950D01*
X448698Y1000828D01*
X448708Y1000706D01*
X448721Y1000585D01*
X448739Y1000464D01*
X448760Y1000344D01*
X448786Y1000224D01*
X448815Y1000106D01*
X448847Y999988D01*
X448884Y999871D01*
X448924Y999756D01*
X448968Y999642D01*
X449016Y999530D01*
X449067Y999419D01*
X449122Y999310D01*
X449180Y999202D01*
X449242Y999097D01*
X449307Y998994D01*
X449375Y998892D01*
X449447Y998793D01*
X449521Y998697D01*
X449599Y998602D01*
X449680Y998511D01*
X449763Y998421D01*
X449849Y998335D01*
X449939Y998252D01*
X450030Y998171D01*
X450125Y998093D01*
X450221Y998019D01*
X450320Y997947D01*
X450422Y997879D01*
X450525Y997814D01*
X450630Y997752D01*
X450738Y997694D01*
X450847Y997639D01*
X450958Y997588D01*
X451070Y997540D01*
X451184Y997496D01*
X451299Y997456D01*
X451416Y997419D01*
X451534Y997387D01*
X451652Y997358D01*
X451772Y997332D01*
X451892Y997311D01*
X452013Y997293D01*
X452134Y997280D01*
X452256Y997270D01*
X452378Y997264D01*
X452500Y997262D01*
X452622Y997264D01*
X452744Y997270D01*
X452866Y997280D01*
X452987Y997293D01*
X453108Y997311D01*
X453228Y997332D01*
X453348Y997358D01*
X453466Y997387D01*
X453584Y997419D01*
X453701Y997456D01*
X453816Y997496D01*
X453930Y997540D01*
X454042Y997588D01*
X454153Y997639D01*
X454262Y997694D01*
X454370Y997752D01*
X454475Y997814D01*
X454578Y997879D01*
X454680Y997947D01*
X454779Y998019D01*
X454875Y998093D01*
X454970Y998171D01*
X455061Y998252D01*
X455151Y998335D01*
X455237Y998421D01*
X455320Y998511D01*
X455401Y998602D01*
X455479Y998697D01*
X455553Y998793D01*
X455625Y998892D01*
X455693Y998994D01*
X455758Y999097D01*
X455820Y999202D01*
X455878Y999310D01*
X455933Y999419D01*
X455984Y999530D01*
X456032Y999642D01*
X456076Y999756D01*
X456116Y999871D01*
X456153Y999988D01*
X456185Y1000106D01*
X456214Y1000224D01*
X456240Y1000344D01*
X456261Y1000464D01*
X456279Y1000585D01*
X456292Y1000706D01*
X456302Y1000828D01*
X456308Y1000950D01*
X456310Y1001072D01*
X456308Y1001194D01*
X456302Y1001316D01*
X456292Y1001438D01*
X456279Y1001559D01*
X456261Y1001680D01*
X456240Y1001800D01*
X456214Y1001920D01*
X456185Y1002038D01*
X456153Y1002156D01*
X456116Y1002273D01*
X456076Y1002388D01*
X456032Y1002502D01*
X455984Y1002614D01*
X455933Y1002725D01*
X455878Y1002834D01*
X455820Y1002942D01*
X455758Y1003047D01*
X455693Y1003150D01*
X455625Y1003252D01*
X455553Y1003351D01*
X455479Y1003447D01*
X455401Y1003542D01*
X455320Y1003633D01*
X455237Y1003723D01*
X455151Y1003809D01*
X455061Y1003892D01*
X454970Y1003973D01*
X454875Y1004051D01*
X454779Y1004125D01*
X454680Y1004197D01*
X454578Y1004265D01*
X454475Y1004330D01*
X454370Y1004392D01*
X454262Y1004450D01*
X454153Y1004505D01*
X454042Y1004556D01*
X453930Y1004604D01*
X453816Y1004648D01*
X453701Y1004688D01*
X453584Y1004725D01*
X453466Y1004757D01*
X453348Y1004786D01*
X453228Y1004812D01*
X453108Y1004833D01*
X452987Y1004851D01*
X452866Y1004864D01*
X452744Y1004874D01*
X452622Y1004880D01*
X452500Y1004882D01*
D20*
X294495Y356668D02*
X282557Y352688D01*
X282557Y360647D02*
X294495Y356668D01*
X285542Y359652D02*
X285542Y353683D01*
X322557Y355341D02*
X322557Y360647D01*
X322557Y355341D02*
X334495Y355341D01*
X334495Y360647D01*
X329189Y359321D02*
X329189Y355341D01*
X261282Y381174D02*
X257966Y383827D01*
X257966Y371889D01*
X261282Y371889D02*
X254650Y371889D01*
X257303Y411889D02*
X261282Y411889D01*
X257303Y411889D02*
X257201Y411891D01*
X257100Y411897D01*
X256999Y411907D01*
X256898Y411920D01*
X256798Y411938D01*
X256699Y411959D01*
X256600Y411984D01*
X256503Y412013D01*
X256406Y412045D01*
X256311Y412081D01*
X256218Y412121D01*
X256126Y412164D01*
X256036Y412211D01*
X255947Y412262D01*
X255861Y412315D01*
X255777Y412372D01*
X255695Y412432D01*
X255615Y412495D01*
X255538Y412561D01*
X255463Y412630D01*
X255391Y412702D01*
X255322Y412777D01*
X255256Y412854D01*
X255193Y412934D01*
X255133Y413016D01*
X255076Y413100D01*
X255023Y413186D01*
X254972Y413275D01*
X254925Y413365D01*
X254882Y413457D01*
X254842Y413550D01*
X254806Y413645D01*
X254774Y413741D01*
X254745Y413839D01*
X254720Y413937D01*
X254699Y414037D01*
X254681Y414137D01*
X254668Y414238D01*
X254658Y414339D01*
X254652Y414440D01*
X254650Y414542D01*
X254650Y415868D01*
X254652Y415970D01*
X254658Y416071D01*
X254668Y416172D01*
X254681Y416273D01*
X254699Y416373D01*
X254720Y416472D01*
X254745Y416571D01*
X254774Y416668D01*
X254806Y416765D01*
X254842Y416860D01*
X254882Y416953D01*
X254925Y417045D01*
X254972Y417135D01*
X255023Y417224D01*
X255076Y417310D01*
X255133Y417394D01*
X255193Y417476D01*
X255256Y417556D01*
X255322Y417633D01*
X255391Y417708D01*
X255463Y417780D01*
X255538Y417849D01*
X255615Y417915D01*
X255695Y417978D01*
X255777Y418038D01*
X255861Y418095D01*
X255947Y418148D01*
X256036Y418199D01*
X256126Y418246D01*
X256218Y418289D01*
X256311Y418329D01*
X256406Y418365D01*
X256503Y418397D01*
X256600Y418426D01*
X256699Y418451D01*
X256798Y418472D01*
X256898Y418490D01*
X256999Y418503D01*
X257100Y418513D01*
X257201Y418519D01*
X257303Y418521D01*
X261282Y418521D01*
X261282Y423827D01*
X254650Y423827D01*
M02*
