G04 EAGLE Gerber RS-274X export*
G75*
%MOMM*%
%FSLAX34Y34*%
%LPD*%
%INSoldermask Top*%
%IPPOS*%
%AMOC8*
5,1,8,0,0,1.08239X$1,22.5*%
G01*
%ADD10R,1.124100X1.173400*%
%ADD11R,1.173400X1.124100*%
%ADD12R,2.903200X1.803200*%
%ADD13C,0.505344*%
%ADD14R,1.003200X1.353200*%
%ADD15C,0.965200*%
%ADD16R,1.653200X0.503200*%
%ADD17R,1.653200X0.803200*%
%ADD18R,1.653200X0.753200*%
%ADD19C,0.853200*%
%ADD20R,4.803200X1.203200*%
%ADD21R,3.603200X1.803200*%
%ADD22R,5.203200X2.203200*%
%ADD23R,1.603200X3.763200*%
%ADD24R,1.403200X1.403200*%
%ADD25R,2.203200X2.203200*%
%ADD26R,1.403200X1.603200*%
%ADD27R,1.253200X0.703200*%
%ADD28R,1.303200X1.203200*%
%ADD29R,1.203200X1.303200*%
%ADD30R,2.003200X1.803200*%
%ADD31R,0.403200X0.903200*%
%ADD32C,2.753200*%
%ADD33R,0.903200X1.703200*%
%ADD34R,1.203200X0.803200*%
%ADD35R,1.203200X1.003200*%
%ADD36C,1.103200*%
%ADD37R,0.838200X1.473200*%
%ADD38R,1.203200X1.603200*%
%ADD39C,3.719200*%
%ADD40R,2.903200X2.903200*%
%ADD41C,0.553200*%
%ADD42C,1.111200*%
%ADD43R,1.219200X0.558800*%
%ADD44R,0.403200X1.053200*%
%ADD45R,2.153200X2.153200*%
%ADD46R,1.203200X0.453200*%
%ADD47R,3.500000X0.450000*%
%ADD48R,1.053200X0.483200*%
%ADD49R,0.483200X1.053200*%
%ADD50R,1.903200X1.903200*%
%ADD51R,1.403200X0.753200*%
%ADD52R,0.503200X1.003200*%
%ADD53R,1.503200X3.253200*%
%ADD54C,0.555478*%
%ADD55R,0.350000X0.900000*%
%ADD56R,0.900000X0.350000*%
%ADD57R,1.603200X1.403200*%
%ADD58R,1.443200X1.703200*%
%ADD59R,1.703200X1.443200*%
%ADD60R,0.403200X0.403200*%
%ADD61R,0.609600X1.422400*%
%ADD62R,0.803200X1.903200*%
%ADD63R,1.203200X3.003200*%
%ADD64C,0.431800*%
%ADD65R,0.753200X1.403200*%
%ADD66R,1.703200X1.503200*%
%ADD67R,1.503200X1.703200*%
%ADD68R,1.016000X0.381000*%
%ADD69R,0.381000X1.016000*%
%ADD70R,3.403600X3.403600*%
%ADD71C,0.558800*%
%ADD72R,1.503200X1.253200*%
%ADD73R,1.103200X1.003200*%
%ADD74C,1.743200*%
%ADD75C,2.153200*%
%ADD76R,1.203200X1.173200*%
%ADD77R,1.003200X0.753200*%
%ADD78C,0.320000*%
%ADD79C,0.815200*%
%ADD80C,0.926200*%
%ADD81C,0.765200*%
%ADD82C,0.553200*%
%ADD83R,0.736600X1.663700*%
%ADD84C,1.016000*%

G36*
X257202Y84595D02*
X257202Y84595D01*
X257204Y84594D01*
X257247Y84614D01*
X257291Y84632D01*
X257291Y84634D01*
X257293Y84635D01*
X257326Y84720D01*
X257326Y106720D01*
X257325Y106722D01*
X257326Y106724D01*
X257306Y106767D01*
X257288Y106811D01*
X257286Y106811D01*
X257285Y106813D01*
X257200Y106846D01*
X246200Y106846D01*
X246198Y106845D01*
X246196Y106846D01*
X246153Y106826D01*
X246109Y106808D01*
X246109Y106806D01*
X246107Y106805D01*
X246074Y106720D01*
X246074Y84720D01*
X246075Y84718D01*
X246074Y84716D01*
X246094Y84673D01*
X246112Y84629D01*
X246114Y84629D01*
X246115Y84627D01*
X246200Y84594D01*
X257200Y84594D01*
X257202Y84595D01*
G37*
G36*
X434202Y84595D02*
X434202Y84595D01*
X434204Y84594D01*
X434247Y84614D01*
X434291Y84632D01*
X434291Y84634D01*
X434293Y84635D01*
X434326Y84720D01*
X434326Y106720D01*
X434325Y106722D01*
X434326Y106724D01*
X434306Y106767D01*
X434288Y106811D01*
X434286Y106811D01*
X434285Y106813D01*
X434200Y106846D01*
X423200Y106846D01*
X423198Y106845D01*
X423196Y106846D01*
X423153Y106826D01*
X423109Y106808D01*
X423109Y106806D01*
X423107Y106805D01*
X423074Y106720D01*
X423074Y84720D01*
X423075Y84718D01*
X423074Y84716D01*
X423094Y84673D01*
X423112Y84629D01*
X423114Y84629D01*
X423115Y84627D01*
X423200Y84594D01*
X434200Y84594D01*
X434202Y84595D01*
G37*
G36*
X76125Y196434D02*
X76125Y196434D01*
X76127Y196431D01*
X77407Y196626D01*
X77413Y196632D01*
X77417Y196629D01*
X78621Y197104D01*
X78626Y197111D01*
X78631Y197109D01*
X79699Y197840D01*
X79702Y197847D01*
X79708Y197847D01*
X80587Y198797D01*
X80587Y198805D01*
X80593Y198806D01*
X81238Y199927D01*
X81237Y199936D01*
X81243Y199938D01*
X81622Y201175D01*
X81620Y201183D01*
X81624Y201186D01*
X81719Y202476D01*
X81716Y202481D01*
X81719Y202483D01*
X81652Y203614D01*
X81647Y203619D01*
X81651Y203623D01*
X81364Y204720D01*
X81358Y204724D01*
X81361Y204729D01*
X80866Y205748D01*
X80860Y205751D01*
X80861Y205756D01*
X80177Y206659D01*
X80170Y206661D01*
X80170Y206666D01*
X79323Y207419D01*
X79316Y207419D01*
X79315Y207424D01*
X78338Y207997D01*
X78331Y207996D01*
X78329Y208001D01*
X77258Y208372D01*
X77252Y208369D01*
X77249Y208374D01*
X76127Y208529D01*
X76122Y208526D01*
X76120Y208529D01*
X64120Y208529D01*
X64115Y208526D01*
X64112Y208529D01*
X62845Y208324D01*
X62839Y208318D01*
X62835Y208321D01*
X61645Y207839D01*
X61641Y207832D01*
X61635Y207834D01*
X60582Y207100D01*
X60580Y207092D01*
X60574Y207093D01*
X59711Y206143D01*
X59710Y206134D01*
X59705Y206134D01*
X59075Y205015D01*
X59076Y205007D01*
X59070Y205005D01*
X58705Y203775D01*
X58708Y203767D01*
X58703Y203764D01*
X58621Y202483D01*
X58624Y202479D01*
X58621Y202477D01*
X58703Y201196D01*
X58709Y201190D01*
X58705Y201185D01*
X59070Y199955D01*
X59077Y199950D01*
X59075Y199945D01*
X59705Y198826D01*
X59712Y198823D01*
X59711Y198817D01*
X60574Y197867D01*
X60582Y197866D01*
X60582Y197860D01*
X61635Y197126D01*
X61643Y197126D01*
X61645Y197121D01*
X62835Y196639D01*
X62842Y196641D01*
X62845Y196636D01*
X64112Y196431D01*
X64117Y196434D01*
X64120Y196431D01*
X76120Y196431D01*
X76125Y196434D01*
G37*
G36*
X76125Y110034D02*
X76125Y110034D01*
X76127Y110031D01*
X77407Y110226D01*
X77413Y110232D01*
X77417Y110229D01*
X78621Y110704D01*
X78626Y110711D01*
X78631Y110709D01*
X79699Y111440D01*
X79702Y111447D01*
X79708Y111447D01*
X80587Y112397D01*
X80587Y112405D01*
X80593Y112406D01*
X81238Y113527D01*
X81237Y113536D01*
X81243Y113538D01*
X81622Y114775D01*
X81620Y114783D01*
X81624Y114786D01*
X81719Y116076D01*
X81716Y116081D01*
X81719Y116083D01*
X81652Y117214D01*
X81647Y117219D01*
X81651Y117223D01*
X81364Y118320D01*
X81358Y118324D01*
X81361Y118329D01*
X80866Y119348D01*
X80860Y119351D01*
X80861Y119356D01*
X80177Y120259D01*
X80170Y120261D01*
X80170Y120266D01*
X79323Y121019D01*
X79316Y121019D01*
X79315Y121024D01*
X78338Y121597D01*
X78331Y121596D01*
X78329Y121601D01*
X77258Y121972D01*
X77252Y121969D01*
X77249Y121974D01*
X76127Y122129D01*
X76122Y122126D01*
X76120Y122129D01*
X64120Y122129D01*
X64115Y122126D01*
X64112Y122129D01*
X62845Y121924D01*
X62839Y121918D01*
X62835Y121921D01*
X61645Y121439D01*
X61641Y121432D01*
X61635Y121434D01*
X60582Y120700D01*
X60580Y120692D01*
X60574Y120693D01*
X59711Y119743D01*
X59710Y119734D01*
X59705Y119734D01*
X59075Y118615D01*
X59076Y118607D01*
X59070Y118605D01*
X58705Y117375D01*
X58708Y117367D01*
X58703Y117364D01*
X58621Y116083D01*
X58624Y116079D01*
X58621Y116077D01*
X58703Y114796D01*
X58709Y114790D01*
X58705Y114785D01*
X59070Y113555D01*
X59077Y113550D01*
X59075Y113545D01*
X59705Y112426D01*
X59712Y112423D01*
X59711Y112417D01*
X60574Y111467D01*
X60582Y111466D01*
X60582Y111460D01*
X61635Y110726D01*
X61643Y110726D01*
X61645Y110721D01*
X62835Y110239D01*
X62842Y110241D01*
X62845Y110236D01*
X64112Y110031D01*
X64117Y110034D01*
X64120Y110031D01*
X76120Y110031D01*
X76125Y110034D01*
G37*
G36*
X31323Y196433D02*
X31323Y196433D01*
X31325Y196431D01*
X32501Y196542D01*
X32506Y196547D01*
X32510Y196544D01*
X33642Y196882D01*
X33646Y196888D01*
X33651Y196886D01*
X34695Y197438D01*
X34698Y197445D01*
X34703Y197443D01*
X35619Y198189D01*
X35620Y198196D01*
X35626Y198196D01*
X36379Y199106D01*
X36379Y199113D01*
X36384Y199114D01*
X36945Y200153D01*
X36944Y200158D01*
X36948Y200160D01*
X36947Y200161D01*
X36949Y200162D01*
X37296Y201291D01*
X37296Y201292D01*
X37297Y201293D01*
X37294Y201297D01*
X37298Y201300D01*
X37419Y202475D01*
X37415Y202482D01*
X37419Y202486D01*
X37262Y203826D01*
X37257Y203832D01*
X37260Y203837D01*
X36809Y205108D01*
X36802Y205113D01*
X36804Y205118D01*
X36082Y206257D01*
X36074Y206260D01*
X36075Y206266D01*
X35117Y207216D01*
X35109Y207217D01*
X35108Y207223D01*
X33963Y207936D01*
X33955Y207935D01*
X33953Y207941D01*
X32677Y208381D01*
X32670Y208379D01*
X32667Y208383D01*
X31325Y208529D01*
X31322Y208527D01*
X31320Y208529D01*
X25320Y208529D01*
X25317Y208527D01*
X25314Y208529D01*
X23985Y208374D01*
X23979Y208368D01*
X23975Y208371D01*
X22714Y207924D01*
X22709Y207917D01*
X22704Y207919D01*
X21574Y207202D01*
X21571Y207195D01*
X21565Y207196D01*
X20623Y206246D01*
X20622Y206237D01*
X20616Y206237D01*
X19909Y205101D01*
X19910Y205093D01*
X19904Y205091D01*
X19468Y203826D01*
X19470Y203818D01*
X19465Y203816D01*
X19321Y202485D01*
X19325Y202479D01*
X19321Y202475D01*
X19431Y201309D01*
X19436Y201304D01*
X19433Y201300D01*
X19768Y200177D01*
X19774Y200173D01*
X19772Y200169D01*
X20320Y199133D01*
X20326Y199130D01*
X20325Y199125D01*
X21064Y198217D01*
X21071Y198215D01*
X21071Y198210D01*
X21973Y197463D01*
X21981Y197463D01*
X21981Y197458D01*
X23012Y196901D01*
X23019Y196902D01*
X23021Y196897D01*
X24140Y196553D01*
X24147Y196555D01*
X24150Y196551D01*
X25315Y196431D01*
X25318Y196433D01*
X25320Y196431D01*
X31320Y196431D01*
X31323Y196433D01*
G37*
G36*
X31323Y110033D02*
X31323Y110033D01*
X31325Y110031D01*
X32501Y110142D01*
X32506Y110147D01*
X32510Y110144D01*
X33642Y110482D01*
X33646Y110488D01*
X33651Y110486D01*
X34695Y111038D01*
X34698Y111045D01*
X34703Y111043D01*
X35619Y111789D01*
X35620Y111796D01*
X35626Y111796D01*
X36379Y112706D01*
X36379Y112713D01*
X36384Y112714D01*
X36945Y113753D01*
X36944Y113758D01*
X36948Y113760D01*
X36947Y113761D01*
X36949Y113762D01*
X37296Y114891D01*
X37296Y114892D01*
X37297Y114893D01*
X37294Y114897D01*
X37298Y114900D01*
X37419Y116075D01*
X37415Y116082D01*
X37419Y116086D01*
X37262Y117426D01*
X37257Y117432D01*
X37260Y117437D01*
X36809Y118708D01*
X36802Y118713D01*
X36804Y118718D01*
X36082Y119857D01*
X36074Y119860D01*
X36075Y119866D01*
X35117Y120816D01*
X35109Y120817D01*
X35108Y120823D01*
X33963Y121536D01*
X33955Y121535D01*
X33953Y121541D01*
X32677Y121981D01*
X32670Y121979D01*
X32667Y121983D01*
X31325Y122129D01*
X31322Y122127D01*
X31320Y122129D01*
X25320Y122129D01*
X25317Y122127D01*
X25314Y122129D01*
X23985Y121974D01*
X23979Y121968D01*
X23975Y121971D01*
X22714Y121524D01*
X22709Y121517D01*
X22704Y121519D01*
X21574Y120802D01*
X21571Y120795D01*
X21565Y120796D01*
X20623Y119846D01*
X20622Y119837D01*
X20616Y119837D01*
X19909Y118701D01*
X19910Y118693D01*
X19904Y118691D01*
X19468Y117426D01*
X19470Y117418D01*
X19465Y117416D01*
X19321Y116085D01*
X19325Y116079D01*
X19321Y116075D01*
X19431Y114909D01*
X19436Y114904D01*
X19433Y114900D01*
X19768Y113777D01*
X19774Y113773D01*
X19772Y113769D01*
X20320Y112733D01*
X20326Y112730D01*
X20325Y112725D01*
X21064Y111817D01*
X21071Y111815D01*
X21071Y111810D01*
X21973Y111063D01*
X21981Y111063D01*
X21981Y111058D01*
X23012Y110501D01*
X23019Y110502D01*
X23021Y110497D01*
X24140Y110153D01*
X24147Y110155D01*
X24150Y110151D01*
X25315Y110031D01*
X25318Y110033D01*
X25320Y110031D01*
X31320Y110031D01*
X31323Y110033D01*
G37*
D10*
X499634Y312530D03*
X515126Y312530D03*
D11*
X324420Y130034D03*
X324420Y145526D03*
X342480Y130224D03*
X342480Y145716D03*
X306870Y127884D03*
X306870Y143376D03*
X289040Y125544D03*
X289040Y141036D03*
X251830Y141806D03*
X251830Y126314D03*
X271210Y125944D03*
X271210Y141436D03*
X327188Y157922D03*
X327188Y173414D03*
X416840Y143576D03*
X416840Y128084D03*
X327494Y184798D03*
X327494Y200290D03*
X638570Y347368D03*
X638570Y362860D03*
X495364Y356466D03*
X495364Y340974D03*
X654532Y347448D03*
X654532Y362940D03*
D10*
X575468Y259730D03*
X590960Y259730D03*
X543264Y218674D03*
X527772Y218674D03*
X621274Y229320D03*
X636766Y229320D03*
D11*
X365752Y995858D03*
X365752Y980366D03*
X81120Y102106D03*
X81120Y86614D03*
X351922Y966308D03*
X351922Y950816D03*
X383162Y996348D03*
X383162Y980856D03*
D10*
X291368Y1002052D03*
X275876Y1002052D03*
X291868Y966052D03*
X276376Y966052D03*
D11*
X382682Y965268D03*
X382682Y949776D03*
X367492Y966038D03*
X367492Y950546D03*
D10*
X500134Y294970D03*
X515626Y294970D03*
D11*
X397450Y129234D03*
X397450Y144726D03*
D12*
X485630Y386410D03*
X485630Y414410D03*
D10*
X291668Y983952D03*
X276176Y983952D03*
D11*
X378620Y128164D03*
X378620Y143656D03*
X360920Y129934D03*
X360920Y145426D03*
D13*
X67694Y631870D02*
X60714Y631870D01*
X60714Y638850D01*
X67694Y638850D01*
X67694Y631870D01*
X67694Y636670D02*
X60714Y636670D01*
X60714Y614330D02*
X67694Y614330D01*
X60714Y614330D02*
X60714Y621310D01*
X67694Y621310D01*
X67694Y614330D01*
X67694Y619130D02*
X60714Y619130D01*
D14*
X260990Y163340D03*
X260990Y198340D03*
X297480Y198200D03*
X297480Y163200D03*
X357540Y165680D03*
X357540Y200680D03*
D13*
X494498Y173204D02*
X494498Y166224D01*
X487518Y166224D01*
X487518Y173204D01*
X494498Y173204D01*
X494498Y171024D02*
X487518Y171024D01*
X512038Y173204D02*
X512038Y166224D01*
X505058Y166224D01*
X505058Y173204D01*
X512038Y173204D01*
X512038Y171024D02*
X505058Y171024D01*
X504738Y180664D02*
X504738Y187644D01*
X511718Y187644D01*
X511718Y180664D01*
X504738Y180664D01*
X504738Y185464D02*
X511718Y185464D01*
X487198Y187644D02*
X487198Y180664D01*
X487198Y187644D02*
X494178Y187644D01*
X494178Y180664D01*
X487198Y180664D01*
X487198Y185464D02*
X494178Y185464D01*
D15*
X591660Y427350D03*
D16*
X79320Y151780D03*
X79320Y156780D03*
D17*
X79320Y127030D03*
D18*
X79320Y134780D03*
D16*
X79320Y141780D03*
X79320Y146780D03*
X79320Y166780D03*
X79320Y161780D03*
D17*
X79320Y191530D03*
D18*
X79320Y183780D03*
D16*
X79320Y176780D03*
X79320Y171780D03*
D19*
X64870Y188180D03*
X64870Y130380D03*
D20*
X588640Y166430D03*
X588640Y146430D03*
D21*
X640640Y190430D03*
X640640Y122430D03*
D22*
X450796Y306166D03*
X450796Y338166D03*
D23*
X441930Y183230D03*
X387330Y183230D03*
D24*
X602530Y351640D03*
X602530Y372640D03*
X511120Y424650D03*
X532120Y424650D03*
D13*
X52310Y631408D02*
X45330Y631408D01*
X45330Y638388D01*
X52310Y638388D01*
X52310Y631408D01*
X52310Y636208D02*
X45330Y636208D01*
X45330Y613868D02*
X52310Y613868D01*
X45330Y613868D02*
X45330Y620848D01*
X52310Y620848D01*
X52310Y613868D01*
X52310Y618668D02*
X45330Y618668D01*
D25*
X212030Y61710D03*
X212030Y223710D03*
D26*
X450860Y870230D03*
X450860Y892230D03*
X466860Y870230D03*
X466860Y892230D03*
D27*
X450650Y103270D03*
X450650Y90270D03*
X471650Y96770D03*
D28*
X575960Y332350D03*
X575960Y315350D03*
D29*
X85310Y651552D03*
X102310Y651552D03*
D28*
X461010Y142930D03*
X461010Y125930D03*
D30*
X601656Y293330D03*
X601656Y321330D03*
D28*
X519050Y96750D03*
X519050Y113750D03*
D29*
X437968Y1033442D03*
X454968Y1033442D03*
X415472Y1033356D03*
X398472Y1033356D03*
D28*
X575960Y369340D03*
X575960Y352340D03*
X620068Y351206D03*
X620068Y368206D03*
X485870Y216430D03*
X485870Y233430D03*
D29*
X563820Y188860D03*
X546820Y188860D03*
D28*
X604308Y242384D03*
X604308Y259384D03*
D29*
X653298Y409050D03*
X636298Y409050D03*
D28*
X540270Y409670D03*
X540270Y392670D03*
X652960Y248420D03*
X652960Y231420D03*
X585900Y388390D03*
X585900Y405390D03*
X562700Y392070D03*
X562700Y409070D03*
D29*
X596328Y189758D03*
X579328Y189758D03*
D28*
X506660Y233550D03*
X506660Y216550D03*
D29*
X85464Y600708D03*
X102464Y600708D03*
D28*
X436400Y143090D03*
X436400Y126090D03*
D31*
X315220Y452790D03*
X315220Y483590D03*
X319220Y452790D03*
X319220Y483590D03*
X323220Y452790D03*
X323220Y483590D03*
X327220Y452790D03*
X327220Y483590D03*
X331220Y452790D03*
X331220Y483590D03*
X335220Y452790D03*
X335220Y483590D03*
X339220Y452790D03*
X339220Y483590D03*
X343220Y452790D03*
X343220Y483590D03*
X347220Y452790D03*
X347220Y483590D03*
X351220Y452790D03*
X351220Y483590D03*
X355220Y452790D03*
X355220Y483590D03*
X359220Y452790D03*
X359220Y483590D03*
X363220Y452790D03*
X363220Y483590D03*
X367220Y452790D03*
X367220Y483590D03*
X371220Y452790D03*
X371220Y483590D03*
X375220Y452790D03*
X375220Y483590D03*
X379220Y452790D03*
X379220Y483590D03*
X383220Y452790D03*
X383220Y483590D03*
X387220Y452790D03*
X387220Y483590D03*
X391220Y452790D03*
X391220Y483590D03*
X395220Y452790D03*
X395220Y483590D03*
X399220Y452790D03*
X399220Y483590D03*
X403220Y452790D03*
X403220Y483590D03*
X407220Y452790D03*
X407220Y483590D03*
X411220Y452790D03*
X411220Y483590D03*
X415220Y452790D03*
X415220Y483590D03*
X419220Y452790D03*
X419220Y483590D03*
X423220Y452790D03*
X423220Y483590D03*
X427220Y452790D03*
X427220Y483590D03*
X431220Y452790D03*
X431220Y483590D03*
X435220Y452790D03*
X435220Y483590D03*
X439220Y452790D03*
X439220Y483590D03*
X443220Y452790D03*
X443220Y483590D03*
X447220Y452790D03*
X447220Y483590D03*
X451220Y452790D03*
X451220Y483590D03*
X455220Y452790D03*
X455220Y483590D03*
X459220Y452790D03*
X459220Y483590D03*
X463220Y452790D03*
X463220Y483590D03*
X467220Y452790D03*
X467220Y483590D03*
X471220Y452790D03*
X471220Y483590D03*
X475220Y452790D03*
X475220Y483590D03*
X479220Y452790D03*
X479220Y483590D03*
X483220Y452790D03*
X483220Y483590D03*
X487220Y452790D03*
X487220Y483590D03*
X491220Y452790D03*
X491220Y483590D03*
X495220Y452790D03*
X495220Y483590D03*
X499220Y452790D03*
X499220Y483590D03*
X503220Y452790D03*
X503220Y483590D03*
X507220Y452790D03*
X507220Y483590D03*
X511220Y452790D03*
X511220Y483590D03*
X315220Y792790D03*
X315220Y823590D03*
X319220Y792790D03*
X319220Y823590D03*
X323220Y792790D03*
X323220Y823590D03*
X327220Y792790D03*
X327220Y823590D03*
X331220Y792790D03*
X331220Y823590D03*
X335220Y792790D03*
X335220Y823590D03*
X339220Y792790D03*
X339220Y823590D03*
X343220Y792790D03*
X343220Y823590D03*
X347220Y792790D03*
X347220Y823590D03*
X351220Y792790D03*
X351220Y823590D03*
X355220Y792790D03*
X355220Y823590D03*
X359220Y792790D03*
X359220Y823590D03*
X363220Y792790D03*
X363220Y823590D03*
X367220Y792790D03*
X367220Y823590D03*
X371220Y792790D03*
X371220Y823590D03*
X375220Y792790D03*
X375220Y823590D03*
X379220Y792790D03*
X379220Y823590D03*
X383220Y792790D03*
X383220Y823590D03*
X387220Y792790D03*
X387220Y823590D03*
X391220Y792790D03*
X391220Y823590D03*
X395220Y792790D03*
X395220Y823590D03*
X399220Y792790D03*
X399220Y823590D03*
X403220Y792790D03*
X403220Y823590D03*
X407220Y792790D03*
X407220Y823590D03*
X411220Y792790D03*
X411220Y823590D03*
X415220Y792790D03*
X415220Y823590D03*
X419220Y792790D03*
X419220Y823590D03*
X423220Y792790D03*
X423220Y823590D03*
X427220Y792790D03*
X427220Y823590D03*
X431220Y792790D03*
X431220Y823590D03*
X435220Y792790D03*
X435220Y823590D03*
X439220Y792790D03*
X439220Y823590D03*
X443220Y792790D03*
X443220Y823590D03*
X447220Y792790D03*
X447220Y823590D03*
X451220Y792790D03*
X451220Y823590D03*
X455220Y792790D03*
X455220Y823590D03*
X459220Y792790D03*
X459220Y823590D03*
X463220Y792790D03*
X463220Y823590D03*
X467220Y792790D03*
X467220Y823590D03*
X471220Y792790D03*
X471220Y823590D03*
X475220Y792790D03*
X475220Y823590D03*
X479220Y792790D03*
X479220Y823590D03*
X483220Y792790D03*
X483220Y823590D03*
X487220Y792790D03*
X487220Y823590D03*
X491220Y792790D03*
X491220Y823590D03*
X495220Y792790D03*
X495220Y823590D03*
X499220Y792790D03*
X499220Y823590D03*
X503220Y792790D03*
X503220Y823590D03*
X507220Y792790D03*
X507220Y823590D03*
X511220Y792790D03*
X511220Y823590D03*
D32*
X628220Y803190D03*
X628220Y473190D03*
X148220Y473190D03*
X148220Y803190D03*
D15*
X580230Y427350D03*
D33*
X554600Y80720D03*
X539600Y80720D03*
X509600Y80720D03*
D34*
X568600Y53220D03*
D35*
X568600Y74220D03*
D34*
X495600Y53220D03*
D35*
X495600Y74220D03*
D36*
X547100Y63220D03*
X517100Y63220D03*
D37*
X645812Y384352D03*
X655972Y384352D03*
X479852Y508732D03*
X469692Y508732D03*
D38*
X611880Y411780D03*
X621380Y387780D03*
X602380Y387780D03*
D39*
X636110Y1009010D03*
X43020Y1009010D03*
D40*
X534340Y356580D03*
D41*
X516840Y366330D02*
X509840Y366330D01*
X509840Y359830D02*
X516840Y359830D01*
X516840Y353330D02*
X509840Y353330D01*
X509840Y346830D02*
X516840Y346830D01*
X524590Y339080D02*
X524590Y332080D01*
X531090Y332080D02*
X531090Y339080D01*
X537590Y339080D02*
X537590Y332080D01*
X544090Y332080D02*
X544090Y339080D01*
X551840Y346830D02*
X558840Y346830D01*
X558840Y353330D02*
X551840Y353330D01*
X551840Y359830D02*
X558840Y359830D01*
X558840Y366330D02*
X551840Y366330D01*
X544090Y374080D02*
X544090Y381080D01*
X537590Y381080D02*
X537590Y374080D01*
X531090Y374080D02*
X531090Y381080D01*
X524590Y381080D02*
X524590Y374080D01*
D42*
X534340Y356580D03*
X525340Y365580D03*
X543340Y365580D03*
X543340Y347580D03*
X525340Y347580D03*
D43*
X103924Y619666D03*
X103924Y626270D03*
X103924Y632874D03*
X83604Y632874D03*
X83604Y619666D03*
D44*
X648658Y300034D03*
X644658Y300034D03*
X640658Y300034D03*
X636658Y300034D03*
X632658Y300034D03*
X628658Y300034D03*
X628658Y260534D03*
X632658Y260534D03*
X636658Y260534D03*
X640658Y260534D03*
X644658Y260534D03*
X648658Y260534D03*
D45*
X638658Y280284D03*
D46*
X650158Y269284D03*
X627158Y291284D03*
X650158Y291284D03*
X627158Y269284D03*
D47*
X638658Y269284D03*
X638658Y291284D03*
D48*
X591470Y220220D03*
X591470Y225220D03*
X591470Y230220D03*
X591470Y235220D03*
D49*
X584220Y242470D03*
X579220Y242470D03*
X574220Y242470D03*
X569220Y242470D03*
D48*
X561970Y235220D03*
X561970Y230220D03*
X561970Y225220D03*
X561970Y220220D03*
D49*
X569220Y212970D03*
X574220Y212970D03*
X579220Y212970D03*
X584220Y212970D03*
D50*
X576720Y227720D03*
D51*
X308811Y1003022D03*
X308811Y993522D03*
X308811Y984022D03*
X334813Y984022D03*
X334813Y1003022D03*
X308811Y965482D03*
X308811Y955982D03*
X308811Y946482D03*
X334813Y946482D03*
X334813Y965482D03*
D39*
X43020Y85720D03*
X636110Y85720D03*
D15*
X474820Y365882D03*
X637380Y217800D03*
X462120Y184780D03*
X462120Y172080D03*
X407510Y854070D03*
X426560Y854070D03*
X528414Y253360D03*
X460088Y365882D03*
X617060Y217800D03*
X499966Y248788D03*
D52*
X282700Y110720D03*
X287700Y110720D03*
X292700Y110720D03*
X297700Y110720D03*
X302700Y110720D03*
X307700Y110720D03*
X312700Y110720D03*
X317700Y110720D03*
X322700Y110720D03*
X327700Y110720D03*
X332700Y110720D03*
X337700Y110720D03*
X342700Y110720D03*
X347700Y110720D03*
X352700Y110720D03*
X357700Y110720D03*
X362700Y110720D03*
X367700Y110720D03*
X372700Y110720D03*
X377700Y110720D03*
X382700Y110720D03*
X387700Y110720D03*
X392700Y110720D03*
X397700Y110720D03*
D53*
X263700Y91470D03*
X416700Y91470D03*
D54*
X83905Y268101D02*
X83905Y299579D01*
X83905Y268101D02*
X52427Y268101D01*
X52427Y299579D01*
X83905Y299579D01*
X83905Y273378D02*
X52427Y273378D01*
X52427Y278655D02*
X83905Y278655D01*
X83905Y283932D02*
X52427Y283932D01*
X52427Y289209D02*
X83905Y289209D01*
X83905Y294486D02*
X52427Y294486D01*
D55*
X50666Y258840D03*
X55666Y258840D03*
X60666Y258840D03*
X65666Y258840D03*
X70666Y258840D03*
X75666Y258840D03*
X80666Y258840D03*
X85666Y258840D03*
D56*
X93166Y266340D03*
X93166Y271340D03*
X93166Y276340D03*
X93166Y281340D03*
X93166Y286340D03*
X93166Y291340D03*
X93166Y296340D03*
X93166Y301340D03*
D55*
X85666Y308840D03*
X80666Y308840D03*
X75666Y308840D03*
X70666Y308840D03*
X65666Y308840D03*
X60666Y308840D03*
X55666Y308840D03*
X50666Y308840D03*
D56*
X43166Y301340D03*
X43166Y296340D03*
X43166Y291340D03*
X43166Y286340D03*
X43166Y281340D03*
X43166Y276340D03*
X43166Y271340D03*
X43166Y266340D03*
D11*
X26510Y233166D03*
X26510Y217674D03*
X79850Y233166D03*
X79850Y217674D03*
D57*
X140506Y296196D03*
X162506Y296196D03*
X140506Y280196D03*
X162506Y280196D03*
D11*
X26510Y331720D03*
X26510Y347212D03*
X60800Y233166D03*
X60800Y217674D03*
D10*
X113760Y253360D03*
X129252Y253360D03*
X32734Y971926D03*
X48226Y971926D03*
X48226Y911220D03*
X32734Y911220D03*
D58*
X49980Y890900D03*
X30980Y890900D03*
D10*
X28924Y778124D03*
X44416Y778124D03*
X28924Y797174D03*
X44416Y797174D03*
D11*
X43020Y234436D03*
X43020Y218944D03*
D59*
X234310Y109990D03*
X234310Y90990D03*
D58*
X162806Y247518D03*
X181806Y247518D03*
D11*
X235082Y73880D03*
X235082Y58388D03*
D10*
X203488Y248798D03*
X218980Y248798D03*
X100364Y327030D03*
X115856Y327030D03*
X100044Y346070D03*
X115536Y346070D03*
X290288Y947542D03*
X274796Y947542D03*
X290288Y928492D03*
X274796Y928492D03*
D60*
X142130Y980360D03*
X82130Y1068360D03*
D61*
X394584Y338591D03*
X388084Y338591D03*
X381584Y338591D03*
X375084Y338591D03*
X375084Y298713D03*
X381584Y298713D03*
X388084Y298713D03*
X394584Y298713D03*
D62*
X435780Y421390D03*
D63*
X379780Y387890D03*
X454280Y387890D03*
D62*
X423280Y421390D03*
X410780Y421390D03*
X398280Y421390D03*
D28*
X417702Y269476D03*
X417702Y252476D03*
D11*
X362078Y366270D03*
X362078Y381762D03*
D64*
X450087Y980400D02*
X454913Y980400D01*
X413313Y980400D02*
X408487Y980400D01*
X450087Y976400D02*
X454913Y976400D01*
X413313Y976400D02*
X408487Y976400D01*
X450087Y972400D02*
X454913Y972400D01*
X413313Y972400D02*
X408487Y972400D01*
X450087Y968400D02*
X454913Y968400D01*
X413313Y968400D02*
X408487Y968400D01*
X450087Y964400D02*
X454913Y964400D01*
X413313Y964400D02*
X408487Y964400D01*
X450087Y960400D02*
X454913Y960400D01*
X413313Y960400D02*
X408487Y960400D01*
X450087Y956400D02*
X454913Y956400D01*
X413313Y956400D02*
X408487Y956400D01*
X450087Y952400D02*
X454913Y952400D01*
X413313Y952400D02*
X408487Y952400D01*
X450087Y948400D02*
X454913Y948400D01*
X413313Y948400D02*
X408487Y948400D01*
X450087Y944400D02*
X454913Y944400D01*
X413313Y944400D02*
X408487Y944400D01*
X450087Y940400D02*
X454913Y940400D01*
X413313Y940400D02*
X408487Y940400D01*
X450087Y936400D02*
X454913Y936400D01*
X413313Y936400D02*
X408487Y936400D01*
D11*
X45340Y330964D03*
X45340Y346456D03*
X63120Y330964D03*
X63120Y346456D03*
D65*
X51700Y364139D03*
X61200Y364139D03*
X70700Y364139D03*
X70700Y390141D03*
X51700Y390141D03*
D11*
X84200Y340612D03*
X84200Y325120D03*
X25020Y408688D03*
X25020Y424180D03*
D10*
X86108Y429640D03*
X101600Y429640D03*
X86108Y402716D03*
X101600Y402716D03*
D66*
X29930Y365870D03*
X29930Y384870D03*
D67*
X99932Y371974D03*
X118932Y371974D03*
D11*
X45340Y408688D03*
X45340Y424180D03*
D68*
X283164Y345570D03*
X283164Y341570D03*
X283164Y337570D03*
X283164Y333570D03*
X283164Y329570D03*
X283164Y325570D03*
X283164Y321570D03*
X283164Y317570D03*
X283164Y313570D03*
X283164Y309570D03*
X283164Y305570D03*
X283164Y301570D03*
X283164Y297570D03*
X283164Y293570D03*
D69*
X291200Y285534D03*
X295200Y285534D03*
X299200Y285534D03*
X303200Y285534D03*
X307200Y285534D03*
X311200Y285534D03*
X315200Y285534D03*
X319200Y285534D03*
X323200Y285534D03*
X327200Y285534D03*
X331200Y285534D03*
X335200Y285534D03*
X339200Y285534D03*
X343200Y285534D03*
D68*
X351236Y293570D03*
X351236Y297570D03*
X351236Y301570D03*
X351236Y305570D03*
X351236Y309570D03*
X351236Y313570D03*
X351236Y317570D03*
X351236Y321570D03*
X351236Y325570D03*
X351236Y329570D03*
X351236Y333570D03*
X351236Y337570D03*
X351236Y341570D03*
X351236Y345570D03*
D69*
X343200Y353606D03*
X339200Y353606D03*
X335200Y353606D03*
X331200Y353606D03*
X327200Y353606D03*
X323200Y353606D03*
X319200Y353606D03*
X315200Y353606D03*
X311200Y353606D03*
X307200Y353606D03*
X303200Y353606D03*
X299200Y353606D03*
X295200Y353606D03*
X291200Y353606D03*
D70*
X317200Y319570D03*
D10*
X240540Y405764D03*
X256032Y405764D03*
X240540Y387984D03*
X256032Y387984D03*
X180084Y425324D03*
X164592Y425324D03*
D11*
X197232Y412752D03*
X197232Y428244D03*
D10*
X228344Y387224D03*
X212852Y387224D03*
X228344Y405004D03*
X212852Y405004D03*
X228344Y422784D03*
X212852Y422784D03*
X240540Y423544D03*
X256032Y423544D03*
D29*
X249446Y308228D03*
X266446Y308228D03*
X249446Y284860D03*
X266446Y284860D03*
D10*
X228344Y369444D03*
X212852Y369444D03*
X231392Y319660D03*
X215900Y319660D03*
X231392Y299340D03*
X215900Y299340D03*
D51*
X159211Y386704D03*
X159211Y377204D03*
X159211Y367704D03*
X185213Y367704D03*
X185213Y386704D03*
D10*
X164340Y405764D03*
X179832Y405764D03*
X240540Y370204D03*
X256032Y370204D03*
D11*
X133476Y422400D03*
X133476Y406908D03*
D71*
X288526Y387858D03*
X288526Y397858D03*
X288526Y407858D03*
X288526Y417858D03*
X298526Y377858D03*
X298526Y387858D03*
X298526Y397858D03*
X298526Y407858D03*
X298526Y417858D03*
X308526Y377858D03*
X308526Y387858D03*
X308526Y397858D03*
X308526Y407858D03*
X308526Y417858D03*
X318526Y377858D03*
X318526Y387858D03*
X318526Y397858D03*
X318526Y407858D03*
X318526Y417858D03*
X328526Y377858D03*
X328526Y387858D03*
X328526Y397858D03*
X328526Y407858D03*
X328526Y417858D03*
D15*
X241048Y328360D03*
X212600Y352820D03*
D29*
X259824Y344806D03*
X242824Y344806D03*
D72*
X350686Y261618D03*
X327686Y261618D03*
X327686Y244118D03*
X350686Y244118D03*
D11*
X391794Y268222D03*
X391794Y252730D03*
X273176Y267460D03*
X273176Y251968D03*
D28*
X297306Y270492D03*
X297306Y253492D03*
D73*
X580940Y88190D03*
X580940Y107190D03*
X559940Y97690D03*
D28*
X540640Y97300D03*
X540640Y114300D03*
X497460Y97300D03*
X497460Y114300D03*
D74*
X26010Y735100D03*
X26010Y690100D03*
D75*
X50910Y677550D03*
X50910Y747650D03*
D28*
X91060Y739920D03*
X91060Y756920D03*
D74*
X26700Y565800D03*
X26700Y520800D03*
D75*
X51600Y508250D03*
X51600Y578350D03*
D28*
X93600Y534180D03*
X93600Y551180D03*
D74*
X651990Y874380D03*
X651990Y919380D03*
D75*
X627090Y931930D03*
X627090Y861830D03*
D28*
X589660Y883140D03*
X589660Y866140D03*
D76*
X422900Y1005910D03*
X437600Y1005910D03*
X417820Y906880D03*
X432520Y906880D03*
X369052Y1010542D03*
X383752Y1010542D03*
D37*
X424538Y874340D03*
X416410Y874340D03*
X408282Y874340D03*
X373022Y873310D03*
X381150Y873310D03*
X389278Y873310D03*
D77*
X306912Y923782D03*
X306912Y914282D03*
X306912Y904782D03*
X332412Y904782D03*
X332412Y923782D03*
D11*
X365632Y921764D03*
X365632Y906272D03*
X347852Y921764D03*
X347852Y906272D03*
X383412Y921764D03*
X383412Y906272D03*
X333120Y881632D03*
X333120Y866140D03*
X350900Y881632D03*
X350900Y866140D03*
X315340Y879092D03*
X315340Y863600D03*
D10*
X289304Y910972D03*
X273812Y910972D03*
D13*
X190942Y341430D02*
X183962Y341430D01*
X190942Y341430D02*
X190942Y334450D01*
X183962Y334450D01*
X183962Y341430D01*
X183962Y339250D02*
X190942Y339250D01*
X190942Y358970D02*
X183962Y358970D01*
X190942Y358970D02*
X190942Y351990D01*
X183962Y351990D01*
X183962Y358970D01*
X183962Y356790D02*
X190942Y356790D01*
D29*
X204860Y336804D03*
X221860Y336804D03*
D78*
X35801Y946891D02*
X35803Y947026D01*
X35809Y947161D01*
X35819Y947296D01*
X35833Y947431D01*
X35851Y947565D01*
X35873Y947698D01*
X35898Y947831D01*
X35928Y947963D01*
X35962Y948094D01*
X35999Y948224D01*
X36040Y948353D01*
X36085Y948480D01*
X36134Y948606D01*
X36186Y948731D01*
X36243Y948854D01*
X36302Y948976D01*
X36366Y949095D01*
X36432Y949213D01*
X36502Y949328D01*
X36576Y949442D01*
X36653Y949553D01*
X36733Y949662D01*
X36816Y949769D01*
X36903Y949873D01*
X36992Y949974D01*
X37085Y950073D01*
X37180Y950169D01*
X37278Y950262D01*
X37379Y950352D01*
X37482Y950439D01*
X37588Y950523D01*
X37696Y950604D01*
X37807Y950682D01*
X37920Y950756D01*
X38035Y950827D01*
X38152Y950895D01*
X38271Y950959D01*
X38392Y951020D01*
X38515Y951077D01*
X38639Y951130D01*
X38765Y951180D01*
X38892Y951226D01*
X39021Y951268D01*
X39150Y951306D01*
X39281Y951341D01*
X39413Y951372D01*
X39545Y951398D01*
X39679Y951421D01*
X39813Y951440D01*
X39947Y951455D01*
X40082Y951466D01*
X40217Y951473D01*
X40352Y951476D01*
X40487Y951475D01*
X40623Y951470D01*
X40758Y951461D01*
X40892Y951448D01*
X41026Y951431D01*
X41160Y951410D01*
X41293Y951385D01*
X41425Y951357D01*
X41556Y951324D01*
X41687Y951288D01*
X41816Y951247D01*
X41944Y951203D01*
X42070Y951156D01*
X42195Y951104D01*
X42319Y951049D01*
X42440Y950990D01*
X42560Y950928D01*
X42678Y950862D01*
X42795Y950792D01*
X42909Y950720D01*
X43020Y950644D01*
X43130Y950564D01*
X43237Y950482D01*
X43342Y950396D01*
X43444Y950307D01*
X43543Y950216D01*
X43640Y950121D01*
X43734Y950024D01*
X43825Y949924D01*
X43913Y949821D01*
X43998Y949716D01*
X44079Y949608D01*
X44158Y949498D01*
X44233Y949385D01*
X44305Y949271D01*
X44374Y949154D01*
X44439Y949036D01*
X44500Y948915D01*
X44558Y948793D01*
X44612Y948669D01*
X44663Y948544D01*
X44710Y948417D01*
X44753Y948289D01*
X44792Y948159D01*
X44828Y948029D01*
X44859Y947897D01*
X44887Y947765D01*
X44911Y947632D01*
X44931Y947498D01*
X44947Y947364D01*
X44959Y947229D01*
X44967Y947094D01*
X44971Y946959D01*
X44971Y946823D01*
X44967Y946688D01*
X44959Y946553D01*
X44947Y946418D01*
X44931Y946284D01*
X44911Y946150D01*
X44887Y946017D01*
X44859Y945885D01*
X44828Y945753D01*
X44792Y945623D01*
X44753Y945493D01*
X44710Y945365D01*
X44663Y945238D01*
X44612Y945113D01*
X44558Y944989D01*
X44500Y944867D01*
X44439Y944746D01*
X44374Y944628D01*
X44305Y944511D01*
X44233Y944397D01*
X44158Y944284D01*
X44079Y944174D01*
X43998Y944066D01*
X43913Y943961D01*
X43825Y943858D01*
X43734Y943758D01*
X43640Y943661D01*
X43543Y943566D01*
X43444Y943475D01*
X43342Y943386D01*
X43237Y943300D01*
X43130Y943218D01*
X43020Y943138D01*
X42909Y943062D01*
X42795Y942990D01*
X42679Y942920D01*
X42560Y942854D01*
X42440Y942792D01*
X42319Y942733D01*
X42195Y942678D01*
X42070Y942626D01*
X41944Y942579D01*
X41816Y942535D01*
X41687Y942494D01*
X41556Y942458D01*
X41425Y942425D01*
X41293Y942397D01*
X41160Y942372D01*
X41026Y942351D01*
X40892Y942334D01*
X40758Y942321D01*
X40623Y942312D01*
X40487Y942307D01*
X40352Y942306D01*
X40217Y942309D01*
X40082Y942316D01*
X39947Y942327D01*
X39813Y942342D01*
X39679Y942361D01*
X39545Y942384D01*
X39413Y942410D01*
X39281Y942441D01*
X39150Y942476D01*
X39021Y942514D01*
X38892Y942556D01*
X38765Y942602D01*
X38639Y942652D01*
X38515Y942705D01*
X38392Y942762D01*
X38271Y942823D01*
X38152Y942887D01*
X38035Y942955D01*
X37920Y943026D01*
X37807Y943100D01*
X37696Y943178D01*
X37588Y943259D01*
X37482Y943343D01*
X37379Y943430D01*
X37278Y943520D01*
X37180Y943613D01*
X37085Y943709D01*
X36992Y943808D01*
X36903Y943909D01*
X36816Y944013D01*
X36733Y944120D01*
X36653Y944229D01*
X36576Y944340D01*
X36502Y944454D01*
X36432Y944569D01*
X36366Y944687D01*
X36302Y944806D01*
X36243Y944928D01*
X36186Y945051D01*
X36134Y945176D01*
X36085Y945302D01*
X36040Y945429D01*
X35999Y945558D01*
X35962Y945688D01*
X35928Y945819D01*
X35898Y945951D01*
X35873Y946084D01*
X35851Y946217D01*
X35833Y946351D01*
X35819Y946486D01*
X35809Y946621D01*
X35803Y946756D01*
X35801Y946891D01*
D79*
X40386Y925861D03*
D80*
X50046Y925861D03*
D81*
X50536Y953231D03*
X30236Y953231D03*
D80*
X30726Y925861D03*
D82*
X40386Y946891D03*
D83*
X98298Y868489D03*
X85598Y868489D03*
X72898Y868489D03*
X60198Y868489D03*
X60198Y814007D03*
X72898Y814007D03*
X85598Y814007D03*
X98298Y814007D03*
D84*
X101346Y180594D03*
X149352Y134874D03*
X477012Y60198D03*
X529590Y157734D03*
X528828Y204216D03*
M02*
