G04 EAGLE Gerber RS-274X export*
G75*
%MOMM*%
%FSLAX34Y34*%
%LPD*%
%INSolderpaste Top*%
%IPPOS*%
%AMOC8*
5,1,8,0,0,1.08239X$1,22.5*%
G01*
%ADD10R,0.920900X0.970200*%
%ADD11R,0.970200X0.920900*%
%ADD12R,2.700000X1.600000*%
%ADD13C,0.300000*%
%ADD14R,0.800000X1.150000*%
%ADD15R,1.450000X0.300000*%
%ADD16R,1.450000X0.600000*%
%ADD17R,1.450000X0.550000*%
%ADD18R,4.600000X1.000000*%
%ADD19R,3.400000X1.600000*%
%ADD20R,5.000000X2.000000*%
%ADD21R,1.400000X3.560000*%
%ADD22R,1.200000X1.200000*%
%ADD23R,2.000000X2.000000*%
%ADD24R,1.200000X1.400000*%
%ADD25R,1.050000X0.500000*%
%ADD26R,1.100000X1.000000*%
%ADD27R,1.000000X1.100000*%
%ADD28R,1.800000X1.600000*%
%ADD29R,0.200000X0.700000*%
%ADD30R,0.700000X1.500000*%
%ADD31R,1.000000X0.600000*%
%ADD32R,1.000000X0.800000*%
%ADD33R,1.000000X1.400000*%
%ADD34C,0.350000*%
%ADD35R,0.600000X0.700000*%
%ADD36R,0.700000X0.600000*%
%ADD37R,1.016000X0.355600*%
%ADD38R,0.800000X1.000000*%
%ADD39R,0.525000X0.250000*%
%ADD40R,0.200000X0.800000*%
%ADD41R,0.800000X0.230000*%
%ADD42R,0.230000X0.800000*%
%ADD43R,0.700000X0.700000*%
%ADD44R,1.200000X0.550000*%
%ADD45R,0.300000X0.800000*%
%ADD46R,1.300000X3.050000*%
%ADD47R,0.250000X0.800000*%
%ADD48R,0.800000X0.250000*%
%ADD49R,1.143000X1.143000*%
%ADD50R,1.400000X1.200000*%
%ADD51R,1.240000X1.500000*%
%ADD52R,1.500000X1.240000*%
%ADD53R,0.200000X0.200000*%
%ADD54R,0.406400X1.219200*%
%ADD55R,0.600000X1.700000*%
%ADD56R,1.000000X2.800000*%
%ADD57C,0.228600*%
%ADD58R,0.550000X1.200000*%
%ADD59R,1.500000X1.300000*%
%ADD60R,1.300000X1.500000*%
%ADD61R,0.812800X0.177800*%
%ADD62R,0.177800X0.812800*%
%ADD63C,0.355600*%
%ADD64R,1.300000X1.050000*%
%ADD65R,0.900000X0.800000*%
%ADD66R,1.000000X0.970000*%
%ADD67R,0.800000X0.550000*%
%ADD68C,0.612000*%
%ADD69C,0.723000*%
%ADD70C,0.562000*%
%ADD71R,0.533400X1.460500*%

G36*
X434202Y84595D02*
X434202Y84595D01*
X434204Y84594D01*
X434247Y84614D01*
X434291Y84632D01*
X434291Y84634D01*
X434293Y84635D01*
X434326Y84720D01*
X434326Y106720D01*
X434325Y106722D01*
X434326Y106724D01*
X434306Y106767D01*
X434288Y106811D01*
X434286Y106811D01*
X434285Y106813D01*
X434200Y106846D01*
X423200Y106846D01*
X423198Y106845D01*
X423196Y106846D01*
X423153Y106826D01*
X423109Y106808D01*
X423109Y106806D01*
X423107Y106805D01*
X423074Y106720D01*
X423074Y84720D01*
X423075Y84718D01*
X423074Y84716D01*
X423094Y84673D01*
X423112Y84629D01*
X423114Y84629D01*
X423115Y84627D01*
X423200Y84594D01*
X434200Y84594D01*
X434202Y84595D01*
G37*
G36*
X257202Y84595D02*
X257202Y84595D01*
X257204Y84594D01*
X257247Y84614D01*
X257291Y84632D01*
X257291Y84634D01*
X257293Y84635D01*
X257326Y84720D01*
X257326Y106720D01*
X257325Y106722D01*
X257326Y106724D01*
X257306Y106767D01*
X257288Y106811D01*
X257286Y106811D01*
X257285Y106813D01*
X257200Y106846D01*
X246200Y106846D01*
X246198Y106845D01*
X246196Y106846D01*
X246153Y106826D01*
X246109Y106808D01*
X246109Y106806D01*
X246107Y106805D01*
X246074Y106720D01*
X246074Y84720D01*
X246075Y84718D01*
X246074Y84716D01*
X246094Y84673D01*
X246112Y84629D01*
X246114Y84629D01*
X246115Y84627D01*
X246200Y84594D01*
X257200Y84594D01*
X257202Y84595D01*
G37*
G36*
X76125Y110034D02*
X76125Y110034D01*
X76127Y110031D01*
X77407Y110226D01*
X77413Y110232D01*
X77417Y110229D01*
X78621Y110704D01*
X78626Y110711D01*
X78631Y110709D01*
X79699Y111440D01*
X79702Y111447D01*
X79708Y111447D01*
X80587Y112397D01*
X80587Y112405D01*
X80593Y112406D01*
X81238Y113527D01*
X81237Y113536D01*
X81243Y113538D01*
X81622Y114775D01*
X81620Y114783D01*
X81624Y114786D01*
X81719Y116076D01*
X81716Y116081D01*
X81719Y116083D01*
X81652Y117214D01*
X81647Y117219D01*
X81651Y117223D01*
X81364Y118320D01*
X81358Y118324D01*
X81361Y118329D01*
X80866Y119348D01*
X80860Y119351D01*
X80861Y119356D01*
X80177Y120259D01*
X80170Y120261D01*
X80170Y120266D01*
X79323Y121019D01*
X79316Y121019D01*
X79315Y121024D01*
X78338Y121597D01*
X78331Y121596D01*
X78329Y121601D01*
X77258Y121972D01*
X77252Y121969D01*
X77249Y121974D01*
X76127Y122129D01*
X76122Y122126D01*
X76120Y122129D01*
X64120Y122129D01*
X64115Y122126D01*
X64112Y122129D01*
X62845Y121924D01*
X62839Y121918D01*
X62835Y121921D01*
X61645Y121439D01*
X61641Y121432D01*
X61635Y121434D01*
X60582Y120700D01*
X60580Y120692D01*
X60574Y120693D01*
X59711Y119743D01*
X59710Y119734D01*
X59705Y119734D01*
X59075Y118615D01*
X59076Y118607D01*
X59070Y118605D01*
X58705Y117375D01*
X58708Y117367D01*
X58703Y117364D01*
X58621Y116083D01*
X58624Y116079D01*
X58621Y116077D01*
X58703Y114796D01*
X58709Y114790D01*
X58705Y114785D01*
X59070Y113555D01*
X59077Y113550D01*
X59075Y113545D01*
X59705Y112426D01*
X59712Y112423D01*
X59711Y112417D01*
X60574Y111467D01*
X60582Y111466D01*
X60582Y111460D01*
X61635Y110726D01*
X61643Y110726D01*
X61645Y110721D01*
X62835Y110239D01*
X62842Y110241D01*
X62845Y110236D01*
X64112Y110031D01*
X64117Y110034D01*
X64120Y110031D01*
X76120Y110031D01*
X76125Y110034D01*
G37*
G36*
X76125Y196434D02*
X76125Y196434D01*
X76127Y196431D01*
X77407Y196626D01*
X77413Y196632D01*
X77417Y196629D01*
X78621Y197104D01*
X78626Y197111D01*
X78631Y197109D01*
X79699Y197840D01*
X79702Y197847D01*
X79708Y197847D01*
X80587Y198797D01*
X80587Y198805D01*
X80593Y198806D01*
X81238Y199927D01*
X81237Y199936D01*
X81243Y199938D01*
X81622Y201175D01*
X81620Y201183D01*
X81624Y201186D01*
X81719Y202476D01*
X81716Y202481D01*
X81719Y202483D01*
X81652Y203614D01*
X81647Y203619D01*
X81651Y203623D01*
X81364Y204720D01*
X81358Y204724D01*
X81361Y204729D01*
X80866Y205748D01*
X80860Y205751D01*
X80861Y205756D01*
X80177Y206659D01*
X80170Y206661D01*
X80170Y206666D01*
X79323Y207419D01*
X79316Y207419D01*
X79315Y207424D01*
X78338Y207997D01*
X78331Y207996D01*
X78329Y208001D01*
X77258Y208372D01*
X77252Y208369D01*
X77249Y208374D01*
X76127Y208529D01*
X76122Y208526D01*
X76120Y208529D01*
X64120Y208529D01*
X64115Y208526D01*
X64112Y208529D01*
X62845Y208324D01*
X62839Y208318D01*
X62835Y208321D01*
X61645Y207839D01*
X61641Y207832D01*
X61635Y207834D01*
X60582Y207100D01*
X60580Y207092D01*
X60574Y207093D01*
X59711Y206143D01*
X59710Y206134D01*
X59705Y206134D01*
X59075Y205015D01*
X59076Y205007D01*
X59070Y205005D01*
X58705Y203775D01*
X58708Y203767D01*
X58703Y203764D01*
X58621Y202483D01*
X58624Y202479D01*
X58621Y202477D01*
X58703Y201196D01*
X58709Y201190D01*
X58705Y201185D01*
X59070Y199955D01*
X59077Y199950D01*
X59075Y199945D01*
X59705Y198826D01*
X59712Y198823D01*
X59711Y198817D01*
X60574Y197867D01*
X60582Y197866D01*
X60582Y197860D01*
X61635Y197126D01*
X61643Y197126D01*
X61645Y197121D01*
X62835Y196639D01*
X62842Y196641D01*
X62845Y196636D01*
X64112Y196431D01*
X64117Y196434D01*
X64120Y196431D01*
X76120Y196431D01*
X76125Y196434D01*
G37*
G36*
X316202Y320445D02*
X316202Y320445D01*
X316204Y320444D01*
X316247Y320464D01*
X316291Y320482D01*
X316291Y320484D01*
X316293Y320485D01*
X316326Y320570D01*
X316326Y334572D01*
X316325Y334574D01*
X316326Y334576D01*
X316306Y334619D01*
X316288Y334663D01*
X316286Y334663D01*
X316285Y334665D01*
X316200Y334698D01*
X302198Y334698D01*
X302196Y334697D01*
X302194Y334698D01*
X302151Y334678D01*
X302107Y334660D01*
X302107Y334658D01*
X302105Y334657D01*
X302072Y334572D01*
X302072Y320570D01*
X302073Y320568D01*
X302072Y320566D01*
X302092Y320523D01*
X302110Y320479D01*
X302112Y320479D01*
X302113Y320477D01*
X302198Y320444D01*
X316200Y320444D01*
X316202Y320445D01*
G37*
G36*
X332204Y320445D02*
X332204Y320445D01*
X332206Y320444D01*
X332249Y320464D01*
X332293Y320482D01*
X332293Y320484D01*
X332295Y320485D01*
X332328Y320570D01*
X332328Y334572D01*
X332327Y334574D01*
X332328Y334576D01*
X332308Y334619D01*
X332290Y334663D01*
X332288Y334663D01*
X332287Y334665D01*
X332202Y334698D01*
X318200Y334698D01*
X318198Y334697D01*
X318196Y334698D01*
X318153Y334678D01*
X318109Y334660D01*
X318109Y334658D01*
X318107Y334657D01*
X318074Y334572D01*
X318074Y320570D01*
X318075Y320568D01*
X318074Y320566D01*
X318094Y320523D01*
X318112Y320479D01*
X318114Y320479D01*
X318115Y320477D01*
X318200Y320444D01*
X332202Y320444D01*
X332204Y320445D01*
G37*
G36*
X332204Y304443D02*
X332204Y304443D01*
X332206Y304442D01*
X332249Y304462D01*
X332293Y304480D01*
X332293Y304482D01*
X332295Y304483D01*
X332328Y304568D01*
X332328Y318570D01*
X332327Y318572D01*
X332328Y318574D01*
X332308Y318617D01*
X332290Y318661D01*
X332288Y318661D01*
X332287Y318663D01*
X332202Y318696D01*
X318200Y318696D01*
X318198Y318695D01*
X318196Y318696D01*
X318153Y318676D01*
X318109Y318658D01*
X318109Y318656D01*
X318107Y318655D01*
X318074Y318570D01*
X318074Y304568D01*
X318075Y304566D01*
X318074Y304564D01*
X318094Y304521D01*
X318112Y304477D01*
X318114Y304477D01*
X318115Y304475D01*
X318200Y304442D01*
X332202Y304442D01*
X332204Y304443D01*
G37*
G36*
X316202Y304443D02*
X316202Y304443D01*
X316204Y304442D01*
X316247Y304462D01*
X316291Y304480D01*
X316291Y304482D01*
X316293Y304483D01*
X316326Y304568D01*
X316326Y318570D01*
X316325Y318572D01*
X316326Y318574D01*
X316306Y318617D01*
X316288Y318661D01*
X316286Y318661D01*
X316285Y318663D01*
X316200Y318696D01*
X302198Y318696D01*
X302196Y318695D01*
X302194Y318696D01*
X302151Y318676D01*
X302107Y318658D01*
X302107Y318656D01*
X302105Y318655D01*
X302072Y318570D01*
X302072Y304568D01*
X302073Y304566D01*
X302072Y304564D01*
X302092Y304521D01*
X302110Y304477D01*
X302112Y304477D01*
X302113Y304475D01*
X302198Y304442D01*
X316200Y304442D01*
X316202Y304443D01*
G37*
G36*
X31323Y196433D02*
X31323Y196433D01*
X31325Y196431D01*
X32501Y196542D01*
X32506Y196547D01*
X32510Y196544D01*
X33642Y196882D01*
X33646Y196888D01*
X33651Y196886D01*
X34695Y197438D01*
X34698Y197445D01*
X34703Y197443D01*
X35619Y198189D01*
X35620Y198196D01*
X35626Y198196D01*
X36379Y199106D01*
X36379Y199113D01*
X36384Y199114D01*
X36945Y200153D01*
X36944Y200158D01*
X36948Y200160D01*
X36947Y200161D01*
X36949Y200162D01*
X37296Y201291D01*
X37296Y201292D01*
X37297Y201293D01*
X37294Y201297D01*
X37298Y201300D01*
X37419Y202475D01*
X37415Y202482D01*
X37419Y202486D01*
X37262Y203826D01*
X37257Y203832D01*
X37260Y203837D01*
X36809Y205108D01*
X36802Y205113D01*
X36804Y205118D01*
X36082Y206257D01*
X36074Y206260D01*
X36075Y206266D01*
X35117Y207216D01*
X35109Y207217D01*
X35108Y207223D01*
X33963Y207936D01*
X33955Y207935D01*
X33953Y207941D01*
X32677Y208381D01*
X32670Y208379D01*
X32667Y208383D01*
X31325Y208529D01*
X31322Y208527D01*
X31320Y208529D01*
X25320Y208529D01*
X25317Y208527D01*
X25314Y208529D01*
X23985Y208374D01*
X23979Y208368D01*
X23975Y208371D01*
X22714Y207924D01*
X22709Y207917D01*
X22704Y207919D01*
X21574Y207202D01*
X21571Y207195D01*
X21565Y207196D01*
X20623Y206246D01*
X20622Y206237D01*
X20616Y206237D01*
X19909Y205101D01*
X19910Y205093D01*
X19904Y205091D01*
X19468Y203826D01*
X19470Y203818D01*
X19465Y203816D01*
X19321Y202485D01*
X19325Y202479D01*
X19321Y202475D01*
X19431Y201309D01*
X19436Y201304D01*
X19433Y201300D01*
X19768Y200177D01*
X19774Y200173D01*
X19772Y200169D01*
X20320Y199133D01*
X20326Y199130D01*
X20325Y199125D01*
X21064Y198217D01*
X21071Y198215D01*
X21071Y198210D01*
X21973Y197463D01*
X21981Y197463D01*
X21981Y197458D01*
X23012Y196901D01*
X23019Y196902D01*
X23021Y196897D01*
X24140Y196553D01*
X24147Y196555D01*
X24150Y196551D01*
X25315Y196431D01*
X25318Y196433D01*
X25320Y196431D01*
X31320Y196431D01*
X31323Y196433D01*
G37*
G36*
X31323Y110033D02*
X31323Y110033D01*
X31325Y110031D01*
X32501Y110142D01*
X32506Y110147D01*
X32510Y110144D01*
X33642Y110482D01*
X33646Y110488D01*
X33651Y110486D01*
X34695Y111038D01*
X34698Y111045D01*
X34703Y111043D01*
X35619Y111789D01*
X35620Y111796D01*
X35626Y111796D01*
X36379Y112706D01*
X36379Y112713D01*
X36384Y112714D01*
X36945Y113753D01*
X36944Y113758D01*
X36948Y113760D01*
X36947Y113761D01*
X36949Y113762D01*
X37296Y114891D01*
X37296Y114892D01*
X37297Y114893D01*
X37294Y114897D01*
X37298Y114900D01*
X37419Y116075D01*
X37415Y116082D01*
X37419Y116086D01*
X37262Y117426D01*
X37257Y117432D01*
X37260Y117437D01*
X36809Y118708D01*
X36802Y118713D01*
X36804Y118718D01*
X36082Y119857D01*
X36074Y119860D01*
X36075Y119866D01*
X35117Y120816D01*
X35109Y120817D01*
X35108Y120823D01*
X33963Y121536D01*
X33955Y121535D01*
X33953Y121541D01*
X32677Y121981D01*
X32670Y121979D01*
X32667Y121983D01*
X31325Y122129D01*
X31322Y122127D01*
X31320Y122129D01*
X25320Y122129D01*
X25317Y122127D01*
X25314Y122129D01*
X23985Y121974D01*
X23979Y121968D01*
X23975Y121971D01*
X22714Y121524D01*
X22709Y121517D01*
X22704Y121519D01*
X21574Y120802D01*
X21571Y120795D01*
X21565Y120796D01*
X20623Y119846D01*
X20622Y119837D01*
X20616Y119837D01*
X19909Y118701D01*
X19910Y118693D01*
X19904Y118691D01*
X19468Y117426D01*
X19470Y117418D01*
X19465Y117416D01*
X19321Y116085D01*
X19325Y116079D01*
X19321Y116075D01*
X19431Y114909D01*
X19436Y114904D01*
X19433Y114900D01*
X19768Y113777D01*
X19774Y113773D01*
X19772Y113769D01*
X20320Y112733D01*
X20326Y112730D01*
X20325Y112725D01*
X21064Y111817D01*
X21071Y111815D01*
X21071Y111810D01*
X21973Y111063D01*
X21981Y111063D01*
X21981Y111058D01*
X23012Y110501D01*
X23019Y110502D01*
X23021Y110497D01*
X24140Y110153D01*
X24147Y110155D01*
X24150Y110151D01*
X25315Y110031D01*
X25318Y110033D01*
X25320Y110031D01*
X31320Y110031D01*
X31323Y110033D01*
G37*
G36*
X41950Y949511D02*
X41950Y949511D01*
X41952Y949511D01*
X44130Y951689D01*
X44130Y951690D01*
X44130Y951691D01*
X44130Y951695D01*
X44129Y951695D01*
X44129Y951696D01*
X42991Y952409D01*
X42990Y952409D01*
X42990Y952410D01*
X41722Y952853D01*
X41721Y952852D01*
X41721Y952853D01*
X40386Y953003D01*
X40386Y953002D01*
X40386Y953003D01*
X39051Y952853D01*
X39050Y952852D01*
X39050Y952853D01*
X37782Y952410D01*
X37782Y952409D01*
X37781Y952409D01*
X36643Y951696D01*
X36643Y951695D01*
X36642Y951691D01*
X36642Y951690D01*
X36642Y951689D01*
X38820Y949511D01*
X38824Y949511D01*
X38825Y949511D01*
X39418Y949794D01*
X40058Y949940D01*
X40714Y949940D01*
X41354Y949794D01*
X41947Y949511D01*
X41950Y949511D01*
G37*
G36*
X41721Y940929D02*
X41721Y940929D01*
X41722Y940930D01*
X42990Y941372D01*
X42990Y941373D01*
X42991Y941373D01*
X44129Y942086D01*
X44129Y942088D01*
X44130Y942092D01*
X44130Y942093D01*
X41952Y944271D01*
X41948Y944271D01*
X41947Y944272D01*
X41354Y943988D01*
X40714Y943842D01*
X40058Y943842D01*
X39418Y943988D01*
X38825Y944272D01*
X38822Y944271D01*
X38820Y944271D01*
X36642Y942093D01*
X36642Y942092D01*
X36642Y942091D01*
X36642Y942087D01*
X36643Y942087D01*
X36643Y942086D01*
X37781Y941373D01*
X37782Y941373D01*
X37782Y941372D01*
X39050Y940930D01*
X39051Y940930D01*
X39051Y940929D01*
X40386Y940779D01*
X40386Y940780D01*
X40386Y940779D01*
X41721Y940929D01*
G37*
G36*
X45190Y943148D02*
X45190Y943148D01*
X45191Y943148D01*
X45904Y944286D01*
X45904Y944287D01*
X45905Y944287D01*
X46347Y945555D01*
X46348Y945555D01*
X46347Y945556D01*
X46348Y945556D01*
X46348Y945560D01*
X46349Y945564D01*
X46349Y945568D01*
X46350Y945572D01*
X46350Y945581D01*
X46351Y945581D01*
X46350Y945581D01*
X46351Y945585D01*
X46352Y945594D01*
X46352Y945598D01*
X46353Y945602D01*
X46354Y945611D01*
X46354Y945615D01*
X46355Y945623D01*
X46356Y945628D01*
X46356Y945632D01*
X46357Y945636D01*
X46357Y945640D01*
X46358Y945645D01*
X46359Y945653D01*
X46359Y945657D01*
X46360Y945666D01*
X46361Y945670D01*
X46361Y945674D01*
X46362Y945683D01*
X46362Y945687D01*
X46363Y945696D01*
X46364Y945700D01*
X46365Y945708D01*
X46365Y945713D01*
X46366Y945717D01*
X46367Y945725D01*
X46367Y945730D01*
X46368Y945738D01*
X46369Y945742D01*
X46369Y945747D01*
X46370Y945755D01*
X46371Y945759D01*
X46372Y945768D01*
X46372Y945772D01*
X46373Y945781D01*
X46373Y945785D01*
X46374Y945789D01*
X46375Y945798D01*
X46375Y945802D01*
X46376Y945810D01*
X46377Y945815D01*
X46377Y945819D01*
X46378Y945827D01*
X46379Y945832D01*
X46380Y945840D01*
X46380Y945844D01*
X46381Y945853D01*
X46382Y945857D01*
X46382Y945861D01*
X46383Y945870D01*
X46383Y945874D01*
X46384Y945883D01*
X46385Y945887D01*
X46385Y945891D01*
X46386Y945900D01*
X46387Y945904D01*
X46388Y945912D01*
X46388Y945917D01*
X46389Y945925D01*
X46390Y945929D01*
X46390Y945934D01*
X46391Y945942D01*
X46392Y945946D01*
X46393Y945955D01*
X46393Y945959D01*
X46393Y945963D01*
X46394Y945963D01*
X46394Y945972D01*
X46395Y945976D01*
X46396Y945985D01*
X46396Y945989D01*
X46397Y945997D01*
X46398Y946002D01*
X46398Y946006D01*
X46399Y946014D01*
X46400Y946019D01*
X46401Y946027D01*
X46401Y946031D01*
X46402Y946036D01*
X46403Y946044D01*
X46403Y946048D01*
X46404Y946057D01*
X46404Y946061D01*
X46405Y946061D01*
X46404Y946061D01*
X46405Y946070D01*
X46406Y946074D01*
X46406Y946078D01*
X46407Y946087D01*
X46408Y946091D01*
X46409Y946099D01*
X46409Y946104D01*
X46410Y946108D01*
X46411Y946116D01*
X46411Y946121D01*
X46412Y946129D01*
X46413Y946133D01*
X46414Y946142D01*
X46414Y946146D01*
X46415Y946150D01*
X46415Y946159D01*
X46416Y946159D01*
X46415Y946159D01*
X46416Y946163D01*
X46417Y946172D01*
X46417Y946176D01*
X46418Y946180D01*
X46419Y946189D01*
X46419Y946193D01*
X46420Y946201D01*
X46421Y946206D01*
X46422Y946214D01*
X46422Y946218D01*
X46423Y946223D01*
X46424Y946231D01*
X46424Y946235D01*
X46425Y946244D01*
X46426Y946248D01*
X46426Y946252D01*
X46427Y946261D01*
X46427Y946265D01*
X46428Y946274D01*
X46429Y946278D01*
X46430Y946286D01*
X46430Y946291D01*
X46431Y946295D01*
X46432Y946303D01*
X46432Y946308D01*
X46433Y946316D01*
X46434Y946320D01*
X46434Y946325D01*
X46435Y946329D01*
X46435Y946333D01*
X46436Y946337D01*
X46437Y946346D01*
X46437Y946350D01*
X46438Y946359D01*
X46438Y946363D01*
X46439Y946367D01*
X46440Y946376D01*
X46440Y946380D01*
X46441Y946388D01*
X46442Y946393D01*
X46442Y946397D01*
X46443Y946401D01*
X46443Y946405D01*
X46444Y946410D01*
X46445Y946418D01*
X46445Y946422D01*
X46446Y946431D01*
X46447Y946435D01*
X46447Y946439D01*
X46448Y946448D01*
X46448Y946452D01*
X46449Y946461D01*
X46450Y946465D01*
X46450Y946469D01*
X46451Y946473D01*
X46451Y946478D01*
X46452Y946482D01*
X46453Y946490D01*
X46453Y946495D01*
X46454Y946503D01*
X46455Y946507D01*
X46455Y946512D01*
X46456Y946520D01*
X46457Y946524D01*
X46458Y946533D01*
X46458Y946537D01*
X46458Y946541D01*
X46459Y946541D01*
X46459Y946546D01*
X46459Y946550D01*
X46460Y946554D01*
X46461Y946563D01*
X46461Y946567D01*
X46462Y946575D01*
X46463Y946580D01*
X46463Y946584D01*
X46464Y946592D01*
X46465Y946597D01*
X46466Y946605D01*
X46466Y946609D01*
X46467Y946618D01*
X46468Y946622D01*
X46468Y946626D01*
X46469Y946635D01*
X46469Y946639D01*
X46470Y946639D01*
X46469Y946639D01*
X46470Y946648D01*
X46471Y946652D01*
X46471Y946656D01*
X46472Y946665D01*
X46473Y946669D01*
X46474Y946677D01*
X46474Y946682D01*
X46475Y946690D01*
X46476Y946694D01*
X46476Y946699D01*
X46477Y946707D01*
X46478Y946711D01*
X46479Y946720D01*
X46479Y946724D01*
X46480Y946728D01*
X46480Y946737D01*
X46481Y946737D01*
X46480Y946737D01*
X46481Y946741D01*
X46482Y946750D01*
X46482Y946754D01*
X46483Y946762D01*
X46484Y946767D01*
X46484Y946771D01*
X46485Y946779D01*
X46486Y946784D01*
X46487Y946792D01*
X46487Y946796D01*
X46488Y946801D01*
X46489Y946809D01*
X46489Y946813D01*
X46490Y946822D01*
X46491Y946826D01*
X46491Y946835D01*
X46492Y946835D01*
X46491Y946835D01*
X46492Y946839D01*
X46492Y946843D01*
X46493Y946852D01*
X46494Y946856D01*
X46495Y946864D01*
X46495Y946869D01*
X46496Y946873D01*
X46497Y946881D01*
X46497Y946886D01*
X46498Y946891D01*
X46497Y946891D01*
X46498Y946891D01*
X46348Y948226D01*
X46347Y948227D01*
X45905Y949495D01*
X45904Y949495D01*
X45904Y949496D01*
X45191Y950634D01*
X45189Y950634D01*
X45185Y950635D01*
X45184Y950635D01*
X43006Y948457D01*
X43006Y948455D01*
X43006Y948453D01*
X43006Y948452D01*
X43289Y947859D01*
X43435Y947219D01*
X43435Y946563D01*
X43289Y945923D01*
X43006Y945330D01*
X43006Y945327D01*
X43006Y945325D01*
X45184Y943147D01*
X45185Y943147D01*
X45186Y943147D01*
X45190Y943147D01*
X45190Y943148D01*
G37*
G36*
X35587Y943147D02*
X35587Y943147D01*
X35588Y943147D01*
X37766Y945325D01*
X37766Y945329D01*
X37767Y945330D01*
X37483Y945923D01*
X37337Y946563D01*
X37337Y947219D01*
X37483Y947859D01*
X37767Y948452D01*
X37766Y948454D01*
X37766Y948455D01*
X37766Y948457D01*
X35588Y950635D01*
X35587Y950635D01*
X35586Y950635D01*
X35582Y950635D01*
X35582Y950634D01*
X35581Y950634D01*
X34868Y949496D01*
X34868Y949495D01*
X34867Y949495D01*
X34425Y948227D01*
X34425Y948226D01*
X34424Y948226D01*
X34424Y948225D01*
X34423Y948217D01*
X34423Y948213D01*
X34422Y948204D01*
X34421Y948200D01*
X34420Y948191D01*
X34420Y948187D01*
X34420Y948183D01*
X34419Y948183D01*
X34420Y948183D01*
X34419Y948174D01*
X34418Y948170D01*
X34417Y948162D01*
X34417Y948157D01*
X34416Y948153D01*
X34415Y948145D01*
X34415Y948140D01*
X34414Y948132D01*
X34413Y948128D01*
X34412Y948119D01*
X34412Y948115D01*
X34411Y948111D01*
X34410Y948102D01*
X34410Y948098D01*
X34409Y948089D01*
X34409Y948085D01*
X34408Y948085D01*
X34409Y948085D01*
X34408Y948081D01*
X34408Y948077D01*
X34407Y948072D01*
X34407Y948068D01*
X34406Y948060D01*
X34405Y948055D01*
X34404Y948047D01*
X34404Y948043D01*
X34403Y948038D01*
X34402Y948030D01*
X34402Y948026D01*
X34401Y948017D01*
X34400Y948013D01*
X34400Y948009D01*
X34399Y948004D01*
X34399Y948000D01*
X34398Y947996D01*
X34398Y947987D01*
X34397Y947987D01*
X34398Y947987D01*
X34397Y947983D01*
X34396Y947975D01*
X34396Y947970D01*
X34395Y947966D01*
X34394Y947958D01*
X34394Y947953D01*
X34393Y947945D01*
X34392Y947941D01*
X34392Y947936D01*
X34391Y947932D01*
X34391Y947928D01*
X34390Y947924D01*
X34389Y947915D01*
X34389Y947911D01*
X34388Y947902D01*
X34387Y947898D01*
X34387Y947894D01*
X34386Y947885D01*
X34386Y947881D01*
X34385Y947873D01*
X34384Y947868D01*
X34384Y947864D01*
X34383Y947860D01*
X34383Y947856D01*
X34382Y947851D01*
X34381Y947843D01*
X34381Y947839D01*
X34380Y947830D01*
X34379Y947826D01*
X34379Y947822D01*
X34378Y947813D01*
X34377Y947809D01*
X34376Y947800D01*
X34376Y947796D01*
X34375Y947788D01*
X34375Y947783D01*
X34374Y947779D01*
X34373Y947771D01*
X34373Y947766D01*
X34372Y947758D01*
X34371Y947754D01*
X34371Y947749D01*
X34370Y947741D01*
X34369Y947737D01*
X34368Y947728D01*
X34368Y947724D01*
X34367Y947715D01*
X34366Y947711D01*
X34366Y947707D01*
X34365Y947698D01*
X34365Y947694D01*
X34364Y947686D01*
X34363Y947681D01*
X34363Y947677D01*
X34362Y947669D01*
X34361Y947664D01*
X34360Y947656D01*
X34360Y947652D01*
X34359Y947643D01*
X34358Y947639D01*
X34358Y947635D01*
X34357Y947626D01*
X34356Y947622D01*
X34355Y947613D01*
X34355Y947609D01*
X34355Y947605D01*
X34354Y947605D01*
X34354Y947596D01*
X34353Y947592D01*
X34352Y947584D01*
X34352Y947579D01*
X34351Y947571D01*
X34350Y947567D01*
X34350Y947562D01*
X34349Y947554D01*
X34348Y947550D01*
X34347Y947541D01*
X34347Y947537D01*
X34346Y947533D01*
X34345Y947524D01*
X34345Y947520D01*
X34344Y947511D01*
X34344Y947507D01*
X34343Y947507D01*
X34344Y947507D01*
X34343Y947499D01*
X34342Y947494D01*
X34342Y947490D01*
X34341Y947482D01*
X34340Y947477D01*
X34339Y947469D01*
X34339Y947465D01*
X34338Y947460D01*
X34337Y947452D01*
X34337Y947448D01*
X34336Y947439D01*
X34335Y947435D01*
X34334Y947426D01*
X34334Y947422D01*
X34333Y947418D01*
X34333Y947409D01*
X34332Y947409D01*
X34333Y947409D01*
X34332Y947405D01*
X34331Y947397D01*
X34331Y947392D01*
X34330Y947388D01*
X34329Y947380D01*
X34329Y947375D01*
X34328Y947367D01*
X34327Y947363D01*
X34326Y947354D01*
X34326Y947350D01*
X34325Y947346D01*
X34324Y947337D01*
X34324Y947333D01*
X34323Y947324D01*
X34322Y947320D01*
X34322Y947316D01*
X34321Y947307D01*
X34321Y947303D01*
X34320Y947295D01*
X34319Y947290D01*
X34318Y947282D01*
X34318Y947278D01*
X34317Y947273D01*
X34316Y947265D01*
X34316Y947261D01*
X34315Y947252D01*
X34314Y947248D01*
X34314Y947244D01*
X34313Y947235D01*
X34312Y947231D01*
X34311Y947222D01*
X34311Y947218D01*
X34310Y947210D01*
X34310Y947205D01*
X34309Y947201D01*
X34308Y947193D01*
X34308Y947188D01*
X34307Y947180D01*
X34306Y947176D01*
X34306Y947171D01*
X34305Y947167D01*
X34305Y947163D01*
X34304Y947159D01*
X34303Y947150D01*
X34303Y947146D01*
X34302Y947137D01*
X34301Y947133D01*
X34301Y947129D01*
X34300Y947120D01*
X34300Y947116D01*
X34299Y947108D01*
X34298Y947103D01*
X34298Y947099D01*
X34297Y947095D01*
X34297Y947091D01*
X34296Y947086D01*
X34295Y947078D01*
X34295Y947074D01*
X34294Y947065D01*
X34293Y947061D01*
X34293Y947057D01*
X34292Y947048D01*
X34291Y947044D01*
X34290Y947035D01*
X34290Y947031D01*
X34290Y947027D01*
X34289Y947027D01*
X34289Y947023D01*
X34289Y947018D01*
X34288Y947014D01*
X34287Y947006D01*
X34287Y947001D01*
X34286Y946993D01*
X34285Y946989D01*
X34285Y946984D01*
X34284Y946976D01*
X34283Y946972D01*
X34282Y946963D01*
X34282Y946959D01*
X34281Y946955D01*
X34281Y946950D01*
X34280Y946946D01*
X34280Y946942D01*
X34279Y946933D01*
X34279Y946929D01*
X34278Y946929D01*
X34279Y946929D01*
X34278Y946921D01*
X34277Y946916D01*
X34277Y946912D01*
X34276Y946904D01*
X34275Y946899D01*
X34274Y946891D01*
X34275Y946891D01*
X34274Y946891D01*
X34424Y945556D01*
X34425Y945555D01*
X34867Y944287D01*
X34868Y944287D01*
X34868Y944286D01*
X35581Y943148D01*
X35583Y943148D01*
X35587Y943147D01*
X35587Y943147D01*
G37*
D10*
X499634Y312530D03*
X515126Y312530D03*
D11*
X324420Y130034D03*
X324420Y145526D03*
X342480Y130224D03*
X342480Y145716D03*
X306870Y127884D03*
X306870Y143376D03*
X289040Y125544D03*
X289040Y141036D03*
X251830Y141806D03*
X251830Y126314D03*
X271210Y125944D03*
X271210Y141436D03*
X327188Y157922D03*
X327188Y173414D03*
X416840Y143576D03*
X416840Y128084D03*
X327494Y184798D03*
X327494Y200290D03*
X638570Y347368D03*
X638570Y362860D03*
X495364Y356466D03*
X495364Y340974D03*
X654532Y347448D03*
X654532Y362940D03*
D10*
X575468Y259730D03*
X590960Y259730D03*
X543264Y218674D03*
X527772Y218674D03*
X621274Y229320D03*
X636766Y229320D03*
D11*
X365752Y995858D03*
X365752Y980366D03*
X81120Y102106D03*
X81120Y86614D03*
X351922Y966308D03*
X351922Y950816D03*
X383162Y996348D03*
X383162Y980856D03*
D10*
X291368Y1002052D03*
X275876Y1002052D03*
X291868Y966052D03*
X276376Y966052D03*
D11*
X382682Y965268D03*
X382682Y949776D03*
X367492Y966038D03*
X367492Y950546D03*
D10*
X500134Y294970D03*
X515626Y294970D03*
D11*
X397450Y129234D03*
X397450Y144726D03*
D12*
X485630Y386410D03*
X485630Y414410D03*
D10*
X291668Y983952D03*
X276176Y983952D03*
D11*
X378620Y128164D03*
X378620Y143656D03*
X360920Y129934D03*
X360920Y145426D03*
D13*
X67704Y631860D02*
X60704Y631860D01*
X60704Y638860D01*
X67704Y638860D01*
X67704Y631860D01*
X67704Y634710D02*
X60704Y634710D01*
X60704Y637560D02*
X67704Y637560D01*
X67704Y614320D02*
X60704Y614320D01*
X60704Y621320D01*
X67704Y621320D01*
X67704Y614320D01*
X67704Y617170D02*
X60704Y617170D01*
X60704Y620020D02*
X67704Y620020D01*
D14*
X260990Y163340D03*
X260990Y198340D03*
X297480Y198200D03*
X297480Y163200D03*
X357540Y165680D03*
X357540Y200680D03*
D13*
X494508Y173214D02*
X494508Y166214D01*
X487508Y166214D01*
X487508Y173214D01*
X494508Y173214D01*
X494508Y169064D02*
X487508Y169064D01*
X487508Y171914D02*
X494508Y171914D01*
X512048Y173214D02*
X512048Y166214D01*
X505048Y166214D01*
X505048Y173214D01*
X512048Y173214D01*
X512048Y169064D02*
X505048Y169064D01*
X505048Y171914D02*
X512048Y171914D01*
X504728Y180654D02*
X504728Y187654D01*
X511728Y187654D01*
X511728Y180654D01*
X504728Y180654D01*
X504728Y183504D02*
X511728Y183504D01*
X511728Y186354D02*
X504728Y186354D01*
X487188Y187654D02*
X487188Y180654D01*
X487188Y187654D02*
X494188Y187654D01*
X494188Y180654D01*
X487188Y180654D01*
X487188Y183504D02*
X494188Y183504D01*
X494188Y186354D02*
X487188Y186354D01*
D15*
X79320Y151780D03*
X79320Y156780D03*
D16*
X79320Y127030D03*
D17*
X79320Y134780D03*
D15*
X79320Y141780D03*
X79320Y146780D03*
X79320Y166780D03*
X79320Y161780D03*
D16*
X79320Y191530D03*
D17*
X79320Y183780D03*
D15*
X79320Y176780D03*
X79320Y171780D03*
D18*
X588640Y166430D03*
X588640Y146430D03*
D19*
X640640Y190430D03*
X640640Y122430D03*
D20*
X450796Y306166D03*
X450796Y338166D03*
D21*
X441930Y183230D03*
X387330Y183230D03*
D22*
X602530Y351640D03*
X602530Y372640D03*
X511120Y424650D03*
X532120Y424650D03*
D13*
X52320Y631398D02*
X45320Y631398D01*
X45320Y638398D01*
X52320Y638398D01*
X52320Y631398D01*
X52320Y634248D02*
X45320Y634248D01*
X45320Y637098D02*
X52320Y637098D01*
X52320Y613858D02*
X45320Y613858D01*
X45320Y620858D01*
X52320Y620858D01*
X52320Y613858D01*
X52320Y616708D02*
X45320Y616708D01*
X45320Y619558D02*
X52320Y619558D01*
D23*
X212030Y61710D03*
X212030Y223710D03*
D24*
X450860Y870230D03*
X450860Y892230D03*
X466860Y870230D03*
X466860Y892230D03*
D25*
X450650Y103270D03*
X450650Y90270D03*
X471650Y96770D03*
D26*
X575960Y332350D03*
X575960Y315350D03*
D27*
X85310Y651552D03*
X102310Y651552D03*
D26*
X461010Y142930D03*
X461010Y125930D03*
D28*
X601656Y293330D03*
X601656Y321330D03*
D26*
X519050Y96750D03*
X519050Y113750D03*
D27*
X437968Y1033442D03*
X454968Y1033442D03*
X415472Y1033356D03*
X398472Y1033356D03*
D26*
X575960Y369340D03*
X575960Y352340D03*
X620068Y351206D03*
X620068Y368206D03*
X485870Y216430D03*
X485870Y233430D03*
D27*
X563820Y188860D03*
X546820Y188860D03*
D26*
X604308Y242384D03*
X604308Y259384D03*
D27*
X653298Y409050D03*
X636298Y409050D03*
D26*
X540270Y409670D03*
X540270Y392670D03*
X652960Y248420D03*
X652960Y231420D03*
X585900Y388390D03*
X585900Y405390D03*
X562700Y392070D03*
X562700Y409070D03*
D27*
X596328Y189758D03*
X579328Y189758D03*
D26*
X506660Y233550D03*
X506660Y216550D03*
D27*
X85464Y600708D03*
X102464Y600708D03*
D26*
X436400Y143090D03*
X436400Y126090D03*
D29*
X315220Y452790D03*
X315220Y483590D03*
X319220Y452790D03*
X319220Y483590D03*
X323220Y452790D03*
X323220Y483590D03*
X327220Y452790D03*
X327220Y483590D03*
X331220Y452790D03*
X331220Y483590D03*
X335220Y452790D03*
X335220Y483590D03*
X339220Y452790D03*
X339220Y483590D03*
X343220Y452790D03*
X343220Y483590D03*
X347220Y452790D03*
X347220Y483590D03*
X351220Y452790D03*
X351220Y483590D03*
X355220Y452790D03*
X355220Y483590D03*
X359220Y452790D03*
X359220Y483590D03*
X363220Y452790D03*
X363220Y483590D03*
X367220Y452790D03*
X367220Y483590D03*
X371220Y452790D03*
X371220Y483590D03*
X375220Y452790D03*
X375220Y483590D03*
X379220Y452790D03*
X379220Y483590D03*
X383220Y452790D03*
X383220Y483590D03*
X387220Y452790D03*
X387220Y483590D03*
X391220Y452790D03*
X391220Y483590D03*
X395220Y452790D03*
X395220Y483590D03*
X399220Y452790D03*
X399220Y483590D03*
X403220Y452790D03*
X403220Y483590D03*
X407220Y452790D03*
X407220Y483590D03*
X411220Y452790D03*
X411220Y483590D03*
X415220Y452790D03*
X415220Y483590D03*
X419220Y452790D03*
X419220Y483590D03*
X423220Y452790D03*
X423220Y483590D03*
X427220Y452790D03*
X427220Y483590D03*
X431220Y452790D03*
X431220Y483590D03*
X435220Y452790D03*
X435220Y483590D03*
X439220Y452790D03*
X439220Y483590D03*
X443220Y452790D03*
X443220Y483590D03*
X447220Y452790D03*
X447220Y483590D03*
X451220Y452790D03*
X451220Y483590D03*
X455220Y452790D03*
X455220Y483590D03*
X459220Y452790D03*
X459220Y483590D03*
X463220Y452790D03*
X463220Y483590D03*
X467220Y452790D03*
X467220Y483590D03*
X471220Y452790D03*
X471220Y483590D03*
X475220Y452790D03*
X475220Y483590D03*
X479220Y452790D03*
X479220Y483590D03*
X483220Y452790D03*
X483220Y483590D03*
X487220Y452790D03*
X487220Y483590D03*
X491220Y452790D03*
X491220Y483590D03*
X495220Y452790D03*
X495220Y483590D03*
X499220Y452790D03*
X499220Y483590D03*
X503220Y452790D03*
X503220Y483590D03*
X507220Y452790D03*
X507220Y483590D03*
X511220Y452790D03*
X511220Y483590D03*
X315220Y792790D03*
X315220Y823590D03*
X319220Y792790D03*
X319220Y823590D03*
X323220Y792790D03*
X323220Y823590D03*
X327220Y792790D03*
X327220Y823590D03*
X331220Y792790D03*
X331220Y823590D03*
X335220Y792790D03*
X335220Y823590D03*
X339220Y792790D03*
X339220Y823590D03*
X343220Y792790D03*
X343220Y823590D03*
X347220Y792790D03*
X347220Y823590D03*
X351220Y792790D03*
X351220Y823590D03*
X355220Y792790D03*
X355220Y823590D03*
X359220Y792790D03*
X359220Y823590D03*
X363220Y792790D03*
X363220Y823590D03*
X367220Y792790D03*
X367220Y823590D03*
X371220Y792790D03*
X371220Y823590D03*
X375220Y792790D03*
X375220Y823590D03*
X379220Y792790D03*
X379220Y823590D03*
X383220Y792790D03*
X383220Y823590D03*
X387220Y792790D03*
X387220Y823590D03*
X391220Y792790D03*
X391220Y823590D03*
X395220Y792790D03*
X395220Y823590D03*
X399220Y792790D03*
X399220Y823590D03*
X403220Y792790D03*
X403220Y823590D03*
X407220Y792790D03*
X407220Y823590D03*
X411220Y792790D03*
X411220Y823590D03*
X415220Y792790D03*
X415220Y823590D03*
X419220Y792790D03*
X419220Y823590D03*
X423220Y792790D03*
X423220Y823590D03*
X427220Y792790D03*
X427220Y823590D03*
X431220Y792790D03*
X431220Y823590D03*
X435220Y792790D03*
X435220Y823590D03*
X439220Y792790D03*
X439220Y823590D03*
X443220Y792790D03*
X443220Y823590D03*
X447220Y792790D03*
X447220Y823590D03*
X451220Y792790D03*
X451220Y823590D03*
X455220Y792790D03*
X455220Y823590D03*
X459220Y792790D03*
X459220Y823590D03*
X463220Y792790D03*
X463220Y823590D03*
X467220Y792790D03*
X467220Y823590D03*
X471220Y792790D03*
X471220Y823590D03*
X475220Y792790D03*
X475220Y823590D03*
X479220Y792790D03*
X479220Y823590D03*
X483220Y792790D03*
X483220Y823590D03*
X487220Y792790D03*
X487220Y823590D03*
X491220Y792790D03*
X491220Y823590D03*
X495220Y792790D03*
X495220Y823590D03*
X499220Y792790D03*
X499220Y823590D03*
X503220Y792790D03*
X503220Y823590D03*
X507220Y792790D03*
X507220Y823590D03*
X511220Y792790D03*
X511220Y823590D03*
D30*
X554600Y80720D03*
X539600Y80720D03*
X509600Y80720D03*
D31*
X568600Y53220D03*
D32*
X568600Y74220D03*
D31*
X495600Y53220D03*
D32*
X495600Y74220D03*
D33*
X611880Y411780D03*
X621380Y387780D03*
X602380Y387780D03*
D34*
X516840Y366330D02*
X509840Y366330D01*
X509840Y359830D02*
X516840Y359830D01*
X516840Y353330D02*
X509840Y353330D01*
X509840Y346830D02*
X516840Y346830D01*
X524590Y339080D02*
X524590Y332080D01*
X531090Y332080D02*
X531090Y339080D01*
X537590Y339080D02*
X537590Y332080D01*
X544090Y332080D02*
X544090Y339080D01*
X551840Y346830D02*
X558840Y346830D01*
X558840Y353330D02*
X551840Y353330D01*
X551840Y359830D02*
X558840Y359830D01*
X558840Y366330D02*
X551840Y366330D01*
X544090Y374080D02*
X544090Y381080D01*
X537590Y381080D02*
X537590Y374080D01*
X531090Y374080D02*
X531090Y381080D01*
X524590Y381080D02*
X524590Y374080D01*
D35*
X534340Y366080D03*
X534340Y347080D03*
D36*
X524840Y356580D03*
X543840Y356580D03*
D37*
X103924Y619666D03*
X103924Y626270D03*
X103924Y632874D03*
X83604Y632874D03*
X83604Y619666D03*
D38*
X643658Y274284D03*
X633658Y286284D03*
X633658Y274284D03*
X643658Y286284D03*
D39*
X652283Y269284D03*
X625033Y291284D03*
X625033Y269284D03*
X652283Y291284D03*
D40*
X636658Y260534D03*
X632658Y260534D03*
X632658Y260534D03*
X628658Y260534D03*
X640658Y260534D03*
X644658Y260534D03*
X648658Y260534D03*
X648658Y300034D03*
X644658Y300034D03*
X640658Y300034D03*
X636658Y300034D03*
X632658Y300034D03*
X628658Y300034D03*
D41*
X591470Y220220D03*
X591470Y225220D03*
X591470Y230220D03*
X591470Y235220D03*
D42*
X584220Y242470D03*
X579220Y242470D03*
X574220Y242470D03*
X569220Y242470D03*
D41*
X561970Y235220D03*
X561970Y230220D03*
X561970Y225220D03*
X561970Y220220D03*
D42*
X569220Y212970D03*
X574220Y212970D03*
X579220Y212970D03*
X584220Y212970D03*
D43*
X572220Y232220D03*
X581220Y223220D03*
X572220Y223220D03*
X581220Y232220D03*
D44*
X308811Y1003022D03*
X308811Y993522D03*
X308811Y984022D03*
X334813Y984022D03*
X334813Y1003022D03*
X308811Y965482D03*
X308811Y955982D03*
X308811Y946482D03*
X334813Y946482D03*
X334813Y965482D03*
D45*
X282700Y110720D03*
X287700Y110720D03*
X292700Y110720D03*
X297700Y110720D03*
X302700Y110720D03*
X307700Y110720D03*
X312700Y110720D03*
X317700Y110720D03*
X322700Y110720D03*
X327700Y110720D03*
X332700Y110720D03*
X337700Y110720D03*
X342700Y110720D03*
X347700Y110720D03*
X352700Y110720D03*
X357700Y110720D03*
X362700Y110720D03*
X367700Y110720D03*
X372700Y110720D03*
X377700Y110720D03*
X382700Y110720D03*
X387700Y110720D03*
X392700Y110720D03*
X397700Y110720D03*
D46*
X263700Y91470D03*
X416700Y91470D03*
D47*
X50666Y258840D03*
X55666Y258840D03*
X60666Y258840D03*
X65666Y258840D03*
X70666Y258840D03*
X75666Y258840D03*
X80666Y258840D03*
X85666Y258840D03*
D48*
X93166Y266340D03*
X93166Y271340D03*
X93166Y276340D03*
X93166Y281340D03*
X93166Y286340D03*
X93166Y291340D03*
X93166Y296340D03*
X93166Y301340D03*
D47*
X85666Y308840D03*
X80666Y308840D03*
X75666Y308840D03*
X70666Y308840D03*
X65666Y308840D03*
X60666Y308840D03*
X55666Y308840D03*
X50666Y308840D03*
D48*
X43166Y301340D03*
X43166Y296340D03*
X43166Y291340D03*
X43166Y286340D03*
X43166Y281340D03*
X43166Y276340D03*
X43166Y271340D03*
X43166Y266340D03*
D49*
X76421Y275585D03*
X59911Y292095D03*
X59911Y275585D03*
X76421Y292095D03*
D11*
X26510Y233166D03*
X26510Y217674D03*
X79850Y233166D03*
X79850Y217674D03*
D50*
X140506Y296196D03*
X162506Y296196D03*
X140506Y280196D03*
X162506Y280196D03*
D11*
X26510Y331720D03*
X26510Y347212D03*
X60800Y233166D03*
X60800Y217674D03*
D10*
X113760Y253360D03*
X129252Y253360D03*
X32734Y971926D03*
X48226Y971926D03*
X48226Y911220D03*
X32734Y911220D03*
D51*
X49980Y890900D03*
X30980Y890900D03*
D10*
X28924Y778124D03*
X44416Y778124D03*
X28924Y797174D03*
X44416Y797174D03*
D11*
X43020Y234436D03*
X43020Y218944D03*
D52*
X234310Y109990D03*
X234310Y90990D03*
D51*
X162806Y247518D03*
X181806Y247518D03*
D11*
X235082Y73880D03*
X235082Y58388D03*
D10*
X203488Y248798D03*
X218980Y248798D03*
X100364Y327030D03*
X115856Y327030D03*
X100044Y346070D03*
X115536Y346070D03*
X290288Y947542D03*
X274796Y947542D03*
X290288Y928492D03*
X274796Y928492D03*
D53*
X142130Y980360D03*
X82130Y1068360D03*
D54*
X394584Y338591D03*
X388084Y338591D03*
X381584Y338591D03*
X375084Y338591D03*
X375084Y298713D03*
X381584Y298713D03*
X388084Y298713D03*
X394584Y298713D03*
D55*
X435780Y421390D03*
D56*
X379780Y387890D03*
X454280Y387890D03*
D55*
X423280Y421390D03*
X410780Y421390D03*
X398280Y421390D03*
D26*
X417702Y269476D03*
X417702Y252476D03*
D11*
X362078Y366270D03*
X362078Y381762D03*
D57*
X450087Y980400D02*
X454913Y980400D01*
X413313Y980400D02*
X408487Y980400D01*
X450087Y976400D02*
X454913Y976400D01*
X413313Y976400D02*
X408487Y976400D01*
X450087Y972400D02*
X454913Y972400D01*
X413313Y972400D02*
X408487Y972400D01*
X450087Y968400D02*
X454913Y968400D01*
X413313Y968400D02*
X408487Y968400D01*
X450087Y964400D02*
X454913Y964400D01*
X413313Y964400D02*
X408487Y964400D01*
X450087Y960400D02*
X454913Y960400D01*
X413313Y960400D02*
X408487Y960400D01*
X450087Y956400D02*
X454913Y956400D01*
X413313Y956400D02*
X408487Y956400D01*
X450087Y952400D02*
X454913Y952400D01*
X413313Y952400D02*
X408487Y952400D01*
X450087Y948400D02*
X454913Y948400D01*
X413313Y948400D02*
X408487Y948400D01*
X450087Y944400D02*
X454913Y944400D01*
X413313Y944400D02*
X408487Y944400D01*
X450087Y940400D02*
X454913Y940400D01*
X413313Y940400D02*
X408487Y940400D01*
X450087Y936400D02*
X454913Y936400D01*
X413313Y936400D02*
X408487Y936400D01*
D11*
X45340Y330964D03*
X45340Y346456D03*
X63120Y330964D03*
X63120Y346456D03*
D58*
X51700Y364139D03*
X61200Y364139D03*
X70700Y364139D03*
X70700Y390141D03*
X51700Y390141D03*
D11*
X84200Y340612D03*
X84200Y325120D03*
X25020Y408688D03*
X25020Y424180D03*
D10*
X86108Y429640D03*
X101600Y429640D03*
X86108Y402716D03*
X101600Y402716D03*
D59*
X29930Y365870D03*
X29930Y384870D03*
D60*
X99932Y371974D03*
X118932Y371974D03*
D11*
X45340Y408688D03*
X45340Y424180D03*
D61*
X283164Y345570D03*
X283164Y341570D03*
X283164Y337570D03*
X283164Y333570D03*
X283164Y329570D03*
X283164Y325570D03*
X283164Y321570D03*
X283164Y317570D03*
X283164Y313570D03*
X283164Y309570D03*
X283164Y305570D03*
X283164Y301570D03*
X283164Y297570D03*
X283164Y293570D03*
D62*
X291200Y285534D03*
X295200Y285534D03*
X299200Y285534D03*
X303200Y285534D03*
X307200Y285534D03*
X311200Y285534D03*
X315200Y285534D03*
X319200Y285534D03*
X323200Y285534D03*
X327200Y285534D03*
X331200Y285534D03*
X335200Y285534D03*
X339200Y285534D03*
X343200Y285534D03*
D61*
X351236Y293570D03*
X351236Y297570D03*
X351236Y301570D03*
X351236Y305570D03*
X351236Y309570D03*
X351236Y313570D03*
X351236Y317570D03*
X351236Y321570D03*
X351236Y325570D03*
X351236Y329570D03*
X351236Y333570D03*
X351236Y337570D03*
X351236Y341570D03*
X351236Y345570D03*
D62*
X343200Y353606D03*
X339200Y353606D03*
X335200Y353606D03*
X331200Y353606D03*
X327200Y353606D03*
X323200Y353606D03*
X319200Y353606D03*
X315200Y353606D03*
X311200Y353606D03*
X307200Y353606D03*
X303200Y353606D03*
X299200Y353606D03*
X295200Y353606D03*
X291200Y353606D03*
D10*
X240540Y405764D03*
X256032Y405764D03*
X240540Y387984D03*
X256032Y387984D03*
X180084Y425324D03*
X164592Y425324D03*
D11*
X197232Y412752D03*
X197232Y428244D03*
D10*
X228344Y387224D03*
X212852Y387224D03*
X228344Y405004D03*
X212852Y405004D03*
X228344Y422784D03*
X212852Y422784D03*
X240540Y423544D03*
X256032Y423544D03*
D27*
X249446Y308228D03*
X266446Y308228D03*
X249446Y284860D03*
X266446Y284860D03*
D10*
X228344Y369444D03*
X212852Y369444D03*
X231392Y319660D03*
X215900Y319660D03*
X231392Y299340D03*
X215900Y299340D03*
D44*
X159211Y386704D03*
X159211Y377204D03*
X159211Y367704D03*
X185213Y367704D03*
X185213Y386704D03*
D10*
X164340Y405764D03*
X179832Y405764D03*
X240540Y370204D03*
X256032Y370204D03*
D11*
X133476Y422400D03*
X133476Y406908D03*
D63*
X288526Y387858D03*
X288526Y397858D03*
X288526Y407858D03*
X288526Y417858D03*
X298526Y377858D03*
X298526Y387858D03*
X298526Y397858D03*
X298526Y407858D03*
X298526Y417858D03*
X308526Y377858D03*
X308526Y387858D03*
X308526Y397858D03*
X308526Y407858D03*
X308526Y417858D03*
X318526Y377858D03*
X318526Y387858D03*
X318526Y397858D03*
X318526Y407858D03*
X318526Y417858D03*
X328526Y377858D03*
X328526Y387858D03*
X328526Y397858D03*
X328526Y407858D03*
X328526Y417858D03*
D27*
X259824Y344806D03*
X242824Y344806D03*
D64*
X350686Y261618D03*
X327686Y261618D03*
X327686Y244118D03*
X350686Y244118D03*
D11*
X391794Y268222D03*
X391794Y252730D03*
X273176Y267460D03*
X273176Y251968D03*
D26*
X297306Y270492D03*
X297306Y253492D03*
D65*
X580940Y88190D03*
X580940Y107190D03*
X559940Y97690D03*
D26*
X540640Y97300D03*
X540640Y114300D03*
X497460Y97300D03*
X497460Y114300D03*
X91060Y739920D03*
X91060Y756920D03*
X93600Y534180D03*
X93600Y551180D03*
X589660Y883140D03*
X589660Y866140D03*
D66*
X422900Y1005910D03*
X437600Y1005910D03*
X417820Y906880D03*
X432520Y906880D03*
X369052Y1010542D03*
X383752Y1010542D03*
D67*
X306912Y923782D03*
X306912Y914282D03*
X306912Y904782D03*
X332412Y904782D03*
X332412Y923782D03*
D11*
X365632Y921764D03*
X365632Y906272D03*
X347852Y921764D03*
X347852Y906272D03*
X383412Y921764D03*
X383412Y906272D03*
X333120Y881632D03*
X333120Y866140D03*
X350900Y881632D03*
X350900Y866140D03*
X315340Y879092D03*
X315340Y863600D03*
D10*
X289304Y910972D03*
X273812Y910972D03*
D13*
X190952Y341440D02*
X183952Y341440D01*
X190952Y341440D02*
X190952Y334440D01*
X183952Y334440D01*
X183952Y341440D01*
X183952Y337290D02*
X190952Y337290D01*
X190952Y340140D02*
X183952Y340140D01*
X183952Y358980D02*
X190952Y358980D01*
X190952Y351980D01*
X183952Y351980D01*
X183952Y358980D01*
X183952Y354830D02*
X190952Y354830D01*
X190952Y357680D02*
X183952Y357680D01*
D27*
X204860Y336804D03*
X221860Y336804D03*
D68*
X40386Y925861D03*
D69*
X50046Y925861D03*
D70*
X50536Y953231D03*
X30236Y953231D03*
D69*
X30726Y925861D03*
D71*
X98298Y868489D03*
X85598Y868489D03*
X72898Y868489D03*
X60198Y868489D03*
X60198Y814007D03*
X72898Y814007D03*
X85598Y814007D03*
X98298Y814007D03*
M02*
