M48
;GenerationSoftware,Autodesk,EAGLE,9.6.2*%
;CreationDate,2024-03-30T21:14:11Z*%
FMAT,2
ICI,OFF
METRIC,TZ,000.000
T9C0.300
T8C0.305
T7C0.350
T6C0.400
T5C0.483
T4C0.650
T3C1.100
T2C1.600
T1C2.550
%
G90
M71
T1
X7812Y82605
X7812Y49605
X55812Y49605
X55812Y82605
T2
X5104Y23528
T3
X5104Y43528
T4
X55489Y20236
X55489Y14456
T5
X52324Y19939
X52324Y14859
T6
X37548Y34504
X39348Y34504
X39348Y36304
X37548Y36304
X38448Y35404
T7
X49276Y14478
X54657Y45847
X21008Y90526
T8
X20193Y26924
X58039Y51729
X43942Y55372
X4445Y29210
X5334Y53467
X22733Y29845
X7493Y18542
X7250Y15786
X23696Y27686
X15875Y13081
X42824Y41237
X45466Y37338
X46128Y25563
X43335Y22875
X47485Y19952
X28829Y15748
X27088Y14035
X53086Y12827
X4318Y32258
X6985Y56007
T9
X17526Y59690
X24892Y67818
X23114Y67818
X26162Y77724
X19812Y77724
X17018Y78740
X45466Y42164
X40640Y72898
X43688Y72644
X55626Y18288
X2794Y61468
X2794Y62992
X2794Y64516
X59182Y68834
X57912Y68834
X56642Y68834
X55372Y68834
X54102Y68834
X52832Y68834
X54102Y55372
X52832Y55372
X51562Y62992
X51562Y64262
X51562Y65532
X51562Y66802
X51562Y68072
X51562Y56642
X51562Y57912
X51562Y59182
X51562Y60452
X51562Y61722
X23114Y72644
X24892Y72644
X26924Y72644
X19812Y70612
X19812Y71882
X19812Y73152
X19812Y74422
X19812Y75692
X19812Y64262
X19812Y65532
X19812Y66802
X19812Y68072
X19812Y69342
X26924Y66294
X26924Y67564
X26924Y68834
X26924Y70104
X26924Y71374
X26924Y65024
X11176Y63754
X11176Y65024
X11176Y66294
X11176Y67564
X11176Y71628
X11176Y72898
X11176Y74168
X11176Y75438
X29359Y73791
X28461Y74689
X27563Y75587
X26665Y76485
X20828Y47752
X23622Y49276
X22098Y46482
X12569Y56029
X11671Y55131
X10773Y54233
X9875Y53335
X21713Y52473
X20815Y51575
X19917Y50677
X19019Y49779
X18919Y53235
X18021Y52337
X17123Y51439
X15209Y49525
X5334Y62992
X5334Y64262
X5334Y65532
X5334Y66802
X9521Y78381
X8623Y77483
X7725Y76585
X6827Y75687
X11430Y84582
X11430Y83312
X11430Y82042
X11430Y80772
X18919Y76857
X18021Y75959
X17123Y75061
X16225Y74163
X52193Y76603
X51295Y75705
X50397Y74807
X49499Y73909
X52578Y81026
X52578Y82296
X52578Y83566
X52578Y84836
X51816Y46736
X50546Y46736
X49276Y46736
X48006Y46736
X5715Y5969
X34417Y6985
X36703Y6477
X41275Y11049
X41529Y8763
X41783Y14859
X22479Y14351
X21209Y20701
X21209Y21971
X11684Y19558
X10414Y19558
X9144Y19558
X24638Y44704
X27432Y42418
X8636Y27178
X51816Y51308
X49530Y55372
X43434Y60960
X41910Y58420
X38354Y59436
X38862Y61468
X39116Y64770
X34798Y66294
X32258Y58166
X30226Y60960
X29464Y63500
X16764Y66548
X16256Y68834
X13208Y74930
X7112Y91694
X13970Y91694
X43180Y89662
X45212Y89662
X47244Y89662
X49276Y89662
X51308Y89662
X34798Y88646
X36830Y91186
X27686Y87122
X24130Y93218
X20320Y93218
X18034Y90678
X18796Y87884
X19558Y84328
X16764Y83566
X30226Y68072
X31661Y66345
X32512Y70358
X37592Y70358
X37338Y72898
X32512Y72898
X32194Y83134
X38697Y83172
X40665Y83147
X30074Y83160
X43548Y83071
X40170Y49035
X38621Y49035
X31039Y49200
X26200Y49187
X38202Y80442
X40856Y80467
X33566Y80455
X11049Y21247
X44069Y33274
X44069Y31496
X43815Y38862
X16434Y31432
X39853Y46368
X40831Y46368
X41808Y46368
X32321Y36462
X33465Y36462
X34608Y36462
X36132Y38748
X27178Y40132
X8001Y28956
X2369Y23241
X40323Y45352
X41339Y45352
X36005Y37478
X54991Y7366
X41656Y36703
X19050Y57912
X41148Y37592
X39751Y41783
X18288Y56388
X20066Y55118
X37973Y23114
X39497Y23114
X41021Y23114
X23368Y57912
X16154Y29299
X31496Y72898
X31496Y70485
X27432Y63246
X27813Y52451
X28067Y49022
X41275Y51689
X42291Y51689
X20574Y16129
X20701Y17780
X21590Y11303
X26289Y26416
X29083Y26543
X35941Y22098
X40386Y86614
X35306Y53721
X36703Y53721
X49149Y51054
X43815Y34671
X44958Y35941
X57277Y89535
X56788Y16237
X56769Y18034
X24848Y79419
X45606Y41110
X57658Y15748
X25527Y78740
X17251Y40005
X16411Y38628
X46668Y41059
X33901Y9271
X10668Y27178
X31115Y58674
X32941Y9271
X11811Y27305
X29083Y61722
X31980Y9271
X12007Y26347
X30226Y59436
X31020Y9271
X13993Y28764
X32131Y46228
X12878Y15850
X3937Y6985
X25198Y12373
X27178Y15748
X29099Y9271
X16256Y28200
X32893Y53467
X30059Y9271
X14915Y28327
X31789Y55538
X49276Y21336
X50419Y21336
X49530Y19685
X45085Y22111
X2413Y10668
X44513Y26314
X45275Y27584
X45529Y26568
X35992Y49403
X25897Y34936
X13589Y16510
X35031Y49403
X25186Y35647
X12838Y17780
X7798Y14961
X34833Y25286
X40500Y28003
X42291Y23495
X23241Y85090
X25908Y23241
X30709Y25633
X42799Y28829
X51982Y6515
X15240Y41529
X45555Y53162
X39116Y53213
X36195Y86106
X36322Y72644
X36322Y70485
X36322Y65532
X37592Y64389
X43307Y48641
X44323Y86106
X47384Y64465
X42291Y49149
X47498Y11176
X48163Y22870
X46863Y14986
X37162Y11671
X38227Y13335
X10795Y10922
X13208Y13335
X4445Y20828
X3175Y8636
X3429Y21844
X6021Y41731
X6223Y45720
X19177Y78486
X18415Y82677
X31032Y37929
X15367Y17780
X30353Y38608
X16002Y16383
X15169Y14351
X29210Y38100
X29210Y43053
X29337Y49403
X47498Y10160
X27813Y93472
X11811Y5588
X32258Y44704
X18936Y32207
X19685Y22606
X15480Y12090
X8438Y14214
X59055Y43815
X58547Y23749
X54498Y9129
X9516Y15202
X54229Y22733
X51428Y22733
X50546Y25273
X24425Y26416
X24130Y37719
X24130Y41783
X23368Y29083
X22479Y41148
X46736Y22860
X52070Y17272
X22225Y24765
X22269Y34715
X16256Y59690
X16256Y65405
X2540Y71247
X9916Y90551
X18669Y30282
X25317Y30182
X14125Y57277
X14125Y67691
X30099Y21717
X11166Y90551
X18827Y31242
X26670Y28321
X15085Y57277
X15085Y67691
X30861Y22479
X51816Y10795
X26797Y20828
X15494Y37719
X22733Y27432
X18715Y24119
X55753Y52959
X44577Y56896
X35687Y56896
X22479Y43711
X18034Y41402
X16129Y20574
X16378Y34912
X14224Y30988
X53721Y11938
X51308Y9398
X38735Y25146
X15418Y34862
X18542Y39243
X19558Y41021
X15494Y32893
X18288Y32918
X19685Y39751
X15418Y40450
X15621Y42418
X13411Y42926
X13449Y36614
X17704Y27954
X21336Y23495
X16510Y32925
X18161Y34925
X20447Y34925
X6604Y54483
X13449Y44958
X15621Y43942
X21590Y34036
X21209Y27381
X18479Y28524
X24384Y34290
X25654Y37084
X34163Y22479
X32766Y22479
X52578Y11430
X22352Y23749
X25908Y21844
X20447Y13081
X33020Y49276
X12954Y33782
X4723Y40386
X3893Y47542
X19812Y80264
X26035Y80518
X5683Y40386
X4572Y46863
X18161Y78613
X22098Y83820
X20063Y56157
X22606Y58674
X19310Y56836
X21907Y59406
X19482Y58966
X24514Y66649
X18752Y59734
X23478Y66662
X42037Y72644
X41656Y85598
X42716Y73323
X42418Y86741
X34163Y14351
X31445Y14707
X40259Y17653
X12164Y28914
X17780Y20066
X18796Y14478
X15367Y10033
X24256Y23414
X44196Y17780
X38608Y44831
X44069Y37719
X44069Y36703
X45517Y33338
X45542Y31509
X37846Y30480
X37846Y31623
X35941Y33147
X34798Y33147
X2794Y59944
X14351Y25908
X30988Y85979
M30