G04 EAGLE Gerber RS-274X export*
G75*
%MOMM*%
%FSLAX34Y34*%
%LPD*%
%IN*%
%IPPOS*%
%AMOC8*
5,1,8,0,0,1.08239X$1,22.5*%
G01*
%ADD10C,0.254000*%


D10*
X10000Y90800D02*
X10193Y86373D01*
X10772Y81979D01*
X11731Y77652D01*
X13064Y73425D01*
X14760Y69331D01*
X16806Y65400D01*
X19187Y61662D01*
X21885Y58146D01*
X24879Y54879D01*
X28146Y51885D01*
X31662Y49187D01*
X35400Y46806D01*
X39331Y44760D01*
X43425Y43064D01*
X47652Y41731D01*
X51979Y40772D01*
X56373Y40193D01*
X60800Y40000D01*
X61602Y39965D01*
X62398Y39860D01*
X63181Y39687D01*
X63947Y39445D01*
X64688Y39138D01*
X65400Y38767D01*
X66077Y38336D01*
X66714Y37848D01*
X67305Y37305D01*
X67848Y36714D01*
X68336Y36077D01*
X68767Y35400D01*
X69138Y34688D01*
X69445Y33947D01*
X69687Y33181D01*
X69860Y32398D01*
X69965Y31602D01*
X70000Y30800D01*
X70000Y30000D01*
X70038Y29128D01*
X70152Y28264D01*
X70341Y27412D01*
X70603Y26580D01*
X70937Y25774D01*
X71340Y25000D01*
X71808Y24264D01*
X72340Y23572D01*
X72929Y22929D01*
X73572Y22340D01*
X74264Y21808D01*
X75000Y21340D01*
X75774Y20937D01*
X76580Y20603D01*
X77412Y20341D01*
X78264Y20152D01*
X79128Y20038D01*
X80000Y20000D01*
X100000Y20000D01*
X100872Y20038D01*
X101736Y20152D01*
X102588Y20341D01*
X103420Y20603D01*
X104226Y20937D01*
X105000Y21340D01*
X105736Y21808D01*
X106428Y22340D01*
X107071Y22929D01*
X107660Y23572D01*
X108192Y24264D01*
X108660Y25000D01*
X109063Y25774D01*
X109397Y26580D01*
X109659Y27412D01*
X109848Y28264D01*
X109962Y29128D01*
X110000Y30000D01*
X110038Y30872D01*
X110152Y31736D01*
X110341Y32588D01*
X110603Y33420D01*
X110937Y34226D01*
X111340Y35000D01*
X111808Y35736D01*
X112340Y36428D01*
X112929Y37071D01*
X113572Y37660D01*
X114264Y38192D01*
X115000Y38660D01*
X115774Y39063D01*
X116580Y39397D01*
X117412Y39659D01*
X118264Y39848D01*
X119128Y39962D01*
X120000Y40000D01*
X150000Y40000D01*
X150872Y39962D01*
X151736Y39848D01*
X152588Y39659D01*
X153420Y39397D01*
X154226Y39063D01*
X155000Y38660D01*
X155736Y38192D01*
X156428Y37660D01*
X157071Y37071D01*
X157660Y36428D01*
X158192Y35736D01*
X158660Y35000D01*
X159063Y34226D01*
X159397Y33420D01*
X159659Y32588D01*
X159848Y31736D01*
X159962Y30872D01*
X160000Y30000D01*
X160038Y29128D01*
X160152Y28264D01*
X160341Y27412D01*
X160603Y26580D01*
X160937Y25774D01*
X161340Y25000D01*
X161808Y24264D01*
X162340Y23572D01*
X162929Y22929D01*
X163572Y22340D01*
X164264Y21808D01*
X165000Y21340D01*
X165774Y20937D01*
X166580Y20603D01*
X167412Y20341D01*
X168264Y20152D01*
X169128Y20038D01*
X170000Y20000D01*
X190000Y20000D01*
X190872Y20038D01*
X191736Y20152D01*
X192588Y20341D01*
X193420Y20603D01*
X194226Y20937D01*
X195000Y21340D01*
X195736Y21808D01*
X196428Y22340D01*
X197071Y22929D01*
X197660Y23572D01*
X198192Y24264D01*
X198660Y25000D01*
X199063Y25774D01*
X199397Y26580D01*
X199659Y27412D01*
X199848Y28264D01*
X199962Y29128D01*
X200000Y30000D01*
X200038Y30872D01*
X200152Y31736D01*
X200341Y32588D01*
X200603Y33420D01*
X200937Y34226D01*
X201340Y35000D01*
X201808Y35736D01*
X202340Y36428D01*
X202929Y37071D01*
X203572Y37660D01*
X204264Y38192D01*
X205000Y38660D01*
X205774Y39063D01*
X206580Y39397D01*
X207412Y39659D01*
X208264Y39848D01*
X209128Y39962D01*
X210000Y40000D01*
X400000Y40000D01*
X400872Y39962D01*
X401736Y39848D01*
X402588Y39659D01*
X403420Y39397D01*
X404226Y39063D01*
X405000Y38660D01*
X405736Y38192D01*
X406428Y37660D01*
X407071Y37071D01*
X407660Y36428D01*
X408192Y35736D01*
X408660Y35000D01*
X409063Y34226D01*
X409397Y33420D01*
X409659Y32588D01*
X409848Y31736D01*
X409962Y30872D01*
X410000Y30000D01*
X410038Y29128D01*
X410152Y28264D01*
X410341Y27412D01*
X410603Y26580D01*
X410937Y25774D01*
X411340Y25000D01*
X411808Y24264D01*
X412340Y23572D01*
X412929Y22929D01*
X413572Y22340D01*
X414264Y21808D01*
X415000Y21340D01*
X415774Y20937D01*
X416580Y20603D01*
X417412Y20341D01*
X418264Y20152D01*
X419128Y20038D01*
X420000Y20000D01*
X440000Y20000D01*
X440872Y20038D01*
X441736Y20152D01*
X442588Y20341D01*
X443420Y20603D01*
X444226Y20937D01*
X445000Y21340D01*
X445736Y21808D01*
X446428Y22340D01*
X447071Y22929D01*
X447660Y23572D01*
X448192Y24264D01*
X448660Y25000D01*
X449063Y25774D01*
X449397Y26580D01*
X449659Y27412D01*
X449848Y28264D01*
X449962Y29128D01*
X450000Y30000D01*
X450038Y30872D01*
X450152Y31736D01*
X450341Y32588D01*
X450603Y33420D01*
X450937Y34226D01*
X451340Y35000D01*
X451808Y35736D01*
X452340Y36428D01*
X452929Y37071D01*
X453572Y37660D01*
X454264Y38192D01*
X455000Y38660D01*
X455774Y39063D01*
X456580Y39397D01*
X457412Y39659D01*
X458264Y39848D01*
X459128Y39962D01*
X460000Y40000D01*
X490000Y40000D01*
X490872Y39962D01*
X491736Y39848D01*
X492588Y39659D01*
X493420Y39397D01*
X494226Y39063D01*
X495000Y38660D01*
X495736Y38192D01*
X496428Y37660D01*
X497071Y37071D01*
X497660Y36428D01*
X498192Y35736D01*
X498660Y35000D01*
X499063Y34226D01*
X499397Y33420D01*
X499659Y32588D01*
X499848Y31736D01*
X499962Y30872D01*
X500000Y30000D01*
X500038Y29128D01*
X500152Y28264D01*
X500341Y27412D01*
X500603Y26580D01*
X500937Y25774D01*
X501340Y25000D01*
X501808Y24264D01*
X502340Y23572D01*
X502929Y22929D01*
X503572Y22340D01*
X504264Y21808D01*
X505000Y21340D01*
X505774Y20937D01*
X506580Y20603D01*
X507412Y20341D01*
X508264Y20152D01*
X509128Y20038D01*
X510000Y20000D01*
X530000Y20000D01*
X530872Y20038D01*
X531736Y20152D01*
X532588Y20341D01*
X533420Y20603D01*
X534226Y20937D01*
X535000Y21340D01*
X535736Y21808D01*
X536428Y22340D01*
X537071Y22929D01*
X537660Y23572D01*
X538192Y24264D01*
X538660Y25000D01*
X539063Y25774D01*
X539397Y26580D01*
X539659Y27412D01*
X539848Y28264D01*
X539962Y29128D01*
X540000Y30000D01*
X540038Y30872D01*
X540152Y31736D01*
X540341Y32588D01*
X540603Y33420D01*
X540937Y34226D01*
X541340Y35000D01*
X541808Y35736D01*
X542340Y36428D01*
X542929Y37071D01*
X543572Y37660D01*
X544264Y38192D01*
X545000Y38660D01*
X545774Y39063D01*
X546580Y39397D01*
X547412Y39659D01*
X548264Y39848D01*
X549128Y39962D01*
X550000Y40000D01*
X559200Y40000D01*
X563628Y40193D01*
X568021Y40772D01*
X572348Y41731D01*
X576575Y43064D01*
X580669Y44760D01*
X584600Y46806D01*
X588338Y49187D01*
X591854Y51885D01*
X595121Y54879D01*
X598115Y58146D01*
X600813Y61662D01*
X603194Y65400D01*
X605240Y69331D01*
X606936Y73425D01*
X608269Y77652D01*
X609228Y81979D01*
X609807Y86373D01*
X610000Y90800D01*
X610000Y899200D01*
X609807Y903628D01*
X609228Y908021D01*
X608269Y912348D01*
X606936Y916575D01*
X605240Y920669D01*
X603194Y924600D01*
X600813Y928338D01*
X598115Y931854D01*
X595121Y935121D01*
X591854Y938115D01*
X588338Y940813D01*
X584600Y943194D01*
X580669Y945240D01*
X576575Y946936D01*
X572348Y948269D01*
X568021Y949228D01*
X563628Y949807D01*
X559200Y950000D01*
X460000Y950000D01*
X459128Y950038D01*
X458264Y950152D01*
X457412Y950341D01*
X456580Y950603D01*
X455774Y950937D01*
X455000Y951340D01*
X454264Y951808D01*
X453572Y952340D01*
X452929Y952929D01*
X452340Y953572D01*
X451808Y954264D01*
X451340Y955000D01*
X450937Y955774D01*
X450603Y956580D01*
X450341Y957412D01*
X450152Y958264D01*
X450038Y959128D01*
X450000Y960000D01*
X449962Y960872D01*
X449848Y961736D01*
X449659Y962588D01*
X449397Y963420D01*
X449063Y964226D01*
X448660Y965000D01*
X448192Y965736D01*
X447660Y966428D01*
X447071Y967071D01*
X446428Y967660D01*
X445736Y968192D01*
X445000Y968660D01*
X444226Y969063D01*
X443420Y969397D01*
X442588Y969659D01*
X441736Y969848D01*
X440872Y969962D01*
X440000Y970000D01*
X170000Y970000D01*
X169128Y969962D01*
X168264Y969848D01*
X167412Y969659D01*
X166580Y969397D01*
X165774Y969063D01*
X165000Y968660D01*
X164264Y968192D01*
X163572Y967660D01*
X162929Y967071D01*
X162340Y966428D01*
X161808Y965736D01*
X161340Y965000D01*
X160937Y964226D01*
X160603Y963420D01*
X160341Y962588D01*
X160152Y961736D01*
X160038Y960872D01*
X160000Y960000D01*
X159962Y959128D01*
X159848Y958264D01*
X159659Y957412D01*
X159397Y956580D01*
X159063Y955774D01*
X158660Y955000D01*
X158192Y954264D01*
X157660Y953572D01*
X157071Y952929D01*
X156428Y952340D01*
X155736Y951808D01*
X155000Y951340D01*
X154226Y950937D01*
X153420Y950603D01*
X152588Y950341D01*
X151736Y950152D01*
X150872Y950038D01*
X150000Y950000D01*
X60800Y950000D01*
X56373Y949807D01*
X51979Y949228D01*
X47652Y948269D01*
X43425Y946936D01*
X39331Y945240D01*
X35400Y943194D01*
X31662Y940813D01*
X28146Y938115D01*
X24879Y935121D01*
X21885Y931854D01*
X19187Y928338D01*
X16806Y924600D01*
X14760Y920669D01*
X13064Y916575D01*
X11731Y912348D01*
X10772Y908021D01*
X10193Y903628D01*
X10000Y899200D01*
X10000Y90800D01*
X544090Y213660D02*
X555090Y213660D01*
X555351Y213671D01*
X555611Y213706D01*
X555866Y213762D01*
X556116Y213841D01*
X556358Y213941D01*
X556590Y214062D01*
X556811Y214203D01*
X557018Y214362D01*
X557211Y214539D01*
X557388Y214732D01*
X557547Y214939D01*
X557688Y215160D01*
X557809Y215392D01*
X557909Y215634D01*
X557988Y215884D01*
X558044Y216139D01*
X558079Y216399D01*
X558090Y216660D01*
X558079Y216921D01*
X558044Y217181D01*
X557988Y217436D01*
X557909Y217686D01*
X557809Y217928D01*
X557688Y218160D01*
X557547Y218381D01*
X557388Y218588D01*
X557211Y218781D01*
X557018Y218958D01*
X556811Y219117D01*
X556590Y219258D01*
X556358Y219379D01*
X556116Y219479D01*
X555866Y219558D01*
X555611Y219614D01*
X555351Y219649D01*
X555090Y219660D01*
X544090Y219660D01*
X543829Y219649D01*
X543569Y219614D01*
X543314Y219558D01*
X543064Y219479D01*
X542822Y219379D01*
X542590Y219258D01*
X542369Y219117D01*
X542162Y218958D01*
X541969Y218781D01*
X541792Y218588D01*
X541633Y218381D01*
X541492Y218160D01*
X541371Y217928D01*
X541271Y217686D01*
X541192Y217436D01*
X541136Y217181D01*
X541101Y216921D01*
X541090Y216660D01*
X541101Y216399D01*
X541136Y216139D01*
X541192Y215884D01*
X541271Y215634D01*
X541371Y215392D01*
X541492Y215160D01*
X541633Y214939D01*
X541792Y214732D01*
X541969Y214539D01*
X542162Y214362D01*
X542369Y214203D01*
X542590Y214062D01*
X542822Y213941D01*
X543064Y213841D01*
X543314Y213762D01*
X543569Y213706D01*
X543829Y213671D01*
X544090Y213660D01*
X588240Y213660D02*
X594440Y213660D01*
X594701Y213671D01*
X594961Y213706D01*
X595216Y213762D01*
X595466Y213841D01*
X595708Y213941D01*
X595940Y214062D01*
X596161Y214203D01*
X596368Y214362D01*
X596561Y214539D01*
X596738Y214732D01*
X596897Y214939D01*
X597038Y215160D01*
X597159Y215392D01*
X597259Y215634D01*
X597338Y215884D01*
X597394Y216139D01*
X597429Y216399D01*
X597440Y216660D01*
X597429Y216921D01*
X597394Y217181D01*
X597338Y217436D01*
X597259Y217686D01*
X597159Y217928D01*
X597038Y218160D01*
X596897Y218381D01*
X596738Y218588D01*
X596561Y218781D01*
X596368Y218958D01*
X596161Y219117D01*
X595940Y219258D01*
X595708Y219379D01*
X595466Y219479D01*
X595216Y219558D01*
X594961Y219614D01*
X594701Y219649D01*
X594440Y219660D01*
X588240Y219660D01*
X587979Y219649D01*
X587719Y219614D01*
X587464Y219558D01*
X587214Y219479D01*
X586972Y219379D01*
X586740Y219258D01*
X586519Y219117D01*
X586312Y218958D01*
X586119Y218781D01*
X585942Y218588D01*
X585783Y218381D01*
X585642Y218160D01*
X585521Y217928D01*
X585421Y217686D01*
X585342Y217436D01*
X585286Y217181D01*
X585251Y216921D01*
X585240Y216660D01*
X585251Y216399D01*
X585286Y216139D01*
X585342Y215884D01*
X585421Y215634D01*
X585521Y215392D01*
X585642Y215160D01*
X585783Y214939D01*
X585942Y214732D01*
X586119Y214539D01*
X586312Y214362D01*
X586519Y214203D01*
X586740Y214062D01*
X586972Y213941D01*
X587214Y213841D01*
X587464Y213762D01*
X587719Y213706D01*
X587979Y213671D01*
X588240Y213660D01*
X588240Y127260D02*
X594440Y127260D01*
X594701Y127271D01*
X594961Y127306D01*
X595216Y127362D01*
X595466Y127441D01*
X595708Y127541D01*
X595940Y127662D01*
X596161Y127803D01*
X596368Y127962D01*
X596561Y128139D01*
X596738Y128332D01*
X596897Y128539D01*
X597038Y128760D01*
X597159Y128992D01*
X597259Y129234D01*
X597338Y129484D01*
X597394Y129739D01*
X597429Y129999D01*
X597440Y130260D01*
X597429Y130521D01*
X597394Y130781D01*
X597338Y131036D01*
X597259Y131286D01*
X597159Y131528D01*
X597038Y131760D01*
X596897Y131981D01*
X596738Y132188D01*
X596561Y132381D01*
X596368Y132558D01*
X596161Y132717D01*
X595940Y132858D01*
X595708Y132979D01*
X595466Y133079D01*
X595216Y133158D01*
X594961Y133214D01*
X594701Y133249D01*
X594440Y133260D01*
X588240Y133260D01*
X587979Y133249D01*
X587719Y133214D01*
X587464Y133158D01*
X587214Y133079D01*
X586972Y132979D01*
X586740Y132858D01*
X586519Y132717D01*
X586312Y132558D01*
X586119Y132381D01*
X585942Y132188D01*
X585783Y131981D01*
X585642Y131760D01*
X585521Y131528D01*
X585421Y131286D01*
X585342Y131036D01*
X585286Y130781D01*
X585251Y130521D01*
X585240Y130260D01*
X585251Y129999D01*
X585286Y129739D01*
X585342Y129484D01*
X585421Y129234D01*
X585521Y128992D01*
X585642Y128760D01*
X585783Y128539D01*
X585942Y128332D01*
X586119Y128139D01*
X586312Y127962D01*
X586519Y127803D01*
X586740Y127662D01*
X586972Y127541D01*
X587214Y127441D01*
X587464Y127362D01*
X587719Y127306D01*
X587979Y127271D01*
X588240Y127260D01*
X544090Y127260D02*
X555090Y127260D01*
X555351Y127271D01*
X555611Y127306D01*
X555866Y127362D01*
X556116Y127441D01*
X556358Y127541D01*
X556590Y127662D01*
X556811Y127803D01*
X557018Y127962D01*
X557211Y128139D01*
X557388Y128332D01*
X557547Y128539D01*
X557688Y128760D01*
X557809Y128992D01*
X557909Y129234D01*
X557988Y129484D01*
X558044Y129739D01*
X558079Y129999D01*
X558090Y130260D01*
X558079Y130521D01*
X558044Y130781D01*
X557988Y131036D01*
X557909Y131286D01*
X557809Y131528D01*
X557688Y131760D01*
X557547Y131981D01*
X557388Y132188D01*
X557211Y132381D01*
X557018Y132558D01*
X556811Y132717D01*
X556590Y132858D01*
X556358Y132979D01*
X556116Y133079D01*
X555866Y133158D01*
X555611Y133214D01*
X555351Y133249D01*
X555090Y133260D01*
X544090Y133260D01*
X543829Y133249D01*
X543569Y133214D01*
X543314Y133158D01*
X543064Y133079D01*
X542822Y132979D01*
X542590Y132858D01*
X542369Y132717D01*
X542162Y132558D01*
X541969Y132381D01*
X541792Y132188D01*
X541633Y131981D01*
X541492Y131760D01*
X541371Y131528D01*
X541271Y131286D01*
X541192Y131036D01*
X541136Y130781D01*
X541101Y130521D01*
X541090Y130260D01*
X541101Y129999D01*
X541136Y129739D01*
X541192Y129484D01*
X541271Y129234D01*
X541371Y128992D01*
X541492Y128760D01*
X541633Y128539D01*
X541792Y128332D01*
X541969Y128139D01*
X542162Y127962D01*
X542369Y127803D01*
X542590Y127662D01*
X542822Y127541D01*
X543064Y127441D01*
X543314Y127362D01*
X543569Y127306D01*
X543829Y127271D01*
X544090Y127260D01*
X555103Y147810D02*
X555525Y147754D01*
X555937Y147644D01*
X556331Y147481D01*
X556699Y147268D01*
X557037Y147009D01*
X557339Y146707D01*
X557598Y146369D01*
X557811Y146001D01*
X557974Y145607D01*
X558084Y145195D01*
X558140Y144773D01*
X558140Y144347D01*
X558084Y143925D01*
X557974Y143513D01*
X557811Y143119D01*
X557598Y142751D01*
X557339Y142413D01*
X557037Y142111D01*
X556699Y141852D01*
X556331Y141639D01*
X555937Y141476D01*
X555525Y141366D01*
X555103Y141310D01*
X554677Y141310D01*
X554255Y141366D01*
X553843Y141476D01*
X553449Y141639D01*
X553081Y141852D01*
X552743Y142111D01*
X552441Y142413D01*
X552182Y142751D01*
X551969Y143119D01*
X551806Y143513D01*
X551696Y143925D01*
X551640Y144347D01*
X551640Y144773D01*
X551696Y145195D01*
X551806Y145607D01*
X551969Y146001D01*
X552182Y146369D01*
X552441Y146707D01*
X552743Y147009D01*
X553081Y147268D01*
X553449Y147481D01*
X553843Y147644D01*
X554255Y147754D01*
X554677Y147810D01*
X555103Y147810D01*
X555103Y205610D02*
X555525Y205554D01*
X555937Y205444D01*
X556331Y205281D01*
X556699Y205068D01*
X557037Y204809D01*
X557339Y204507D01*
X557598Y204169D01*
X557811Y203801D01*
X557974Y203407D01*
X558084Y202995D01*
X558140Y202573D01*
X558140Y202147D01*
X558084Y201725D01*
X557974Y201313D01*
X557811Y200919D01*
X557598Y200551D01*
X557339Y200213D01*
X557037Y199911D01*
X556699Y199652D01*
X556331Y199439D01*
X555937Y199276D01*
X555525Y199166D01*
X555103Y199110D01*
X554677Y199110D01*
X554255Y199166D01*
X553843Y199276D01*
X553449Y199439D01*
X553081Y199652D01*
X552743Y199911D01*
X552441Y200213D01*
X552182Y200551D01*
X551969Y200919D01*
X551806Y201313D01*
X551696Y201725D01*
X551640Y202147D01*
X551640Y202573D01*
X551696Y202995D01*
X551806Y203407D01*
X551969Y203801D01*
X552182Y204169D01*
X552441Y204507D01*
X552743Y204809D01*
X553081Y205068D01*
X553449Y205281D01*
X553843Y205444D01*
X554255Y205554D01*
X554677Y205610D01*
X555103Y205610D01*
X545366Y826551D02*
X545445Y827550D01*
X545601Y828539D01*
X545835Y829514D01*
X546145Y830466D01*
X546528Y831392D01*
X546983Y832285D01*
X547507Y833139D01*
X548095Y833950D01*
X548746Y834711D01*
X549455Y835420D01*
X550216Y836071D01*
X551027Y836659D01*
X551881Y837183D01*
X552774Y837638D01*
X553700Y838021D01*
X554652Y838331D01*
X555627Y838565D01*
X556616Y838721D01*
X557615Y838800D01*
X558617Y838800D01*
X559616Y838721D01*
X560605Y838565D01*
X561580Y838331D01*
X562532Y838021D01*
X563458Y837638D01*
X564351Y837183D01*
X565205Y836659D01*
X566016Y836071D01*
X566777Y835420D01*
X567486Y834711D01*
X568137Y833950D01*
X568725Y833139D01*
X569249Y832285D01*
X569704Y831392D01*
X570087Y830466D01*
X570397Y829514D01*
X570631Y828539D01*
X570787Y827550D01*
X570866Y826551D01*
X570866Y825549D01*
X570787Y824550D01*
X570631Y823561D01*
X570397Y822586D01*
X570087Y821634D01*
X569704Y820708D01*
X569249Y819815D01*
X568725Y818961D01*
X568137Y818150D01*
X567486Y817389D01*
X566777Y816680D01*
X566016Y816029D01*
X565205Y815441D01*
X564351Y814917D01*
X563458Y814462D01*
X562532Y814079D01*
X561580Y813769D01*
X560605Y813535D01*
X559616Y813379D01*
X558617Y813300D01*
X557615Y813300D01*
X556616Y813379D01*
X555627Y813535D01*
X554652Y813769D01*
X553700Y814079D01*
X552774Y814462D01*
X551881Y814917D01*
X551027Y815441D01*
X550216Y816029D01*
X549455Y816680D01*
X548746Y817389D01*
X548095Y818150D01*
X547507Y818961D01*
X546983Y819815D01*
X546528Y820708D01*
X546145Y821634D01*
X545835Y822586D01*
X545601Y823561D01*
X545445Y824550D01*
X545366Y825549D01*
X545366Y826551D01*
X545366Y496551D02*
X545445Y497550D01*
X545601Y498539D01*
X545835Y499514D01*
X546145Y500466D01*
X546528Y501392D01*
X546983Y502285D01*
X547507Y503139D01*
X548095Y503950D01*
X548746Y504711D01*
X549455Y505420D01*
X550216Y506071D01*
X551027Y506659D01*
X551881Y507183D01*
X552774Y507638D01*
X553700Y508021D01*
X554652Y508331D01*
X555627Y508565D01*
X556616Y508721D01*
X557615Y508800D01*
X558617Y508800D01*
X559616Y508721D01*
X560605Y508565D01*
X561580Y508331D01*
X562532Y508021D01*
X563458Y507638D01*
X564351Y507183D01*
X565205Y506659D01*
X566016Y506071D01*
X566777Y505420D01*
X567486Y504711D01*
X568137Y503950D01*
X568725Y503139D01*
X569249Y502285D01*
X569704Y501392D01*
X570087Y500466D01*
X570397Y499514D01*
X570631Y498539D01*
X570787Y497550D01*
X570866Y496551D01*
X570866Y495549D01*
X570787Y494550D01*
X570631Y493561D01*
X570397Y492586D01*
X570087Y491634D01*
X569704Y490708D01*
X569249Y489815D01*
X568725Y488961D01*
X568137Y488150D01*
X567486Y487389D01*
X566777Y486680D01*
X566016Y486029D01*
X565205Y485441D01*
X564351Y484917D01*
X563458Y484462D01*
X562532Y484079D01*
X561580Y483769D01*
X560605Y483535D01*
X559616Y483379D01*
X558617Y483300D01*
X557615Y483300D01*
X556616Y483379D01*
X555627Y483535D01*
X554652Y483769D01*
X553700Y484079D01*
X552774Y484462D01*
X551881Y484917D01*
X551027Y485441D01*
X550216Y486029D01*
X549455Y486680D01*
X548746Y487389D01*
X548095Y488150D01*
X547507Y488961D01*
X546983Y489815D01*
X546528Y490708D01*
X546145Y491634D01*
X545835Y492586D01*
X545601Y493561D01*
X545445Y494550D01*
X545366Y495549D01*
X545366Y496551D01*
X65366Y496551D02*
X65445Y497550D01*
X65601Y498539D01*
X65835Y499514D01*
X66145Y500466D01*
X66528Y501392D01*
X66983Y502285D01*
X67507Y503139D01*
X68095Y503950D01*
X68746Y504711D01*
X69455Y505420D01*
X70216Y506071D01*
X71027Y506659D01*
X71881Y507183D01*
X72774Y507638D01*
X73700Y508021D01*
X74652Y508331D01*
X75627Y508565D01*
X76616Y508721D01*
X77615Y508800D01*
X78617Y508800D01*
X79616Y508721D01*
X80605Y508565D01*
X81580Y508331D01*
X82532Y508021D01*
X83458Y507638D01*
X84351Y507183D01*
X85205Y506659D01*
X86016Y506071D01*
X86777Y505420D01*
X87486Y504711D01*
X88137Y503950D01*
X88725Y503139D01*
X89249Y502285D01*
X89704Y501392D01*
X90087Y500466D01*
X90397Y499514D01*
X90631Y498539D01*
X90787Y497550D01*
X90866Y496551D01*
X90866Y495549D01*
X90787Y494550D01*
X90631Y493561D01*
X90397Y492586D01*
X90087Y491634D01*
X89704Y490708D01*
X89249Y489815D01*
X88725Y488961D01*
X88137Y488150D01*
X87486Y487389D01*
X86777Y486680D01*
X86016Y486029D01*
X85205Y485441D01*
X84351Y484917D01*
X83458Y484462D01*
X82532Y484079D01*
X81580Y483769D01*
X80605Y483535D01*
X79616Y483379D01*
X78617Y483300D01*
X77615Y483300D01*
X76616Y483379D01*
X75627Y483535D01*
X74652Y483769D01*
X73700Y484079D01*
X72774Y484462D01*
X71881Y484917D01*
X71027Y485441D01*
X70216Y486029D01*
X69455Y486680D01*
X68746Y487389D01*
X68095Y488150D01*
X67507Y488961D01*
X66983Y489815D01*
X66528Y490708D01*
X66145Y491634D01*
X65835Y492586D01*
X65601Y493561D01*
X65445Y494550D01*
X65366Y495549D01*
X65366Y496551D01*
X65366Y826551D02*
X65445Y827550D01*
X65601Y828539D01*
X65835Y829514D01*
X66145Y830466D01*
X66528Y831392D01*
X66983Y832285D01*
X67507Y833139D01*
X68095Y833950D01*
X68746Y834711D01*
X69455Y835420D01*
X70216Y836071D01*
X71027Y836659D01*
X71881Y837183D01*
X72774Y837638D01*
X73700Y838021D01*
X74652Y838331D01*
X75627Y838565D01*
X76616Y838721D01*
X77615Y838800D01*
X78617Y838800D01*
X79616Y838721D01*
X80605Y838565D01*
X81580Y838331D01*
X82532Y838021D01*
X83458Y837638D01*
X84351Y837183D01*
X85205Y836659D01*
X86016Y836071D01*
X86777Y835420D01*
X87486Y834711D01*
X88137Y833950D01*
X88725Y833139D01*
X89249Y832285D01*
X89704Y831392D01*
X90087Y830466D01*
X90397Y829514D01*
X90631Y828539D01*
X90787Y827550D01*
X90866Y826551D01*
X90866Y825549D01*
X90787Y824550D01*
X90631Y823561D01*
X90397Y822586D01*
X90087Y821634D01*
X89704Y820708D01*
X89249Y819815D01*
X88725Y818961D01*
X88137Y818150D01*
X87486Y817389D01*
X86777Y816680D01*
X86016Y816029D01*
X85205Y815441D01*
X84351Y814917D01*
X83458Y814462D01*
X82532Y814079D01*
X81580Y813769D01*
X80605Y813535D01*
X79616Y813379D01*
X78617Y813300D01*
X77615Y813300D01*
X76616Y813379D01*
X75627Y813535D01*
X74652Y813769D01*
X73700Y814079D01*
X72774Y814462D01*
X71881Y814917D01*
X71027Y815441D01*
X70216Y816029D01*
X69455Y816680D01*
X68746Y817389D01*
X68095Y818150D01*
X67507Y818961D01*
X66983Y819815D01*
X66528Y820708D01*
X66145Y821634D01*
X65835Y822586D01*
X65601Y823561D01*
X65445Y824550D01*
X65366Y825549D01*
X65366Y826551D01*
X209907Y903506D02*
X209569Y903573D01*
X209250Y903705D01*
X208963Y903897D01*
X208720Y904140D01*
X208528Y904427D01*
X208396Y904746D01*
X208329Y905084D01*
X208329Y905428D01*
X208396Y905766D01*
X208528Y906085D01*
X208720Y906372D01*
X208963Y906615D01*
X209250Y906807D01*
X209569Y906939D01*
X209907Y907006D01*
X210251Y907006D01*
X210589Y906939D01*
X210908Y906807D01*
X211195Y906615D01*
X211438Y906372D01*
X211630Y906085D01*
X211762Y905766D01*
X211829Y905428D01*
X211829Y905084D01*
X211762Y904746D01*
X211630Y904427D01*
X211438Y904140D01*
X211195Y903897D01*
X210908Y903705D01*
X210589Y903573D01*
X210251Y903506D01*
X209907Y903506D01*
X50731Y429780D02*
X50117Y429849D01*
X49515Y429987D01*
X48932Y430191D01*
X48375Y430459D01*
X47852Y430787D01*
X47369Y431173D01*
X46933Y431609D01*
X46547Y432092D01*
X46219Y432615D01*
X45951Y433172D01*
X45747Y433755D01*
X45609Y434357D01*
X45540Y434971D01*
X45540Y435589D01*
X45609Y436203D01*
X45747Y436805D01*
X45951Y437388D01*
X46219Y437945D01*
X46547Y438468D01*
X46933Y438951D01*
X47369Y439388D01*
X47852Y439773D01*
X48375Y440101D01*
X48932Y440369D01*
X49515Y440573D01*
X50117Y440711D01*
X50731Y440780D01*
X51349Y440780D01*
X51963Y440711D01*
X52565Y440573D01*
X53148Y440369D01*
X53705Y440101D01*
X54228Y439773D01*
X54711Y439388D01*
X55148Y438951D01*
X55533Y438468D01*
X55861Y437945D01*
X56129Y437388D01*
X56333Y436805D01*
X56471Y436203D01*
X56540Y435589D01*
X56540Y434971D01*
X56471Y434357D01*
X56333Y433755D01*
X56129Y433172D01*
X55861Y432615D01*
X55533Y432092D01*
X55148Y431609D01*
X54711Y431173D01*
X54228Y430787D01*
X53705Y430459D01*
X53148Y430191D01*
X52565Y429987D01*
X51963Y429849D01*
X51349Y429780D01*
X50731Y429780D01*
X50647Y227280D02*
X49865Y227357D01*
X49094Y227510D01*
X48342Y227739D01*
X47615Y228039D01*
X46922Y228410D01*
X46269Y228847D01*
X45661Y229345D01*
X45105Y229901D01*
X44607Y230509D01*
X44170Y231162D01*
X43799Y231855D01*
X43499Y232582D01*
X43270Y233334D01*
X43117Y234105D01*
X43040Y234887D01*
X43040Y235673D01*
X43117Y236455D01*
X43270Y237226D01*
X43499Y237978D01*
X43799Y238705D01*
X44170Y239398D01*
X44607Y240051D01*
X45105Y240659D01*
X45661Y241215D01*
X46269Y241713D01*
X46922Y242150D01*
X47615Y242521D01*
X48342Y242821D01*
X49094Y243050D01*
X49865Y243203D01*
X50647Y243280D01*
X51433Y243280D01*
X52215Y243203D01*
X52986Y243050D01*
X53738Y242821D01*
X54465Y242521D01*
X55158Y242150D01*
X55811Y241713D01*
X56419Y241215D01*
X56975Y240659D01*
X57473Y240051D01*
X57910Y239398D01*
X58281Y238705D01*
X58581Y237978D01*
X58810Y237226D01*
X58963Y236455D01*
X59040Y235673D01*
X59040Y234887D01*
X58963Y234105D01*
X58810Y233334D01*
X58581Y232582D01*
X58281Y231855D01*
X57910Y231162D01*
X57473Y230509D01*
X56975Y229901D01*
X56419Y229345D01*
X55811Y228847D01*
X55158Y228410D01*
X54465Y228039D01*
X53738Y227739D01*
X52986Y227510D01*
X52215Y227357D01*
X51433Y227280D01*
X50647Y227280D01*
M02*
