G04 EAGLE Gerber RS-274X export*
G75*
%MOMM*%
%FSLAX34Y34*%
%LPD*%
%INSilkscreen Bottom*%
%IPPOS*%
%AMOC8*
5,1,8,0,0,1.08239X$1,22.5*%
G01*
%ADD10C,0.025400*%
%ADD11C,0.000000*%


D10*
X308180Y560127D02*
X309873Y560127D01*
X309873Y563937D01*
X308180Y563937D01*
X308603Y562244D02*
X309873Y562244D01*
X306505Y563937D02*
X306505Y560127D01*
X306928Y560127D02*
X306081Y560127D01*
X306081Y563937D02*
X306928Y563937D01*
X304515Y563937D02*
X304515Y560127D01*
X302398Y560127D02*
X304515Y563937D01*
X302398Y563937D02*
X302398Y560127D01*
X300565Y560127D02*
X300565Y563937D01*
X298449Y563937D02*
X300565Y561609D01*
X299719Y562455D02*
X298449Y560127D01*
D11*
X9689Y39028D02*
X10000Y38172D01*
X9451Y38444D02*
X9451Y38950D01*
X9450Y38444D02*
X9448Y38416D01*
X9442Y38389D01*
X9432Y38363D01*
X9419Y38339D01*
X9403Y38317D01*
X9383Y38297D01*
X9361Y38281D01*
X9337Y38268D01*
X9311Y38258D01*
X9284Y38252D01*
X9256Y38250D01*
X9228Y38252D01*
X9201Y38258D01*
X9175Y38268D01*
X9151Y38281D01*
X9129Y38297D01*
X9109Y38317D01*
X9093Y38339D01*
X9080Y38363D01*
X9070Y38389D01*
X9064Y38416D01*
X9062Y38444D01*
X9062Y38950D01*
X8745Y38522D02*
X8550Y38444D01*
X8744Y38522D02*
X8761Y38531D01*
X8776Y38542D01*
X8788Y38556D01*
X8798Y38572D01*
X8804Y38590D01*
X8808Y38608D01*
X8807Y38627D01*
X8804Y38645D01*
X8797Y38662D01*
X8787Y38678D01*
X8774Y38692D01*
X8759Y38703D01*
X8742Y38711D01*
X8724Y38716D01*
X8706Y38717D01*
X8670Y38715D01*
X8634Y38710D01*
X8599Y38702D01*
X8564Y38692D01*
X8531Y38678D01*
X8551Y38445D02*
X8534Y38436D01*
X8519Y38425D01*
X8507Y38411D01*
X8497Y38395D01*
X8491Y38377D01*
X8487Y38359D01*
X8488Y38340D01*
X8491Y38322D01*
X8498Y38305D01*
X8508Y38289D01*
X8521Y38275D01*
X8536Y38264D01*
X8553Y38256D01*
X8571Y38251D01*
X8589Y38250D01*
X8590Y38250D02*
X8633Y38252D01*
X8677Y38257D01*
X8720Y38265D01*
X8762Y38276D01*
X8804Y38289D01*
X8140Y38250D02*
X7946Y38250D01*
X8140Y38250D02*
X8160Y38252D01*
X8180Y38257D01*
X8199Y38266D01*
X8215Y38277D01*
X8230Y38292D01*
X8241Y38309D01*
X8250Y38327D01*
X8255Y38347D01*
X8257Y38367D01*
X8257Y38561D01*
X8255Y38584D01*
X8250Y38607D01*
X8242Y38629D01*
X8230Y38649D01*
X8215Y38667D01*
X8198Y38683D01*
X8179Y38696D01*
X8158Y38706D01*
X8136Y38713D01*
X8113Y38717D01*
X8089Y38717D01*
X8066Y38713D01*
X8044Y38706D01*
X8023Y38696D01*
X8004Y38683D01*
X7987Y38667D01*
X7972Y38649D01*
X7960Y38629D01*
X7952Y38607D01*
X7947Y38584D01*
X7945Y38561D01*
X7946Y38561D02*
X7946Y38483D01*
X8257Y38483D01*
X7688Y38250D02*
X7688Y38717D01*
X7455Y38717D01*
X7455Y38639D01*
X7212Y38522D02*
X7017Y38444D01*
X7211Y38522D02*
X7228Y38531D01*
X7243Y38542D01*
X7255Y38556D01*
X7265Y38572D01*
X7271Y38590D01*
X7275Y38608D01*
X7274Y38627D01*
X7271Y38645D01*
X7264Y38662D01*
X7254Y38678D01*
X7241Y38692D01*
X7226Y38703D01*
X7209Y38711D01*
X7191Y38716D01*
X7173Y38717D01*
X7137Y38715D01*
X7101Y38710D01*
X7066Y38702D01*
X7031Y38692D01*
X6998Y38678D01*
X7018Y38445D02*
X7001Y38436D01*
X6986Y38425D01*
X6974Y38411D01*
X6964Y38395D01*
X6958Y38377D01*
X6954Y38359D01*
X6955Y38340D01*
X6958Y38322D01*
X6965Y38305D01*
X6975Y38289D01*
X6988Y38275D01*
X7003Y38264D01*
X7020Y38256D01*
X7038Y38251D01*
X7056Y38250D01*
X7057Y38250D02*
X7100Y38252D01*
X7144Y38257D01*
X7187Y38265D01*
X7229Y38276D01*
X7271Y38289D01*
X6745Y38172D02*
X6434Y39028D01*
X6103Y38250D02*
X5948Y38250D01*
X6103Y38250D02*
X6123Y38252D01*
X6143Y38257D01*
X6162Y38266D01*
X6178Y38277D01*
X6193Y38292D01*
X6204Y38309D01*
X6213Y38327D01*
X6218Y38347D01*
X6220Y38367D01*
X6220Y38600D01*
X6218Y38620D01*
X6213Y38640D01*
X6204Y38659D01*
X6193Y38675D01*
X6178Y38690D01*
X6162Y38701D01*
X6143Y38710D01*
X6123Y38715D01*
X6103Y38717D01*
X5948Y38717D01*
X5716Y38950D02*
X5716Y38250D01*
X5716Y38717D02*
X5522Y38717D01*
X5502Y38715D01*
X5482Y38710D01*
X5464Y38701D01*
X5447Y38690D01*
X5432Y38675D01*
X5421Y38659D01*
X5412Y38640D01*
X5407Y38620D01*
X5405Y38600D01*
X5405Y38250D01*
X5033Y38250D02*
X4838Y38250D01*
X5033Y38250D02*
X5053Y38252D01*
X5073Y38257D01*
X5092Y38266D01*
X5108Y38277D01*
X5123Y38292D01*
X5134Y38309D01*
X5143Y38327D01*
X5148Y38347D01*
X5150Y38367D01*
X5149Y38367D02*
X5149Y38561D01*
X5150Y38561D02*
X5148Y38584D01*
X5143Y38607D01*
X5135Y38629D01*
X5123Y38649D01*
X5108Y38667D01*
X5091Y38683D01*
X5072Y38696D01*
X5051Y38706D01*
X5029Y38713D01*
X5006Y38717D01*
X4982Y38717D01*
X4959Y38713D01*
X4937Y38706D01*
X4916Y38696D01*
X4897Y38683D01*
X4880Y38667D01*
X4865Y38649D01*
X4853Y38629D01*
X4845Y38607D01*
X4840Y38584D01*
X4838Y38561D01*
X4838Y38483D01*
X5149Y38483D01*
X4582Y38250D02*
X4582Y38717D01*
X4388Y38717D01*
X4368Y38715D01*
X4348Y38710D01*
X4330Y38701D01*
X4313Y38690D01*
X4298Y38675D01*
X4287Y38659D01*
X4278Y38640D01*
X4273Y38620D01*
X4271Y38600D01*
X4271Y38250D01*
X3900Y38250D02*
X3706Y38250D01*
X3900Y38250D02*
X3920Y38252D01*
X3940Y38257D01*
X3959Y38266D01*
X3975Y38277D01*
X3990Y38292D01*
X4001Y38309D01*
X4010Y38327D01*
X4015Y38347D01*
X4017Y38367D01*
X4017Y38600D01*
X4015Y38620D01*
X4010Y38640D01*
X4001Y38659D01*
X3990Y38675D01*
X3975Y38690D01*
X3959Y38701D01*
X3940Y38710D01*
X3920Y38715D01*
X3900Y38717D01*
X3706Y38717D01*
X3706Y38133D01*
X3705Y38133D02*
X3707Y38113D01*
X3712Y38093D01*
X3721Y38075D01*
X3732Y38058D01*
X3747Y38043D01*
X3764Y38032D01*
X3782Y38023D01*
X3802Y38018D01*
X3822Y38016D01*
X3822Y38017D02*
X3978Y38017D01*
X3421Y38250D02*
X3421Y38717D01*
X3071Y38717D01*
X3051Y38715D01*
X3031Y38710D01*
X3013Y38701D01*
X2996Y38690D01*
X2981Y38675D01*
X2970Y38659D01*
X2961Y38640D01*
X2956Y38620D01*
X2954Y38600D01*
X2954Y38250D01*
X3188Y38250D02*
X3188Y38717D01*
X2684Y38717D02*
X2684Y38250D01*
X2703Y38911D02*
X2703Y38950D01*
X2664Y38950D01*
X2664Y38911D01*
X2703Y38911D01*
X2419Y38717D02*
X2419Y38250D01*
X2419Y38717D02*
X2225Y38717D01*
X2205Y38715D01*
X2185Y38710D01*
X2167Y38701D01*
X2150Y38690D01*
X2135Y38675D01*
X2124Y38659D01*
X2115Y38640D01*
X2110Y38620D01*
X2108Y38600D01*
X2108Y38250D01*
X1737Y38250D02*
X1543Y38250D01*
X1737Y38250D02*
X1757Y38252D01*
X1777Y38257D01*
X1796Y38266D01*
X1812Y38277D01*
X1827Y38292D01*
X1838Y38309D01*
X1847Y38327D01*
X1852Y38347D01*
X1854Y38367D01*
X1854Y38600D01*
X1852Y38620D01*
X1847Y38640D01*
X1838Y38659D01*
X1827Y38675D01*
X1812Y38690D01*
X1796Y38701D01*
X1777Y38710D01*
X1757Y38715D01*
X1737Y38717D01*
X1543Y38717D01*
X1543Y38133D01*
X1545Y38113D01*
X1550Y38093D01*
X1559Y38075D01*
X1570Y38058D01*
X1585Y38043D01*
X1601Y38032D01*
X1620Y38023D01*
X1640Y38018D01*
X1660Y38016D01*
X1660Y38017D02*
X1815Y38017D01*
X1306Y38717D02*
X995Y38717D01*
X1306Y38250D01*
X995Y38250D01*
X760Y38250D02*
X760Y38950D01*
X760Y38717D02*
X566Y38717D01*
X546Y38715D01*
X526Y38710D01*
X508Y38701D01*
X491Y38690D01*
X476Y38675D01*
X465Y38659D01*
X456Y38640D01*
X451Y38620D01*
X449Y38600D01*
X449Y38250D01*
X59Y38522D02*
X-116Y38522D01*
X59Y38522D02*
X81Y38520D01*
X103Y38515D01*
X124Y38506D01*
X143Y38493D01*
X159Y38478D01*
X173Y38460D01*
X184Y38441D01*
X191Y38419D01*
X195Y38397D01*
X195Y38375D01*
X191Y38353D01*
X184Y38331D01*
X173Y38312D01*
X159Y38294D01*
X143Y38279D01*
X124Y38266D01*
X103Y38257D01*
X81Y38252D01*
X59Y38250D01*
X-116Y38250D01*
X-116Y38600D01*
X-114Y38620D01*
X-109Y38640D01*
X-100Y38659D01*
X-89Y38675D01*
X-74Y38690D01*
X-57Y38701D01*
X-39Y38710D01*
X-19Y38715D01*
X1Y38717D01*
X156Y38717D01*
X-395Y38717D02*
X-395Y38250D01*
X-395Y38717D02*
X-589Y38717D01*
X-609Y38715D01*
X-629Y38710D01*
X-648Y38701D01*
X-664Y38690D01*
X-679Y38675D01*
X-690Y38659D01*
X-699Y38640D01*
X-704Y38620D01*
X-706Y38600D01*
X-706Y38250D01*
X-1077Y38250D02*
X-1271Y38250D01*
X-1077Y38250D02*
X-1057Y38252D01*
X-1037Y38257D01*
X-1019Y38266D01*
X-1002Y38277D01*
X-987Y38292D01*
X-976Y38309D01*
X-967Y38327D01*
X-962Y38347D01*
X-960Y38367D01*
X-960Y38600D01*
X-962Y38620D01*
X-967Y38640D01*
X-976Y38659D01*
X-987Y38675D01*
X-1002Y38690D01*
X-1019Y38701D01*
X-1037Y38710D01*
X-1057Y38715D01*
X-1077Y38717D01*
X-1271Y38717D01*
X-1271Y38133D01*
X-1269Y38113D01*
X-1264Y38093D01*
X-1255Y38075D01*
X-1244Y38058D01*
X-1229Y38043D01*
X-1213Y38032D01*
X-1194Y38023D01*
X-1174Y38018D01*
X-1154Y38016D01*
X-1154Y38017D02*
X-999Y38017D01*
X-1508Y38172D02*
X-1819Y39028D01*
X-2057Y38950D02*
X-2057Y38250D01*
X-2057Y38950D02*
X-2251Y38950D01*
X-2279Y38948D01*
X-2306Y38942D01*
X-2332Y38932D01*
X-2356Y38919D01*
X-2378Y38903D01*
X-2398Y38883D01*
X-2414Y38861D01*
X-2427Y38837D01*
X-2437Y38811D01*
X-2443Y38784D01*
X-2445Y38756D01*
X-2445Y38444D01*
X-2443Y38416D01*
X-2437Y38389D01*
X-2427Y38363D01*
X-2414Y38339D01*
X-2398Y38317D01*
X-2378Y38297D01*
X-2356Y38281D01*
X-2332Y38268D01*
X-2306Y38258D01*
X-2279Y38252D01*
X-2251Y38250D01*
X-2057Y38250D01*
X-2821Y38250D02*
X-3016Y38250D01*
X-2821Y38250D02*
X-2801Y38252D01*
X-2781Y38257D01*
X-2763Y38266D01*
X-2746Y38277D01*
X-2731Y38292D01*
X-2720Y38309D01*
X-2711Y38327D01*
X-2706Y38347D01*
X-2704Y38367D01*
X-2704Y38561D01*
X-2706Y38584D01*
X-2711Y38607D01*
X-2719Y38629D01*
X-2731Y38649D01*
X-2746Y38667D01*
X-2763Y38683D01*
X-2782Y38696D01*
X-2803Y38706D01*
X-2825Y38713D01*
X-2848Y38717D01*
X-2872Y38717D01*
X-2895Y38713D01*
X-2917Y38706D01*
X-2938Y38696D01*
X-2957Y38683D01*
X-2974Y38667D01*
X-2989Y38649D01*
X-3001Y38629D01*
X-3009Y38607D01*
X-3014Y38584D01*
X-3016Y38561D01*
X-3016Y38483D01*
X-2704Y38483D01*
X-3309Y38522D02*
X-3503Y38444D01*
X-3309Y38522D02*
X-3292Y38531D01*
X-3277Y38542D01*
X-3265Y38556D01*
X-3255Y38572D01*
X-3249Y38590D01*
X-3245Y38608D01*
X-3246Y38627D01*
X-3249Y38645D01*
X-3256Y38662D01*
X-3266Y38678D01*
X-3279Y38692D01*
X-3294Y38703D01*
X-3311Y38711D01*
X-3329Y38716D01*
X-3347Y38717D01*
X-3383Y38715D01*
X-3419Y38710D01*
X-3454Y38702D01*
X-3489Y38692D01*
X-3522Y38678D01*
X-3503Y38445D02*
X-3520Y38436D01*
X-3535Y38425D01*
X-3547Y38411D01*
X-3557Y38395D01*
X-3563Y38377D01*
X-3567Y38359D01*
X-3566Y38340D01*
X-3563Y38322D01*
X-3556Y38305D01*
X-3546Y38289D01*
X-3533Y38275D01*
X-3518Y38264D01*
X-3501Y38256D01*
X-3483Y38251D01*
X-3465Y38250D01*
X-3464Y38250D02*
X-3421Y38252D01*
X-3377Y38257D01*
X-3334Y38265D01*
X-3292Y38276D01*
X-3250Y38289D01*
X-3821Y38250D02*
X-3821Y38950D01*
X-4132Y38717D02*
X-3821Y38483D01*
X-3957Y38581D02*
X-4132Y38250D01*
X-4295Y38717D02*
X-4528Y38717D01*
X-4373Y38950D02*
X-4373Y38367D01*
X-4372Y38367D02*
X-4374Y38347D01*
X-4379Y38327D01*
X-4388Y38309D01*
X-4399Y38292D01*
X-4414Y38277D01*
X-4431Y38266D01*
X-4449Y38257D01*
X-4469Y38252D01*
X-4489Y38250D01*
X-4528Y38250D01*
X-4741Y38406D02*
X-4741Y38561D01*
X-4743Y38584D01*
X-4748Y38607D01*
X-4756Y38629D01*
X-4768Y38649D01*
X-4783Y38667D01*
X-4800Y38683D01*
X-4819Y38696D01*
X-4840Y38706D01*
X-4862Y38713D01*
X-4885Y38717D01*
X-4909Y38717D01*
X-4932Y38713D01*
X-4954Y38706D01*
X-4975Y38696D01*
X-4994Y38683D01*
X-5011Y38667D01*
X-5026Y38649D01*
X-5038Y38629D01*
X-5046Y38607D01*
X-5051Y38584D01*
X-5053Y38561D01*
X-5052Y38561D02*
X-5052Y38406D01*
X-5053Y38406D02*
X-5051Y38383D01*
X-5046Y38360D01*
X-5038Y38338D01*
X-5026Y38318D01*
X-5011Y38300D01*
X-4994Y38284D01*
X-4975Y38271D01*
X-4954Y38261D01*
X-4932Y38254D01*
X-4909Y38250D01*
X-4885Y38250D01*
X-4862Y38254D01*
X-4840Y38261D01*
X-4819Y38271D01*
X-4800Y38284D01*
X-4783Y38300D01*
X-4768Y38318D01*
X-4756Y38338D01*
X-4748Y38360D01*
X-4743Y38383D01*
X-4741Y38406D01*
X-5310Y38717D02*
X-5310Y38017D01*
X-5310Y38717D02*
X-5504Y38717D01*
X-5524Y38715D01*
X-5544Y38710D01*
X-5563Y38701D01*
X-5579Y38690D01*
X-5594Y38675D01*
X-5605Y38659D01*
X-5614Y38640D01*
X-5619Y38620D01*
X-5621Y38600D01*
X-5621Y38367D01*
X-5619Y38347D01*
X-5614Y38327D01*
X-5605Y38309D01*
X-5594Y38292D01*
X-5579Y38277D01*
X-5563Y38266D01*
X-5544Y38257D01*
X-5524Y38252D01*
X-5504Y38250D01*
X-5310Y38250D01*
X-5833Y38172D02*
X-6144Y39028D01*
X-6730Y38406D02*
X-6728Y38384D01*
X-6724Y38362D01*
X-6716Y38341D01*
X-6705Y38322D01*
X-6692Y38304D01*
X-6676Y38288D01*
X-6658Y38275D01*
X-6639Y38264D01*
X-6618Y38256D01*
X-6596Y38252D01*
X-6574Y38250D01*
X-6542Y38252D01*
X-6509Y38256D01*
X-6478Y38264D01*
X-6447Y38275D01*
X-6418Y38289D01*
X-6390Y38306D01*
X-6364Y38325D01*
X-6340Y38347D01*
X-6359Y38794D02*
X-6361Y38816D01*
X-6365Y38838D01*
X-6373Y38859D01*
X-6384Y38878D01*
X-6397Y38896D01*
X-6413Y38912D01*
X-6431Y38925D01*
X-6450Y38936D01*
X-6471Y38944D01*
X-6493Y38948D01*
X-6515Y38950D01*
X-6546Y38948D01*
X-6577Y38943D01*
X-6607Y38935D01*
X-6636Y38924D01*
X-6664Y38909D01*
X-6690Y38892D01*
X-6438Y38658D02*
X-6419Y38671D01*
X-6401Y38687D01*
X-6387Y38706D01*
X-6375Y38726D01*
X-6367Y38748D01*
X-6362Y38771D01*
X-6360Y38794D01*
X-6651Y38542D02*
X-6670Y38529D01*
X-6688Y38513D01*
X-6702Y38494D01*
X-6714Y38474D01*
X-6722Y38452D01*
X-6727Y38429D01*
X-6729Y38406D01*
X-6652Y38542D02*
X-6438Y38658D01*
X-7063Y38250D02*
X-7219Y38250D01*
X-7063Y38250D02*
X-7043Y38252D01*
X-7023Y38257D01*
X-7005Y38266D01*
X-6988Y38277D01*
X-6973Y38292D01*
X-6962Y38309D01*
X-6953Y38327D01*
X-6948Y38347D01*
X-6946Y38367D01*
X-6947Y38367D02*
X-6947Y38600D01*
X-6946Y38600D02*
X-6948Y38620D01*
X-6953Y38640D01*
X-6962Y38659D01*
X-6973Y38675D01*
X-6988Y38690D01*
X-7005Y38701D01*
X-7023Y38710D01*
X-7043Y38715D01*
X-7063Y38717D01*
X-7219Y38717D01*
X-7452Y38717D02*
X-7452Y38250D01*
X-7452Y38717D02*
X-7685Y38717D01*
X-7685Y38639D01*
X-7987Y38250D02*
X-8181Y38250D01*
X-7987Y38250D02*
X-7967Y38252D01*
X-7947Y38257D01*
X-7929Y38266D01*
X-7912Y38277D01*
X-7897Y38292D01*
X-7886Y38309D01*
X-7877Y38327D01*
X-7872Y38347D01*
X-7870Y38367D01*
X-7870Y38561D01*
X-7872Y38584D01*
X-7877Y38607D01*
X-7885Y38629D01*
X-7897Y38649D01*
X-7912Y38667D01*
X-7929Y38683D01*
X-7948Y38696D01*
X-7969Y38706D01*
X-7991Y38713D01*
X-8014Y38717D01*
X-8038Y38717D01*
X-8061Y38713D01*
X-8083Y38706D01*
X-8104Y38696D01*
X-8123Y38683D01*
X-8140Y38667D01*
X-8155Y38649D01*
X-8167Y38629D01*
X-8175Y38607D01*
X-8180Y38584D01*
X-8182Y38561D01*
X-8181Y38561D02*
X-8181Y38483D01*
X-7870Y38483D01*
X-8533Y38250D02*
X-8727Y38250D01*
X-8533Y38250D02*
X-8513Y38252D01*
X-8493Y38257D01*
X-8475Y38266D01*
X-8458Y38277D01*
X-8443Y38292D01*
X-8432Y38309D01*
X-8423Y38327D01*
X-8418Y38347D01*
X-8416Y38367D01*
X-8416Y38561D01*
X-8418Y38584D01*
X-8423Y38607D01*
X-8431Y38629D01*
X-8443Y38649D01*
X-8458Y38667D01*
X-8475Y38683D01*
X-8494Y38696D01*
X-8515Y38706D01*
X-8537Y38713D01*
X-8560Y38717D01*
X-8584Y38717D01*
X-8607Y38713D01*
X-8629Y38706D01*
X-8650Y38696D01*
X-8669Y38683D01*
X-8686Y38667D01*
X-8701Y38649D01*
X-8713Y38629D01*
X-8721Y38607D01*
X-8726Y38584D01*
X-8728Y38561D01*
X-8727Y38561D02*
X-8727Y38483D01*
X-8416Y38483D01*
X-8983Y38250D02*
X-8983Y38717D01*
X-9178Y38717D01*
X-9198Y38715D01*
X-9218Y38710D01*
X-9237Y38701D01*
X-9253Y38690D01*
X-9268Y38675D01*
X-9279Y38659D01*
X-9288Y38640D01*
X-9293Y38620D01*
X-9295Y38600D01*
X-9294Y38600D02*
X-9294Y38250D01*
X-9608Y38522D02*
X-9803Y38444D01*
X-9609Y38522D02*
X-9592Y38531D01*
X-9577Y38542D01*
X-9565Y38556D01*
X-9555Y38572D01*
X-9549Y38590D01*
X-9545Y38608D01*
X-9546Y38627D01*
X-9549Y38645D01*
X-9556Y38662D01*
X-9566Y38678D01*
X-9579Y38692D01*
X-9594Y38703D01*
X-9611Y38711D01*
X-9629Y38716D01*
X-9647Y38717D01*
X-9683Y38715D01*
X-9719Y38710D01*
X-9754Y38702D01*
X-9789Y38692D01*
X-9822Y38678D01*
X-9803Y38445D02*
X-9820Y38436D01*
X-9835Y38425D01*
X-9847Y38411D01*
X-9857Y38395D01*
X-9863Y38377D01*
X-9867Y38359D01*
X-9866Y38340D01*
X-9863Y38322D01*
X-9856Y38305D01*
X-9846Y38289D01*
X-9833Y38275D01*
X-9818Y38264D01*
X-9801Y38256D01*
X-9783Y38251D01*
X-9765Y38250D01*
X-9764Y38250D02*
X-9721Y38252D01*
X-9677Y38257D01*
X-9634Y38265D01*
X-9592Y38276D01*
X-9550Y38289D01*
X-10117Y38250D02*
X-10117Y38950D01*
X-10117Y38717D02*
X-10312Y38717D01*
X-10332Y38715D01*
X-10352Y38710D01*
X-10371Y38701D01*
X-10387Y38690D01*
X-10402Y38675D01*
X-10413Y38659D01*
X-10422Y38640D01*
X-10427Y38620D01*
X-10429Y38600D01*
X-10428Y38600D02*
X-10428Y38250D01*
X-10684Y38406D02*
X-10684Y38561D01*
X-10686Y38584D01*
X-10691Y38607D01*
X-10699Y38629D01*
X-10711Y38649D01*
X-10726Y38667D01*
X-10743Y38683D01*
X-10762Y38696D01*
X-10783Y38706D01*
X-10805Y38713D01*
X-10828Y38717D01*
X-10852Y38717D01*
X-10875Y38713D01*
X-10897Y38706D01*
X-10918Y38696D01*
X-10937Y38683D01*
X-10954Y38667D01*
X-10969Y38649D01*
X-10981Y38629D01*
X-10989Y38607D01*
X-10994Y38584D01*
X-10996Y38561D01*
X-10995Y38561D02*
X-10995Y38406D01*
X-10996Y38406D02*
X-10994Y38383D01*
X-10989Y38360D01*
X-10981Y38338D01*
X-10969Y38318D01*
X-10954Y38300D01*
X-10937Y38284D01*
X-10918Y38271D01*
X-10897Y38261D01*
X-10875Y38254D01*
X-10852Y38250D01*
X-10828Y38250D01*
X-10805Y38254D01*
X-10783Y38261D01*
X-10762Y38271D01*
X-10743Y38284D01*
X-10726Y38300D01*
X-10711Y38318D01*
X-10699Y38338D01*
X-10691Y38360D01*
X-10686Y38383D01*
X-10684Y38406D01*
X-11182Y38717D02*
X-11416Y38717D01*
X-11260Y38950D02*
X-11260Y38367D01*
X-11262Y38347D01*
X-11267Y38327D01*
X-11276Y38309D01*
X-11287Y38292D01*
X-11302Y38277D01*
X-11319Y38266D01*
X-11337Y38257D01*
X-11357Y38252D01*
X-11377Y38250D01*
X-11416Y38250D01*
X-11608Y38172D02*
X-11919Y38172D01*
X-12525Y38775D02*
X-12523Y38800D01*
X-12518Y38824D01*
X-12509Y38848D01*
X-12497Y38870D01*
X-12482Y38890D01*
X-12465Y38907D01*
X-12445Y38922D01*
X-12423Y38934D01*
X-12399Y38943D01*
X-12375Y38948D01*
X-12350Y38950D01*
X-12322Y38948D01*
X-12294Y38943D01*
X-12267Y38934D01*
X-12242Y38922D01*
X-12218Y38907D01*
X-12196Y38889D01*
X-12177Y38868D01*
X-12160Y38845D01*
X-12146Y38821D01*
X-12136Y38794D01*
X-12467Y38639D02*
X-12484Y38658D01*
X-12498Y38678D01*
X-12510Y38701D01*
X-12518Y38725D01*
X-12523Y38750D01*
X-12525Y38775D01*
X-12467Y38639D02*
X-12136Y38250D01*
X-12525Y38250D01*
X-12766Y38600D02*
X-12768Y38644D01*
X-12773Y38687D01*
X-12781Y38730D01*
X-12792Y38772D01*
X-12807Y38813D01*
X-12824Y38853D01*
X-12825Y38853D02*
X-12834Y38873D01*
X-12846Y38892D01*
X-12860Y38909D01*
X-12877Y38923D01*
X-12896Y38935D01*
X-12917Y38943D01*
X-12939Y38948D01*
X-12961Y38950D01*
X-12983Y38948D01*
X-13005Y38943D01*
X-13026Y38935D01*
X-13045Y38923D01*
X-13062Y38909D01*
X-13076Y38892D01*
X-13088Y38873D01*
X-13097Y38853D01*
X-13114Y38813D01*
X-13129Y38772D01*
X-13140Y38730D01*
X-13148Y38687D01*
X-13153Y38644D01*
X-13155Y38600D01*
X-12766Y38600D02*
X-12768Y38556D01*
X-12773Y38513D01*
X-12781Y38470D01*
X-12792Y38428D01*
X-12807Y38387D01*
X-12824Y38347D01*
X-12825Y38347D02*
X-12834Y38327D01*
X-12846Y38308D01*
X-12860Y38291D01*
X-12877Y38277D01*
X-12896Y38265D01*
X-12917Y38257D01*
X-12939Y38252D01*
X-12961Y38250D01*
X-13097Y38347D02*
X-13114Y38387D01*
X-13129Y38428D01*
X-13140Y38470D01*
X-13148Y38513D01*
X-13153Y38556D01*
X-13155Y38600D01*
X-13097Y38347D02*
X-13088Y38327D01*
X-13076Y38308D01*
X-13062Y38291D01*
X-13045Y38277D01*
X-13026Y38265D01*
X-13005Y38257D01*
X-12983Y38252D01*
X-12961Y38250D01*
X-12805Y38406D02*
X-13116Y38794D01*
X-13610Y38950D02*
X-13635Y38948D01*
X-13659Y38943D01*
X-13683Y38934D01*
X-13705Y38922D01*
X-13725Y38907D01*
X-13742Y38890D01*
X-13757Y38870D01*
X-13769Y38848D01*
X-13778Y38824D01*
X-13783Y38800D01*
X-13785Y38775D01*
X-13610Y38950D02*
X-13582Y38948D01*
X-13554Y38943D01*
X-13527Y38934D01*
X-13502Y38922D01*
X-13478Y38907D01*
X-13456Y38889D01*
X-13437Y38868D01*
X-13420Y38845D01*
X-13406Y38821D01*
X-13396Y38794D01*
X-13727Y38639D02*
X-13744Y38658D01*
X-13758Y38678D01*
X-13770Y38701D01*
X-13778Y38725D01*
X-13783Y38750D01*
X-13785Y38775D01*
X-13727Y38639D02*
X-13396Y38250D01*
X-13785Y38250D01*
X-14026Y38406D02*
X-14182Y38950D01*
X-14026Y38406D02*
X-14415Y38406D01*
X-14298Y38561D02*
X-14298Y38250D01*
X-14659Y38522D02*
X-15126Y38522D01*
X-15370Y38600D02*
X-15372Y38644D01*
X-15377Y38687D01*
X-15385Y38730D01*
X-15396Y38772D01*
X-15411Y38813D01*
X-15428Y38853D01*
X-15429Y38853D02*
X-15438Y38873D01*
X-15450Y38892D01*
X-15464Y38909D01*
X-15481Y38923D01*
X-15500Y38935D01*
X-15521Y38943D01*
X-15543Y38948D01*
X-15565Y38950D01*
X-15587Y38948D01*
X-15609Y38943D01*
X-15630Y38935D01*
X-15649Y38923D01*
X-15666Y38909D01*
X-15680Y38892D01*
X-15692Y38873D01*
X-15701Y38853D01*
X-15718Y38813D01*
X-15733Y38772D01*
X-15744Y38730D01*
X-15752Y38687D01*
X-15757Y38644D01*
X-15759Y38600D01*
X-15370Y38600D02*
X-15372Y38556D01*
X-15377Y38513D01*
X-15385Y38470D01*
X-15396Y38428D01*
X-15411Y38387D01*
X-15428Y38347D01*
X-15429Y38347D02*
X-15438Y38327D01*
X-15450Y38308D01*
X-15464Y38291D01*
X-15481Y38277D01*
X-15500Y38265D01*
X-15521Y38257D01*
X-15543Y38252D01*
X-15565Y38250D01*
X-15701Y38347D02*
X-15718Y38387D01*
X-15733Y38428D01*
X-15744Y38470D01*
X-15752Y38513D01*
X-15757Y38556D01*
X-15759Y38600D01*
X-15701Y38347D02*
X-15692Y38327D01*
X-15680Y38308D01*
X-15666Y38291D01*
X-15649Y38277D01*
X-15630Y38265D01*
X-15609Y38257D01*
X-15587Y38252D01*
X-15565Y38250D01*
X-15409Y38406D02*
X-15720Y38794D01*
X-16214Y38950D02*
X-16239Y38948D01*
X-16263Y38943D01*
X-16287Y38934D01*
X-16309Y38922D01*
X-16329Y38907D01*
X-16346Y38890D01*
X-16361Y38870D01*
X-16373Y38848D01*
X-16382Y38824D01*
X-16387Y38800D01*
X-16389Y38775D01*
X-16214Y38950D02*
X-16186Y38948D01*
X-16158Y38943D01*
X-16131Y38934D01*
X-16106Y38922D01*
X-16082Y38907D01*
X-16060Y38889D01*
X-16041Y38868D01*
X-16024Y38845D01*
X-16010Y38821D01*
X-16000Y38794D01*
X-16331Y38639D02*
X-16348Y38658D01*
X-16362Y38678D01*
X-16374Y38701D01*
X-16382Y38725D01*
X-16387Y38750D01*
X-16389Y38775D01*
X-16331Y38639D02*
X-16000Y38250D01*
X-16389Y38250D01*
X-16633Y38522D02*
X-17100Y38522D01*
X-17558Y38950D02*
X-17583Y38948D01*
X-17607Y38943D01*
X-17631Y38934D01*
X-17653Y38922D01*
X-17673Y38907D01*
X-17690Y38890D01*
X-17705Y38870D01*
X-17717Y38848D01*
X-17726Y38824D01*
X-17731Y38800D01*
X-17733Y38775D01*
X-17558Y38950D02*
X-17530Y38948D01*
X-17502Y38943D01*
X-17475Y38934D01*
X-17450Y38922D01*
X-17426Y38907D01*
X-17404Y38889D01*
X-17385Y38868D01*
X-17368Y38845D01*
X-17354Y38821D01*
X-17344Y38794D01*
X-17675Y38639D02*
X-17692Y38658D01*
X-17706Y38678D01*
X-17718Y38701D01*
X-17726Y38725D01*
X-17731Y38750D01*
X-17733Y38775D01*
X-17675Y38639D02*
X-17344Y38250D01*
X-17733Y38250D01*
X-17974Y38794D02*
X-18169Y38950D01*
X-18169Y38250D01*
X-18363Y38250D02*
X-17974Y38250D01*
X-18580Y38172D02*
X-18891Y38172D01*
X-19239Y38522D02*
X-19414Y38522D01*
X-19239Y38522D02*
X-19217Y38520D01*
X-19195Y38515D01*
X-19174Y38506D01*
X-19155Y38493D01*
X-19139Y38478D01*
X-19125Y38460D01*
X-19114Y38441D01*
X-19107Y38419D01*
X-19103Y38397D01*
X-19103Y38375D01*
X-19107Y38353D01*
X-19114Y38331D01*
X-19125Y38312D01*
X-19139Y38294D01*
X-19155Y38279D01*
X-19174Y38266D01*
X-19195Y38257D01*
X-19217Y38252D01*
X-19239Y38250D01*
X-19414Y38250D01*
X-19414Y38600D01*
X-19415Y38600D02*
X-19413Y38620D01*
X-19408Y38640D01*
X-19399Y38659D01*
X-19388Y38675D01*
X-19373Y38690D01*
X-19357Y38701D01*
X-19338Y38710D01*
X-19318Y38715D01*
X-19298Y38717D01*
X-19142Y38717D01*
X-19624Y38717D02*
X-19858Y38717D01*
X-19702Y38950D02*
X-19702Y38367D01*
X-19704Y38347D01*
X-19709Y38327D01*
X-19718Y38309D01*
X-19729Y38292D01*
X-19744Y38277D01*
X-19761Y38266D01*
X-19779Y38257D01*
X-19799Y38252D01*
X-19819Y38250D01*
X-19858Y38250D01*
X-20050Y38172D02*
X-20361Y38172D01*
X-20578Y38794D02*
X-20772Y38950D01*
X-20772Y38250D01*
X-20578Y38250D02*
X-20967Y38250D01*
X-21208Y38600D02*
X-21210Y38644D01*
X-21215Y38687D01*
X-21223Y38730D01*
X-21234Y38772D01*
X-21249Y38813D01*
X-21266Y38853D01*
X-21275Y38873D01*
X-21287Y38892D01*
X-21301Y38909D01*
X-21318Y38923D01*
X-21337Y38935D01*
X-21358Y38943D01*
X-21380Y38948D01*
X-21402Y38950D01*
X-21424Y38948D01*
X-21446Y38943D01*
X-21467Y38935D01*
X-21486Y38923D01*
X-21503Y38909D01*
X-21517Y38892D01*
X-21529Y38873D01*
X-21538Y38853D01*
X-21539Y38853D02*
X-21556Y38813D01*
X-21571Y38772D01*
X-21582Y38730D01*
X-21590Y38687D01*
X-21595Y38644D01*
X-21597Y38600D01*
X-21208Y38600D02*
X-21210Y38556D01*
X-21215Y38513D01*
X-21223Y38470D01*
X-21234Y38428D01*
X-21249Y38387D01*
X-21266Y38347D01*
X-21275Y38327D01*
X-21287Y38308D01*
X-21301Y38291D01*
X-21318Y38277D01*
X-21337Y38265D01*
X-21358Y38257D01*
X-21380Y38252D01*
X-21402Y38250D01*
X-21539Y38347D02*
X-21556Y38387D01*
X-21571Y38428D01*
X-21582Y38470D01*
X-21590Y38513D01*
X-21595Y38556D01*
X-21597Y38600D01*
X-21538Y38347D02*
X-21529Y38327D01*
X-21517Y38308D01*
X-21503Y38291D01*
X-21486Y38277D01*
X-21467Y38265D01*
X-21446Y38257D01*
X-21424Y38252D01*
X-21402Y38250D01*
X-21247Y38406D02*
X-21558Y38794D01*
X-21824Y38289D02*
X-21824Y38250D01*
X-21824Y38289D02*
X-21863Y38289D01*
X-21863Y38250D01*
X-21824Y38250D01*
X-22090Y38600D02*
X-22092Y38644D01*
X-22097Y38687D01*
X-22105Y38730D01*
X-22116Y38772D01*
X-22131Y38813D01*
X-22148Y38853D01*
X-22157Y38873D01*
X-22169Y38892D01*
X-22183Y38909D01*
X-22200Y38923D01*
X-22219Y38935D01*
X-22240Y38943D01*
X-22262Y38948D01*
X-22284Y38950D01*
X-22306Y38948D01*
X-22328Y38943D01*
X-22349Y38935D01*
X-22368Y38923D01*
X-22385Y38909D01*
X-22399Y38892D01*
X-22411Y38873D01*
X-22420Y38853D01*
X-22421Y38853D02*
X-22438Y38813D01*
X-22453Y38772D01*
X-22464Y38730D01*
X-22472Y38687D01*
X-22477Y38644D01*
X-22479Y38600D01*
X-22090Y38600D02*
X-22092Y38556D01*
X-22097Y38513D01*
X-22105Y38470D01*
X-22116Y38428D01*
X-22131Y38387D01*
X-22148Y38347D01*
X-22157Y38327D01*
X-22169Y38308D01*
X-22183Y38291D01*
X-22200Y38277D01*
X-22219Y38265D01*
X-22240Y38257D01*
X-22262Y38252D01*
X-22284Y38250D01*
X-22421Y38347D02*
X-22438Y38387D01*
X-22453Y38428D01*
X-22464Y38470D01*
X-22472Y38513D01*
X-22477Y38556D01*
X-22479Y38600D01*
X-22420Y38347D02*
X-22411Y38327D01*
X-22399Y38308D01*
X-22385Y38291D01*
X-22368Y38277D01*
X-22349Y38265D01*
X-22328Y38257D01*
X-22306Y38252D01*
X-22284Y38250D01*
X-22129Y38406D02*
X-22440Y38794D01*
X-22720Y38639D02*
X-22953Y38639D01*
X-22975Y38637D01*
X-22997Y38633D01*
X-23018Y38625D01*
X-23037Y38614D01*
X-23055Y38601D01*
X-23071Y38585D01*
X-23084Y38567D01*
X-23095Y38548D01*
X-23103Y38527D01*
X-23107Y38505D01*
X-23109Y38483D01*
X-23109Y38444D01*
X-23108Y38444D02*
X-23106Y38416D01*
X-23100Y38389D01*
X-23090Y38363D01*
X-23077Y38339D01*
X-23061Y38317D01*
X-23041Y38297D01*
X-23019Y38281D01*
X-22995Y38268D01*
X-22969Y38258D01*
X-22942Y38252D01*
X-22914Y38250D01*
X-22886Y38252D01*
X-22859Y38258D01*
X-22833Y38268D01*
X-22809Y38281D01*
X-22787Y38297D01*
X-22767Y38317D01*
X-22751Y38339D01*
X-22738Y38363D01*
X-22728Y38389D01*
X-22722Y38416D01*
X-22720Y38444D01*
X-22720Y38639D01*
X-22722Y38674D01*
X-22728Y38708D01*
X-22737Y38742D01*
X-22751Y38774D01*
X-22768Y38804D01*
X-22788Y38833D01*
X-22811Y38859D01*
X-22837Y38882D01*
X-22866Y38902D01*
X-22896Y38919D01*
X-22928Y38933D01*
X-22962Y38942D01*
X-22996Y38948D01*
X-23031Y38950D01*
X-23336Y38289D02*
X-23336Y38250D01*
X-23336Y38289D02*
X-23375Y38289D01*
X-23375Y38250D01*
X-23336Y38250D01*
X-23602Y38406D02*
X-23758Y38950D01*
X-23602Y38406D02*
X-23991Y38406D01*
X-23874Y38561D02*
X-23874Y38250D01*
X-24232Y38794D02*
X-24426Y38950D01*
X-24426Y38250D01*
X-24232Y38250D02*
X-24621Y38250D01*
X-24838Y38172D02*
X-25149Y38172D01*
X-25392Y38250D02*
X-25392Y38950D01*
X-25586Y38950D01*
X-25614Y38948D01*
X-25641Y38942D01*
X-25667Y38932D01*
X-25691Y38919D01*
X-25713Y38903D01*
X-25733Y38883D01*
X-25749Y38861D01*
X-25762Y38837D01*
X-25772Y38811D01*
X-25778Y38784D01*
X-25780Y38756D01*
X-25778Y38728D01*
X-25772Y38701D01*
X-25762Y38675D01*
X-25749Y38651D01*
X-25733Y38629D01*
X-25713Y38609D01*
X-25691Y38593D01*
X-25667Y38580D01*
X-25641Y38570D01*
X-25614Y38564D01*
X-25586Y38562D01*
X-25586Y38561D02*
X-25392Y38561D01*
X-26020Y38250D02*
X-26020Y38950D01*
X-26253Y38561D01*
X-26487Y38950D01*
X-26487Y38250D01*
X-26738Y38250D02*
X-26738Y38289D01*
X-26777Y38289D01*
X-26777Y38250D01*
X-26738Y38250D01*
X-27023Y38250D02*
X-27023Y38950D01*
X-27023Y38250D02*
X-27218Y38250D01*
X-27238Y38252D01*
X-27258Y38257D01*
X-27277Y38266D01*
X-27293Y38277D01*
X-27308Y38292D01*
X-27319Y38309D01*
X-27328Y38327D01*
X-27333Y38347D01*
X-27335Y38367D01*
X-27334Y38367D02*
X-27334Y38600D01*
X-27335Y38600D02*
X-27333Y38620D01*
X-27328Y38640D01*
X-27319Y38659D01*
X-27308Y38675D01*
X-27293Y38690D01*
X-27277Y38701D01*
X-27258Y38710D01*
X-27238Y38715D01*
X-27218Y38717D01*
X-27023Y38717D01*
X-27595Y38717D02*
X-27595Y38250D01*
X-27595Y38717D02*
X-27945Y38717D01*
X-27965Y38715D01*
X-27985Y38710D01*
X-28004Y38701D01*
X-28020Y38690D01*
X-28035Y38675D01*
X-28046Y38659D01*
X-28055Y38640D01*
X-28060Y38620D01*
X-28062Y38600D01*
X-28062Y38250D01*
X-27828Y38250D02*
X-27828Y38717D01*
X-28346Y38717D02*
X-28346Y38017D01*
X-28346Y38717D02*
X-28541Y38717D01*
X-28561Y38715D01*
X-28581Y38710D01*
X-28600Y38701D01*
X-28616Y38690D01*
X-28631Y38675D01*
X-28642Y38659D01*
X-28651Y38640D01*
X-28656Y38620D01*
X-28658Y38600D01*
X-28657Y38600D02*
X-28657Y38367D01*
X-28658Y38367D02*
X-28656Y38347D01*
X-28651Y38327D01*
X-28642Y38309D01*
X-28631Y38292D01*
X-28616Y38277D01*
X-28600Y38266D01*
X-28581Y38257D01*
X-28561Y38252D01*
X-28541Y38250D01*
X-28346Y38250D01*
M02*
