G04 EAGLE Gerber RS-274X export*
G75*
%MOMM*%
%FSLAX34Y34*%
%LPD*%
%INSoldermask Top*%
%IPPOS*%
%AMOC8*
5,1,8,0,0,1.08239X$1,22.5*%
G01*
%ADD10R,0.050800X1.981200*%
%ADD11R,0.050800X2.844800*%
%ADD12R,0.050800X11.328400*%
%ADD13R,0.050800X11.684000*%
%ADD14R,0.050800X2.946400*%
%ADD15R,0.050800X5.892800*%
%ADD16R,0.050800X2.032000*%
%ADD17R,0.050800X0.406400*%
%ADD18R,0.050800X2.184400*%
%ADD19R,0.050800X5.435600*%
%ADD20R,0.050800X2.438400*%
%ADD21R,0.050800X2.082800*%
%ADD22R,0.050800X5.130800*%
%ADD23R,0.050800X2.692400*%
%ADD24R,0.050800X0.304800*%
%ADD25R,0.050800X4.876800*%
%ADD26R,0.050800X2.997200*%
%ADD27R,0.050800X0.101600*%
%ADD28R,0.050800X1.828800*%
%ADD29R,0.050800X0.355600*%
%ADD30R,0.050800X0.914400*%
%ADD31R,0.050800X3.810000*%
%ADD32R,0.050800X2.286000*%
%ADD33R,0.050800X0.762000*%
%ADD34R,0.050800X3.505200*%
%ADD35R,0.050800X3.149600*%
%ADD36R,0.050800X0.152400*%
%ADD37R,0.050800X2.133600*%
%ADD38R,0.050800X0.558800*%
%ADD39R,0.050800X3.302000*%
%ADD40R,0.050800X3.352800*%
%ADD41R,0.050800X3.251200*%
%ADD42R,0.050800X1.930400*%
%ADD43R,0.050800X3.098800*%
%ADD44R,0.050800X3.403600*%
%ADD45R,0.050800X1.625600*%
%ADD46R,0.050800X2.895600*%
%ADD47R,0.050800X1.473200*%
%ADD48R,0.050800X2.743200*%
%ADD49R,0.050800X1.422400*%
%ADD50R,0.050800X0.050800*%
%ADD51R,0.050800X1.270000*%
%ADD52R,0.050800X0.203200*%
%ADD53R,0.050800X1.219200*%
%ADD54R,0.050800X2.590800*%
%ADD55R,0.050800X1.117600*%
%ADD56R,0.050800X1.016000*%
%ADD57R,0.050800X0.254000*%
%ADD58R,0.050800X2.336800*%
%ADD59R,0.050800X0.812800*%
%ADD60R,0.050800X0.660400*%
%ADD61R,0.050800X0.508000*%
%ADD62R,0.050800X1.879600*%
%ADD63R,0.050800X1.727200*%
%ADD64R,0.050800X2.489200*%
%ADD65R,0.050800X1.676400*%
%ADD66R,0.050800X1.778000*%
%ADD67R,0.050800X1.574800*%
%ADD68R,0.050800X1.168400*%
%ADD69R,0.050800X0.609600*%
%ADD70R,0.050800X0.457200*%
%ADD71R,0.050800X2.387600*%
%ADD72R,0.050800X0.711200*%
%ADD73R,0.050800X0.965200*%
%ADD74R,0.050800X1.320800*%
%ADD75R,0.050800X0.863600*%
%ADD76R,0.050800X2.794000*%
%ADD77R,0.050800X2.235200*%
%ADD78R,0.050800X1.066800*%
%ADD79R,0.050800X1.371600*%
%ADD80R,0.050800X1.524000*%
%ADD81R,0.050800X3.048000*%
%ADD82R,0.050800X3.200400*%
%ADD83R,0.050800X3.708400*%
%ADD84R,0.050800X3.759200*%
%ADD85R,0.050800X3.657600*%
%ADD86R,0.050800X3.911600*%
%ADD87R,0.050800X3.860800*%
%ADD88R,0.050800X3.606800*%
%ADD89R,0.050800X3.962400*%
%ADD90R,0.050800X4.013200*%
%ADD91R,0.050800X3.454400*%
%ADD92R,0.050800X4.114800*%
%ADD93R,0.050800X4.165600*%
%ADD94R,0.050800X4.216400*%
%ADD95R,0.050800X4.318000*%
%ADD96R,0.050800X4.368800*%
%ADD97R,0.050800X4.419600*%
%ADD98R,0.050800X4.470400*%
%ADD99R,0.050800X4.521200*%
%ADD100R,0.050800X4.572000*%
%ADD101R,0.050800X4.622800*%
%ADD102R,0.050800X4.775200*%
%ADD103R,0.763200X0.832300*%
%ADD104R,0.832300X0.763200*%
%ADD105R,1.173400X1.124100*%
%ADD106R,2.903200X1.803200*%
%ADD107C,0.505344*%
%ADD108R,1.003200X1.353200*%
%ADD109C,0.965200*%
%ADD110R,1.653200X0.503200*%
%ADD111R,1.653200X0.803200*%
%ADD112R,1.653200X0.753200*%
%ADD113C,0.853200*%
%ADD114R,1.203200X4.803200*%
%ADD115R,1.803200X3.603200*%
%ADD116R,5.203200X2.203200*%
%ADD117R,1.603200X3.763200*%
%ADD118R,1.403200X1.403200*%
%ADD119R,2.203200X2.203200*%
%ADD120R,1.253200X0.703200*%
%ADD121R,0.847200X0.738300*%
%ADD122R,0.738300X0.847200*%
%ADD123R,2.003200X1.803200*%
%ADD124R,0.403200X0.903200*%
%ADD125C,2.753200*%
%ADD126R,1.473200X0.838200*%
%ADD127R,0.838200X1.473200*%
%ADD128R,1.203200X1.603200*%
%ADD129R,2.903200X2.903200*%
%ADD130C,0.553200*%
%ADD131C,1.111200*%
%ADD132R,1.219200X0.558800*%
%ADD133R,0.403200X1.053200*%
%ADD134R,2.153200X2.153200*%
%ADD135R,1.203200X0.453200*%
%ADD136R,3.500000X0.450000*%
%ADD137R,1.053200X0.483200*%
%ADD138R,0.483200X1.053200*%
%ADD139R,1.903200X1.903200*%
%ADD140R,0.503200X1.003200*%
%ADD141R,1.503200X3.253200*%
%ADD142C,0.555478*%
%ADD143R,0.350000X0.900000*%
%ADD144R,0.900000X0.350000*%
%ADD145R,1.403200X1.603200*%
%ADD146R,0.609600X1.422400*%
%ADD147R,1.903200X0.803200*%
%ADD148R,3.003200X1.203200*%
%ADD149R,1.403200X0.753200*%
%ADD150R,1.016000X0.381000*%
%ADD151R,0.381000X1.016000*%
%ADD152R,3.403600X3.403600*%
%ADD153R,0.753200X1.403200*%
%ADD154R,1.503200X1.253200*%
%ADD155C,0.320000*%
%ADD156C,0.815200*%
%ADD157C,0.926200*%
%ADD158C,0.765200*%
%ADD159C,0.553200*%
%ADD160R,1.253200X1.603200*%
%ADD161R,0.558800X1.219200*%
%ADD162R,0.503200X0.753200*%
%ADD163R,0.603200X0.753200*%
%ADD164R,0.803200X1.903200*%
%ADD165R,1.203200X3.003200*%
%ADD166R,1.603200X1.203200*%
%ADD167R,1.422400X0.685800*%
%ADD168R,1.103200X1.173400*%
%ADD169R,1.135800X1.173400*%
%ADD170R,1.173400X1.103200*%
%ADD171R,1.173400X1.135800*%
%ADD172R,1.753200X0.503200*%
%ADD173C,1.303200*%
%ADD174C,1.803200*%
%ADD175R,2.953200X1.403200*%
%ADD176R,1.803200X2.903200*%

G36*
X393172Y881845D02*
X393172Y881845D01*
X393174Y881844D01*
X393217Y881864D01*
X393261Y881882D01*
X393261Y881884D01*
X393263Y881885D01*
X393296Y881970D01*
X393296Y903970D01*
X393295Y903972D01*
X393296Y903974D01*
X393276Y904017D01*
X393258Y904061D01*
X393256Y904061D01*
X393255Y904063D01*
X393170Y904096D01*
X382170Y904096D01*
X382168Y904095D01*
X382166Y904096D01*
X382123Y904076D01*
X382079Y904058D01*
X382079Y904056D01*
X382077Y904055D01*
X382044Y903970D01*
X382044Y881970D01*
X382045Y881968D01*
X382044Y881966D01*
X382064Y881923D01*
X382082Y881879D01*
X382084Y881879D01*
X382085Y881877D01*
X382170Y881844D01*
X393170Y881844D01*
X393172Y881845D01*
G37*
G36*
X560172Y881845D02*
X560172Y881845D01*
X560174Y881844D01*
X560217Y881864D01*
X560261Y881882D01*
X560261Y881884D01*
X560263Y881885D01*
X560296Y881970D01*
X560296Y903970D01*
X560295Y903972D01*
X560296Y903974D01*
X560276Y904017D01*
X560258Y904061D01*
X560256Y904061D01*
X560255Y904063D01*
X560170Y904096D01*
X549170Y904096D01*
X549168Y904095D01*
X549166Y904096D01*
X549123Y904076D01*
X549079Y904058D01*
X549079Y904056D01*
X549077Y904055D01*
X549044Y903970D01*
X549044Y881970D01*
X549045Y881968D01*
X549044Y881966D01*
X549064Y881923D01*
X549082Y881879D01*
X549084Y881879D01*
X549085Y881877D01*
X549170Y881844D01*
X560170Y881844D01*
X560172Y881845D01*
G37*
G36*
X227002Y82055D02*
X227002Y82055D01*
X227004Y82054D01*
X227047Y82074D01*
X227091Y82092D01*
X227091Y82094D01*
X227093Y82095D01*
X227126Y82180D01*
X227126Y104180D01*
X227125Y104182D01*
X227126Y104184D01*
X227106Y104227D01*
X227088Y104271D01*
X227086Y104271D01*
X227085Y104273D01*
X227000Y104306D01*
X216000Y104306D01*
X215998Y104305D01*
X215996Y104306D01*
X215953Y104286D01*
X215909Y104268D01*
X215909Y104266D01*
X215907Y104265D01*
X215874Y104180D01*
X215874Y82180D01*
X215875Y82178D01*
X215874Y82176D01*
X215894Y82133D01*
X215912Y82089D01*
X215914Y82089D01*
X215915Y82087D01*
X216000Y82054D01*
X227000Y82054D01*
X227002Y82055D01*
G37*
G36*
X404002Y82055D02*
X404002Y82055D01*
X404004Y82054D01*
X404047Y82074D01*
X404091Y82092D01*
X404091Y82094D01*
X404093Y82095D01*
X404126Y82180D01*
X404126Y104180D01*
X404125Y104182D01*
X404126Y104184D01*
X404106Y104227D01*
X404088Y104271D01*
X404086Y104271D01*
X404085Y104273D01*
X404000Y104306D01*
X393000Y104306D01*
X392998Y104305D01*
X392996Y104306D01*
X392953Y104286D01*
X392909Y104268D01*
X392909Y104266D01*
X392907Y104265D01*
X392874Y104180D01*
X392874Y82180D01*
X392875Y82178D01*
X392874Y82176D01*
X392894Y82133D01*
X392912Y82089D01*
X392914Y82089D01*
X392915Y82087D01*
X393000Y82054D01*
X404000Y82054D01*
X404002Y82055D01*
G37*
G36*
X555645Y124214D02*
X555645Y124214D01*
X555648Y124211D01*
X556915Y124416D01*
X556921Y124422D01*
X556926Y124419D01*
X558115Y124901D01*
X558119Y124908D01*
X558125Y124906D01*
X559178Y125640D01*
X559180Y125648D01*
X559186Y125647D01*
X560049Y126597D01*
X560050Y126606D01*
X560055Y126606D01*
X560685Y127725D01*
X560684Y127733D01*
X560690Y127735D01*
X561055Y128965D01*
X561052Y128972D01*
X561056Y128975D01*
X561055Y128975D01*
X561057Y128976D01*
X561139Y130257D01*
X561137Y130261D01*
X561139Y130263D01*
X561057Y131544D01*
X561051Y131550D01*
X561055Y131555D01*
X560690Y132785D01*
X560683Y132790D01*
X560685Y132795D01*
X560055Y133914D01*
X560048Y133917D01*
X560049Y133923D01*
X559186Y134873D01*
X559178Y134874D01*
X559178Y134880D01*
X558125Y135614D01*
X558117Y135614D01*
X558115Y135619D01*
X556926Y136101D01*
X556918Y136099D01*
X556915Y136104D01*
X555648Y136309D01*
X555643Y136306D01*
X555640Y136309D01*
X543640Y136309D01*
X543636Y136306D01*
X543633Y136309D01*
X542353Y136114D01*
X542347Y136108D01*
X542343Y136111D01*
X541139Y135636D01*
X541134Y135629D01*
X541129Y135631D01*
X540061Y134900D01*
X540058Y134893D01*
X540052Y134893D01*
X539173Y133943D01*
X539173Y133935D01*
X539167Y133934D01*
X538522Y132813D01*
X538523Y132804D01*
X538517Y132802D01*
X538138Y131565D01*
X538138Y131563D01*
X538137Y131562D01*
X538140Y131558D01*
X538140Y131557D01*
X538136Y131554D01*
X538041Y130264D01*
X538044Y130259D01*
X538041Y130257D01*
X538108Y129126D01*
X538113Y129121D01*
X538109Y129117D01*
X538396Y128020D01*
X538402Y128016D01*
X538399Y128011D01*
X538894Y126992D01*
X538900Y126989D01*
X538899Y126984D01*
X539583Y126081D01*
X539590Y126079D01*
X539590Y126074D01*
X540437Y125321D01*
X540444Y125321D01*
X540445Y125316D01*
X541422Y124743D01*
X541429Y124744D01*
X541431Y124739D01*
X542502Y124368D01*
X542508Y124371D01*
X542511Y124366D01*
X543633Y124211D01*
X543638Y124214D01*
X543640Y124211D01*
X555640Y124211D01*
X555645Y124214D01*
G37*
G36*
X555645Y210614D02*
X555645Y210614D01*
X555648Y210611D01*
X556915Y210816D01*
X556921Y210822D01*
X556926Y210819D01*
X558115Y211301D01*
X558119Y211308D01*
X558125Y211306D01*
X559178Y212040D01*
X559180Y212048D01*
X559186Y212047D01*
X560049Y212997D01*
X560050Y213006D01*
X560055Y213006D01*
X560685Y214125D01*
X560684Y214133D01*
X560690Y214135D01*
X561055Y215365D01*
X561052Y215372D01*
X561056Y215375D01*
X561055Y215375D01*
X561057Y215376D01*
X561139Y216657D01*
X561137Y216661D01*
X561139Y216663D01*
X561057Y217944D01*
X561051Y217950D01*
X561055Y217955D01*
X560690Y219185D01*
X560683Y219190D01*
X560685Y219195D01*
X560055Y220314D01*
X560048Y220317D01*
X560049Y220323D01*
X559186Y221273D01*
X559178Y221274D01*
X559178Y221280D01*
X558125Y222014D01*
X558117Y222014D01*
X558115Y222019D01*
X556926Y222501D01*
X556918Y222499D01*
X556915Y222504D01*
X555648Y222709D01*
X555643Y222706D01*
X555640Y222709D01*
X543640Y222709D01*
X543636Y222706D01*
X543633Y222709D01*
X542353Y222514D01*
X542347Y222508D01*
X542343Y222511D01*
X541139Y222036D01*
X541134Y222029D01*
X541129Y222031D01*
X540061Y221300D01*
X540058Y221293D01*
X540052Y221293D01*
X539173Y220343D01*
X539173Y220335D01*
X539167Y220334D01*
X538522Y219213D01*
X538523Y219204D01*
X538517Y219202D01*
X538138Y217965D01*
X538138Y217963D01*
X538137Y217962D01*
X538140Y217959D01*
X538140Y217957D01*
X538136Y217954D01*
X538041Y216664D01*
X538044Y216659D01*
X538041Y216657D01*
X538108Y215526D01*
X538113Y215521D01*
X538109Y215517D01*
X538396Y214420D01*
X538402Y214416D01*
X538399Y214411D01*
X538894Y213392D01*
X538900Y213389D01*
X538899Y213384D01*
X539583Y212481D01*
X539590Y212479D01*
X539590Y212474D01*
X540437Y211721D01*
X540444Y211721D01*
X540445Y211716D01*
X541422Y211143D01*
X541429Y211144D01*
X541431Y211139D01*
X542502Y210768D01*
X542508Y210771D01*
X542511Y210766D01*
X543633Y210611D01*
X543638Y210614D01*
X543640Y210611D01*
X555640Y210611D01*
X555645Y210614D01*
G37*
G36*
X594444Y210613D02*
X594444Y210613D01*
X594446Y210611D01*
X595775Y210766D01*
X595781Y210772D01*
X595785Y210769D01*
X597046Y211216D01*
X597051Y211223D01*
X597056Y211221D01*
X598186Y211938D01*
X598189Y211945D01*
X598195Y211944D01*
X599137Y212895D01*
X599138Y212903D01*
X599144Y212903D01*
X599851Y214039D01*
X599851Y214044D01*
X599852Y214045D01*
X599851Y214047D01*
X599856Y214049D01*
X600292Y215314D01*
X600290Y215322D01*
X600295Y215325D01*
X600439Y216655D01*
X600435Y216661D01*
X600439Y216665D01*
X600329Y217831D01*
X600324Y217836D01*
X600327Y217840D01*
X599992Y218963D01*
X599986Y218967D01*
X599988Y218971D01*
X599440Y220007D01*
X599434Y220010D01*
X599435Y220015D01*
X598696Y220923D01*
X598689Y220925D01*
X598689Y220930D01*
X597787Y221677D01*
X597780Y221677D01*
X597779Y221683D01*
X596748Y222239D01*
X596741Y222238D01*
X596739Y222243D01*
X595620Y222587D01*
X595613Y222585D01*
X595610Y222589D01*
X594445Y222709D01*
X594442Y222707D01*
X594440Y222709D01*
X588440Y222709D01*
X588437Y222707D01*
X588435Y222709D01*
X587259Y222598D01*
X587254Y222593D01*
X587250Y222596D01*
X586118Y222258D01*
X586114Y222252D01*
X586109Y222254D01*
X585065Y221702D01*
X585062Y221695D01*
X585057Y221697D01*
X584141Y220951D01*
X584140Y220944D01*
X584134Y220944D01*
X583381Y220035D01*
X583381Y220027D01*
X583376Y220027D01*
X582815Y218987D01*
X582816Y218980D01*
X582811Y218978D01*
X582464Y217849D01*
X582466Y217843D01*
X582462Y217840D01*
X582341Y216665D01*
X582345Y216658D01*
X582341Y216654D01*
X582498Y215314D01*
X582503Y215308D01*
X582500Y215303D01*
X582951Y214032D01*
X582958Y214027D01*
X582956Y214022D01*
X583678Y212883D01*
X583686Y212880D01*
X583685Y212874D01*
X584643Y211924D01*
X584651Y211923D01*
X584652Y211917D01*
X585797Y211204D01*
X585806Y211205D01*
X585807Y211199D01*
X587083Y210759D01*
X587090Y210761D01*
X587092Y210759D01*
X587093Y210757D01*
X588435Y210611D01*
X588438Y210613D01*
X588440Y210611D01*
X594440Y210611D01*
X594444Y210613D01*
G37*
G36*
X594444Y124213D02*
X594444Y124213D01*
X594446Y124211D01*
X595775Y124366D01*
X595781Y124372D01*
X595785Y124369D01*
X597046Y124816D01*
X597051Y124823D01*
X597056Y124821D01*
X598186Y125538D01*
X598189Y125545D01*
X598195Y125544D01*
X599137Y126495D01*
X599138Y126503D01*
X599144Y126503D01*
X599851Y127639D01*
X599851Y127644D01*
X599852Y127645D01*
X599850Y127647D01*
X599856Y127649D01*
X600292Y128914D01*
X600290Y128922D01*
X600295Y128925D01*
X600439Y130255D01*
X600435Y130261D01*
X600439Y130265D01*
X600329Y131431D01*
X600324Y131436D01*
X600327Y131440D01*
X599992Y132563D01*
X599986Y132567D01*
X599988Y132571D01*
X599440Y133607D01*
X599434Y133610D01*
X599435Y133615D01*
X598696Y134523D01*
X598689Y134525D01*
X598689Y134530D01*
X597787Y135277D01*
X597780Y135277D01*
X597779Y135283D01*
X596748Y135839D01*
X596741Y135838D01*
X596739Y135843D01*
X595620Y136187D01*
X595613Y136185D01*
X595610Y136189D01*
X594445Y136309D01*
X594442Y136307D01*
X594440Y136309D01*
X588440Y136309D01*
X588437Y136307D01*
X588435Y136309D01*
X587259Y136198D01*
X587254Y136193D01*
X587250Y136196D01*
X586118Y135858D01*
X586114Y135852D01*
X586109Y135854D01*
X585065Y135302D01*
X585062Y135295D01*
X585057Y135297D01*
X584141Y134551D01*
X584140Y134544D01*
X584134Y134544D01*
X583381Y133635D01*
X583381Y133627D01*
X583376Y133627D01*
X582815Y132587D01*
X582816Y132580D01*
X582811Y132578D01*
X582464Y131449D01*
X582466Y131443D01*
X582462Y131440D01*
X582341Y130265D01*
X582345Y130258D01*
X582341Y130254D01*
X582498Y128914D01*
X582503Y128908D01*
X582500Y128903D01*
X582951Y127632D01*
X582958Y127627D01*
X582956Y127622D01*
X583678Y126483D01*
X583686Y126480D01*
X583685Y126474D01*
X584643Y125524D01*
X584651Y125523D01*
X584652Y125517D01*
X585797Y124804D01*
X585806Y124805D01*
X585807Y124799D01*
X587083Y124359D01*
X587090Y124361D01*
X587092Y124359D01*
X587093Y124357D01*
X588435Y124211D01*
X588438Y124213D01*
X588440Y124211D01*
X594440Y124211D01*
X594444Y124213D01*
G37*
G36*
X558422Y112485D02*
X558422Y112485D01*
X558424Y112484D01*
X558467Y112504D01*
X558511Y112522D01*
X558511Y112524D01*
X558513Y112525D01*
X558546Y112610D01*
X558546Y119110D01*
X558545Y119112D01*
X558546Y119114D01*
X558526Y119157D01*
X558508Y119201D01*
X558506Y119201D01*
X558505Y119203D01*
X558420Y119236D01*
X554420Y119236D01*
X554418Y119235D01*
X554416Y119236D01*
X554373Y119216D01*
X554329Y119198D01*
X554329Y119196D01*
X554327Y119195D01*
X554294Y119110D01*
X554294Y112610D01*
X554295Y112608D01*
X554294Y112606D01*
X554314Y112563D01*
X554332Y112519D01*
X554334Y112519D01*
X554335Y112517D01*
X554420Y112484D01*
X558420Y112484D01*
X558422Y112485D01*
G37*
G36*
X578422Y112485D02*
X578422Y112485D01*
X578424Y112484D01*
X578467Y112504D01*
X578511Y112522D01*
X578511Y112524D01*
X578513Y112525D01*
X578546Y112610D01*
X578546Y119110D01*
X578545Y119112D01*
X578546Y119114D01*
X578526Y119157D01*
X578508Y119201D01*
X578506Y119201D01*
X578505Y119203D01*
X578420Y119236D01*
X574420Y119236D01*
X574418Y119235D01*
X574416Y119236D01*
X574373Y119216D01*
X574329Y119198D01*
X574329Y119196D01*
X574327Y119195D01*
X574294Y119110D01*
X574294Y112610D01*
X574295Y112608D01*
X574294Y112606D01*
X574314Y112563D01*
X574332Y112519D01*
X574334Y112519D01*
X574335Y112517D01*
X574420Y112484D01*
X578420Y112484D01*
X578422Y112485D01*
G37*
G36*
X573422Y112485D02*
X573422Y112485D01*
X573424Y112484D01*
X573467Y112504D01*
X573511Y112522D01*
X573511Y112524D01*
X573513Y112525D01*
X573546Y112610D01*
X573546Y119110D01*
X573545Y119112D01*
X573546Y119114D01*
X573526Y119157D01*
X573508Y119201D01*
X573506Y119201D01*
X573505Y119203D01*
X573420Y119236D01*
X569420Y119236D01*
X569418Y119235D01*
X569416Y119236D01*
X569373Y119216D01*
X569329Y119198D01*
X569329Y119196D01*
X569327Y119195D01*
X569294Y119110D01*
X569294Y112610D01*
X569295Y112608D01*
X569294Y112606D01*
X569314Y112563D01*
X569332Y112519D01*
X569334Y112519D01*
X569335Y112517D01*
X569420Y112484D01*
X573420Y112484D01*
X573422Y112485D01*
G37*
G36*
X563422Y104285D02*
X563422Y104285D01*
X563424Y104284D01*
X563467Y104304D01*
X563511Y104322D01*
X563511Y104324D01*
X563513Y104325D01*
X563546Y104410D01*
X563546Y110910D01*
X563545Y110912D01*
X563546Y110914D01*
X563526Y110957D01*
X563508Y111001D01*
X563506Y111001D01*
X563505Y111003D01*
X563420Y111036D01*
X559420Y111036D01*
X559418Y111035D01*
X559416Y111036D01*
X559373Y111016D01*
X559329Y110998D01*
X559329Y110996D01*
X559327Y110995D01*
X559294Y110910D01*
X559294Y104410D01*
X559295Y104408D01*
X559294Y104406D01*
X559314Y104363D01*
X559332Y104319D01*
X559334Y104319D01*
X559335Y104317D01*
X559420Y104284D01*
X563420Y104284D01*
X563422Y104285D01*
G37*
G36*
X558422Y104285D02*
X558422Y104285D01*
X558424Y104284D01*
X558467Y104304D01*
X558511Y104322D01*
X558511Y104324D01*
X558513Y104325D01*
X558546Y104410D01*
X558546Y110910D01*
X558545Y110912D01*
X558546Y110914D01*
X558526Y110957D01*
X558508Y111001D01*
X558506Y111001D01*
X558505Y111003D01*
X558420Y111036D01*
X554420Y111036D01*
X554418Y111035D01*
X554416Y111036D01*
X554373Y111016D01*
X554329Y110998D01*
X554329Y110996D01*
X554327Y110995D01*
X554294Y110910D01*
X554294Y104410D01*
X554295Y104408D01*
X554294Y104406D01*
X554314Y104363D01*
X554332Y104319D01*
X554334Y104319D01*
X554335Y104317D01*
X554420Y104284D01*
X558420Y104284D01*
X558422Y104285D01*
G37*
G36*
X578422Y104285D02*
X578422Y104285D01*
X578424Y104284D01*
X578467Y104304D01*
X578511Y104322D01*
X578511Y104324D01*
X578513Y104325D01*
X578546Y104410D01*
X578546Y110910D01*
X578545Y110912D01*
X578546Y110914D01*
X578526Y110957D01*
X578508Y111001D01*
X578506Y111001D01*
X578505Y111003D01*
X578420Y111036D01*
X574420Y111036D01*
X574418Y111035D01*
X574416Y111036D01*
X574373Y111016D01*
X574329Y110998D01*
X574329Y110996D01*
X574327Y110995D01*
X574294Y110910D01*
X574294Y104410D01*
X574295Y104408D01*
X574294Y104406D01*
X574314Y104363D01*
X574332Y104319D01*
X574334Y104319D01*
X574335Y104317D01*
X574420Y104284D01*
X578420Y104284D01*
X578422Y104285D01*
G37*
G36*
X573422Y104285D02*
X573422Y104285D01*
X573424Y104284D01*
X573467Y104304D01*
X573511Y104322D01*
X573511Y104324D01*
X573513Y104325D01*
X573546Y104410D01*
X573546Y110910D01*
X573545Y110912D01*
X573546Y110914D01*
X573526Y110957D01*
X573508Y111001D01*
X573506Y111001D01*
X573505Y111003D01*
X573420Y111036D01*
X569420Y111036D01*
X569418Y111035D01*
X569416Y111036D01*
X569373Y111016D01*
X569329Y110998D01*
X569329Y110996D01*
X569327Y110995D01*
X569294Y110910D01*
X569294Y104410D01*
X569295Y104408D01*
X569294Y104406D01*
X569314Y104363D01*
X569332Y104319D01*
X569334Y104319D01*
X569335Y104317D01*
X569420Y104284D01*
X573420Y104284D01*
X573422Y104285D01*
G37*
G36*
X568422Y104285D02*
X568422Y104285D01*
X568424Y104284D01*
X568467Y104304D01*
X568511Y104322D01*
X568511Y104324D01*
X568513Y104325D01*
X568546Y104410D01*
X568546Y110910D01*
X568545Y110912D01*
X568546Y110914D01*
X568526Y110957D01*
X568508Y111001D01*
X568506Y111001D01*
X568505Y111003D01*
X568420Y111036D01*
X564420Y111036D01*
X564418Y111035D01*
X564416Y111036D01*
X564373Y111016D01*
X564329Y110998D01*
X564329Y110996D01*
X564327Y110995D01*
X564294Y110910D01*
X564294Y104410D01*
X564295Y104408D01*
X564294Y104406D01*
X564314Y104363D01*
X564332Y104319D01*
X564334Y104319D01*
X564335Y104317D01*
X564420Y104284D01*
X568420Y104284D01*
X568422Y104285D01*
G37*
G36*
X563422Y112485D02*
X563422Y112485D01*
X563424Y112484D01*
X563467Y112504D01*
X563511Y112522D01*
X563511Y112524D01*
X563513Y112525D01*
X563546Y112610D01*
X563546Y119110D01*
X563545Y119112D01*
X563546Y119114D01*
X563526Y119157D01*
X563508Y119201D01*
X563506Y119201D01*
X563505Y119203D01*
X563420Y119236D01*
X559420Y119236D01*
X559418Y119235D01*
X559416Y119236D01*
X559373Y119216D01*
X559329Y119198D01*
X559329Y119196D01*
X559327Y119195D01*
X559294Y119110D01*
X559294Y112610D01*
X559295Y112608D01*
X559294Y112606D01*
X559314Y112563D01*
X559332Y112519D01*
X559334Y112519D01*
X559335Y112517D01*
X559420Y112484D01*
X563420Y112484D01*
X563422Y112485D01*
G37*
G36*
X568422Y112485D02*
X568422Y112485D01*
X568424Y112484D01*
X568467Y112504D01*
X568511Y112522D01*
X568511Y112524D01*
X568513Y112525D01*
X568546Y112610D01*
X568546Y119110D01*
X568545Y119112D01*
X568546Y119114D01*
X568526Y119157D01*
X568508Y119201D01*
X568506Y119201D01*
X568505Y119203D01*
X568420Y119236D01*
X564420Y119236D01*
X564418Y119235D01*
X564416Y119236D01*
X564373Y119216D01*
X564329Y119198D01*
X564329Y119196D01*
X564327Y119195D01*
X564294Y119110D01*
X564294Y112610D01*
X564295Y112608D01*
X564294Y112606D01*
X564314Y112563D01*
X564332Y112519D01*
X564334Y112519D01*
X564335Y112517D01*
X564420Y112484D01*
X568420Y112484D01*
X568422Y112485D01*
G37*
D10*
X596392Y289052D03*
D11*
X596392Y355854D03*
D12*
X595884Y334772D03*
D13*
X595376Y335026D03*
X594868Y335026D03*
D14*
X594360Y290830D03*
D15*
X594360Y341122D03*
D16*
X594360Y383286D03*
D10*
X593852Y285496D03*
D17*
X593852Y303530D03*
D15*
X593852Y341122D03*
D18*
X593852Y384048D03*
D16*
X593344Y285242D03*
D17*
X593344Y302514D03*
D19*
X593344Y339344D03*
D20*
X593344Y382778D03*
D21*
X592836Y285496D03*
D17*
X592836Y302006D03*
D22*
X592836Y338836D03*
D23*
X592836Y381508D03*
D18*
X592328Y286004D03*
D24*
X592328Y300990D03*
D25*
X592328Y338074D03*
D26*
X592328Y379984D03*
D27*
X591820Y275590D03*
D28*
X591820Y288290D03*
D29*
X591820Y300736D03*
D30*
X591820Y318262D03*
D31*
X591820Y343408D03*
D26*
X591820Y379984D03*
D27*
X591312Y275590D03*
D32*
X591312Y291084D03*
D33*
X591312Y318008D03*
D34*
X591312Y342900D03*
D35*
X591312Y379222D03*
D36*
X590804Y275336D03*
D37*
X590804Y290830D03*
D38*
X590804Y318008D03*
D39*
X590804Y342392D03*
D40*
X590804Y378206D03*
D36*
X590296Y275336D03*
D10*
X590296Y290576D03*
D38*
X590296Y318008D03*
D41*
X590296Y342646D03*
D40*
X590296Y378206D03*
D36*
X589788Y275336D03*
D42*
X589788Y290322D03*
D17*
X589788Y317754D03*
D35*
X589788Y342138D03*
D39*
X589788Y376936D03*
D36*
X589280Y275336D03*
D42*
X589280Y290322D03*
D24*
X589280Y317754D03*
D43*
X589280Y341376D03*
D44*
X589280Y375920D03*
D27*
X588772Y275082D03*
D10*
X588772Y290576D03*
D36*
X588772Y318008D03*
D14*
X588772Y340614D03*
D44*
X588772Y374396D03*
D27*
X588264Y275082D03*
D45*
X588264Y289306D03*
D36*
X588264Y299720D03*
X588264Y318008D03*
D14*
X588264Y340614D03*
D44*
X588264Y374396D03*
D27*
X587756Y275082D03*
D45*
X587756Y289306D03*
D36*
X587756Y299720D03*
X587756Y318008D03*
D46*
X587756Y340360D03*
D44*
X587756Y373888D03*
D36*
X587248Y274828D03*
D47*
X587248Y289560D03*
D27*
X587248Y300482D03*
D36*
X587248Y318516D03*
D48*
X587248Y340106D03*
D44*
X587248Y372364D03*
D36*
X586740Y274828D03*
D49*
X586740Y289306D03*
D36*
X586740Y301244D03*
D50*
X586740Y319024D03*
D23*
X586740Y339852D03*
D40*
X586740Y371602D03*
D36*
X586232Y274828D03*
D51*
X586232Y289560D03*
D52*
X586232Y301498D03*
D50*
X586232Y319024D03*
D23*
X586232Y339852D03*
D40*
X586232Y371602D03*
D36*
X585724Y274828D03*
D53*
X585724Y289306D03*
D52*
X585724Y301498D03*
D54*
X585724Y339344D03*
D44*
X585724Y370840D03*
D36*
X585216Y274828D03*
D55*
X585216Y289306D03*
D52*
X585216Y302006D03*
D20*
X585216Y339090D03*
D39*
X585216Y369824D03*
D36*
X584708Y274828D03*
D56*
X584708Y289306D03*
D57*
X584708Y302260D03*
D58*
X584708Y338582D03*
D44*
X584708Y368808D03*
D36*
X584200Y274828D03*
D56*
X584200Y289306D03*
D57*
X584200Y302260D03*
D58*
X584200Y338582D03*
D44*
X584200Y368808D03*
D36*
X583692Y274828D03*
D59*
X583692Y289306D03*
D36*
X583692Y302768D03*
D32*
X583692Y338328D03*
D44*
X583692Y368300D03*
D36*
X583184Y274828D03*
D60*
X583184Y289560D03*
D52*
X583184Y303022D03*
D18*
X583184Y338328D03*
D40*
X583184Y367030D03*
D36*
X582676Y274828D03*
D61*
X582676Y289814D03*
D52*
X582676Y303022D03*
D37*
X582676Y338582D03*
D40*
X582676Y367030D03*
D36*
X582168Y274828D03*
D17*
X582168Y289814D03*
D57*
X582168Y303276D03*
D16*
X582168Y338074D03*
D40*
X582168Y366522D03*
D36*
X581660Y274828D03*
D27*
X581660Y302514D03*
X581660Y304038D03*
D10*
X581660Y337820D03*
D41*
X581660Y365506D03*
D36*
X581152Y274828D03*
D27*
X581152Y302514D03*
D36*
X581152Y304800D03*
D10*
X581152Y337312D03*
D35*
X581152Y363982D03*
D36*
X580644Y274828D03*
D27*
X580644Y302514D03*
D36*
X580644Y304800D03*
D10*
X580644Y337312D03*
D35*
X580644Y363982D03*
D36*
X580136Y274828D03*
D52*
X580136Y289306D03*
D27*
X580136Y302514D03*
D52*
X580136Y305054D03*
D62*
X580136Y336804D03*
D11*
X580136Y361950D03*
D36*
X579628Y274828D03*
D57*
X579628Y289052D03*
D27*
X579628Y302514D03*
D36*
X579628Y305308D03*
D63*
X579628Y337058D03*
D64*
X579628Y359664D03*
D36*
X579120Y274828D03*
D57*
X579120Y289052D03*
D27*
X579120Y302514D03*
X579120Y306070D03*
D63*
X579120Y337058D03*
D42*
X579120Y355854D03*
D36*
X578612Y274828D03*
D57*
X578612Y289052D03*
D27*
X578612Y302514D03*
X578612Y306070D03*
D63*
X578612Y337058D03*
D42*
X578612Y355854D03*
D36*
X578104Y274828D03*
D17*
X578104Y288798D03*
D27*
X578104Y302514D03*
D36*
X578104Y306832D03*
D45*
X578104Y336550D03*
D28*
X578104Y355346D03*
D36*
X577596Y274828D03*
D17*
X577596Y288798D03*
D27*
X577596Y302514D03*
D36*
X577596Y306832D03*
D65*
X577596Y335788D03*
D66*
X577596Y354584D03*
D36*
X577088Y274828D03*
D17*
X577088Y288798D03*
D27*
X577088Y302514D03*
D36*
X577088Y307340D03*
D45*
X577088Y335534D03*
D28*
X577088Y353822D03*
D36*
X576580Y274828D03*
D17*
X576580Y288798D03*
D27*
X576580Y302514D03*
D36*
X576580Y307340D03*
D45*
X576580Y335534D03*
D28*
X576580Y353822D03*
D36*
X576072Y274828D03*
D29*
X576072Y289052D03*
D27*
X576072Y302514D03*
X576072Y308102D03*
D67*
X576072Y334772D03*
D62*
X576072Y353568D03*
D36*
X575564Y275336D03*
D29*
X575564Y289052D03*
D52*
X575564Y302006D03*
X575564Y308610D03*
D67*
X575564Y334264D03*
D62*
X575564Y353060D03*
D36*
X575056Y275336D03*
D29*
X575056Y289052D03*
D52*
X575056Y302006D03*
X575056Y308610D03*
D67*
X575056Y334264D03*
D62*
X575056Y353060D03*
D36*
X574548Y275336D03*
D29*
X574548Y289052D03*
D36*
X574548Y301752D03*
X574548Y308864D03*
D45*
X574548Y333502D03*
D10*
X574548Y352552D03*
D36*
X574040Y275336D03*
D57*
X574040Y288544D03*
D36*
X574040Y301752D03*
X574040Y309372D03*
D16*
X574040Y331470D03*
D62*
X574040Y352044D03*
D36*
X573532Y275336D03*
D27*
X573532Y288798D03*
D52*
X573532Y301498D03*
D43*
X573532Y325120D03*
D62*
X573532Y351536D03*
D36*
X573024Y275336D03*
D27*
X573024Y288798D03*
D52*
X573024Y301498D03*
D43*
X573024Y325120D03*
D62*
X573024Y351536D03*
D36*
X572516Y276352D03*
X572516Y301244D03*
D26*
X572516Y325120D03*
D42*
X572516Y351282D03*
D36*
X572008Y276352D03*
X572008Y301244D03*
D17*
X572008Y312674D03*
D10*
X572008Y329692D03*
X572008Y350520D03*
D52*
X571500Y276606D03*
D27*
X571500Y300482D03*
D66*
X571500Y329692D03*
D16*
X571500Y350266D03*
D52*
X570992Y276606D03*
D27*
X570992Y300482D03*
D66*
X570992Y329692D03*
D16*
X570992Y350266D03*
D36*
X570484Y276860D03*
D27*
X570484Y300482D03*
D63*
X570484Y329438D03*
D10*
X570484Y349504D03*
D52*
X569976Y277114D03*
D36*
X569976Y299720D03*
D40*
X569976Y321310D03*
D16*
X569976Y348742D03*
D52*
X569468Y277114D03*
D36*
X569468Y299720D03*
D39*
X569468Y320548D03*
D16*
X569468Y348742D03*
D27*
X568960Y277622D03*
D52*
X568960Y299466D03*
D39*
X568960Y320548D03*
D16*
X568960Y348742D03*
D52*
X568452Y278638D03*
D57*
X568452Y298704D03*
D27*
X568452Y304038D03*
D68*
X568452Y330708D03*
D10*
X568452Y347980D03*
D52*
X567944Y279146D03*
D50*
X567944Y288544D03*
D29*
X567944Y297180D03*
D27*
X567944Y304038D03*
D30*
X567944Y331470D03*
D21*
X567944Y347472D03*
D52*
X567436Y279146D03*
D36*
X567436Y281940D03*
X567436Y288544D03*
D61*
X567436Y296418D03*
D27*
X567436Y304038D03*
D30*
X567436Y331470D03*
D21*
X567436Y347472D03*
D69*
X566928Y282194D03*
D57*
X566928Y288544D03*
D69*
X566928Y295402D03*
D27*
X566928Y304038D03*
D60*
X566928Y331724D03*
D21*
X566928Y346964D03*
D61*
X566420Y282702D03*
D57*
X566420Y288544D03*
D29*
X566420Y294132D03*
D70*
X566420Y302260D03*
D61*
X566420Y331978D03*
D21*
X566420Y346456D03*
D17*
X565912Y283210D03*
D57*
X565912Y288544D03*
D29*
X565912Y294132D03*
D38*
X565912Y301752D03*
D29*
X565912Y332740D03*
D18*
X565912Y345948D03*
D57*
X565404Y283972D03*
X565404Y288544D03*
X565404Y293624D03*
D38*
X565404Y301752D03*
D29*
X565404Y332740D03*
D18*
X565404Y345948D03*
D52*
X564896Y284226D03*
D57*
X564896Y288544D03*
D36*
X564896Y293116D03*
D69*
X564896Y301498D03*
D27*
X564896Y333502D03*
D21*
X564896Y345440D03*
D52*
X564388Y284226D03*
D57*
X564388Y288544D03*
D36*
X564388Y293116D03*
D60*
X564388Y301244D03*
D21*
X564388Y344932D03*
D52*
X563880Y284226D03*
D57*
X563880Y288544D03*
D36*
X563880Y293116D03*
D60*
X563880Y301244D03*
D50*
X563880Y332232D03*
D37*
X563880Y344678D03*
D52*
X563372Y284226D03*
D57*
X563372Y288544D03*
D36*
X563372Y293116D03*
D60*
X563372Y301244D03*
D50*
X563372Y332232D03*
D37*
X563372Y344678D03*
D52*
X562864Y284226D03*
D57*
X562864Y288544D03*
D36*
X562864Y293116D03*
D60*
X562864Y301244D03*
D36*
X562864Y331724D03*
D18*
X562864Y343916D03*
D52*
X562356Y284226D03*
D57*
X562356Y288544D03*
D27*
X562356Y292862D03*
D33*
X562356Y300736D03*
D27*
X562356Y331470D03*
D37*
X562356Y343154D03*
D36*
X561848Y284480D03*
D57*
X561848Y288544D03*
D27*
X561848Y292862D03*
D33*
X561848Y300736D03*
D27*
X561848Y331470D03*
D37*
X561848Y343154D03*
D36*
X561340Y284480D03*
D57*
X561340Y288544D03*
D27*
X561340Y292862D03*
D59*
X561340Y300482D03*
D50*
X561340Y330708D03*
D18*
X561340Y342900D03*
D36*
X560832Y284480D03*
X560832Y288544D03*
D27*
X560832Y292862D03*
D33*
X560832Y300228D03*
D71*
X560832Y341376D03*
D36*
X560324Y284480D03*
D50*
X560324Y288544D03*
D27*
X560324Y292862D03*
D72*
X560324Y300482D03*
D32*
X560324Y340868D03*
D36*
X559816Y284480D03*
D27*
X559816Y292862D03*
D72*
X559816Y300482D03*
D32*
X559816Y340868D03*
D36*
X559308Y284480D03*
D27*
X559308Y292862D03*
D33*
X559308Y300228D03*
D73*
X559308Y314960D03*
D32*
X559308Y340360D03*
D36*
X558800Y284480D03*
D27*
X558800Y292862D03*
D64*
X558800Y309372D03*
D58*
X558800Y340106D03*
D36*
X558292Y284480D03*
X558292Y288544D03*
D27*
X558292Y292862D03*
D74*
X558292Y304546D03*
D72*
X558292Y319786D03*
D71*
X558292Y339344D03*
D36*
X557784Y284480D03*
X557784Y288544D03*
D27*
X557784Y292862D03*
D74*
X557784Y304546D03*
D72*
X557784Y319786D03*
D71*
X557784Y339344D03*
D36*
X557276Y284480D03*
D57*
X557276Y288544D03*
D27*
X557276Y292862D03*
D55*
X557276Y305562D03*
D59*
X557276Y320294D03*
D58*
X557276Y338582D03*
D36*
X556768Y284480D03*
D57*
X556768Y288544D03*
D27*
X556768Y292862D03*
D75*
X556768Y306832D03*
D41*
X556768Y334010D03*
D36*
X556260Y284480D03*
D57*
X556260Y288544D03*
D27*
X556260Y292862D03*
D75*
X556260Y306832D03*
D46*
X556260Y335280D03*
D36*
X555752Y284480D03*
D57*
X555752Y288544D03*
D27*
X555752Y292862D03*
D75*
X555752Y306832D03*
D46*
X555752Y335280D03*
D36*
X555244Y284480D03*
D57*
X555244Y288544D03*
D27*
X555244Y292862D03*
D75*
X555244Y306832D03*
D76*
X555244Y335280D03*
D36*
X554736Y284480D03*
D27*
X554736Y288290D03*
X554736Y292862D03*
D75*
X554736Y306832D03*
D23*
X554736Y334772D03*
D36*
X554228Y284480D03*
D27*
X554228Y288290D03*
X554228Y292862D03*
D75*
X554228Y306832D03*
D23*
X554228Y334772D03*
D36*
X553720Y284480D03*
D27*
X553720Y292862D03*
D56*
X553720Y306070D03*
D23*
X553720Y334772D03*
D36*
X553212Y284480D03*
D27*
X553212Y288798D03*
X553212Y292862D03*
D56*
X553212Y306070D03*
D52*
X553212Y322326D03*
D58*
X553212Y336042D03*
D17*
X553212Y374650D03*
D36*
X552704Y284480D03*
D27*
X552704Y288798D03*
X552704Y292862D03*
D58*
X552704Y312674D03*
D77*
X552704Y336042D03*
D72*
X552704Y374142D03*
D36*
X552196Y284480D03*
D57*
X552196Y289052D03*
D27*
X552196Y292862D03*
D58*
X552196Y312674D03*
D77*
X552196Y336042D03*
D72*
X552196Y374142D03*
D36*
X551688Y284480D03*
D24*
X551688Y288798D03*
D27*
X551688Y292862D03*
D61*
X551688Y305054D03*
D78*
X551688Y319024D03*
D49*
X551688Y332486D03*
D36*
X551688Y342900D03*
X551688Y346456D03*
D75*
X551688Y373380D03*
D36*
X551180Y284480D03*
D17*
X551180Y288798D03*
D27*
X551180Y292862D03*
D52*
X551180Y305054D03*
D78*
X551180Y319532D03*
D69*
X551180Y329438D03*
D30*
X551180Y350266D03*
D78*
X551180Y372364D03*
D36*
X550672Y284480D03*
D61*
X550672Y288798D03*
D27*
X550672Y292862D03*
D29*
X550672Y313944D03*
D36*
X550672Y324104D03*
D42*
X550672Y340614D03*
D29*
X550672Y353568D03*
D55*
X550672Y371094D03*
D36*
X550164Y284480D03*
D61*
X550164Y288798D03*
D27*
X550164Y292862D03*
D29*
X550164Y313944D03*
D36*
X550164Y324104D03*
D42*
X550164Y340614D03*
D29*
X550164Y353568D03*
D55*
X550164Y371094D03*
X549656Y288798D03*
D57*
X549656Y312928D03*
D50*
X549656Y324612D03*
D47*
X549656Y339852D03*
D52*
X549656Y352298D03*
D53*
X549656Y370586D03*
D55*
X549148Y288798D03*
D52*
X549148Y312166D03*
D27*
X549148Y324866D03*
D79*
X549148Y339344D03*
D36*
X549148Y351028D03*
D74*
X549148Y369570D03*
D27*
X548640Y283718D03*
X548640Y293878D03*
D52*
X548640Y310642D03*
D27*
X548640Y324866D03*
D79*
X548640Y340868D03*
D36*
X548640Y350520D03*
D47*
X548640Y368808D03*
D27*
X548132Y283718D03*
X548132Y293878D03*
D52*
X548132Y310642D03*
D27*
X548132Y324866D03*
D79*
X548132Y340868D03*
D36*
X548132Y350520D03*
D47*
X548132Y368808D03*
D27*
X547624Y283718D03*
X547624Y293878D03*
D36*
X547624Y310388D03*
D50*
X547624Y325120D03*
D27*
X547624Y334518D03*
D72*
X547624Y340614D03*
D52*
X547624Y350266D03*
D80*
X547624Y368046D03*
D55*
X547116Y288798D03*
D36*
X547116Y309372D03*
X547116Y325628D03*
X547116Y335280D03*
D52*
X547116Y340614D03*
D24*
X547116Y350774D03*
D80*
X547116Y367030D03*
D55*
X546608Y288798D03*
D36*
X546608Y309372D03*
X546608Y325628D03*
X546608Y335280D03*
D52*
X546608Y340614D03*
D24*
X546608Y350774D03*
D80*
X546608Y367030D03*
D55*
X546100Y288798D03*
D36*
X546100Y308864D03*
X546100Y325628D03*
X546100Y335788D03*
D52*
X546100Y341122D03*
D57*
X546100Y352552D03*
D65*
X546100Y366268D03*
D36*
X545592Y308864D03*
X545592Y325628D03*
D27*
X545592Y336550D03*
D52*
X545592Y341630D03*
D57*
X545592Y353568D03*
D63*
X545592Y365506D03*
D50*
X545084Y308356D03*
D27*
X545084Y325882D03*
D36*
X545084Y337312D03*
D27*
X545084Y342138D03*
D21*
X545084Y363728D03*
D50*
X544576Y308356D03*
D27*
X544576Y325882D03*
D36*
X544576Y337312D03*
D27*
X544576Y342138D03*
D21*
X544576Y363728D03*
D27*
X544068Y308102D03*
D36*
X544068Y326136D03*
X544068Y337312D03*
D27*
X544068Y342138D03*
D28*
X544068Y363982D03*
D27*
X543560Y308102D03*
D36*
X543560Y326136D03*
X543560Y337820D03*
X543560Y342900D03*
D42*
X543560Y362966D03*
D50*
X543052Y307848D03*
X543052Y326644D03*
X543052Y338328D03*
D36*
X543052Y342900D03*
D16*
X543052Y362458D03*
D50*
X542544Y307848D03*
X542544Y326644D03*
X542544Y338328D03*
D36*
X542544Y342900D03*
D16*
X542544Y362458D03*
D52*
X542036Y308610D03*
D50*
X542036Y326644D03*
D36*
X542036Y338836D03*
X542036Y342900D03*
D21*
X542036Y361696D03*
D52*
X541528Y309118D03*
D24*
X541528Y317754D03*
D27*
X541528Y326898D03*
X541528Y339090D03*
D36*
X541528Y342900D03*
D18*
X541528Y361188D03*
D36*
X541020Y310388D03*
D29*
X541020Y318008D03*
D27*
X541020Y326898D03*
D36*
X541020Y339344D03*
X541020Y342900D03*
D18*
X541020Y360172D03*
D36*
X540512Y310388D03*
D29*
X540512Y318008D03*
D27*
X540512Y326898D03*
D36*
X540512Y339344D03*
X540512Y342900D03*
D18*
X540512Y360172D03*
D36*
X540004Y310896D03*
D70*
X540004Y318516D03*
D27*
X540004Y326898D03*
D36*
X540004Y339344D03*
D50*
X540004Y342392D03*
D77*
X540004Y359410D03*
D50*
X539496Y311404D03*
D61*
X539496Y318262D03*
D27*
X539496Y326898D03*
D50*
X539496Y339852D03*
D27*
X539496Y342138D03*
D58*
X539496Y358902D03*
D50*
X538988Y311404D03*
D61*
X538988Y318262D03*
D27*
X538988Y326898D03*
D50*
X538988Y339852D03*
D27*
X538988Y342138D03*
D58*
X538988Y358902D03*
D36*
X538480Y310896D03*
D61*
X538480Y318262D03*
D50*
X538480Y327152D03*
D24*
X538480Y341122D03*
D71*
X538480Y358140D03*
D52*
X537972Y283718D03*
D61*
X537972Y309118D03*
X537972Y318262D03*
D50*
X537972Y327152D03*
D57*
X537972Y340868D03*
D20*
X537972Y356870D03*
D17*
X537464Y283718D03*
D52*
X537464Y307086D03*
D36*
X537464Y310896D03*
D61*
X537464Y318262D03*
D36*
X537464Y327660D03*
X537464Y340868D03*
D64*
X537464Y356616D03*
D61*
X536956Y283718D03*
D52*
X536956Y307086D03*
D36*
X536956Y310896D03*
D61*
X536956Y318262D03*
D36*
X536956Y327660D03*
X536956Y340868D03*
D64*
X536956Y356616D03*
D69*
X536448Y283718D03*
D27*
X536448Y306070D03*
D36*
X536448Y310388D03*
D70*
X536448Y317500D03*
D36*
X536448Y327660D03*
X536448Y340868D03*
D64*
X536448Y356108D03*
D52*
X535940Y281686D03*
X535940Y285750D03*
D36*
X535940Y305308D03*
X535940Y310388D03*
D60*
X535940Y318516D03*
D36*
X535940Y327660D03*
X535940Y340868D03*
D54*
X535940Y355600D03*
D57*
X535432Y281432D03*
D52*
X535432Y285750D03*
D36*
X535432Y304800D03*
X535432Y309372D03*
D27*
X535432Y313690D03*
D59*
X535432Y319278D03*
D36*
X535432Y327660D03*
D48*
X535432Y354330D03*
D52*
X534924Y281178D03*
D36*
X534924Y286004D03*
X534924Y304800D03*
X534924Y309372D03*
D27*
X534924Y313690D03*
D59*
X534924Y319278D03*
D36*
X534924Y327660D03*
D48*
X534924Y354330D03*
D57*
X534416Y281432D03*
D52*
X534416Y285750D03*
D27*
X534416Y304038D03*
D36*
X534416Y309372D03*
D74*
X534416Y319786D03*
D36*
X534416Y327660D03*
D76*
X534416Y354076D03*
D57*
X533908Y281432D03*
D52*
X533908Y285750D03*
D27*
X533908Y304038D03*
D52*
X533908Y309118D03*
D80*
X533908Y320802D03*
D48*
X533908Y353314D03*
D69*
X533400Y283718D03*
D36*
X533400Y303276D03*
D24*
X533400Y309626D03*
D74*
X533400Y321818D03*
D76*
X533400Y352552D03*
D61*
X532892Y283718D03*
D36*
X532892Y303276D03*
D24*
X532892Y309626D03*
D74*
X532892Y321818D03*
D76*
X532892Y352552D03*
D61*
X532384Y283718D03*
D27*
X532384Y303022D03*
X532384Y308102D03*
D36*
X532384Y310388D03*
D30*
X532384Y323850D03*
D11*
X532384Y352298D03*
D24*
X531876Y283718D03*
D36*
X531876Y302768D03*
D50*
X531876Y308356D03*
D36*
X531876Y310388D03*
D52*
X531876Y314198D03*
X531876Y325882D03*
D27*
X531876Y327914D03*
D11*
X531876Y351282D03*
D52*
X531368Y283718D03*
D36*
X531368Y302768D03*
D50*
X531368Y308356D03*
D36*
X531368Y310388D03*
D52*
X531368Y314198D03*
X531368Y325882D03*
D27*
X531368Y327914D03*
D11*
X531368Y351282D03*
D36*
X530860Y302768D03*
D27*
X530860Y310642D03*
D61*
X530860Y314706D03*
D27*
X530860Y325882D03*
D36*
X530860Y328168D03*
D14*
X530860Y350774D03*
D50*
X530352Y302260D03*
D27*
X530352Y310642D03*
X530352Y312674D03*
D38*
X530352Y318008D03*
D52*
X530352Y325374D03*
D36*
X530352Y328168D03*
D81*
X530352Y350266D03*
D57*
X529844Y277876D03*
D50*
X529844Y302260D03*
D36*
X529844Y310388D03*
D24*
X529844Y320294D03*
D52*
X529844Y324358D03*
D36*
X529844Y328168D03*
D81*
X529844Y349758D03*
D17*
X529336Y278130D03*
D50*
X529336Y302260D03*
D36*
X529336Y310388D03*
D24*
X529336Y320294D03*
D52*
X529336Y324358D03*
D36*
X529336Y328168D03*
D81*
X529336Y349758D03*
D69*
X528828Y278130D03*
D36*
X528828Y301752D03*
X528828Y310896D03*
X528828Y323596D03*
D52*
X528828Y327914D03*
D82*
X528828Y348996D03*
D72*
X528320Y278130D03*
D36*
X528320Y301752D03*
X528320Y310896D03*
X528320Y322580D03*
D52*
X528320Y327914D03*
D41*
X528320Y348742D03*
D57*
X527812Y275336D03*
D24*
X527812Y280670D03*
D36*
X527812Y301752D03*
X527812Y310896D03*
X527812Y322072D03*
D52*
X527812Y327914D03*
D40*
X527812Y348742D03*
D52*
X527304Y275082D03*
D57*
X527304Y280924D03*
D36*
X527304Y301752D03*
X527304Y310896D03*
X527304Y322072D03*
D52*
X527304Y327914D03*
D40*
X527304Y348742D03*
D52*
X526796Y274574D03*
D57*
X526796Y281432D03*
D36*
X526796Y301752D03*
X526796Y310896D03*
D27*
X526796Y321310D03*
D52*
X526796Y327914D03*
D39*
X526796Y346964D03*
D27*
X526796Y364998D03*
D52*
X526288Y274574D03*
D57*
X526288Y281432D03*
D36*
X526288Y301752D03*
X526288Y310896D03*
D52*
X526288Y320294D03*
X526288Y327914D03*
D40*
X526288Y346202D03*
D27*
X526288Y364998D03*
D52*
X525780Y274066D03*
X525780Y281686D03*
D36*
X525780Y301752D03*
X525780Y310896D03*
D52*
X525780Y320294D03*
X525780Y327914D03*
D40*
X525780Y346202D03*
D27*
X525780Y364998D03*
D52*
X525272Y274066D03*
D36*
X525272Y281940D03*
X525272Y301752D03*
X525272Y310896D03*
X525272Y320040D03*
D34*
X525272Y344932D03*
D52*
X525272Y364490D03*
X524764Y274066D03*
D36*
X524764Y281940D03*
X524764Y301752D03*
D52*
X524764Y312166D03*
D27*
X524764Y319278D03*
D44*
X524764Y344424D03*
D57*
X524764Y364236D03*
D52*
X524256Y274066D03*
X524256Y281686D03*
D50*
X524256Y302260D03*
D75*
X524256Y315468D03*
D40*
X524256Y343662D03*
D17*
X524256Y364490D03*
D52*
X523748Y274066D03*
X523748Y281686D03*
D50*
X523748Y302260D03*
D75*
X523748Y315468D03*
D40*
X523748Y343662D03*
D17*
X523748Y364490D03*
D52*
X523240Y274574D03*
D57*
X523240Y281432D03*
D50*
X523240Y302260D03*
D27*
X523240Y311658D03*
D17*
X523240Y317246D03*
D41*
X523240Y342646D03*
D61*
X523240Y363982D03*
D57*
X522732Y274828D03*
X522732Y281432D03*
D36*
X522732Y302768D03*
D27*
X522732Y311658D03*
D36*
X522732Y318008D03*
D41*
X522732Y341630D03*
D60*
X522732Y363728D03*
D57*
X522224Y275336D03*
D24*
X522224Y280670D03*
D36*
X522224Y302768D03*
D27*
X522224Y311658D03*
D36*
X522224Y316992D03*
D41*
X522224Y341122D03*
D33*
X522224Y363220D03*
D29*
X521716Y275844D03*
X521716Y279908D03*
D36*
X521716Y302768D03*
D27*
X521716Y311658D03*
D36*
X521716Y316992D03*
D41*
X521716Y341122D03*
D33*
X521716Y363220D03*
D69*
X521208Y278130D03*
D36*
X521208Y302768D03*
X521208Y312420D03*
X521208Y316484D03*
D39*
X521208Y339344D03*
D56*
X521208Y362966D03*
D38*
X520700Y277876D03*
D36*
X520700Y302768D03*
X520700Y312420D03*
D27*
X520700Y315722D03*
D41*
X520700Y339090D03*
D78*
X520700Y362712D03*
D57*
X520192Y277876D03*
D27*
X520192Y303022D03*
D36*
X520192Y312420D03*
X520192Y314960D03*
D82*
X520192Y337820D03*
D68*
X520192Y362712D03*
D27*
X519684Y303022D03*
D36*
X519684Y312420D03*
X519684Y314960D03*
D82*
X519684Y337820D03*
D68*
X519684Y362712D03*
D36*
X519176Y303276D03*
X519176Y312928D03*
X519176Y314960D03*
D82*
X519176Y337312D03*
D74*
X519176Y361950D03*
D36*
X518668Y303276D03*
D24*
X518668Y313690D03*
D35*
X518668Y336550D03*
D49*
X518668Y361950D03*
D57*
X518160Y286004D03*
D36*
X518160Y303276D03*
D24*
X518160Y313690D03*
D35*
X518160Y336550D03*
D49*
X518160Y361950D03*
D69*
X517652Y286258D03*
D50*
X517652Y303784D03*
D27*
X517652Y313690D03*
D35*
X517652Y335534D03*
D65*
X517652Y361696D03*
D36*
X517652Y394208D03*
D72*
X517144Y286258D03*
D27*
X517144Y304038D03*
D43*
X517144Y334772D03*
D28*
X517144Y361442D03*
D24*
X517144Y393446D03*
D17*
X516636Y283718D03*
D29*
X516636Y288544D03*
D27*
X516636Y304038D03*
D82*
X516636Y333756D03*
D65*
X516636Y360172D03*
D36*
X516636Y369824D03*
D29*
X516636Y393192D03*
D24*
X516128Y283210D03*
X516128Y289306D03*
D27*
X516128Y304038D03*
D82*
X516128Y333756D03*
D65*
X516128Y360172D03*
D36*
X516128Y369824D03*
D29*
X516128Y393192D03*
D57*
X515620Y282448D03*
X515620Y290068D03*
D36*
X515620Y304800D03*
D82*
X515620Y333248D03*
D65*
X515620Y358648D03*
D36*
X515620Y369824D03*
D17*
X515620Y391922D03*
D57*
X515112Y281940D03*
D52*
X515112Y290322D03*
D36*
X515112Y304800D03*
D35*
X515112Y331978D03*
D65*
X515112Y358140D03*
D52*
X515112Y369570D03*
D38*
X515112Y391160D03*
D57*
X514604Y281432D03*
X514604Y290576D03*
D36*
X514604Y305308D03*
D35*
X514604Y331470D03*
D45*
X514604Y357378D03*
D57*
X514604Y369316D03*
D38*
X514604Y390652D03*
D57*
X514096Y281432D03*
D52*
X514096Y290830D03*
D36*
X514096Y305308D03*
D35*
X514096Y331470D03*
D45*
X514096Y357378D03*
D57*
X514096Y369316D03*
D38*
X514096Y390652D03*
D52*
X513588Y281178D03*
X513588Y291338D03*
D36*
X513588Y305308D03*
D43*
X513588Y330708D03*
D65*
X513588Y356616D03*
D29*
X513588Y368300D03*
D72*
X513588Y389890D03*
D52*
X513080Y281178D03*
X513080Y291338D03*
D27*
X513080Y306070D03*
D14*
X513080Y329946D03*
D45*
X513080Y355346D03*
D61*
X513080Y368046D03*
D72*
X513080Y389382D03*
D36*
X512572Y280924D03*
D52*
X512572Y291338D03*
D27*
X512572Y306070D03*
D26*
X512572Y329184D03*
D75*
X512572Y350520D03*
D17*
X512572Y360934D03*
D69*
X512572Y368046D03*
D75*
X512572Y388620D03*
D36*
X512064Y280924D03*
D52*
X512064Y291338D03*
D27*
X512064Y306070D03*
D26*
X512064Y329184D03*
D75*
X512064Y350520D03*
D17*
X512064Y360934D03*
D69*
X512064Y368046D03*
D75*
X512064Y388620D03*
D36*
X511556Y280924D03*
D52*
X511556Y291338D03*
X511556Y306578D03*
D26*
X511556Y328676D03*
D33*
X511556Y349504D03*
D75*
X511556Y367792D03*
D30*
X511556Y388366D03*
D52*
X511048Y281178D03*
X511048Y291338D03*
D29*
X511048Y305816D03*
D14*
X511048Y327914D03*
D59*
X511048Y348234D03*
D29*
X511048Y357124D03*
D73*
X511048Y367792D03*
X511048Y387096D03*
D52*
X510540Y281178D03*
X510540Y291338D03*
D29*
X510540Y305816D03*
D14*
X510540Y327914D03*
D59*
X510540Y348234D03*
D29*
X510540Y357124D03*
D73*
X510540Y367792D03*
X510540Y387096D03*
D57*
X510032Y281432D03*
D52*
X510032Y290830D03*
D70*
X510032Y305816D03*
D14*
X510032Y326898D03*
D75*
X510032Y347980D03*
D42*
X510032Y363474D03*
D56*
X510032Y386842D03*
D57*
X509524Y281432D03*
X509524Y290576D03*
D69*
X509524Y305562D03*
D46*
X509524Y326136D03*
D73*
X509524Y347472D03*
D16*
X509524Y363982D03*
D55*
X509524Y385826D03*
D57*
X509016Y281940D03*
D52*
X509016Y290322D03*
D60*
X509016Y305308D03*
D46*
X509016Y325628D03*
D56*
X509016Y347218D03*
D37*
X509016Y363982D03*
D68*
X509016Y385572D03*
D57*
X508508Y282448D03*
X508508Y290068D03*
D60*
X508508Y305308D03*
D46*
X508508Y325628D03*
D56*
X508508Y347218D03*
D37*
X508508Y363982D03*
D68*
X508508Y385572D03*
D24*
X508000Y283210D03*
X508000Y289306D03*
D75*
X508000Y305308D03*
D11*
X508000Y325374D03*
D56*
X508000Y346710D03*
D77*
X508000Y364490D03*
D53*
X508000Y384810D03*
D17*
X507492Y283718D03*
D29*
X507492Y288544D03*
D31*
X507492Y319532D03*
D68*
X507492Y345948D03*
D58*
X507492Y364998D03*
D51*
X507492Y384556D03*
D72*
X506984Y286258D03*
D83*
X506984Y318516D03*
D53*
X506984Y345694D03*
D84*
X506984Y371094D03*
D69*
X506476Y286258D03*
D83*
X506476Y318516D03*
D53*
X506476Y345694D03*
D84*
X506476Y371094D03*
D57*
X505968Y286004D03*
D84*
X505968Y317754D03*
D51*
X505968Y344932D03*
D84*
X505968Y371094D03*
X505460Y317246D03*
D53*
X505460Y344170D03*
D84*
X505460Y370586D03*
D83*
X504952Y316484D03*
D51*
X504952Y343408D03*
D31*
X504952Y370332D03*
D83*
X504444Y316484D03*
D51*
X504444Y343408D03*
D31*
X504444Y370332D03*
D85*
X503936Y316230D03*
D74*
X503936Y342646D03*
D86*
X503936Y369824D03*
D83*
X503428Y315468D03*
D51*
X503428Y341376D03*
D87*
X503428Y369062D03*
D83*
X502920Y315468D03*
D51*
X502920Y341376D03*
D87*
X502920Y369062D03*
D85*
X502412Y314706D03*
D51*
X502412Y340868D03*
D87*
X502412Y368554D03*
D88*
X501904Y314452D03*
D53*
X501904Y340106D03*
D89*
X501904Y368046D03*
D88*
X501396Y313944D03*
D51*
X501396Y339344D03*
D90*
X501396Y367792D03*
D88*
X500888Y313944D03*
D51*
X500888Y339344D03*
D90*
X500888Y367792D03*
D91*
X500380Y313182D03*
D53*
X500380Y338582D03*
D92*
X500380Y366776D03*
D91*
X499872Y312166D03*
D53*
X499872Y338074D03*
D93*
X499872Y366522D03*
D44*
X499364Y311912D03*
D68*
X499364Y336804D03*
D93*
X499364Y365506D03*
D44*
X498856Y311912D03*
D68*
X498856Y336804D03*
D93*
X498856Y365506D03*
D44*
X498348Y311404D03*
D68*
X498348Y336296D03*
D94*
X498348Y365252D03*
D39*
X497840Y310896D03*
D51*
X497840Y335280D03*
D94*
X497840Y364744D03*
D71*
X497332Y305308D03*
D33*
X497332Y323088D03*
D53*
X497332Y334518D03*
D95*
X497332Y364236D03*
D71*
X496824Y305308D03*
D33*
X496824Y323088D03*
D53*
X496824Y334518D03*
D95*
X496824Y364236D03*
D77*
X496316Y304546D03*
D67*
X496316Y332232D03*
D95*
X496316Y363728D03*
D21*
X495808Y303276D03*
D47*
X495808Y332232D03*
D96*
X495808Y363474D03*
D21*
X495300Y303276D03*
D47*
X495300Y332232D03*
D96*
X495300Y363474D03*
D62*
X494792Y302260D03*
D68*
X494792Y332740D03*
D97*
X494792Y362204D03*
D65*
X494284Y301244D03*
D73*
X494284Y333248D03*
D98*
X494284Y361950D03*
D80*
X493776Y300482D03*
D60*
X493776Y333756D03*
D99*
X493776Y361188D03*
D80*
X493268Y300482D03*
D60*
X493268Y333756D03*
D99*
X493268Y361188D03*
D74*
X492760Y299466D03*
D70*
X492760Y334264D03*
D100*
X492760Y360934D03*
D55*
X492252Y298450D03*
D52*
X492252Y335026D03*
D101*
X492252Y360172D03*
D56*
X491744Y297434D03*
D36*
X491744Y335280D03*
D100*
X491744Y359410D03*
D56*
X491236Y297434D03*
D36*
X491236Y335280D03*
D100*
X491236Y359410D03*
D59*
X490728Y296418D03*
D102*
X490728Y358394D03*
D69*
X490220Y295910D03*
D52*
X490220Y336042D03*
D94*
X490220Y360680D03*
D69*
X489712Y295910D03*
D52*
X489712Y336042D03*
D94*
X489712Y360680D03*
D17*
X489204Y294894D03*
D86*
X489204Y361188D03*
D91*
X488696Y362966D03*
D81*
X488188Y364490D03*
X487680Y364490D03*
D71*
X487172Y365760D03*
D103*
X352674Y309990D03*
X362366Y309990D03*
D104*
X302195Y123790D03*
X302195Y133482D03*
X289648Y123853D03*
X289648Y133545D03*
X277152Y123799D03*
X277152Y133491D03*
X264529Y123872D03*
X264529Y133564D03*
X251979Y123730D03*
X251979Y133422D03*
X239460Y123764D03*
X239460Y133456D03*
X302732Y164298D03*
X302732Y154606D03*
X352780Y123865D03*
X352780Y133557D03*
D105*
X302094Y179718D03*
X302094Y195210D03*
D103*
X471934Y214108D03*
X481626Y214108D03*
X319276Y354266D03*
X309584Y354266D03*
X481629Y228701D03*
X471937Y228701D03*
X451368Y299100D03*
X461060Y299100D03*
X452724Y214080D03*
X462416Y214080D03*
X525926Y133510D03*
X516234Y133510D03*
X353174Y292430D03*
X362866Y292430D03*
D104*
X340046Y123879D03*
X340046Y133571D03*
D106*
X335770Y383870D03*
X335770Y411870D03*
D104*
X327439Y123952D03*
X327439Y133644D03*
X314819Y123944D03*
X314819Y133636D03*
D107*
X313682Y906862D02*
X306702Y906862D01*
X313682Y906862D02*
X313682Y899882D01*
X306702Y899882D01*
X306702Y906862D01*
X306702Y904682D02*
X313682Y904682D01*
X313682Y924402D02*
X306702Y924402D01*
X313682Y924402D02*
X313682Y917422D01*
X306702Y917422D01*
X306702Y924402D01*
X306702Y922222D02*
X313682Y922222D01*
D108*
X235590Y158260D03*
X235590Y193260D03*
X272080Y193120D03*
X272080Y158120D03*
X332140Y158060D03*
X332140Y193060D03*
D107*
X331494Y242149D02*
X338474Y242149D01*
X338474Y235169D01*
X331494Y235169D01*
X331494Y242149D01*
X331494Y239969D02*
X338474Y239969D01*
X338474Y259689D02*
X331494Y259689D01*
X338474Y259689D02*
X338474Y252709D01*
X331494Y252709D01*
X331494Y259689D01*
X331494Y257509D02*
X338474Y257509D01*
X310580Y242276D02*
X303600Y242276D01*
X310580Y242276D02*
X310580Y235296D01*
X303600Y235296D01*
X303600Y242276D01*
X303600Y240096D02*
X310580Y240096D01*
X310580Y259816D02*
X303600Y259816D01*
X310580Y259816D02*
X310580Y252836D01*
X303600Y252836D01*
X303600Y259816D01*
X303600Y257636D02*
X310580Y257636D01*
D109*
X148430Y70480D03*
D110*
X540440Y180960D03*
X540440Y175960D03*
D111*
X540440Y205710D03*
D112*
X540440Y197960D03*
D110*
X540440Y190960D03*
X540440Y185960D03*
X540440Y165960D03*
X540440Y170960D03*
D111*
X540440Y141210D03*
D112*
X540440Y148960D03*
D110*
X540440Y155960D03*
X540440Y160960D03*
D113*
X554890Y144560D03*
X554890Y202360D03*
D114*
X475040Y120020D03*
X455040Y120020D03*
D115*
X499040Y68020D03*
X431040Y68020D03*
D116*
X304746Y296006D03*
X304746Y328006D03*
D117*
X416530Y178150D03*
X361930Y178150D03*
D118*
X426000Y377040D03*
X426000Y398040D03*
X364020Y417140D03*
X364020Y438140D03*
D107*
X296150Y917158D02*
X289170Y917158D01*
X289170Y924138D01*
X296150Y924138D01*
X296150Y917158D01*
X296150Y921958D02*
X289170Y921958D01*
X289170Y899618D02*
X296150Y899618D01*
X289170Y899618D02*
X289170Y906598D01*
X296150Y906598D01*
X296150Y899618D01*
X296150Y904418D02*
X289170Y904418D01*
D119*
X487740Y415810D03*
X487740Y253810D03*
D120*
X382070Y133750D03*
X382070Y120750D03*
X403070Y127250D03*
D121*
X426100Y326385D03*
X426100Y316235D03*
X310176Y887133D03*
X310176Y876983D03*
D122*
X362145Y143510D03*
X372295Y143510D03*
D123*
X495624Y196890D03*
X495624Y168890D03*
D122*
X538325Y65150D03*
X548475Y65150D03*
D121*
X366606Y517085D03*
X366606Y527235D03*
X353398Y516831D03*
X353398Y526981D03*
X426100Y363375D03*
X426100Y353225D03*
X439728Y410511D03*
X439728Y420661D03*
X348329Y242715D03*
X348329Y252865D03*
X320686Y242626D03*
X320686Y252776D03*
D122*
X451549Y285962D03*
X461699Y285962D03*
X451753Y242680D03*
X441603Y242680D03*
X387195Y400800D03*
X377045Y400800D03*
X443496Y213815D03*
X433346Y213815D03*
D121*
X397940Y385465D03*
X397940Y395615D03*
X379820Y422165D03*
X379820Y432315D03*
D122*
X433353Y228749D03*
X443503Y228749D03*
D121*
X366960Y251715D03*
X366960Y241565D03*
X292733Y887106D03*
X292733Y876956D03*
X365407Y133696D03*
X365407Y123546D03*
D124*
X245116Y475650D03*
X245116Y506450D03*
X249116Y475650D03*
X249116Y506450D03*
X253116Y475650D03*
X253116Y506450D03*
X257116Y475650D03*
X257116Y506450D03*
X261116Y475650D03*
X261116Y506450D03*
X265116Y475650D03*
X265116Y506450D03*
X269116Y475650D03*
X269116Y506450D03*
X273116Y475650D03*
X273116Y506450D03*
X277116Y475650D03*
X277116Y506450D03*
X281116Y475650D03*
X281116Y506450D03*
X285116Y475650D03*
X285116Y506450D03*
X289116Y475650D03*
X289116Y506450D03*
X293116Y475650D03*
X293116Y506450D03*
X297116Y475650D03*
X297116Y506450D03*
X301116Y475650D03*
X301116Y506450D03*
X305116Y475650D03*
X305116Y506450D03*
X309116Y475650D03*
X309116Y506450D03*
X313116Y475650D03*
X313116Y506450D03*
X317116Y475650D03*
X317116Y506450D03*
X321116Y475650D03*
X321116Y506450D03*
X325116Y475650D03*
X325116Y506450D03*
X329116Y475650D03*
X329116Y506450D03*
X333116Y475650D03*
X333116Y506450D03*
X337116Y475650D03*
X337116Y506450D03*
X341116Y475650D03*
X341116Y506450D03*
X345116Y475650D03*
X345116Y506450D03*
X349116Y475650D03*
X349116Y506450D03*
X353116Y475650D03*
X353116Y506450D03*
X357116Y475650D03*
X357116Y506450D03*
X361116Y475650D03*
X361116Y506450D03*
X365116Y475650D03*
X365116Y506450D03*
X369116Y475650D03*
X369116Y506450D03*
X373116Y475650D03*
X373116Y506450D03*
X377116Y475650D03*
X377116Y506450D03*
X381116Y475650D03*
X381116Y506450D03*
X385116Y475650D03*
X385116Y506450D03*
X389116Y475650D03*
X389116Y506450D03*
X393116Y475650D03*
X393116Y506450D03*
X397116Y475650D03*
X397116Y506450D03*
X401116Y475650D03*
X401116Y506450D03*
X405116Y475650D03*
X405116Y506450D03*
X409116Y475650D03*
X409116Y506450D03*
X413116Y475650D03*
X413116Y506450D03*
X417116Y475650D03*
X417116Y506450D03*
X421116Y475650D03*
X421116Y506450D03*
X425116Y475650D03*
X425116Y506450D03*
X429116Y475650D03*
X429116Y506450D03*
X433116Y475650D03*
X433116Y506450D03*
X437116Y475650D03*
X437116Y506450D03*
X441116Y475650D03*
X441116Y506450D03*
X245116Y815650D03*
X245116Y846450D03*
X249116Y815650D03*
X249116Y846450D03*
X253116Y815650D03*
X253116Y846450D03*
X257116Y815650D03*
X257116Y846450D03*
X261116Y815650D03*
X261116Y846450D03*
X265116Y815650D03*
X265116Y846450D03*
X269116Y815650D03*
X269116Y846450D03*
X273116Y815650D03*
X273116Y846450D03*
X277116Y815650D03*
X277116Y846450D03*
X281116Y815650D03*
X281116Y846450D03*
X285116Y815650D03*
X285116Y846450D03*
X289116Y815650D03*
X289116Y846450D03*
X293116Y815650D03*
X293116Y846450D03*
X297116Y815650D03*
X297116Y846450D03*
X301116Y815650D03*
X301116Y846450D03*
X305116Y815650D03*
X305116Y846450D03*
X309116Y815650D03*
X309116Y846450D03*
X313116Y815650D03*
X313116Y846450D03*
X317116Y815650D03*
X317116Y846450D03*
X321116Y815650D03*
X321116Y846450D03*
X325116Y815650D03*
X325116Y846450D03*
X329116Y815650D03*
X329116Y846450D03*
X333116Y815650D03*
X333116Y846450D03*
X337116Y815650D03*
X337116Y846450D03*
X341116Y815650D03*
X341116Y846450D03*
X345116Y815650D03*
X345116Y846450D03*
X349116Y815650D03*
X349116Y846450D03*
X353116Y815650D03*
X353116Y846450D03*
X357116Y815650D03*
X357116Y846450D03*
X361116Y815650D03*
X361116Y846450D03*
X365116Y815650D03*
X365116Y846450D03*
X369116Y815650D03*
X369116Y846450D03*
X373116Y815650D03*
X373116Y846450D03*
X377116Y815650D03*
X377116Y846450D03*
X381116Y815650D03*
X381116Y846450D03*
X385116Y815650D03*
X385116Y846450D03*
X389116Y815650D03*
X389116Y846450D03*
X393116Y815650D03*
X393116Y846450D03*
X397116Y815650D03*
X397116Y846450D03*
X401116Y815650D03*
X401116Y846450D03*
X405116Y815650D03*
X405116Y846450D03*
X409116Y815650D03*
X409116Y846450D03*
X413116Y815650D03*
X413116Y846450D03*
X417116Y815650D03*
X417116Y846450D03*
X421116Y815650D03*
X421116Y846450D03*
X425116Y815650D03*
X425116Y846450D03*
X429116Y815650D03*
X429116Y846450D03*
X433116Y815650D03*
X433116Y846450D03*
X437116Y815650D03*
X437116Y846450D03*
X441116Y815650D03*
X441116Y846450D03*
D125*
X558116Y826050D03*
X558116Y496050D03*
X78116Y496050D03*
X78116Y826050D03*
D109*
X556100Y448940D03*
D126*
X452932Y399398D03*
X452932Y389238D03*
D127*
X479852Y508732D03*
X469692Y508732D03*
D128*
X406902Y437561D03*
X416402Y413561D03*
X397402Y413561D03*
D129*
X384480Y354040D03*
D130*
X366980Y363790D02*
X359980Y363790D01*
X359980Y357290D02*
X366980Y357290D01*
X366980Y350790D02*
X359980Y350790D01*
X359980Y344290D02*
X366980Y344290D01*
X374730Y336540D02*
X374730Y329540D01*
X381230Y329540D02*
X381230Y336540D01*
X387730Y336540D02*
X387730Y329540D01*
X394230Y329540D02*
X394230Y336540D01*
X401980Y344290D02*
X408980Y344290D01*
X408980Y350790D02*
X401980Y350790D01*
X401980Y357290D02*
X408980Y357290D01*
X408980Y363790D02*
X401980Y363790D01*
X394230Y371540D02*
X394230Y378540D01*
X387730Y378540D02*
X387730Y371540D01*
X381230Y371540D02*
X381230Y378540D01*
X374730Y378540D02*
X374730Y371540D01*
D131*
X384480Y354040D03*
X375480Y363040D03*
X393480Y363040D03*
X393480Y345040D03*
X375480Y345040D03*
D132*
X346113Y905035D03*
X346113Y911639D03*
X346113Y918243D03*
X325793Y918243D03*
X325793Y905035D03*
D133*
X451162Y162246D03*
X455162Y162246D03*
X459162Y162246D03*
X463162Y162246D03*
X467162Y162246D03*
X471162Y162246D03*
X471162Y201746D03*
X467162Y201746D03*
X463162Y201746D03*
X459162Y201746D03*
X455162Y201746D03*
X451162Y201746D03*
D134*
X461162Y181996D03*
D135*
X449662Y192996D03*
X472662Y170996D03*
X449662Y170996D03*
X472662Y192996D03*
D136*
X461162Y192996D03*
X461162Y170996D03*
D137*
X435260Y255780D03*
X435260Y260780D03*
X435260Y265780D03*
X435260Y270780D03*
D138*
X428010Y278030D03*
X423010Y278030D03*
X418010Y278030D03*
X413010Y278030D03*
D137*
X405760Y270780D03*
X405760Y265780D03*
X405760Y260780D03*
X405760Y255780D03*
D138*
X413010Y248530D03*
X418010Y248530D03*
X423010Y248530D03*
X428010Y248530D03*
D139*
X420510Y263280D03*
D109*
X366870Y398902D03*
X580230Y874390D03*
X580230Y888360D03*
X181323Y70480D03*
X410304Y304160D03*
X164051Y70480D03*
X521810Y212720D03*
X195674Y70480D03*
D140*
X252500Y108180D03*
X257500Y108180D03*
X262500Y108180D03*
X267500Y108180D03*
X272500Y108180D03*
X277500Y108180D03*
X282500Y108180D03*
X287500Y108180D03*
X292500Y108180D03*
X297500Y108180D03*
X302500Y108180D03*
X307500Y108180D03*
X312500Y108180D03*
X317500Y108180D03*
X322500Y108180D03*
X327500Y108180D03*
X332500Y108180D03*
X337500Y108180D03*
X342500Y108180D03*
X347500Y108180D03*
X352500Y108180D03*
X357500Y108180D03*
X362500Y108180D03*
X367500Y108180D03*
D141*
X233500Y88930D03*
X386500Y88930D03*
D142*
X134705Y105541D02*
X134705Y137019D01*
X134705Y105541D02*
X103227Y105541D01*
X103227Y137019D01*
X134705Y137019D01*
X134705Y110818D02*
X103227Y110818D01*
X103227Y116095D02*
X134705Y116095D01*
X134705Y121372D02*
X103227Y121372D01*
X103227Y126649D02*
X134705Y126649D01*
X134705Y131926D02*
X103227Y131926D01*
D143*
X101466Y96280D03*
X106466Y96280D03*
X111466Y96280D03*
X116466Y96280D03*
X121466Y96280D03*
X126466Y96280D03*
X131466Y96280D03*
X136466Y96280D03*
D144*
X143966Y103780D03*
X143966Y108780D03*
X143966Y113780D03*
X143966Y118780D03*
X143966Y123780D03*
X143966Y128780D03*
X143966Y133780D03*
X143966Y138780D03*
D143*
X136466Y146280D03*
X131466Y146280D03*
X126466Y146280D03*
X121466Y146280D03*
X116466Y146280D03*
X111466Y146280D03*
X106466Y146280D03*
X101466Y146280D03*
D144*
X93966Y138780D03*
X93966Y133780D03*
X93966Y128780D03*
X93966Y123780D03*
X93966Y118780D03*
X93966Y113780D03*
X93966Y108780D03*
X93966Y103780D03*
D103*
X85486Y114460D03*
X75794Y114460D03*
D104*
X106520Y84216D03*
X106520Y74524D03*
D145*
X172434Y106216D03*
X172434Y128216D03*
X188434Y106216D03*
X188434Y128216D03*
D103*
X85242Y129253D03*
X75550Y129253D03*
D104*
X92550Y84216D03*
X92550Y74524D03*
X204602Y111453D03*
X204602Y121145D03*
D103*
X233606Y879734D03*
X223914Y879734D03*
D104*
X248290Y917816D03*
X248290Y908124D03*
X265816Y908124D03*
X265816Y917816D03*
X265816Y883994D03*
X265816Y893686D03*
D103*
X85486Y99220D03*
X75794Y99220D03*
X504050Y444368D03*
X494358Y444368D03*
X502145Y228722D03*
X492453Y228722D03*
X27826Y121290D03*
X37518Y121290D03*
X27760Y176779D03*
X37452Y176779D03*
D146*
X258694Y328431D03*
X252194Y328431D03*
X245694Y328431D03*
X239194Y328431D03*
X239194Y288553D03*
X245694Y288553D03*
X252194Y288553D03*
X258694Y288553D03*
D147*
X255520Y425620D03*
D148*
X289020Y369620D03*
X289020Y444120D03*
D147*
X255520Y413120D03*
X255520Y400620D03*
X255520Y388120D03*
D122*
X245759Y274192D03*
X255909Y274192D03*
D105*
X229742Y399540D03*
X229742Y384048D03*
D104*
X94870Y159874D03*
X94870Y169566D03*
X107570Y159874D03*
X107570Y169566D03*
D149*
X31399Y157850D03*
X31399Y148350D03*
X31399Y138850D03*
X57401Y138850D03*
X57401Y157850D03*
D104*
X120143Y159874D03*
X120143Y169566D03*
D103*
X72498Y176910D03*
X82190Y176910D03*
X28048Y193420D03*
X37740Y193420D03*
X28048Y205866D03*
X37740Y205866D03*
X72498Y157860D03*
X82190Y157860D03*
D150*
X130764Y330330D03*
X130764Y326330D03*
X130764Y322330D03*
X130764Y318330D03*
X130764Y314330D03*
X130764Y310330D03*
X130764Y306330D03*
X130764Y302330D03*
X130764Y298330D03*
X130764Y294330D03*
X130764Y290330D03*
X130764Y286330D03*
X130764Y282330D03*
X130764Y278330D03*
D151*
X138800Y270294D03*
X142800Y270294D03*
X146800Y270294D03*
X150800Y270294D03*
X154800Y270294D03*
X158800Y270294D03*
X162800Y270294D03*
X166800Y270294D03*
X170800Y270294D03*
X174800Y270294D03*
X178800Y270294D03*
X182800Y270294D03*
X186800Y270294D03*
X190800Y270294D03*
D150*
X198836Y278330D03*
X198836Y282330D03*
X198836Y286330D03*
X198836Y290330D03*
X198836Y294330D03*
X198836Y298330D03*
X198836Y302330D03*
X198836Y306330D03*
X198836Y310330D03*
X198836Y314330D03*
X198836Y318330D03*
X198836Y322330D03*
X198836Y326330D03*
X198836Y330330D03*
D151*
X190800Y338366D03*
X186800Y338366D03*
X182800Y338366D03*
X178800Y338366D03*
X174800Y338366D03*
X170800Y338366D03*
X166800Y338366D03*
X162800Y338366D03*
X158800Y338366D03*
X154800Y338366D03*
X150800Y338366D03*
X146800Y338366D03*
X142800Y338366D03*
X138800Y338366D03*
D152*
X164800Y304330D03*
D104*
X186056Y357740D03*
X186056Y367432D03*
X147956Y357740D03*
X147956Y367432D03*
D103*
X138792Y212978D03*
X148484Y212978D03*
X211436Y329056D03*
X221128Y329056D03*
X180956Y377316D03*
X190648Y377316D03*
D104*
X193547Y257575D03*
X193547Y247883D03*
X198629Y357740D03*
X198629Y367432D03*
D121*
X160654Y367651D03*
X160654Y357501D03*
X173354Y367651D03*
X173354Y357501D03*
D104*
X211202Y357613D03*
X211202Y367305D03*
X206120Y257575D03*
X206120Y247883D03*
D153*
X233056Y234141D03*
X242556Y234141D03*
X252056Y234141D03*
X252056Y260143D03*
X233056Y260143D03*
D103*
X233280Y219074D03*
X242972Y219074D03*
X211690Y282574D03*
X221382Y282574D03*
D109*
X135003Y393892D03*
X568708Y448832D03*
D121*
X135256Y374791D03*
X135256Y384941D03*
D154*
X140804Y232412D03*
X163804Y232412D03*
X163804Y249912D03*
X140804Y249912D03*
D104*
X126366Y229978D03*
X126366Y239670D03*
X178944Y229470D03*
X178944Y239162D03*
D121*
X179196Y256907D03*
X179196Y246757D03*
D122*
X519825Y65150D03*
X529975Y65150D03*
X37705Y754000D03*
X27555Y754000D03*
X24525Y583310D03*
X34675Y583310D03*
D121*
X557150Y545225D03*
X557150Y555375D03*
D107*
X281112Y242370D02*
X274132Y242370D01*
X281112Y242370D02*
X281112Y235390D01*
X274132Y235390D01*
X274132Y242370D01*
X274132Y240190D02*
X281112Y240190D01*
X281112Y259910D02*
X274132Y259910D01*
X281112Y259910D02*
X281112Y252930D01*
X274132Y252930D01*
X274132Y259910D01*
X274132Y257730D02*
X281112Y257730D01*
D121*
X293116Y242575D03*
X293116Y252725D03*
D155*
X205494Y905256D02*
X205496Y905391D01*
X205502Y905526D01*
X205512Y905661D01*
X205526Y905796D01*
X205544Y905930D01*
X205566Y906063D01*
X205591Y906196D01*
X205621Y906328D01*
X205655Y906459D01*
X205692Y906589D01*
X205733Y906718D01*
X205778Y906845D01*
X205827Y906971D01*
X205879Y907096D01*
X205936Y907219D01*
X205995Y907341D01*
X206059Y907460D01*
X206125Y907578D01*
X206195Y907693D01*
X206269Y907807D01*
X206346Y907918D01*
X206426Y908027D01*
X206509Y908134D01*
X206596Y908238D01*
X206685Y908339D01*
X206778Y908438D01*
X206873Y908534D01*
X206971Y908627D01*
X207072Y908717D01*
X207175Y908804D01*
X207281Y908888D01*
X207389Y908969D01*
X207500Y909047D01*
X207613Y909121D01*
X207728Y909192D01*
X207845Y909260D01*
X207964Y909324D01*
X208085Y909385D01*
X208208Y909442D01*
X208332Y909495D01*
X208458Y909545D01*
X208585Y909591D01*
X208714Y909633D01*
X208843Y909671D01*
X208974Y909706D01*
X209106Y909737D01*
X209238Y909763D01*
X209372Y909786D01*
X209506Y909805D01*
X209640Y909820D01*
X209775Y909831D01*
X209910Y909838D01*
X210045Y909841D01*
X210180Y909840D01*
X210316Y909835D01*
X210451Y909826D01*
X210585Y909813D01*
X210719Y909796D01*
X210853Y909775D01*
X210986Y909750D01*
X211118Y909722D01*
X211249Y909689D01*
X211380Y909653D01*
X211509Y909612D01*
X211637Y909568D01*
X211763Y909521D01*
X211888Y909469D01*
X212012Y909414D01*
X212133Y909355D01*
X212253Y909293D01*
X212371Y909227D01*
X212488Y909157D01*
X212602Y909085D01*
X212713Y909009D01*
X212823Y908929D01*
X212930Y908847D01*
X213035Y908761D01*
X213137Y908672D01*
X213236Y908581D01*
X213333Y908486D01*
X213427Y908389D01*
X213518Y908289D01*
X213606Y908186D01*
X213691Y908081D01*
X213772Y907973D01*
X213851Y907863D01*
X213926Y907750D01*
X213998Y907636D01*
X214067Y907519D01*
X214132Y907401D01*
X214193Y907280D01*
X214251Y907158D01*
X214305Y907034D01*
X214356Y906909D01*
X214403Y906782D01*
X214446Y906654D01*
X214485Y906524D01*
X214521Y906394D01*
X214552Y906262D01*
X214580Y906130D01*
X214604Y905997D01*
X214624Y905863D01*
X214640Y905729D01*
X214652Y905594D01*
X214660Y905459D01*
X214664Y905324D01*
X214664Y905188D01*
X214660Y905053D01*
X214652Y904918D01*
X214640Y904783D01*
X214624Y904649D01*
X214604Y904515D01*
X214580Y904382D01*
X214552Y904250D01*
X214521Y904118D01*
X214485Y903988D01*
X214446Y903858D01*
X214403Y903730D01*
X214356Y903603D01*
X214305Y903478D01*
X214251Y903354D01*
X214193Y903232D01*
X214132Y903111D01*
X214067Y902993D01*
X213998Y902876D01*
X213926Y902762D01*
X213851Y902649D01*
X213772Y902539D01*
X213691Y902431D01*
X213606Y902326D01*
X213518Y902223D01*
X213427Y902123D01*
X213333Y902026D01*
X213236Y901931D01*
X213137Y901840D01*
X213035Y901751D01*
X212930Y901665D01*
X212823Y901583D01*
X212713Y901503D01*
X212602Y901427D01*
X212488Y901355D01*
X212372Y901285D01*
X212253Y901219D01*
X212133Y901157D01*
X212012Y901098D01*
X211888Y901043D01*
X211763Y900991D01*
X211637Y900944D01*
X211509Y900900D01*
X211380Y900859D01*
X211249Y900823D01*
X211118Y900790D01*
X210986Y900762D01*
X210853Y900737D01*
X210719Y900716D01*
X210585Y900699D01*
X210451Y900686D01*
X210316Y900677D01*
X210180Y900672D01*
X210045Y900671D01*
X209910Y900674D01*
X209775Y900681D01*
X209640Y900692D01*
X209506Y900707D01*
X209372Y900726D01*
X209238Y900749D01*
X209106Y900775D01*
X208974Y900806D01*
X208843Y900841D01*
X208714Y900879D01*
X208585Y900921D01*
X208458Y900967D01*
X208332Y901017D01*
X208208Y901070D01*
X208085Y901127D01*
X207964Y901188D01*
X207845Y901252D01*
X207728Y901320D01*
X207613Y901391D01*
X207500Y901465D01*
X207389Y901543D01*
X207281Y901624D01*
X207175Y901708D01*
X207072Y901795D01*
X206971Y901885D01*
X206873Y901978D01*
X206778Y902074D01*
X206685Y902173D01*
X206596Y902274D01*
X206509Y902378D01*
X206426Y902485D01*
X206346Y902594D01*
X206269Y902705D01*
X206195Y902819D01*
X206125Y902934D01*
X206059Y903052D01*
X205995Y903171D01*
X205936Y903293D01*
X205879Y903416D01*
X205827Y903541D01*
X205778Y903667D01*
X205733Y903794D01*
X205692Y903923D01*
X205655Y904053D01*
X205621Y904184D01*
X205591Y904316D01*
X205566Y904449D01*
X205544Y904582D01*
X205526Y904716D01*
X205512Y904851D01*
X205502Y904986D01*
X205496Y905121D01*
X205494Y905256D01*
D156*
X231109Y905256D03*
D157*
X231109Y914916D03*
D158*
X203739Y915406D03*
X203739Y895106D03*
D157*
X231109Y895596D03*
D159*
X210079Y905256D03*
D160*
X40270Y731740D03*
X40270Y695740D03*
X25770Y731740D03*
X25770Y695740D03*
X40270Y561560D03*
X40270Y525560D03*
X25770Y561560D03*
X25770Y525560D03*
X579617Y529624D03*
X579617Y565624D03*
X594117Y529624D03*
X594117Y565624D03*
D128*
X566420Y69010D03*
X556920Y91010D03*
X575920Y91010D03*
D103*
X452608Y228600D03*
X462300Y228600D03*
D104*
X394970Y241534D03*
X394970Y251226D03*
X379730Y241534D03*
X379730Y251226D03*
D161*
X526796Y80010D03*
X533400Y80010D03*
X540004Y80010D03*
X540004Y100330D03*
X526796Y100330D03*
D122*
X516133Y161544D03*
X526283Y161544D03*
X516260Y186817D03*
X526410Y186817D03*
X211333Y315087D03*
X221483Y315087D03*
X211333Y295275D03*
X221483Y295275D03*
D104*
X375920Y278364D03*
X375920Y288056D03*
D162*
X576420Y115860D03*
X571420Y115860D03*
D163*
X566420Y115860D03*
D162*
X561420Y115860D03*
X556420Y115860D03*
X556420Y107660D03*
X561420Y107660D03*
D163*
X566420Y107660D03*
D162*
X571420Y107660D03*
X576420Y107660D03*
D164*
X124160Y921230D03*
D165*
X68160Y887730D03*
X142660Y887730D03*
D164*
X111660Y921230D03*
X99160Y921230D03*
X86660Y921230D03*
D140*
X523670Y877970D03*
X518670Y877970D03*
X513670Y877970D03*
X508670Y877970D03*
X503670Y877970D03*
X498670Y877970D03*
X493670Y877970D03*
X488670Y877970D03*
X483670Y877970D03*
X478670Y877970D03*
X473670Y877970D03*
X468670Y877970D03*
X463670Y877970D03*
X458670Y877970D03*
X453670Y877970D03*
X448670Y877970D03*
X443670Y877970D03*
X438670Y877970D03*
X433670Y877970D03*
X428670Y877970D03*
X423670Y877970D03*
X418670Y877970D03*
D141*
X542670Y897220D03*
X399670Y897220D03*
D166*
X193880Y163830D03*
X171880Y154330D03*
X171880Y173330D03*
D161*
X184404Y210820D03*
X177800Y210820D03*
X171196Y210820D03*
X171196Y190500D03*
X184404Y190500D03*
D104*
X199390Y180574D03*
X199390Y190266D03*
D167*
X136779Y441960D03*
X136779Y429260D03*
X136779Y416560D03*
X136779Y403860D03*
X208661Y403860D03*
X208661Y416560D03*
X208661Y429260D03*
X208661Y441960D03*
D104*
X224790Y446806D03*
X224790Y437114D03*
D168*
X62461Y176530D03*
D169*
X46922Y176530D03*
D168*
X532361Y444500D03*
D169*
X516822Y444500D03*
D168*
X529821Y227330D03*
D169*
X514282Y227330D03*
D170*
X248920Y895581D03*
D171*
X248920Y880042D03*
D168*
X62461Y193040D03*
D169*
X46922Y193040D03*
D172*
X103790Y427780D03*
D173*
X51040Y435280D03*
D174*
X51040Y235280D03*
D175*
X96040Y438780D03*
X96040Y231780D03*
D172*
X103790Y422780D03*
X103790Y417780D03*
X103790Y412780D03*
X103790Y407780D03*
X103790Y402780D03*
X103790Y397780D03*
X103790Y392780D03*
X103790Y387780D03*
X103790Y382780D03*
X103790Y377780D03*
X103790Y372780D03*
X103790Y367780D03*
X103790Y362780D03*
X103790Y357780D03*
X103790Y352780D03*
X103790Y347780D03*
X103790Y342780D03*
X103790Y337780D03*
X103790Y332780D03*
X103790Y327780D03*
X103790Y322780D03*
X103790Y317780D03*
X103790Y312780D03*
X103790Y307780D03*
X103790Y302780D03*
X103790Y297780D03*
X103790Y292780D03*
X103790Y287780D03*
X103790Y262780D03*
X103790Y257780D03*
X103790Y252780D03*
X103790Y247780D03*
X103790Y242780D03*
X28290Y425280D03*
X28290Y420280D03*
X28290Y415280D03*
X28290Y410280D03*
X28290Y405280D03*
X28290Y400280D03*
X28290Y395280D03*
X28290Y390280D03*
X28290Y385280D03*
X28290Y380280D03*
X28290Y375280D03*
X28290Y370280D03*
X28290Y365280D03*
X28290Y360280D03*
X28290Y355280D03*
X28290Y350280D03*
X28290Y345280D03*
X28290Y340280D03*
X28290Y335280D03*
X28290Y330280D03*
X28290Y325280D03*
X28290Y320280D03*
X28290Y315280D03*
X28290Y310280D03*
X28290Y305280D03*
X28290Y300280D03*
X28290Y295280D03*
X28290Y290280D03*
X28290Y285280D03*
X28290Y260280D03*
X28290Y255280D03*
X28290Y250280D03*
X28290Y245280D03*
D176*
X433040Y441706D03*
X461040Y441706D03*
M02*
