G04 EAGLE Gerber RS-274X export*
G75*
%MOMM*%
%FSLAX34Y34*%
%LPD*%
%INSolderpaste Top*%
%IPPOS*%
%AMOC8*
5,1,8,0,0,1.08239X$1,22.5*%
G01*
%ADD10R,0.560000X0.629100*%
%ADD11R,0.629100X0.560000*%
%ADD12R,0.970200X0.920900*%
%ADD13R,2.700000X1.600000*%
%ADD14C,0.300000*%
%ADD15R,0.800000X1.150000*%
%ADD16R,1.450000X0.300000*%
%ADD17R,1.450000X0.600000*%
%ADD18R,1.450000X0.550000*%
%ADD19R,1.000000X4.600000*%
%ADD20R,1.600000X3.400000*%
%ADD21R,5.000000X2.000000*%
%ADD22R,1.400000X3.560000*%
%ADD23R,1.200000X1.200000*%
%ADD24R,2.000000X2.000000*%
%ADD25R,1.050000X0.500000*%
%ADD26R,0.644000X0.535100*%
%ADD27R,0.535100X0.644000*%
%ADD28R,1.800000X1.600000*%
%ADD29R,0.200000X0.700000*%
%ADD30R,1.000000X1.400000*%
%ADD31C,0.350000*%
%ADD32R,0.600000X0.700000*%
%ADD33R,0.700000X0.600000*%
%ADD34R,1.016000X0.355600*%
%ADD35R,0.800000X1.000000*%
%ADD36R,0.525000X0.250000*%
%ADD37R,0.200000X0.800000*%
%ADD38R,0.800000X0.230000*%
%ADD39R,0.230000X0.800000*%
%ADD40R,0.700000X0.700000*%
%ADD41R,0.300000X0.800000*%
%ADD42R,1.300000X3.050000*%
%ADD43R,0.250000X0.800000*%
%ADD44R,0.800000X0.250000*%
%ADD45R,1.143000X1.143000*%
%ADD46R,1.200000X1.400000*%
%ADD47R,0.406400X1.219200*%
%ADD48R,1.700000X0.600000*%
%ADD49R,2.800000X1.000000*%
%ADD50R,1.200000X0.550000*%
%ADD51R,0.812800X0.177800*%
%ADD52R,0.177800X0.812800*%
%ADD53R,0.550000X1.200000*%
%ADD54R,1.300000X1.050000*%
%ADD55C,0.612000*%
%ADD56C,0.723000*%
%ADD57C,0.562000*%
%ADD58R,1.050000X1.400000*%
%ADD59R,0.355600X1.016000*%
%ADD60R,0.400000X0.550000*%
%ADD61R,0.600000X1.700000*%
%ADD62R,1.000000X2.800000*%
%ADD63R,1.400000X1.000000*%
%ADD64R,1.219200X0.482600*%
%ADD65R,0.900000X0.970200*%
%ADD66R,0.932600X0.970200*%
%ADD67R,0.970200X0.900000*%
%ADD68R,0.970200X0.932600*%
%ADD69R,1.550000X0.300000*%
%ADD70R,2.750000X1.200000*%
%ADD71R,1.600000X2.700000*%

G36*
X404002Y82055D02*
X404002Y82055D01*
X404004Y82054D01*
X404047Y82074D01*
X404091Y82092D01*
X404091Y82094D01*
X404093Y82095D01*
X404126Y82180D01*
X404126Y104180D01*
X404125Y104182D01*
X404126Y104184D01*
X404106Y104227D01*
X404088Y104271D01*
X404086Y104271D01*
X404085Y104273D01*
X404000Y104306D01*
X393000Y104306D01*
X392998Y104305D01*
X392996Y104306D01*
X392953Y104286D01*
X392909Y104268D01*
X392909Y104266D01*
X392907Y104265D01*
X392874Y104180D01*
X392874Y82180D01*
X392875Y82178D01*
X392874Y82176D01*
X392894Y82133D01*
X392912Y82089D01*
X392914Y82089D01*
X392915Y82087D01*
X393000Y82054D01*
X404000Y82054D01*
X404002Y82055D01*
G37*
G36*
X227002Y82055D02*
X227002Y82055D01*
X227004Y82054D01*
X227047Y82074D01*
X227091Y82092D01*
X227091Y82094D01*
X227093Y82095D01*
X227126Y82180D01*
X227126Y104180D01*
X227125Y104182D01*
X227126Y104184D01*
X227106Y104227D01*
X227088Y104271D01*
X227086Y104271D01*
X227085Y104273D01*
X227000Y104306D01*
X216000Y104306D01*
X215998Y104305D01*
X215996Y104306D01*
X215953Y104286D01*
X215909Y104268D01*
X215909Y104266D01*
X215907Y104265D01*
X215874Y104180D01*
X215874Y82180D01*
X215875Y82178D01*
X215874Y82176D01*
X215894Y82133D01*
X215912Y82089D01*
X215914Y82089D01*
X215915Y82087D01*
X216000Y82054D01*
X227000Y82054D01*
X227002Y82055D01*
G37*
G36*
X393172Y881845D02*
X393172Y881845D01*
X393174Y881844D01*
X393217Y881864D01*
X393261Y881882D01*
X393261Y881884D01*
X393263Y881885D01*
X393296Y881970D01*
X393296Y903970D01*
X393295Y903972D01*
X393296Y903974D01*
X393276Y904017D01*
X393258Y904061D01*
X393256Y904061D01*
X393255Y904063D01*
X393170Y904096D01*
X382170Y904096D01*
X382168Y904095D01*
X382166Y904096D01*
X382123Y904076D01*
X382079Y904058D01*
X382079Y904056D01*
X382077Y904055D01*
X382044Y903970D01*
X382044Y881970D01*
X382045Y881968D01*
X382044Y881966D01*
X382064Y881923D01*
X382082Y881879D01*
X382084Y881879D01*
X382085Y881877D01*
X382170Y881844D01*
X393170Y881844D01*
X393172Y881845D01*
G37*
G36*
X560172Y881845D02*
X560172Y881845D01*
X560174Y881844D01*
X560217Y881864D01*
X560261Y881882D01*
X560261Y881884D01*
X560263Y881885D01*
X560296Y881970D01*
X560296Y903970D01*
X560295Y903972D01*
X560296Y903974D01*
X560276Y904017D01*
X560258Y904061D01*
X560256Y904061D01*
X560255Y904063D01*
X560170Y904096D01*
X549170Y904096D01*
X549168Y904095D01*
X549166Y904096D01*
X549123Y904076D01*
X549079Y904058D01*
X549079Y904056D01*
X549077Y904055D01*
X549044Y903970D01*
X549044Y881970D01*
X549045Y881968D01*
X549044Y881966D01*
X549064Y881923D01*
X549082Y881879D01*
X549084Y881879D01*
X549085Y881877D01*
X549170Y881844D01*
X560170Y881844D01*
X560172Y881845D01*
G37*
G36*
X555645Y124214D02*
X555645Y124214D01*
X555648Y124211D01*
X556915Y124416D01*
X556921Y124422D01*
X556926Y124419D01*
X558115Y124901D01*
X558119Y124908D01*
X558125Y124906D01*
X559178Y125640D01*
X559180Y125648D01*
X559186Y125647D01*
X560049Y126597D01*
X560050Y126606D01*
X560055Y126606D01*
X560685Y127725D01*
X560684Y127733D01*
X560690Y127735D01*
X561055Y128965D01*
X561052Y128972D01*
X561056Y128975D01*
X561055Y128975D01*
X561057Y128976D01*
X561139Y130257D01*
X561137Y130261D01*
X561139Y130263D01*
X561057Y131544D01*
X561051Y131550D01*
X561055Y131555D01*
X560690Y132785D01*
X560683Y132790D01*
X560685Y132795D01*
X560055Y133914D01*
X560048Y133917D01*
X560049Y133923D01*
X559186Y134873D01*
X559178Y134874D01*
X559178Y134880D01*
X558125Y135614D01*
X558117Y135614D01*
X558115Y135619D01*
X556926Y136101D01*
X556918Y136099D01*
X556915Y136104D01*
X555648Y136309D01*
X555643Y136306D01*
X555640Y136309D01*
X543640Y136309D01*
X543636Y136306D01*
X543633Y136309D01*
X542353Y136114D01*
X542347Y136108D01*
X542343Y136111D01*
X541139Y135636D01*
X541134Y135629D01*
X541129Y135631D01*
X540061Y134900D01*
X540058Y134893D01*
X540052Y134893D01*
X539173Y133943D01*
X539173Y133935D01*
X539167Y133934D01*
X538522Y132813D01*
X538523Y132804D01*
X538517Y132802D01*
X538138Y131565D01*
X538138Y131563D01*
X538137Y131562D01*
X538140Y131558D01*
X538140Y131557D01*
X538136Y131554D01*
X538041Y130264D01*
X538044Y130259D01*
X538041Y130257D01*
X538108Y129126D01*
X538113Y129121D01*
X538109Y129117D01*
X538396Y128020D01*
X538402Y128016D01*
X538399Y128011D01*
X538894Y126992D01*
X538900Y126989D01*
X538899Y126984D01*
X539583Y126081D01*
X539590Y126079D01*
X539590Y126074D01*
X540437Y125321D01*
X540444Y125321D01*
X540445Y125316D01*
X541422Y124743D01*
X541429Y124744D01*
X541431Y124739D01*
X542502Y124368D01*
X542508Y124371D01*
X542511Y124366D01*
X543633Y124211D01*
X543638Y124214D01*
X543640Y124211D01*
X555640Y124211D01*
X555645Y124214D01*
G37*
G36*
X555645Y210614D02*
X555645Y210614D01*
X555648Y210611D01*
X556915Y210816D01*
X556921Y210822D01*
X556926Y210819D01*
X558115Y211301D01*
X558119Y211308D01*
X558125Y211306D01*
X559178Y212040D01*
X559180Y212048D01*
X559186Y212047D01*
X560049Y212997D01*
X560050Y213006D01*
X560055Y213006D01*
X560685Y214125D01*
X560684Y214133D01*
X560690Y214135D01*
X561055Y215365D01*
X561052Y215372D01*
X561056Y215375D01*
X561055Y215375D01*
X561057Y215376D01*
X561139Y216657D01*
X561137Y216661D01*
X561139Y216663D01*
X561057Y217944D01*
X561051Y217950D01*
X561055Y217955D01*
X560690Y219185D01*
X560683Y219190D01*
X560685Y219195D01*
X560055Y220314D01*
X560048Y220317D01*
X560049Y220323D01*
X559186Y221273D01*
X559178Y221274D01*
X559178Y221280D01*
X558125Y222014D01*
X558117Y222014D01*
X558115Y222019D01*
X556926Y222501D01*
X556918Y222499D01*
X556915Y222504D01*
X555648Y222709D01*
X555643Y222706D01*
X555640Y222709D01*
X543640Y222709D01*
X543636Y222706D01*
X543633Y222709D01*
X542353Y222514D01*
X542347Y222508D01*
X542343Y222511D01*
X541139Y222036D01*
X541134Y222029D01*
X541129Y222031D01*
X540061Y221300D01*
X540058Y221293D01*
X540052Y221293D01*
X539173Y220343D01*
X539173Y220335D01*
X539167Y220334D01*
X538522Y219213D01*
X538523Y219204D01*
X538517Y219202D01*
X538138Y217965D01*
X538138Y217963D01*
X538137Y217962D01*
X538140Y217959D01*
X538140Y217957D01*
X538136Y217954D01*
X538041Y216664D01*
X538044Y216659D01*
X538041Y216657D01*
X538108Y215526D01*
X538113Y215521D01*
X538109Y215517D01*
X538396Y214420D01*
X538402Y214416D01*
X538399Y214411D01*
X538894Y213392D01*
X538900Y213389D01*
X538899Y213384D01*
X539583Y212481D01*
X539590Y212479D01*
X539590Y212474D01*
X540437Y211721D01*
X540444Y211721D01*
X540445Y211716D01*
X541422Y211143D01*
X541429Y211144D01*
X541431Y211139D01*
X542502Y210768D01*
X542508Y210771D01*
X542511Y210766D01*
X543633Y210611D01*
X543638Y210614D01*
X543640Y210611D01*
X555640Y210611D01*
X555645Y210614D01*
G37*
G36*
X179804Y305205D02*
X179804Y305205D01*
X179806Y305204D01*
X179849Y305224D01*
X179893Y305242D01*
X179893Y305244D01*
X179895Y305245D01*
X179928Y305330D01*
X179928Y319332D01*
X179927Y319334D01*
X179928Y319336D01*
X179908Y319379D01*
X179890Y319423D01*
X179888Y319423D01*
X179887Y319425D01*
X179802Y319458D01*
X165800Y319458D01*
X165798Y319457D01*
X165796Y319458D01*
X165753Y319438D01*
X165709Y319420D01*
X165709Y319418D01*
X165707Y319417D01*
X165674Y319332D01*
X165674Y305330D01*
X165675Y305328D01*
X165674Y305326D01*
X165694Y305283D01*
X165712Y305239D01*
X165714Y305239D01*
X165715Y305237D01*
X165800Y305204D01*
X179802Y305204D01*
X179804Y305205D01*
G37*
G36*
X163802Y305205D02*
X163802Y305205D01*
X163804Y305204D01*
X163847Y305224D01*
X163891Y305242D01*
X163891Y305244D01*
X163893Y305245D01*
X163926Y305330D01*
X163926Y319332D01*
X163925Y319334D01*
X163926Y319336D01*
X163906Y319379D01*
X163888Y319423D01*
X163886Y319423D01*
X163885Y319425D01*
X163800Y319458D01*
X149798Y319458D01*
X149796Y319457D01*
X149794Y319458D01*
X149751Y319438D01*
X149707Y319420D01*
X149707Y319418D01*
X149705Y319417D01*
X149672Y319332D01*
X149672Y305330D01*
X149673Y305328D01*
X149672Y305326D01*
X149692Y305283D01*
X149710Y305239D01*
X149712Y305239D01*
X149713Y305237D01*
X149798Y305204D01*
X163800Y305204D01*
X163802Y305205D01*
G37*
G36*
X179804Y289203D02*
X179804Y289203D01*
X179806Y289202D01*
X179849Y289222D01*
X179893Y289240D01*
X179893Y289242D01*
X179895Y289243D01*
X179928Y289328D01*
X179928Y303330D01*
X179927Y303332D01*
X179928Y303334D01*
X179908Y303377D01*
X179890Y303421D01*
X179888Y303421D01*
X179887Y303423D01*
X179802Y303456D01*
X165800Y303456D01*
X165798Y303455D01*
X165796Y303456D01*
X165753Y303436D01*
X165709Y303418D01*
X165709Y303416D01*
X165707Y303415D01*
X165674Y303330D01*
X165674Y289328D01*
X165675Y289326D01*
X165674Y289324D01*
X165694Y289281D01*
X165712Y289237D01*
X165714Y289237D01*
X165715Y289235D01*
X165800Y289202D01*
X179802Y289202D01*
X179804Y289203D01*
G37*
G36*
X163802Y289203D02*
X163802Y289203D01*
X163804Y289202D01*
X163847Y289222D01*
X163891Y289240D01*
X163891Y289242D01*
X163893Y289243D01*
X163926Y289328D01*
X163926Y303330D01*
X163925Y303332D01*
X163926Y303334D01*
X163906Y303377D01*
X163888Y303421D01*
X163886Y303421D01*
X163885Y303423D01*
X163800Y303456D01*
X149798Y303456D01*
X149796Y303455D01*
X149794Y303456D01*
X149751Y303436D01*
X149707Y303418D01*
X149707Y303416D01*
X149705Y303415D01*
X149672Y303330D01*
X149672Y289328D01*
X149673Y289326D01*
X149672Y289324D01*
X149692Y289281D01*
X149710Y289237D01*
X149712Y289237D01*
X149713Y289235D01*
X149798Y289202D01*
X163800Y289202D01*
X163802Y289203D01*
G37*
G36*
X594444Y210613D02*
X594444Y210613D01*
X594446Y210611D01*
X595775Y210766D01*
X595781Y210772D01*
X595785Y210769D01*
X597046Y211216D01*
X597051Y211223D01*
X597056Y211221D01*
X598186Y211938D01*
X598189Y211945D01*
X598195Y211944D01*
X599137Y212895D01*
X599138Y212903D01*
X599144Y212903D01*
X599851Y214039D01*
X599851Y214044D01*
X599852Y214045D01*
X599851Y214047D01*
X599856Y214049D01*
X600292Y215314D01*
X600290Y215322D01*
X600295Y215325D01*
X600439Y216655D01*
X600435Y216661D01*
X600439Y216665D01*
X600329Y217831D01*
X600324Y217836D01*
X600327Y217840D01*
X599992Y218963D01*
X599986Y218967D01*
X599988Y218971D01*
X599440Y220007D01*
X599434Y220010D01*
X599435Y220015D01*
X598696Y220923D01*
X598689Y220925D01*
X598689Y220930D01*
X597787Y221677D01*
X597780Y221677D01*
X597779Y221683D01*
X596748Y222239D01*
X596741Y222238D01*
X596739Y222243D01*
X595620Y222587D01*
X595613Y222585D01*
X595610Y222589D01*
X594445Y222709D01*
X594442Y222707D01*
X594440Y222709D01*
X588440Y222709D01*
X588437Y222707D01*
X588435Y222709D01*
X587259Y222598D01*
X587254Y222593D01*
X587250Y222596D01*
X586118Y222258D01*
X586114Y222252D01*
X586109Y222254D01*
X585065Y221702D01*
X585062Y221695D01*
X585057Y221697D01*
X584141Y220951D01*
X584140Y220944D01*
X584134Y220944D01*
X583381Y220035D01*
X583381Y220027D01*
X583376Y220027D01*
X582815Y218987D01*
X582816Y218980D01*
X582811Y218978D01*
X582464Y217849D01*
X582466Y217843D01*
X582462Y217840D01*
X582341Y216665D01*
X582345Y216658D01*
X582341Y216654D01*
X582498Y215314D01*
X582503Y215308D01*
X582500Y215303D01*
X582951Y214032D01*
X582958Y214027D01*
X582956Y214022D01*
X583678Y212883D01*
X583686Y212880D01*
X583685Y212874D01*
X584643Y211924D01*
X584651Y211923D01*
X584652Y211917D01*
X585797Y211204D01*
X585806Y211205D01*
X585807Y211199D01*
X587083Y210759D01*
X587090Y210761D01*
X587092Y210759D01*
X587093Y210757D01*
X588435Y210611D01*
X588438Y210613D01*
X588440Y210611D01*
X594440Y210611D01*
X594444Y210613D01*
G37*
G36*
X594444Y124213D02*
X594444Y124213D01*
X594446Y124211D01*
X595775Y124366D01*
X595781Y124372D01*
X595785Y124369D01*
X597046Y124816D01*
X597051Y124823D01*
X597056Y124821D01*
X598186Y125538D01*
X598189Y125545D01*
X598195Y125544D01*
X599137Y126495D01*
X599138Y126503D01*
X599144Y126503D01*
X599851Y127639D01*
X599851Y127644D01*
X599852Y127645D01*
X599850Y127647D01*
X599856Y127649D01*
X600292Y128914D01*
X600290Y128922D01*
X600295Y128925D01*
X600439Y130255D01*
X600435Y130261D01*
X600439Y130265D01*
X600329Y131431D01*
X600324Y131436D01*
X600327Y131440D01*
X599992Y132563D01*
X599986Y132567D01*
X599988Y132571D01*
X599440Y133607D01*
X599434Y133610D01*
X599435Y133615D01*
X598696Y134523D01*
X598689Y134525D01*
X598689Y134530D01*
X597787Y135277D01*
X597780Y135277D01*
X597779Y135283D01*
X596748Y135839D01*
X596741Y135838D01*
X596739Y135843D01*
X595620Y136187D01*
X595613Y136185D01*
X595610Y136189D01*
X594445Y136309D01*
X594442Y136307D01*
X594440Y136309D01*
X588440Y136309D01*
X588437Y136307D01*
X588435Y136309D01*
X587259Y136198D01*
X587254Y136193D01*
X587250Y136196D01*
X586118Y135858D01*
X586114Y135852D01*
X586109Y135854D01*
X585065Y135302D01*
X585062Y135295D01*
X585057Y135297D01*
X584141Y134551D01*
X584140Y134544D01*
X584134Y134544D01*
X583381Y133635D01*
X583381Y133627D01*
X583376Y133627D01*
X582815Y132587D01*
X582816Y132580D01*
X582811Y132578D01*
X582464Y131449D01*
X582466Y131443D01*
X582462Y131440D01*
X582341Y130265D01*
X582345Y130258D01*
X582341Y130254D01*
X582498Y128914D01*
X582503Y128908D01*
X582500Y128903D01*
X582951Y127632D01*
X582958Y127627D01*
X582956Y127622D01*
X583678Y126483D01*
X583686Y126480D01*
X583685Y126474D01*
X584643Y125524D01*
X584651Y125523D01*
X584652Y125517D01*
X585797Y124804D01*
X585806Y124805D01*
X585807Y124799D01*
X587083Y124359D01*
X587090Y124361D01*
X587092Y124359D01*
X587093Y124357D01*
X588435Y124211D01*
X588438Y124213D01*
X588440Y124211D01*
X594440Y124211D01*
X594444Y124213D01*
G37*
G36*
X572922Y104785D02*
X572922Y104785D01*
X572924Y104784D01*
X572967Y104804D01*
X573011Y104822D01*
X573011Y104824D01*
X573013Y104825D01*
X573046Y104910D01*
X573046Y110410D01*
X573045Y110412D01*
X573046Y110414D01*
X573026Y110457D01*
X573008Y110501D01*
X573006Y110501D01*
X573005Y110503D01*
X572920Y110536D01*
X569920Y110536D01*
X569918Y110535D01*
X569916Y110536D01*
X569873Y110516D01*
X569829Y110498D01*
X569829Y110496D01*
X569827Y110495D01*
X569794Y110410D01*
X569794Y104910D01*
X569795Y104908D01*
X569794Y104906D01*
X569814Y104863D01*
X569832Y104819D01*
X569834Y104819D01*
X569835Y104817D01*
X569920Y104784D01*
X572920Y104784D01*
X572922Y104785D01*
G37*
G36*
X562922Y104785D02*
X562922Y104785D01*
X562924Y104784D01*
X562967Y104804D01*
X563011Y104822D01*
X563011Y104824D01*
X563013Y104825D01*
X563046Y104910D01*
X563046Y110410D01*
X563045Y110412D01*
X563046Y110414D01*
X563026Y110457D01*
X563008Y110501D01*
X563006Y110501D01*
X563005Y110503D01*
X562920Y110536D01*
X559920Y110536D01*
X559918Y110535D01*
X559916Y110536D01*
X559873Y110516D01*
X559829Y110498D01*
X559829Y110496D01*
X559827Y110495D01*
X559794Y110410D01*
X559794Y104910D01*
X559795Y104908D01*
X559794Y104906D01*
X559814Y104863D01*
X559832Y104819D01*
X559834Y104819D01*
X559835Y104817D01*
X559920Y104784D01*
X562920Y104784D01*
X562922Y104785D01*
G37*
G36*
X577922Y112985D02*
X577922Y112985D01*
X577924Y112984D01*
X577967Y113004D01*
X578011Y113022D01*
X578011Y113024D01*
X578013Y113025D01*
X578046Y113110D01*
X578046Y118610D01*
X578045Y118612D01*
X578046Y118614D01*
X578026Y118657D01*
X578008Y118701D01*
X578006Y118701D01*
X578005Y118703D01*
X577920Y118736D01*
X574920Y118736D01*
X574918Y118735D01*
X574916Y118736D01*
X574873Y118716D01*
X574829Y118698D01*
X574829Y118696D01*
X574827Y118695D01*
X574794Y118610D01*
X574794Y113110D01*
X574795Y113108D01*
X574794Y113106D01*
X574814Y113063D01*
X574832Y113019D01*
X574834Y113019D01*
X574835Y113017D01*
X574920Y112984D01*
X577920Y112984D01*
X577922Y112985D01*
G37*
G36*
X572922Y112985D02*
X572922Y112985D01*
X572924Y112984D01*
X572967Y113004D01*
X573011Y113022D01*
X573011Y113024D01*
X573013Y113025D01*
X573046Y113110D01*
X573046Y118610D01*
X573045Y118612D01*
X573046Y118614D01*
X573026Y118657D01*
X573008Y118701D01*
X573006Y118701D01*
X573005Y118703D01*
X572920Y118736D01*
X569920Y118736D01*
X569918Y118735D01*
X569916Y118736D01*
X569873Y118716D01*
X569829Y118698D01*
X569829Y118696D01*
X569827Y118695D01*
X569794Y118610D01*
X569794Y113110D01*
X569795Y113108D01*
X569794Y113106D01*
X569814Y113063D01*
X569832Y113019D01*
X569834Y113019D01*
X569835Y113017D01*
X569920Y112984D01*
X572920Y112984D01*
X572922Y112985D01*
G37*
G36*
X562922Y112985D02*
X562922Y112985D01*
X562924Y112984D01*
X562967Y113004D01*
X563011Y113022D01*
X563011Y113024D01*
X563013Y113025D01*
X563046Y113110D01*
X563046Y118610D01*
X563045Y118612D01*
X563046Y118614D01*
X563026Y118657D01*
X563008Y118701D01*
X563006Y118701D01*
X563005Y118703D01*
X562920Y118736D01*
X559920Y118736D01*
X559918Y118735D01*
X559916Y118736D01*
X559873Y118716D01*
X559829Y118698D01*
X559829Y118696D01*
X559827Y118695D01*
X559794Y118610D01*
X559794Y113110D01*
X559795Y113108D01*
X559794Y113106D01*
X559814Y113063D01*
X559832Y113019D01*
X559834Y113019D01*
X559835Y113017D01*
X559920Y112984D01*
X562920Y112984D01*
X562922Y112985D01*
G37*
G36*
X557922Y112985D02*
X557922Y112985D01*
X557924Y112984D01*
X557967Y113004D01*
X558011Y113022D01*
X558011Y113024D01*
X558013Y113025D01*
X558046Y113110D01*
X558046Y118610D01*
X558045Y118612D01*
X558046Y118614D01*
X558026Y118657D01*
X558008Y118701D01*
X558006Y118701D01*
X558005Y118703D01*
X557920Y118736D01*
X554920Y118736D01*
X554918Y118735D01*
X554916Y118736D01*
X554873Y118716D01*
X554829Y118698D01*
X554829Y118696D01*
X554827Y118695D01*
X554794Y118610D01*
X554794Y113110D01*
X554795Y113108D01*
X554794Y113106D01*
X554814Y113063D01*
X554832Y113019D01*
X554834Y113019D01*
X554835Y113017D01*
X554920Y112984D01*
X557920Y112984D01*
X557922Y112985D01*
G37*
G36*
X567922Y112985D02*
X567922Y112985D01*
X567924Y112984D01*
X567967Y113004D01*
X568011Y113022D01*
X568011Y113024D01*
X568013Y113025D01*
X568046Y113110D01*
X568046Y118610D01*
X568045Y118612D01*
X568046Y118614D01*
X568026Y118657D01*
X568008Y118701D01*
X568006Y118701D01*
X568005Y118703D01*
X567920Y118736D01*
X564920Y118736D01*
X564918Y118735D01*
X564916Y118736D01*
X564873Y118716D01*
X564829Y118698D01*
X564829Y118696D01*
X564827Y118695D01*
X564794Y118610D01*
X564794Y113110D01*
X564795Y113108D01*
X564794Y113106D01*
X564814Y113063D01*
X564832Y113019D01*
X564834Y113019D01*
X564835Y113017D01*
X564920Y112984D01*
X567920Y112984D01*
X567922Y112985D01*
G37*
G36*
X567922Y104785D02*
X567922Y104785D01*
X567924Y104784D01*
X567967Y104804D01*
X568011Y104822D01*
X568011Y104824D01*
X568013Y104825D01*
X568046Y104910D01*
X568046Y110410D01*
X568045Y110412D01*
X568046Y110414D01*
X568026Y110457D01*
X568008Y110501D01*
X568006Y110501D01*
X568005Y110503D01*
X567920Y110536D01*
X564920Y110536D01*
X564918Y110535D01*
X564916Y110536D01*
X564873Y110516D01*
X564829Y110498D01*
X564829Y110496D01*
X564827Y110495D01*
X564794Y110410D01*
X564794Y104910D01*
X564795Y104908D01*
X564794Y104906D01*
X564814Y104863D01*
X564832Y104819D01*
X564834Y104819D01*
X564835Y104817D01*
X564920Y104784D01*
X567920Y104784D01*
X567922Y104785D01*
G37*
G36*
X577922Y104785D02*
X577922Y104785D01*
X577924Y104784D01*
X577967Y104804D01*
X578011Y104822D01*
X578011Y104824D01*
X578013Y104825D01*
X578046Y104910D01*
X578046Y110410D01*
X578045Y110412D01*
X578046Y110414D01*
X578026Y110457D01*
X578008Y110501D01*
X578006Y110501D01*
X578005Y110503D01*
X577920Y110536D01*
X574920Y110536D01*
X574918Y110535D01*
X574916Y110536D01*
X574873Y110516D01*
X574829Y110498D01*
X574829Y110496D01*
X574827Y110495D01*
X574794Y110410D01*
X574794Y104910D01*
X574795Y104908D01*
X574794Y104906D01*
X574814Y104863D01*
X574832Y104819D01*
X574834Y104819D01*
X574835Y104817D01*
X574920Y104784D01*
X577920Y104784D01*
X577922Y104785D01*
G37*
G36*
X557922Y104785D02*
X557922Y104785D01*
X557924Y104784D01*
X557967Y104804D01*
X558011Y104822D01*
X558011Y104824D01*
X558013Y104825D01*
X558046Y104910D01*
X558046Y110410D01*
X558045Y110412D01*
X558046Y110414D01*
X558026Y110457D01*
X558008Y110501D01*
X558006Y110501D01*
X558005Y110503D01*
X557920Y110536D01*
X554920Y110536D01*
X554918Y110535D01*
X554916Y110536D01*
X554873Y110516D01*
X554829Y110498D01*
X554829Y110496D01*
X554827Y110495D01*
X554794Y110410D01*
X554794Y104910D01*
X554795Y104908D01*
X554794Y104906D01*
X554814Y104863D01*
X554832Y104819D01*
X554834Y104819D01*
X554835Y104817D01*
X554920Y104784D01*
X557920Y104784D01*
X557922Y104785D01*
G37*
G36*
X205280Y901512D02*
X205280Y901512D01*
X205281Y901512D01*
X207459Y903690D01*
X207459Y903694D01*
X207460Y903695D01*
X207176Y904288D01*
X207030Y904928D01*
X207030Y905584D01*
X207176Y906224D01*
X207460Y906817D01*
X207459Y906819D01*
X207459Y906820D01*
X207459Y906822D01*
X205281Y909000D01*
X205280Y909000D01*
X205279Y909000D01*
X205275Y909000D01*
X205275Y908999D01*
X205274Y908999D01*
X204561Y907861D01*
X204561Y907860D01*
X204560Y907860D01*
X204118Y906592D01*
X204118Y906591D01*
X204117Y906591D01*
X204117Y906590D01*
X204116Y906582D01*
X204116Y906578D01*
X204115Y906569D01*
X204114Y906565D01*
X204113Y906556D01*
X204113Y906552D01*
X204112Y906548D01*
X204111Y906539D01*
X204111Y906535D01*
X204110Y906527D01*
X204110Y906522D01*
X204109Y906518D01*
X204108Y906510D01*
X204108Y906505D01*
X204107Y906497D01*
X204106Y906493D01*
X204105Y906484D01*
X204105Y906480D01*
X204104Y906476D01*
X204103Y906467D01*
X204103Y906463D01*
X204102Y906454D01*
X204101Y906450D01*
X204101Y906446D01*
X204100Y906442D01*
X204100Y906437D01*
X204100Y906433D01*
X204099Y906425D01*
X204098Y906420D01*
X204097Y906412D01*
X204097Y906408D01*
X204096Y906403D01*
X204095Y906395D01*
X204095Y906391D01*
X204094Y906382D01*
X204093Y906378D01*
X204093Y906374D01*
X204092Y906369D01*
X204092Y906365D01*
X204091Y906361D01*
X204090Y906352D01*
X204090Y906348D01*
X204089Y906340D01*
X204089Y906335D01*
X204088Y906331D01*
X204087Y906323D01*
X204087Y906318D01*
X204086Y906310D01*
X204085Y906306D01*
X204085Y906301D01*
X204084Y906297D01*
X204084Y906293D01*
X204083Y906289D01*
X204082Y906280D01*
X204082Y906276D01*
X204081Y906267D01*
X204080Y906263D01*
X204080Y906259D01*
X204079Y906250D01*
X204079Y906246D01*
X204078Y906246D01*
X204079Y906246D01*
X204078Y906238D01*
X204077Y906233D01*
X204077Y906229D01*
X204076Y906225D01*
X204076Y906221D01*
X204075Y906216D01*
X204074Y906208D01*
X204074Y906204D01*
X204073Y906195D01*
X204072Y906191D01*
X204072Y906187D01*
X204071Y906178D01*
X204070Y906174D01*
X204069Y906165D01*
X204069Y906161D01*
X204068Y906153D01*
X204068Y906148D01*
X204067Y906148D01*
X204068Y906148D01*
X204067Y906144D01*
X204066Y906136D01*
X204066Y906131D01*
X204065Y906123D01*
X204064Y906119D01*
X204064Y906114D01*
X204063Y906106D01*
X204062Y906102D01*
X204061Y906093D01*
X204061Y906089D01*
X204060Y906080D01*
X204059Y906076D01*
X204059Y906072D01*
X204058Y906063D01*
X204057Y906059D01*
X204057Y906051D01*
X204056Y906051D01*
X204057Y906051D01*
X204056Y906046D01*
X204056Y906042D01*
X204055Y906034D01*
X204054Y906029D01*
X204053Y906021D01*
X204053Y906017D01*
X204052Y906008D01*
X204051Y906004D01*
X204051Y906000D01*
X204050Y905991D01*
X204049Y905987D01*
X204048Y905978D01*
X204048Y905974D01*
X204047Y905970D01*
X204046Y905961D01*
X204046Y905957D01*
X204045Y905949D01*
X204045Y905944D01*
X204044Y905936D01*
X204043Y905932D01*
X204043Y905927D01*
X204042Y905919D01*
X204041Y905915D01*
X204040Y905906D01*
X204040Y905902D01*
X204039Y905898D01*
X204038Y905889D01*
X204038Y905885D01*
X204037Y905876D01*
X204036Y905872D01*
X204035Y905864D01*
X204035Y905859D01*
X204035Y905855D01*
X204034Y905847D01*
X204033Y905842D01*
X204032Y905834D01*
X204032Y905830D01*
X204031Y905825D01*
X204030Y905817D01*
X204030Y905813D01*
X204029Y905804D01*
X204028Y905800D01*
X204027Y905791D01*
X204027Y905787D01*
X204026Y905783D01*
X204025Y905774D01*
X204025Y905770D01*
X204024Y905762D01*
X204024Y905757D01*
X204023Y905753D01*
X204022Y905745D01*
X204022Y905740D01*
X204021Y905732D01*
X204020Y905728D01*
X204019Y905719D01*
X204019Y905715D01*
X204018Y905711D01*
X204017Y905702D01*
X204017Y905698D01*
X204016Y905689D01*
X204015Y905685D01*
X204015Y905681D01*
X204014Y905672D01*
X204014Y905668D01*
X204013Y905668D01*
X204014Y905668D01*
X204013Y905660D01*
X204012Y905655D01*
X204011Y905647D01*
X204011Y905643D01*
X204010Y905638D01*
X204009Y905630D01*
X204009Y905626D01*
X204008Y905617D01*
X204007Y905613D01*
X204007Y905609D01*
X204006Y905600D01*
X204005Y905596D01*
X204004Y905587D01*
X204004Y905583D01*
X204003Y905575D01*
X204003Y905570D01*
X204002Y905570D01*
X204003Y905570D01*
X204002Y905566D01*
X204001Y905558D01*
X204001Y905553D01*
X204000Y905545D01*
X203999Y905541D01*
X203999Y905536D01*
X203998Y905532D01*
X203998Y905528D01*
X203997Y905524D01*
X203996Y905515D01*
X203996Y905511D01*
X203995Y905502D01*
X203994Y905498D01*
X203994Y905494D01*
X203993Y905485D01*
X203992Y905481D01*
X203992Y905473D01*
X203991Y905473D01*
X203992Y905473D01*
X203991Y905468D01*
X203991Y905464D01*
X203990Y905460D01*
X203990Y905456D01*
X203989Y905451D01*
X203988Y905443D01*
X203988Y905439D01*
X203987Y905430D01*
X203986Y905426D01*
X203986Y905422D01*
X203985Y905413D01*
X203984Y905409D01*
X203983Y905400D01*
X203983Y905396D01*
X203982Y905392D01*
X203982Y905388D01*
X203981Y905383D01*
X203981Y905379D01*
X203980Y905371D01*
X203980Y905366D01*
X203979Y905358D01*
X203978Y905354D01*
X203978Y905349D01*
X203977Y905341D01*
X203976Y905337D01*
X203975Y905328D01*
X203975Y905324D01*
X203974Y905320D01*
X203974Y905315D01*
X203973Y905311D01*
X203973Y905307D01*
X203972Y905298D01*
X203971Y905294D01*
X203970Y905286D01*
X203970Y905281D01*
X203970Y905277D01*
X203969Y905269D01*
X203968Y905264D01*
X203967Y905256D01*
X204117Y903921D01*
X204118Y903920D01*
X204560Y902652D01*
X204561Y902652D01*
X204561Y902651D01*
X205274Y901513D01*
X205276Y901513D01*
X205279Y901512D01*
X205280Y901512D01*
G37*
G36*
X211414Y899294D02*
X211414Y899294D01*
X211415Y899295D01*
X212683Y899737D01*
X212683Y899738D01*
X212684Y899738D01*
X213822Y900451D01*
X213822Y900453D01*
X213823Y900457D01*
X213823Y900458D01*
X211645Y902636D01*
X211641Y902636D01*
X211640Y902637D01*
X211047Y902353D01*
X210407Y902207D01*
X209751Y902207D01*
X209111Y902353D01*
X208518Y902637D01*
X208515Y902636D01*
X208513Y902636D01*
X206335Y900458D01*
X206335Y900457D01*
X206335Y900456D01*
X206335Y900452D01*
X206336Y900452D01*
X206336Y900451D01*
X207474Y899738D01*
X207475Y899738D01*
X207475Y899737D01*
X208743Y899295D01*
X208744Y899295D01*
X208744Y899294D01*
X210079Y899144D01*
X210079Y899145D01*
X210079Y899144D01*
X211414Y899294D01*
G37*
G36*
X211643Y907876D02*
X211643Y907876D01*
X211645Y907876D01*
X213823Y910054D01*
X213823Y910055D01*
X213823Y910056D01*
X213823Y910060D01*
X213822Y910060D01*
X213822Y910061D01*
X212684Y910774D01*
X212683Y910774D01*
X212683Y910775D01*
X211415Y911217D01*
X211414Y911217D01*
X211414Y911218D01*
X210079Y911368D01*
X210079Y911367D01*
X210079Y911368D01*
X208744Y911218D01*
X208743Y911217D01*
X207475Y910775D01*
X207475Y910774D01*
X207474Y910774D01*
X206336Y910061D01*
X206336Y910059D01*
X206335Y910055D01*
X206335Y910054D01*
X208513Y907876D01*
X208517Y907876D01*
X208518Y907876D01*
X209111Y908159D01*
X209751Y908305D01*
X210407Y908305D01*
X211047Y908159D01*
X211640Y907876D01*
X211643Y907876D01*
G37*
G36*
X214883Y901513D02*
X214883Y901513D01*
X214884Y901513D01*
X215597Y902651D01*
X215597Y902652D01*
X215598Y902652D01*
X216040Y903920D01*
X216041Y903920D01*
X216040Y903921D01*
X216041Y903921D01*
X216041Y903925D01*
X216042Y903929D01*
X216042Y903933D01*
X216043Y903937D01*
X216043Y903946D01*
X216044Y903946D01*
X216043Y903946D01*
X216044Y903950D01*
X216045Y903959D01*
X216045Y903963D01*
X216046Y903967D01*
X216047Y903976D01*
X216047Y903980D01*
X216048Y903988D01*
X216049Y903993D01*
X216049Y903997D01*
X216050Y904001D01*
X216050Y904005D01*
X216051Y904010D01*
X216052Y904018D01*
X216052Y904022D01*
X216053Y904031D01*
X216054Y904035D01*
X216054Y904039D01*
X216055Y904048D01*
X216055Y904052D01*
X216056Y904061D01*
X216057Y904065D01*
X216058Y904073D01*
X216058Y904078D01*
X216059Y904082D01*
X216060Y904090D01*
X216060Y904095D01*
X216061Y904103D01*
X216062Y904107D01*
X216062Y904112D01*
X216063Y904120D01*
X216064Y904124D01*
X216065Y904133D01*
X216065Y904137D01*
X216066Y904146D01*
X216066Y904150D01*
X216067Y904154D01*
X216068Y904163D01*
X216068Y904167D01*
X216069Y904175D01*
X216070Y904180D01*
X216070Y904184D01*
X216071Y904192D01*
X216072Y904197D01*
X216073Y904205D01*
X216073Y904209D01*
X216074Y904218D01*
X216075Y904222D01*
X216075Y904226D01*
X216076Y904235D01*
X216076Y904239D01*
X216077Y904248D01*
X216078Y904252D01*
X216078Y904256D01*
X216079Y904265D01*
X216080Y904269D01*
X216081Y904277D01*
X216081Y904282D01*
X216082Y904290D01*
X216083Y904294D01*
X216083Y904299D01*
X216084Y904307D01*
X216085Y904311D01*
X216086Y904320D01*
X216086Y904324D01*
X216086Y904328D01*
X216087Y904328D01*
X216087Y904337D01*
X216088Y904341D01*
X216089Y904350D01*
X216089Y904354D01*
X216090Y904362D01*
X216091Y904367D01*
X216091Y904371D01*
X216092Y904379D01*
X216093Y904384D01*
X216094Y904392D01*
X216094Y904396D01*
X216095Y904401D01*
X216096Y904409D01*
X216096Y904413D01*
X216097Y904422D01*
X216097Y904426D01*
X216098Y904426D01*
X216097Y904426D01*
X216098Y904435D01*
X216099Y904439D01*
X216099Y904443D01*
X216100Y904452D01*
X216101Y904456D01*
X216102Y904464D01*
X216102Y904469D01*
X216103Y904473D01*
X216104Y904481D01*
X216104Y904486D01*
X216105Y904494D01*
X216106Y904498D01*
X216107Y904507D01*
X216107Y904511D01*
X216108Y904515D01*
X216108Y904524D01*
X216109Y904524D01*
X216108Y904524D01*
X216109Y904528D01*
X216110Y904537D01*
X216110Y904541D01*
X216111Y904545D01*
X216112Y904554D01*
X216112Y904558D01*
X216113Y904566D01*
X216114Y904571D01*
X216115Y904579D01*
X216115Y904583D01*
X216116Y904588D01*
X216117Y904596D01*
X216117Y904600D01*
X216118Y904609D01*
X216119Y904613D01*
X216119Y904617D01*
X216120Y904626D01*
X216120Y904630D01*
X216121Y904639D01*
X216122Y904643D01*
X216123Y904651D01*
X216123Y904656D01*
X216124Y904660D01*
X216125Y904668D01*
X216125Y904673D01*
X216126Y904681D01*
X216127Y904685D01*
X216127Y904690D01*
X216128Y904694D01*
X216128Y904698D01*
X216129Y904702D01*
X216130Y904711D01*
X216130Y904715D01*
X216131Y904724D01*
X216131Y904728D01*
X216132Y904732D01*
X216133Y904741D01*
X216133Y904745D01*
X216134Y904753D01*
X216135Y904758D01*
X216135Y904762D01*
X216136Y904766D01*
X216136Y904770D01*
X216137Y904775D01*
X216138Y904783D01*
X216138Y904787D01*
X216139Y904796D01*
X216140Y904800D01*
X216140Y904804D01*
X216141Y904813D01*
X216141Y904817D01*
X216142Y904826D01*
X216143Y904830D01*
X216143Y904834D01*
X216144Y904838D01*
X216144Y904843D01*
X216145Y904847D01*
X216146Y904855D01*
X216146Y904860D01*
X216147Y904868D01*
X216148Y904872D01*
X216148Y904877D01*
X216149Y904885D01*
X216150Y904889D01*
X216151Y904898D01*
X216151Y904902D01*
X216151Y904906D01*
X216152Y904906D01*
X216152Y904911D01*
X216152Y904915D01*
X216153Y904919D01*
X216154Y904928D01*
X216154Y904932D01*
X216155Y904940D01*
X216156Y904945D01*
X216156Y904949D01*
X216157Y904957D01*
X216158Y904962D01*
X216159Y904970D01*
X216159Y904974D01*
X216160Y904983D01*
X216161Y904987D01*
X216161Y904991D01*
X216162Y905000D01*
X216162Y905004D01*
X216163Y905004D01*
X216162Y905004D01*
X216163Y905013D01*
X216164Y905017D01*
X216164Y905021D01*
X216165Y905030D01*
X216166Y905034D01*
X216167Y905042D01*
X216167Y905047D01*
X216168Y905055D01*
X216169Y905059D01*
X216169Y905064D01*
X216170Y905072D01*
X216171Y905076D01*
X216172Y905085D01*
X216172Y905089D01*
X216173Y905093D01*
X216173Y905102D01*
X216174Y905102D01*
X216173Y905102D01*
X216174Y905106D01*
X216175Y905115D01*
X216175Y905119D01*
X216176Y905127D01*
X216177Y905132D01*
X216177Y905136D01*
X216178Y905144D01*
X216179Y905149D01*
X216180Y905157D01*
X216180Y905161D01*
X216181Y905166D01*
X216182Y905174D01*
X216182Y905178D01*
X216183Y905187D01*
X216184Y905191D01*
X216184Y905200D01*
X216185Y905200D01*
X216184Y905200D01*
X216185Y905204D01*
X216185Y905208D01*
X216186Y905217D01*
X216187Y905221D01*
X216188Y905229D01*
X216188Y905234D01*
X216189Y905238D01*
X216190Y905246D01*
X216190Y905251D01*
X216191Y905256D01*
X216190Y905256D01*
X216191Y905256D01*
X216041Y906591D01*
X216040Y906592D01*
X215598Y907860D01*
X215597Y907860D01*
X215597Y907861D01*
X214884Y908999D01*
X214882Y908999D01*
X214878Y909000D01*
X214877Y909000D01*
X212699Y906822D01*
X212699Y906820D01*
X212699Y906818D01*
X212699Y906817D01*
X212982Y906224D01*
X213128Y905584D01*
X213128Y904928D01*
X212982Y904288D01*
X212699Y903695D01*
X212699Y903692D01*
X212699Y903690D01*
X214877Y901512D01*
X214878Y901512D01*
X214879Y901512D01*
X214883Y901512D01*
X214883Y901513D01*
G37*
D10*
X352674Y309990D03*
X362366Y309990D03*
D11*
X302195Y123790D03*
X302195Y133482D03*
X289648Y123853D03*
X289648Y133545D03*
X277152Y123799D03*
X277152Y133491D03*
X264529Y123872D03*
X264529Y133564D03*
X251979Y123730D03*
X251979Y133422D03*
X239460Y123764D03*
X239460Y133456D03*
X302732Y164298D03*
X302732Y154606D03*
X352780Y123865D03*
X352780Y133557D03*
D12*
X302094Y179718D03*
X302094Y195210D03*
D10*
X471934Y214108D03*
X481626Y214108D03*
X319276Y354266D03*
X309584Y354266D03*
X481629Y228701D03*
X471937Y228701D03*
X451368Y299100D03*
X461060Y299100D03*
X452724Y214080D03*
X462416Y214080D03*
X525926Y133510D03*
X516234Y133510D03*
X353174Y292430D03*
X362866Y292430D03*
D11*
X340046Y123879D03*
X340046Y133571D03*
D13*
X335770Y383870D03*
X335770Y411870D03*
D11*
X327439Y123952D03*
X327439Y133644D03*
X314819Y123944D03*
X314819Y133636D03*
D14*
X313692Y906872D02*
X306692Y906872D01*
X313692Y906872D02*
X313692Y899872D01*
X306692Y899872D01*
X306692Y906872D01*
X306692Y902722D02*
X313692Y902722D01*
X313692Y905572D02*
X306692Y905572D01*
X306692Y924412D02*
X313692Y924412D01*
X313692Y917412D01*
X306692Y917412D01*
X306692Y924412D01*
X306692Y920262D02*
X313692Y920262D01*
X313692Y923112D02*
X306692Y923112D01*
D15*
X235590Y158260D03*
X235590Y193260D03*
X272080Y193120D03*
X272080Y158120D03*
X332140Y158060D03*
X332140Y193060D03*
D14*
X331484Y242159D02*
X338484Y242159D01*
X338484Y235159D01*
X331484Y235159D01*
X331484Y242159D01*
X331484Y238009D02*
X338484Y238009D01*
X338484Y240859D02*
X331484Y240859D01*
X331484Y259699D02*
X338484Y259699D01*
X338484Y252699D01*
X331484Y252699D01*
X331484Y259699D01*
X331484Y255549D02*
X338484Y255549D01*
X338484Y258399D02*
X331484Y258399D01*
X310590Y242286D02*
X303590Y242286D01*
X310590Y242286D02*
X310590Y235286D01*
X303590Y235286D01*
X303590Y242286D01*
X303590Y238136D02*
X310590Y238136D01*
X310590Y240986D02*
X303590Y240986D01*
X303590Y259826D02*
X310590Y259826D01*
X310590Y252826D01*
X303590Y252826D01*
X303590Y259826D01*
X303590Y255676D02*
X310590Y255676D01*
X310590Y258526D02*
X303590Y258526D01*
D16*
X540440Y180960D03*
X540440Y175960D03*
D17*
X540440Y205710D03*
D18*
X540440Y197960D03*
D16*
X540440Y190960D03*
X540440Y185960D03*
X540440Y165960D03*
X540440Y170960D03*
D17*
X540440Y141210D03*
D18*
X540440Y148960D03*
D16*
X540440Y155960D03*
X540440Y160960D03*
D19*
X475040Y120020D03*
X455040Y120020D03*
D20*
X499040Y68020D03*
X431040Y68020D03*
D21*
X304746Y296006D03*
X304746Y328006D03*
D22*
X416530Y178150D03*
X361930Y178150D03*
D23*
X426000Y377040D03*
X426000Y398040D03*
X364020Y417140D03*
X364020Y438140D03*
D14*
X296160Y917148D02*
X289160Y917148D01*
X289160Y924148D01*
X296160Y924148D01*
X296160Y917148D01*
X296160Y919998D02*
X289160Y919998D01*
X289160Y922848D02*
X296160Y922848D01*
X296160Y899608D02*
X289160Y899608D01*
X289160Y906608D01*
X296160Y906608D01*
X296160Y899608D01*
X296160Y902458D02*
X289160Y902458D01*
X289160Y905308D02*
X296160Y905308D01*
D24*
X487740Y415810D03*
X487740Y253810D03*
D25*
X382070Y133750D03*
X382070Y120750D03*
X403070Y127250D03*
D26*
X426100Y326385D03*
X426100Y316235D03*
X310176Y887133D03*
X310176Y876983D03*
D27*
X362145Y143510D03*
X372295Y143510D03*
D28*
X495624Y196890D03*
X495624Y168890D03*
D27*
X538325Y65150D03*
X548475Y65150D03*
D26*
X366606Y517085D03*
X366606Y527235D03*
X353398Y516831D03*
X353398Y526981D03*
X426100Y363375D03*
X426100Y353225D03*
X439728Y410511D03*
X439728Y420661D03*
X348329Y242715D03*
X348329Y252865D03*
X320686Y242626D03*
X320686Y252776D03*
D27*
X451549Y285962D03*
X461699Y285962D03*
X451753Y242680D03*
X441603Y242680D03*
X387195Y400800D03*
X377045Y400800D03*
X443496Y213815D03*
X433346Y213815D03*
D26*
X397940Y385465D03*
X397940Y395615D03*
X379820Y422165D03*
X379820Y432315D03*
D27*
X433353Y228749D03*
X443503Y228749D03*
D26*
X366960Y251715D03*
X366960Y241565D03*
X292733Y887106D03*
X292733Y876956D03*
X365407Y133696D03*
X365407Y123546D03*
D29*
X245116Y475650D03*
X245116Y506450D03*
X249116Y475650D03*
X249116Y506450D03*
X253116Y475650D03*
X253116Y506450D03*
X257116Y475650D03*
X257116Y506450D03*
X261116Y475650D03*
X261116Y506450D03*
X265116Y475650D03*
X265116Y506450D03*
X269116Y475650D03*
X269116Y506450D03*
X273116Y475650D03*
X273116Y506450D03*
X277116Y475650D03*
X277116Y506450D03*
X281116Y475650D03*
X281116Y506450D03*
X285116Y475650D03*
X285116Y506450D03*
X289116Y475650D03*
X289116Y506450D03*
X293116Y475650D03*
X293116Y506450D03*
X297116Y475650D03*
X297116Y506450D03*
X301116Y475650D03*
X301116Y506450D03*
X305116Y475650D03*
X305116Y506450D03*
X309116Y475650D03*
X309116Y506450D03*
X313116Y475650D03*
X313116Y506450D03*
X317116Y475650D03*
X317116Y506450D03*
X321116Y475650D03*
X321116Y506450D03*
X325116Y475650D03*
X325116Y506450D03*
X329116Y475650D03*
X329116Y506450D03*
X333116Y475650D03*
X333116Y506450D03*
X337116Y475650D03*
X337116Y506450D03*
X341116Y475650D03*
X341116Y506450D03*
X345116Y475650D03*
X345116Y506450D03*
X349116Y475650D03*
X349116Y506450D03*
X353116Y475650D03*
X353116Y506450D03*
X357116Y475650D03*
X357116Y506450D03*
X361116Y475650D03*
X361116Y506450D03*
X365116Y475650D03*
X365116Y506450D03*
X369116Y475650D03*
X369116Y506450D03*
X373116Y475650D03*
X373116Y506450D03*
X377116Y475650D03*
X377116Y506450D03*
X381116Y475650D03*
X381116Y506450D03*
X385116Y475650D03*
X385116Y506450D03*
X389116Y475650D03*
X389116Y506450D03*
X393116Y475650D03*
X393116Y506450D03*
X397116Y475650D03*
X397116Y506450D03*
X401116Y475650D03*
X401116Y506450D03*
X405116Y475650D03*
X405116Y506450D03*
X409116Y475650D03*
X409116Y506450D03*
X413116Y475650D03*
X413116Y506450D03*
X417116Y475650D03*
X417116Y506450D03*
X421116Y475650D03*
X421116Y506450D03*
X425116Y475650D03*
X425116Y506450D03*
X429116Y475650D03*
X429116Y506450D03*
X433116Y475650D03*
X433116Y506450D03*
X437116Y475650D03*
X437116Y506450D03*
X441116Y475650D03*
X441116Y506450D03*
X245116Y815650D03*
X245116Y846450D03*
X249116Y815650D03*
X249116Y846450D03*
X253116Y815650D03*
X253116Y846450D03*
X257116Y815650D03*
X257116Y846450D03*
X261116Y815650D03*
X261116Y846450D03*
X265116Y815650D03*
X265116Y846450D03*
X269116Y815650D03*
X269116Y846450D03*
X273116Y815650D03*
X273116Y846450D03*
X277116Y815650D03*
X277116Y846450D03*
X281116Y815650D03*
X281116Y846450D03*
X285116Y815650D03*
X285116Y846450D03*
X289116Y815650D03*
X289116Y846450D03*
X293116Y815650D03*
X293116Y846450D03*
X297116Y815650D03*
X297116Y846450D03*
X301116Y815650D03*
X301116Y846450D03*
X305116Y815650D03*
X305116Y846450D03*
X309116Y815650D03*
X309116Y846450D03*
X313116Y815650D03*
X313116Y846450D03*
X317116Y815650D03*
X317116Y846450D03*
X321116Y815650D03*
X321116Y846450D03*
X325116Y815650D03*
X325116Y846450D03*
X329116Y815650D03*
X329116Y846450D03*
X333116Y815650D03*
X333116Y846450D03*
X337116Y815650D03*
X337116Y846450D03*
X341116Y815650D03*
X341116Y846450D03*
X345116Y815650D03*
X345116Y846450D03*
X349116Y815650D03*
X349116Y846450D03*
X353116Y815650D03*
X353116Y846450D03*
X357116Y815650D03*
X357116Y846450D03*
X361116Y815650D03*
X361116Y846450D03*
X365116Y815650D03*
X365116Y846450D03*
X369116Y815650D03*
X369116Y846450D03*
X373116Y815650D03*
X373116Y846450D03*
X377116Y815650D03*
X377116Y846450D03*
X381116Y815650D03*
X381116Y846450D03*
X385116Y815650D03*
X385116Y846450D03*
X389116Y815650D03*
X389116Y846450D03*
X393116Y815650D03*
X393116Y846450D03*
X397116Y815650D03*
X397116Y846450D03*
X401116Y815650D03*
X401116Y846450D03*
X405116Y815650D03*
X405116Y846450D03*
X409116Y815650D03*
X409116Y846450D03*
X413116Y815650D03*
X413116Y846450D03*
X417116Y815650D03*
X417116Y846450D03*
X421116Y815650D03*
X421116Y846450D03*
X425116Y815650D03*
X425116Y846450D03*
X429116Y815650D03*
X429116Y846450D03*
X433116Y815650D03*
X433116Y846450D03*
X437116Y815650D03*
X437116Y846450D03*
X441116Y815650D03*
X441116Y846450D03*
D30*
X406902Y437561D03*
X416402Y413561D03*
X397402Y413561D03*
D31*
X366980Y363790D02*
X359980Y363790D01*
X359980Y357290D02*
X366980Y357290D01*
X366980Y350790D02*
X359980Y350790D01*
X359980Y344290D02*
X366980Y344290D01*
X374730Y336540D02*
X374730Y329540D01*
X381230Y329540D02*
X381230Y336540D01*
X387730Y336540D02*
X387730Y329540D01*
X394230Y329540D02*
X394230Y336540D01*
X401980Y344290D02*
X408980Y344290D01*
X408980Y350790D02*
X401980Y350790D01*
X401980Y357290D02*
X408980Y357290D01*
X408980Y363790D02*
X401980Y363790D01*
X394230Y371540D02*
X394230Y378540D01*
X387730Y378540D02*
X387730Y371540D01*
X381230Y371540D02*
X381230Y378540D01*
X374730Y378540D02*
X374730Y371540D01*
D32*
X384480Y363540D03*
X384480Y344540D03*
D33*
X374980Y354040D03*
X393980Y354040D03*
D34*
X346113Y905035D03*
X346113Y911639D03*
X346113Y918243D03*
X325793Y918243D03*
X325793Y905035D03*
D35*
X456162Y187996D03*
X466162Y175996D03*
X466162Y187996D03*
X456162Y175996D03*
D36*
X447537Y192996D03*
X474787Y170996D03*
X474787Y192996D03*
X447537Y170996D03*
D37*
X463162Y201746D03*
X467162Y201746D03*
X467162Y201746D03*
X471162Y201746D03*
X459162Y201746D03*
X455162Y201746D03*
X451162Y201746D03*
X451162Y162246D03*
X455162Y162246D03*
X459162Y162246D03*
X463162Y162246D03*
X467162Y162246D03*
X471162Y162246D03*
D38*
X435260Y255780D03*
X435260Y260780D03*
X435260Y265780D03*
X435260Y270780D03*
D39*
X428010Y278030D03*
X423010Y278030D03*
X418010Y278030D03*
X413010Y278030D03*
D38*
X405760Y270780D03*
X405760Y265780D03*
X405760Y260780D03*
X405760Y255780D03*
D39*
X413010Y248530D03*
X418010Y248530D03*
X423010Y248530D03*
X428010Y248530D03*
D40*
X416010Y267780D03*
X425010Y258780D03*
X416010Y258780D03*
X425010Y267780D03*
D41*
X252500Y108180D03*
X257500Y108180D03*
X262500Y108180D03*
X267500Y108180D03*
X272500Y108180D03*
X277500Y108180D03*
X282500Y108180D03*
X287500Y108180D03*
X292500Y108180D03*
X297500Y108180D03*
X302500Y108180D03*
X307500Y108180D03*
X312500Y108180D03*
X317500Y108180D03*
X322500Y108180D03*
X327500Y108180D03*
X332500Y108180D03*
X337500Y108180D03*
X342500Y108180D03*
X347500Y108180D03*
X352500Y108180D03*
X357500Y108180D03*
X362500Y108180D03*
X367500Y108180D03*
D42*
X233500Y88930D03*
X386500Y88930D03*
D43*
X101466Y96280D03*
X106466Y96280D03*
X111466Y96280D03*
X116466Y96280D03*
X121466Y96280D03*
X126466Y96280D03*
X131466Y96280D03*
X136466Y96280D03*
D44*
X143966Y103780D03*
X143966Y108780D03*
X143966Y113780D03*
X143966Y118780D03*
X143966Y123780D03*
X143966Y128780D03*
X143966Y133780D03*
X143966Y138780D03*
D43*
X136466Y146280D03*
X131466Y146280D03*
X126466Y146280D03*
X121466Y146280D03*
X116466Y146280D03*
X111466Y146280D03*
X106466Y146280D03*
X101466Y146280D03*
D44*
X93966Y138780D03*
X93966Y133780D03*
X93966Y128780D03*
X93966Y123780D03*
X93966Y118780D03*
X93966Y113780D03*
X93966Y108780D03*
X93966Y103780D03*
D45*
X127221Y113025D03*
X110711Y129535D03*
X110711Y113025D03*
X127221Y129535D03*
D10*
X85486Y114460D03*
X75794Y114460D03*
D11*
X106520Y84216D03*
X106520Y74524D03*
D46*
X172434Y106216D03*
X172434Y128216D03*
X188434Y106216D03*
X188434Y128216D03*
D10*
X85242Y129253D03*
X75550Y129253D03*
D11*
X92550Y84216D03*
X92550Y74524D03*
X204602Y111453D03*
X204602Y121145D03*
D10*
X233606Y879734D03*
X223914Y879734D03*
D11*
X248290Y917816D03*
X248290Y908124D03*
X265816Y908124D03*
X265816Y917816D03*
X265816Y883994D03*
X265816Y893686D03*
D10*
X85486Y99220D03*
X75794Y99220D03*
X504050Y444368D03*
X494358Y444368D03*
X502145Y228722D03*
X492453Y228722D03*
X27826Y121290D03*
X37518Y121290D03*
X27760Y176779D03*
X37452Y176779D03*
D47*
X258694Y328431D03*
X252194Y328431D03*
X245694Y328431D03*
X239194Y328431D03*
X239194Y288553D03*
X245694Y288553D03*
X252194Y288553D03*
X258694Y288553D03*
D48*
X255520Y425620D03*
D49*
X289020Y369620D03*
X289020Y444120D03*
D48*
X255520Y413120D03*
X255520Y400620D03*
X255520Y388120D03*
D27*
X245759Y274192D03*
X255909Y274192D03*
D12*
X229742Y399540D03*
X229742Y384048D03*
D11*
X94870Y159874D03*
X94870Y169566D03*
X107570Y159874D03*
X107570Y169566D03*
D50*
X31399Y157850D03*
X31399Y148350D03*
X31399Y138850D03*
X57401Y138850D03*
X57401Y157850D03*
D11*
X120143Y159874D03*
X120143Y169566D03*
D10*
X72498Y176910D03*
X82190Y176910D03*
X28048Y193420D03*
X37740Y193420D03*
X28048Y205866D03*
X37740Y205866D03*
X72498Y157860D03*
X82190Y157860D03*
D51*
X130764Y330330D03*
X130764Y326330D03*
X130764Y322330D03*
X130764Y318330D03*
X130764Y314330D03*
X130764Y310330D03*
X130764Y306330D03*
X130764Y302330D03*
X130764Y298330D03*
X130764Y294330D03*
X130764Y290330D03*
X130764Y286330D03*
X130764Y282330D03*
X130764Y278330D03*
D52*
X138800Y270294D03*
X142800Y270294D03*
X146800Y270294D03*
X150800Y270294D03*
X154800Y270294D03*
X158800Y270294D03*
X162800Y270294D03*
X166800Y270294D03*
X170800Y270294D03*
X174800Y270294D03*
X178800Y270294D03*
X182800Y270294D03*
X186800Y270294D03*
X190800Y270294D03*
D51*
X198836Y278330D03*
X198836Y282330D03*
X198836Y286330D03*
X198836Y290330D03*
X198836Y294330D03*
X198836Y298330D03*
X198836Y302330D03*
X198836Y306330D03*
X198836Y310330D03*
X198836Y314330D03*
X198836Y318330D03*
X198836Y322330D03*
X198836Y326330D03*
X198836Y330330D03*
D52*
X190800Y338366D03*
X186800Y338366D03*
X182800Y338366D03*
X178800Y338366D03*
X174800Y338366D03*
X170800Y338366D03*
X166800Y338366D03*
X162800Y338366D03*
X158800Y338366D03*
X154800Y338366D03*
X150800Y338366D03*
X146800Y338366D03*
X142800Y338366D03*
X138800Y338366D03*
D11*
X186056Y357740D03*
X186056Y367432D03*
X147956Y357740D03*
X147956Y367432D03*
D10*
X138792Y212978D03*
X148484Y212978D03*
X211436Y329056D03*
X221128Y329056D03*
X180956Y377316D03*
X190648Y377316D03*
D11*
X193547Y257575D03*
X193547Y247883D03*
X198629Y357740D03*
X198629Y367432D03*
D26*
X160654Y367651D03*
X160654Y357501D03*
X173354Y367651D03*
X173354Y357501D03*
D11*
X211202Y357613D03*
X211202Y367305D03*
X206120Y257575D03*
X206120Y247883D03*
D53*
X233056Y234141D03*
X242556Y234141D03*
X252056Y234141D03*
X252056Y260143D03*
X233056Y260143D03*
D10*
X233280Y219074D03*
X242972Y219074D03*
X211690Y282574D03*
X221382Y282574D03*
D26*
X135256Y374791D03*
X135256Y384941D03*
D54*
X140804Y232412D03*
X163804Y232412D03*
X163804Y249912D03*
X140804Y249912D03*
D11*
X126366Y229978D03*
X126366Y239670D03*
X178944Y229470D03*
X178944Y239162D03*
D26*
X179196Y256907D03*
X179196Y246757D03*
D27*
X519825Y65150D03*
X529975Y65150D03*
X37705Y754000D03*
X27555Y754000D03*
X24525Y583310D03*
X34675Y583310D03*
D26*
X557150Y545225D03*
X557150Y555375D03*
D14*
X281122Y242380D02*
X274122Y242380D01*
X281122Y242380D02*
X281122Y235380D01*
X274122Y235380D01*
X274122Y242380D01*
X274122Y238230D02*
X281122Y238230D01*
X281122Y241080D02*
X274122Y241080D01*
X274122Y259920D02*
X281122Y259920D01*
X281122Y252920D01*
X274122Y252920D01*
X274122Y259920D01*
X274122Y255770D02*
X281122Y255770D01*
X281122Y258620D02*
X274122Y258620D01*
D26*
X293116Y242575D03*
X293116Y252725D03*
D55*
X231109Y905256D03*
D56*
X231109Y914916D03*
D57*
X203739Y915406D03*
X203739Y895106D03*
D56*
X231109Y895596D03*
D58*
X40270Y731740D03*
X40270Y695740D03*
X25770Y731740D03*
X25770Y695740D03*
X40270Y561560D03*
X40270Y525560D03*
X25770Y561560D03*
X25770Y525560D03*
X579617Y529624D03*
X579617Y565624D03*
X594117Y529624D03*
X594117Y565624D03*
D30*
X566420Y69010D03*
X556920Y91010D03*
X575920Y91010D03*
D10*
X452608Y228600D03*
X462300Y228600D03*
D11*
X394970Y241534D03*
X394970Y251226D03*
X379730Y241534D03*
X379730Y251226D03*
D59*
X526796Y80010D03*
X533400Y80010D03*
X540004Y80010D03*
X540004Y100330D03*
X526796Y100330D03*
D27*
X516133Y161544D03*
X526283Y161544D03*
X516260Y186817D03*
X526410Y186817D03*
X211333Y315087D03*
X221483Y315087D03*
X211333Y295275D03*
X221483Y295275D03*
D11*
X375920Y278364D03*
X375920Y288056D03*
D60*
X566420Y115860D03*
X566420Y107660D03*
D61*
X124160Y921230D03*
D62*
X68160Y887730D03*
X142660Y887730D03*
D61*
X111660Y921230D03*
X99160Y921230D03*
X86660Y921230D03*
D41*
X523670Y877970D03*
X518670Y877970D03*
X513670Y877970D03*
X508670Y877970D03*
X503670Y877970D03*
X498670Y877970D03*
X493670Y877970D03*
X488670Y877970D03*
X483670Y877970D03*
X478670Y877970D03*
X473670Y877970D03*
X468670Y877970D03*
X463670Y877970D03*
X458670Y877970D03*
X453670Y877970D03*
X448670Y877970D03*
X443670Y877970D03*
X438670Y877970D03*
X433670Y877970D03*
X428670Y877970D03*
X423670Y877970D03*
X418670Y877970D03*
D42*
X542670Y897220D03*
X399670Y897220D03*
D63*
X193880Y163830D03*
X171880Y154330D03*
X171880Y173330D03*
D59*
X184404Y210820D03*
X177800Y210820D03*
X171196Y210820D03*
X171196Y190500D03*
X184404Y190500D03*
D11*
X199390Y180574D03*
X199390Y190266D03*
D64*
X136779Y441960D03*
X136779Y429260D03*
X136779Y416560D03*
X136779Y403860D03*
X208661Y403860D03*
X208661Y416560D03*
X208661Y429260D03*
X208661Y441960D03*
D11*
X224790Y446806D03*
X224790Y437114D03*
D65*
X62461Y176530D03*
D66*
X46922Y176530D03*
D65*
X532361Y444500D03*
D66*
X516822Y444500D03*
D65*
X529821Y227330D03*
D66*
X514282Y227330D03*
D67*
X248920Y895581D03*
D68*
X248920Y880042D03*
D65*
X62461Y193040D03*
D66*
X46922Y193040D03*
D69*
X103790Y427780D03*
D70*
X96040Y438780D03*
X96040Y231780D03*
D69*
X103790Y422780D03*
X103790Y417780D03*
X103790Y412780D03*
X103790Y407780D03*
X103790Y402780D03*
X103790Y397780D03*
X103790Y392780D03*
X103790Y387780D03*
X103790Y382780D03*
X103790Y377780D03*
X103790Y372780D03*
X103790Y367780D03*
X103790Y362780D03*
X103790Y357780D03*
X103790Y352780D03*
X103790Y347780D03*
X103790Y342780D03*
X103790Y337780D03*
X103790Y332780D03*
X103790Y327780D03*
X103790Y322780D03*
X103790Y317780D03*
X103790Y312780D03*
X103790Y307780D03*
X103790Y302780D03*
X103790Y297780D03*
X103790Y292780D03*
X103790Y287780D03*
X103790Y262780D03*
X103790Y257780D03*
X103790Y252780D03*
X103790Y247780D03*
X103790Y242780D03*
X28290Y425280D03*
X28290Y420280D03*
X28290Y415280D03*
X28290Y410280D03*
X28290Y405280D03*
X28290Y400280D03*
X28290Y395280D03*
X28290Y390280D03*
X28290Y385280D03*
X28290Y380280D03*
X28290Y375280D03*
X28290Y370280D03*
X28290Y365280D03*
X28290Y360280D03*
X28290Y355280D03*
X28290Y350280D03*
X28290Y345280D03*
X28290Y340280D03*
X28290Y335280D03*
X28290Y330280D03*
X28290Y325280D03*
X28290Y320280D03*
X28290Y315280D03*
X28290Y310280D03*
X28290Y305280D03*
X28290Y300280D03*
X28290Y295280D03*
X28290Y290280D03*
X28290Y285280D03*
X28290Y260280D03*
X28290Y255280D03*
X28290Y250280D03*
X28290Y245280D03*
D71*
X433040Y441706D03*
X461040Y441706D03*
M02*
