M48
;GenerationSoftware,Autodesk,EAGLE,9.6.2*%
;CreationDate,2024-03-10T23:51:07Z*%
FMAT,2
ICI,OFF
METRIC,TZ,000.000
T10C0.300
T9C0.350
T8C0.400
T7C0.406
T6C0.650
T5C0.900
T4C0.990
T3C1.300
T2C2.500
T1C2.550
%
G90
M71
T1
X62822Y80319
X62822Y47319
X14822Y47319
X14822Y80319
T2
X63611Y8572
X4302Y8572
X4302Y100901
X63611Y100901
T3
X62709Y86183
X62709Y93193
X5160Y57835
X5160Y50825
X5091Y74765
X5091Y67755
T4
X65199Y91938
X65199Y87438
X2670Y52080
X2670Y56580
X2601Y69010
X2601Y73510
T5
X51710Y6322
X54710Y6322
T6
X6487Y18818
X6487Y13038
T7
X10135Y18059
X52883Y20422
X52959Y15773
X47701Y6020
X14935Y13487
T8
X53434Y35658
X52534Y36558
X54334Y36558
X54334Y34758
X52534Y34758
T9
X29945Y34424
X32309Y37186
X44008Y96247
X45491Y90526
X55245Y23622
X48587Y23343
X12954Y83439
X4039Y94689
T10
X20041Y10668
X21107Y9144
X9525Y19583
X10439Y9906
X14859Y7468
X18898Y17374
X12268Y21946
X15773Y17602
X19507Y14326
X14554Y10287
X23470Y26746
X21869Y28423
X20498Y26060
X18288Y27432
X17221Y26441
X17526Y21565
X14707Y25679
X3200Y25146
X5029Y24384
X15088Y33376
X14935Y34747
X13716Y33299
X14859Y40081
X13716Y38176
X17374Y34595
X17297Y37719
X9373Y41681
X6477Y41681
X3658Y45263
X6248Y47854
X9525Y50521
X6934Y53645
X10135Y56921
X5258Y53950
X7087Y56845
X4877Y59741
X19888Y55245
X23927Y55245
X27432Y54788
X27127Y49378
X28042Y46939
X19812Y47854
X37567Y53950
X39243Y55778
X35204Y55931
X38329Y60731
X34290Y61112
X25984Y61036
X30480Y56769
X45415Y55016
X44501Y52959
X47625Y57226
X52045Y53340
X54254Y51816
X57607Y45415
X53950Y45872
X47854Y46634
X56769Y42215
X60960Y42672
X65227Y43205
X36271Y71171
X41072Y74371
X45034Y72390
X48692Y71018
X48692Y66827
X51816Y66599
X53645Y69113
X60046Y68275
X58217Y61798
X53950Y60884
X50216Y61570
X58522Y57912
X30328Y67818
X30099Y70942
X24384Y69571
X23012Y66446
X20803Y69875
X20422Y75209
X18212Y75514
X10287Y71476
X6401Y71628
X4877Y71780
X2591Y76429
X6172Y77572
X6172Y93269
X6248Y95098
X6248Y98146
X10135Y85268
X12268Y85344
X14707Y85344
X17297Y85344
X19660Y85420
X21717Y85420
X23851Y85420
X25679Y87173
X25603Y89154
X25603Y91059
X25679Y92812
X25679Y94564
X25756Y96164
X25756Y98069
X25756Y99822
X25679Y101651
X25603Y103327
X31928Y101879
X34671Y101727
X35204Y98984
X32385Y93497
X32156Y97536
X32080Y91592
X36500Y89078
X40081Y90297
X39853Y93421
X41453Y99136
X49225Y76810
X51892Y77648
X38100Y77343
X35509Y77648
X58826Y75819
X63246Y75667
X64999Y89611
X62484Y91059
X65227Y94336
X50673Y86563
X51359Y89992
X51130Y93116
X51892Y95631
X49987Y97917
X48311Y99670
X46482Y100432
X36043Y104242
X32080Y104318
X25222Y33223
X29337Y38252
X35738Y42215
X35433Y40462
X36881Y12040
X30632Y14326
X28880Y14097
X9754Y25832
X7468Y34900
X9068Y32537
X40919Y29718
X40996Y30785
X40310Y31852
X40386Y33528
X40386Y34976
X41224Y36195
X42139Y37033
X45263Y41224
X32080Y30785
X32766Y26137
X28423Y27813
X37490Y31699
X46177Y98222
X41834Y96241
X27661Y43739
X25832Y43891
X4267Y31852
X27813Y37186
X37719Y47320
X8306Y85268
X6477Y85268
X6325Y89002
X6172Y90830
X9144Y38786
X13030Y35662
X41072Y41224
X40462Y39091
X26746Y42824
X47015Y44348
X47701Y43663
X48387Y44348
X51511Y40234
X51283Y39167
X49378Y37109
X53340Y12878
X56617Y36043
X55169Y38405
X54178Y40967
X23927Y18364
X24079Y19888
X26746Y21184
X28118Y21107
X29489Y21107
X24308Y47396
X11811Y65151
X44272Y21946
X47930Y49606
X59436Y27356
X9830Y24689
X38557Y31471
X38814Y28118
X7163Y61189
X7544Y58445
X23774Y58598
X30023Y58445
X35814Y58522
X41300Y58445
X43739Y58369
X48214Y53437
X40767Y83591
X36271Y85573
X28956Y88621
X23698Y75438
X31166Y21184
X40650Y87287
X41531Y89611
X24917Y29718
X31651Y77191
X26594Y32537
X32510Y77191
X36667Y9525
X40310Y50140
X35808Y9525
X36693Y50099
X34949Y9525
X37262Y49454
X34091Y9525
X38262Y44214
X32239Y11978
X30328Y9982
X46711Y11278
X40005Y18136
X32373Y9525
X37270Y46550
X33232Y9525
X38710Y47168
X20038Y29106
X29642Y24307
X39091Y23851
X39395Y32461
X42824Y38786
X42997Y50673
X43053Y93574
X43739Y102260
X65380Y31318
X57833Y48537
X15316Y73589
X30251Y73589
X33604Y73589
X41300Y71552
X42997Y70256
X19431Y28499
X29642Y23448
X39698Y23243
X40254Y28880
X42370Y39774
X42139Y49606
X42446Y94181
X41758Y102260
X64772Y31925
X57226Y47930
X15316Y74447
X30251Y74447
X33604Y74447
X63170Y15164
X63627Y24536
X62455Y31271
X64625Y21565
X63551Y38786
X59207Y20803
X60808Y18898
X48997Y20269
X49073Y15926
X32614Y21184
X36347Y24994
X46101Y21641
X42139Y21107
X25451Y21717
X19355Y21793
X19355Y23774
X19888Y27203
X62138Y38778
X57596Y31535
X52502Y14935
X50855Y16971
X47974Y18621
X16002Y62789
X30632Y62865
X37338Y62789
X41224Y62713
X44196Y62713
X50368Y46406
X39014Y96622
X41148Y100508
X48235Y93574
X37351Y81077
X41072Y77419
X46177Y77953
X46939Y94107
X44153Y85692
X49073Y95402
X44760Y85085
X48387Y96317
X50063Y95402
X49769Y83744
X49769Y81229
X48910Y83744
X48910Y81229
X50597Y96164
X36493Y81077
X41072Y76560
X46784Y77345
X39305Y9968
X44196Y10211
X44958Y11083
X45110Y8458
X7239Y32233
X6704Y28497
X3658Y75743
X7468Y44653
X4267Y35814
X2743Y27051
X10668Y30634
X30480Y47015
X35433Y47216
X36411Y46408
X11582Y28329
X30142Y43544
X11049Y29710
X10670Y28501
X31346Y46558
X8456Y24613
X5410Y79629
X10668Y27634
X31001Y43294
X3810Y30861
X22327Y12116
X5486Y31928
X14783Y23851
X37109Y21107
X40310Y19660
X12192Y27051
X15088Y26899
X14478Y98755
X7533Y88179
X36576Y40615
X36652Y35204
X40496Y37849
X43586Y40538
X4343Y37795
X32307Y27203
X30861Y29465
X34290Y50978
X32931Y29470
X37795Y27127
X59055Y8687
X10820Y53188
X12573Y43358
X58966Y86614
X39700Y75438
X35966Y75438
X14402Y76048
X10516Y75438
X27404Y28423
X33147Y34063
X27356Y30785
X32233Y34138
X33331Y37078
X31318Y34138
X41834Y17983
X42748Y19964
X27051Y34976
X30378Y39294
X27404Y32133
X29609Y33376
X30709Y26137
X23089Y28270
X34214Y36424
X33826Y33490
X33376Y50521
X34519Y37262
X37018Y28834
X36352Y27730
X60579Y82525
X46253Y25451
X36352Y26632
X37186Y24613
X41529Y24079
X43614Y24613
X44370Y94258
X43739Y89535
X40081Y88773
X38176Y85954
X41529Y85954
X40229Y94793
X45339Y91821
X46253Y95631
X44348Y100355
X43779Y97155
X45034Y28042
X45796Y26899
X48311Y26441
X45339Y23698
X51130Y20117
X47092Y22479
X46634Y20117
X47473Y17602
X47320Y16002
X48463Y14554
X44806Y6172
X46253Y7544
X48844Y6325
X49149Y8534
X60274Y6401
X60655Y9982
X59588Y13030
X56540Y12954
X55093Y16993
X62484Y16916
X64999Y14402
X64999Y16993
X62789Y21184
X65608Y25984
X65608Y30175
X62255Y28042
X65608Y28042
X60427Y25984
X57760Y22327
X25984Y22708
M30